<?xml version="1.0" standalone="yes"?><svg version="1.1" xmlns = 'http://www.w3.org/2000/svg'><defs><font id='web' horiz-adv-x="1000">
<font-face font-family="web" descent="-420" cap-height="1507" units-per-em="2048" bbox="-274,-457,3522,2050" x-height="993" ascent="1628" />
<missing-glyph horiz-adv-x="584" d="" /><glyph horiz-adv-x="1255" d="M 578 -23 C 456 -23 355 -15 275 0 C 195 14 134 42 92 82 C 49 122 23 176 14 246 C 4 315 9 404 29 514 C 47 616 67 699 91 764 C 115 829 142 880 173 918 C 203 955 238 981 276 995 C 314 1009 355 1016 401 1016 C 421 1016 448 1014 481 1010 C 513 1006 549 1001 587 993 C 625 985 664 974 704 962 C 744 950 781 935 815 918 C 817 968 816 1016 814 1062 C 811 1108 806 1154 799 1200 C 792 1246 783 1291 773 1337 C 763 1383 751 1430 739 1479 L 1124 1548 C 1137 1497 1149 1437 1161 1369 C 1173 1301 1181 1228 1187 1150 C 1193 1072 1195 991 1193 909 C 1191 826 1183 745 1169 666 C 1151 563 1132 475 1112 401 C 1092 327 1071 265 1047 214 C 1023 162 997 121 968 90 C 938 59 905 35 867 19 C 829 2 787 -8 739 -14 C 691 -20 638 -23 578 -23 Z M 580 260 C 602 260 622 261 638 264 C 654 267 667 273 679 283 C 690 292 700 305 708 322 C 716 339 723 362 730 390 C 737 418 744 452 752 492 C 759 532 768 581 778 637 C 745 652 711 664 677 672 C 643 680 608 684 573 684 C 550 684 530 682 513 678 C 496 674 481 665 469 653 C 457 641 446 623 437 599 C 428 575 420 544 414 506 C 404 451 399 407 399 375 C 399 342 405 317 417 300 C 429 283 449 272 475 267 C 501 262 536 260 580 260 Z" unicode="∂" />
<glyph horiz-adv-x="1350" d="M 94 1042 L 303 1042 C 327 1122 356 1192 390 1252 C 424 1312 465 1363 515 1404 C 565 1444 624 1475 692 1495 C 760 1515 841 1526 934 1526 C 976 1526 1019 1524 1063 1521 C 1107 1517 1149 1513 1189 1508 C 1229 1503 1266 1498 1300 1492 C 1333 1486 1360 1480 1382 1475 L 1264 1149 C 1232 1153 1201 1157 1170 1161 C 1138 1165 1108 1168 1079 1171 C 1050 1173 1023 1175 997 1177 C 971 1179 948 1180 928 1180 C 900 1180 874 1178 852 1175 C 830 1171 809 1165 791 1155 C 772 1145 755 1132 740 1114 C 724 1096 710 1072 698 1042 L 1065 1042 L 1022 807 L 639 807 C 636 789 634 775 632 763 C 630 751 629 741 628 733 C 626 725 625 718 624 712 C 622 706 621 700 621 694 L 1004 694 L 961 459 L 616 459 C 622 431 631 407 643 389 C 655 370 671 355 691 344 C 711 333 734 325 761 321 C 788 317 819 315 854 315 C 879 315 904 315 929 317 C 953 319 976 321 998 324 C 1020 326 1039 329 1057 332 C 1075 335 1090 338 1102 342 L 1169 27 C 1133 15 1085 5 1026 -4 C 967 -13 899 -18 823 -18 C 710 -18 615 -7 539 13 C 462 34 400 65 352 106 C 304 146 270 196 248 256 C 226 315 215 383 213 459 L -10 459 L 33 694 L 231 694 C 233 711 236 729 240 749 C 243 768 246 787 248 807 L 51 807 L 94 1042 Z" unicode="€" />
<glyph horiz-adv-x="1604" d="M 119 1507 L 1485 1507 L 1485 0 L 1081 0 L 1081 1141 L 520 1141 L 520 0 L 119 0 L 119 1507 Z" unicode="∏" />
<glyph horiz-adv-x="758" d="M 82 745 L 678 745 L 627 455 L 31 455 L 82 745 Z" unicode="‐" />
<glyph horiz-adv-x="1393" d="M 72 -74 L 641 549 L 88 1161 L 88 1507 L 1317 1507 L 1317 1161 L 582 1161 L 1018 684 L 1018 418 L 573 -74 L 1335 -74 L 1335 -410 L 72 -410 L 72 -74 Z" unicode="∑" />
<glyph horiz-adv-x="1112" d="M 100 842 L 1044 842 L 997 565 L 53 565 L 100 842 Z" unicode="−" />
<glyph horiz-adv-x="1051" d="M 82 745 L 969 745 L 866 455 L -20 455 L 82 745 Z" unicode="–" />
<glyph horiz-adv-x="1614" d="M 82 745 L 1534 745 L 1483 455 L 31 455 L 82 745 Z" unicode="—" />
<glyph horiz-adv-x="868" d="M 662 1507 L 1004 1507 L 211 0 L -131 0 L 662 1507 Z" unicode="∕" />
<glyph horiz-adv-x="786" d="M 618 1599 L 776 1507 L 575 971 L 160 971 L 618 1599 Z" unicode="‘" />
<glyph horiz-adv-x="786" d="M 186 971 L 387 1507 L 803 1507 L 344 879 L 186 971 Z" unicode="’" />
<glyph horiz-adv-x="786" d="M -12 -147 L 190 389 L 606 389 L 145 -240 L -12 -147 Z" unicode="‚" />
<glyph horiz-adv-x="1257" d="M 618 1599 L 756 1507 L 555 971 L 160 971 L 618 1599 Z M 1110 1599 L 1247 1507 L 1047 971 L 651 971 L 1110 1599 Z" unicode="“" />
<glyph horiz-adv-x="1257" d="M 186 971 L 387 1507 L 782 1507 L 324 879 L 186 971 Z M 678 971 L 879 1507 L 1274 1507 L 815 879 L 678 971 Z" unicode="”" />
<glyph horiz-adv-x="1257" d="M -12 -147 L 190 389 L 586 389 L 125 -240 L -12 -147 Z M 479 -147 L 682 389 L 1077 389 L 616 -240 L 479 -147 Z" unicode="„" />
<glyph horiz-adv-x="584" d="" unicode=" " />
<glyph horiz-adv-x="799" d="M 115 369 L 551 369 L 485 0 L 49 0 L 115 369 Z M 285 1507 L 784 1507 L 514 473 L 188 473 L 285 1507 Z" unicode="!" />
<glyph horiz-adv-x="1112" d="M 209 1507 L 657 1507 L 487 924 L 172 924 L 209 1507 Z M 727 1507 L 1174 1507 L 1006 924 L 690 924 L 727 1507 Z" unicode="&#x22;" />
<glyph horiz-adv-x="1380" d="M 164 377 L 8 377 L 57 653 L 260 653 L 330 854 L 94 854 L 141 1130 L 424 1130 L 567 1548 L 858 1548 L 715 1130 L 924 1130 L 1067 1548 L 1358 1548 L 1214 1130 L 1372 1130 L 1325 854 L 1120 854 L 1051 653 L 1288 653 L 1239 377 L 954 377 L 811 -41 L 520 -41 L 664 377 L 455 377 L 311 -41 L 20 -41 L 164 377 Z M 770 637 L 848 870 L 610 870 L 532 637 L 770 637 Z" unicode="#" />
<glyph horiz-adv-x="1253" d="M 348 -16 C 251 -8 169 1 101 15 C 33 29 -16 41 -49 53 L 76 385 C 90 380 115 374 152 366 C 188 358 230 350 278 342 C 326 334 376 327 430 321 C 484 315 535 313 584 313 C 616 313 642 314 661 317 C 679 320 694 326 704 335 C 714 343 722 355 727 371 C 731 386 736 406 741 432 C 745 453 746 471 746 486 C 745 500 738 513 725 525 C 712 537 691 548 661 559 C 631 570 589 583 535 598 C 467 616 408 635 358 653 C 308 671 267 690 234 710 C 201 730 175 753 156 779 C 137 804 124 834 117 868 C 110 902 108 941 111 985 C 114 1029 121 1080 131 1139 C 143 1205 161 1263 185 1311 C 209 1359 240 1398 280 1429 C 320 1460 368 1483 424 1499 C 480 1514 545 1523 621 1526 L 651 1700 L 965 1700 L 932 1516 C 964 1512 993 1508 1021 1504 C 1049 1499 1075 1494 1100 1489 C 1124 1483 1148 1477 1171 1471 C 1193 1464 1216 1457 1239 1450 L 1116 1122 C 1086 1130 1050 1138 1010 1146 C 970 1154 928 1161 886 1167 C 843 1173 801 1177 760 1181 C 719 1184 683 1186 651 1186 C 627 1186 608 1184 593 1182 C 578 1179 566 1174 556 1167 C 546 1159 539 1149 534 1135 C 528 1121 524 1103 520 1081 C 516 1058 514 1039 514 1025 C 514 1011 520 998 532 987 C 544 976 563 966 589 956 C 615 946 653 935 702 922 C 776 902 839 883 893 866 C 946 849 991 831 1027 813 C 1063 794 1091 773 1111 751 C 1131 728 1145 701 1153 669 C 1161 637 1163 599 1161 555 C 1158 511 1151 459 1141 399 C 1128 327 1111 266 1090 215 C 1068 163 1039 121 1003 87 C 967 53 921 28 866 10 C 810 -7 742 -18 662 -23 L 627 -219 L 313 -219 L 348 -16 Z" unicode="$" />
<glyph horiz-adv-x="2554" d="M 578 754 C 602 754 623 756 640 761 C 656 765 670 775 682 790 C 694 805 704 827 712 855 C 720 883 729 921 737 969 L 752 1042 C 760 1089 764 1128 765 1158 C 765 1188 761 1211 751 1229 C 741 1246 726 1258 705 1264 C 683 1270 654 1274 618 1274 C 594 1274 573 1272 557 1268 C 541 1264 527 1256 516 1242 C 504 1228 494 1207 486 1180 C 477 1152 469 1115 461 1069 L 449 995 C 440 947 435 908 434 878 C 432 847 436 822 446 804 C 455 785 470 772 492 765 C 513 757 542 754 578 754 Z M 1937 221 C 1961 221 1982 223 1999 228 C 2015 232 2029 242 2041 258 C 2053 273 2063 295 2072 323 C 2080 351 2089 388 2097 436 L 2111 510 C 2119 556 2123 595 2124 625 C 2125 655 2121 678 2111 696 C 2101 713 2086 725 2065 731 C 2043 737 2014 741 1978 741 C 1954 741 1933 739 1917 735 C 1901 731 1887 723 1875 709 C 1863 695 1853 675 1845 648 C 1837 620 1829 583 1821 537 L 1808 463 C 1799 415 1794 376 1793 345 C 1792 314 1796 289 1806 271 C 1815 252 1830 239 1851 232 C 1872 224 1901 221 1937 221 Z M 586 506 C 486 506 402 514 334 532 C 266 550 212 580 174 622 C 135 664 111 721 101 792 C 91 863 96 952 115 1059 C 127 1130 143 1191 161 1242 C 179 1292 201 1335 225 1370 C 249 1405 275 1433 304 1454 C 333 1475 365 1491 399 1502 C 433 1513 469 1520 507 1524 C 545 1528 585 1530 627 1530 C 723 1530 804 1521 870 1504 C 936 1486 987 1456 1025 1414 C 1063 1372 1086 1315 1095 1245 C 1104 1174 1099 1085 1081 979 C 1068 907 1053 846 1035 796 C 1017 745 996 702 972 667 C 948 631 923 603 895 582 C 867 561 836 545 804 534 C 771 522 736 515 700 511 C 664 507 626 506 586 506 Z M 1946 -27 C 1846 -27 1762 -18 1694 0 C 1626 17 1572 47 1534 89 C 1495 131 1471 188 1461 259 C 1451 330 1456 419 1475 526 C 1487 596 1503 657 1521 708 C 1539 759 1561 802 1585 837 C 1609 872 1635 900 1664 921 C 1693 942 1725 958 1759 969 C 1793 980 1829 987 1867 991 C 1905 995 1945 997 1987 997 C 2083 997 2164 988 2230 971 C 2296 953 2347 923 2385 881 C 2423 839 2446 782 2455 712 C 2464 641 2459 552 2441 446 C 2428 375 2412 314 2394 263 C 2376 212 2355 169 2332 134 C 2308 98 2282 70 2254 49 C 2226 28 2195 12 2163 1 C 2131 -10 2096 -17 2060 -21 C 2024 -25 1986 -27 1946 -27 Z M 1505 1507 L 1847 1507 L 1055 0 L 713 0 L 1505 1507 Z" unicode="%" />
<glyph horiz-adv-x="1649" d="M 625 -20 C 547 -20 477 -17 415 -12 C 353 -6 298 3 251 17 C 203 31 163 51 131 76 C 99 100 74 132 57 171 C 40 209 30 256 28 311 C 26 365 31 430 45 504 C 53 553 66 597 84 637 C 101 677 125 712 155 743 C 185 773 222 800 266 822 C 310 844 364 863 428 879 C 400 927 380 974 367 1021 C 353 1067 352 1117 362 1171 C 376 1253 396 1318 421 1366 C 446 1414 478 1450 517 1475 C 556 1499 603 1515 657 1522 C 711 1528 774 1532 846 1532 C 898 1532 951 1529 1004 1523 C 1056 1517 1105 1511 1151 1503 C 1196 1495 1236 1486 1271 1477 C 1306 1467 1332 1459 1350 1452 L 1219 1133 C 1197 1139 1168 1146 1133 1154 C 1098 1161 1062 1167 1025 1173 C 988 1178 953 1182 919 1186 C 885 1190 858 1192 838 1192 C 819 1192 803 1191 791 1189 C 779 1187 769 1184 761 1180 C 753 1175 746 1168 742 1160 C 738 1151 735 1140 733 1126 C 729 1107 728 1091 730 1078 C 732 1064 736 1050 744 1036 C 752 1021 762 1004 776 986 C 790 967 807 943 829 913 L 981 698 L 1141 928 L 1518 928 L 1169 432 L 1477 0 L 1044 0 L 952 129 C 928 99 906 74 884 55 C 862 35 839 20 814 9 C 789 -1 761 -9 731 -13 C 701 -17 665 -20 625 -20 Z M 600 291 C 620 291 637 292 652 295 C 666 298 680 303 692 311 C 704 319 716 329 728 342 C 739 355 752 371 766 391 L 575 659 C 541 651 515 644 495 636 C 475 628 459 617 448 604 C 436 591 428 575 422 556 C 416 537 410 513 406 485 C 398 441 396 407 400 381 C 404 355 415 336 431 323 C 447 309 469 301 497 297 C 525 293 559 291 600 291 Z" unicode="&#x26;" />
<glyph horiz-adv-x="596" d="M 209 1507 L 657 1507 L 487 924 L 172 924 L 209 1507 Z" unicode="'" />
<glyph horiz-adv-x="872" d="M 610 -328 C 510 -328 423 -322 349 -310 C 275 -298 214 -278 164 -250 C 114 -221 75 -182 47 -134 C 19 -86 1 -25 -6 47 C -14 119 -14 206 -5 306 C 3 406 19 522 43 655 C 66 787 90 901 116 997 C 141 1093 170 1174 203 1240 C 236 1306 274 1359 318 1399 C 361 1439 412 1471 471 1493 C 529 1515 597 1529 674 1537 C 750 1544 839 1548 940 1548 L 885 1233 C 823 1233 769 1231 725 1227 C 680 1223 642 1215 610 1201 C 578 1187 552 1168 531 1142 C 509 1116 490 1080 474 1035 C 457 990 442 934 428 868 C 414 801 399 721 383 627 C 366 533 353 452 343 384 C 333 316 328 258 328 210 C 328 162 334 123 346 93 C 358 63 377 39 403 23 C 429 6 464 -5 507 -11 C 549 -17 602 -20 664 -20 L 610 -328 Z" unicode="(" />
<glyph horiz-adv-x="872" d="M -63 -20 C -1 -20 52 -18 96 -14 C 140 -10 178 -2 210 11 C 241 24 267 44 289 70 C 311 96 330 132 346 177 C 362 222 378 278 392 344 C 406 410 421 491 438 586 C 454 679 467 760 477 828 C 487 896 492 955 492 1003 C 492 1051 486 1090 474 1120 C 462 1150 444 1173 418 1190 C 392 1206 357 1218 315 1224 C 272 1230 220 1233 158 1233 L 211 1548 C 311 1548 397 1542 471 1530 C 545 1518 607 1498 657 1470 C 707 1441 745 1402 773 1354 C 801 1306 819 1245 828 1173 C 836 1100 836 1014 827 914 C 817 814 801 697 778 565 C 754 433 730 319 705 223 C 679 127 650 46 617 -19 C 584 -85 546 -139 503 -179 C 459 -219 408 -251 350 -273 C 291 -295 223 -309 146 -317 C 69 -324 -19 -328 -119 -328 L -63 -20 Z" unicode=")" />
<glyph horiz-adv-x="1202" d="M 500 799 L 176 647 L 90 899 L 428 1006 L 150 1221 L 317 1432 L 567 1178 L 608 1546 L 860 1501 L 774 1141 L 1098 1292 L 1184 1038 L 846 932 L 1128 717 L 961 508 L 711 760 L 664 395 L 412 440 L 500 799 Z" unicode="*" />
<glyph horiz-adv-x="1112" d="M 383 565 L 53 565 L 100 842 L 430 842 L 489 1176 L 774 1176 L 715 842 L 1044 842 L 997 565 L 668 565 L 608 231 L 324 231 L 383 565 Z" unicode="+" />
<glyph horiz-adv-x="758" d="M -35 -176 L 131 389 L 596 389 L 141 -279 L -35 -176 Z" unicode="," />
<glyph horiz-adv-x="758" d="M 82 745 L 678 745 L 627 455 L 31 455 L 82 745 Z" unicode="-" />
<glyph horiz-adv-x="758" d="M 86 389 L 547 389 L 477 0 L 16 0 L 86 389 Z" unicode="." />
<glyph horiz-adv-x="870" d="M 655 1507 L 1016 1507 L 219 0 L -141 0 L 655 1507 Z" unicode="/" />
<glyph horiz-adv-x="1434" d="M 674 307 C 718 307 755 311 785 320 C 814 328 839 345 859 370 C 879 395 896 430 910 475 C 924 520 937 579 950 651 L 979 815 C 991 887 998 947 1000 995 C 1002 1043 995 1082 979 1111 C 963 1140 936 1161 900 1173 C 863 1185 812 1192 748 1192 C 706 1192 672 1188 645 1181 C 617 1173 594 1158 575 1134 C 556 1110 540 1077 526 1033 C 512 989 499 932 487 860 L 459 696 C 446 624 439 563 437 513 C 435 463 441 423 456 393 C 470 363 495 341 530 327 C 564 313 612 307 674 307 Z M 643 -25 C 505 -25 393 -9 306 21 C 219 51 154 100 110 167 C 66 233 41 319 37 425 C 32 531 43 659 70 809 C 87 909 107 996 131 1071 C 154 1145 180 1209 210 1263 C 240 1316 273 1360 311 1395 C 349 1430 391 1458 438 1478 C 485 1498 537 1512 594 1520 C 650 1528 713 1532 782 1532 C 922 1532 1036 1517 1125 1488 C 1213 1458 1280 1411 1325 1345 C 1370 1279 1395 1194 1400 1090 C 1405 986 1394 859 1368 709 C 1350 609 1330 521 1307 446 C 1284 371 1258 306 1228 252 C 1198 197 1163 152 1125 117 C 1087 81 1044 53 996 32 C 948 10 894 -4 836 -12 C 778 -20 713 -25 643 -25 Z" unicode="0" />
<glyph horiz-adv-x="770" d="M 317 1182 L 109 1182 L 166 1507 L 776 1507 L 510 0 L 109 0 L 317 1182 Z" unicode="1" />
<glyph horiz-adv-x="1264" d="M -12 295 L 524 657 C 567 687 603 712 633 734 C 663 755 687 774 707 792 C 726 809 741 825 752 840 C 763 855 772 871 779 887 C 785 903 790 922 794 942 C 798 962 802 986 807 1014 C 811 1044 813 1069 812 1091 C 811 1113 803 1131 787 1145 C 771 1159 746 1169 712 1176 C 677 1182 629 1186 567 1186 C 551 1186 531 1185 505 1183 C 479 1181 451 1178 421 1174 C 391 1170 360 1166 329 1161 C 298 1155 270 1149 246 1143 L 164 1479 C 217 1492 286 1504 370 1515 C 454 1526 549 1532 653 1532 C 740 1532 815 1528 879 1520 C 943 1512 997 1499 1041 1482 C 1085 1464 1119 1442 1145 1415 C 1171 1387 1189 1354 1200 1316 C 1211 1277 1216 1232 1214 1182 C 1212 1131 1205 1074 1194 1010 C 1186 968 1179 931 1171 898 C 1163 865 1154 835 1142 807 C 1130 779 1116 752 1099 728 C 1081 703 1060 678 1034 653 C 1008 627 978 601 942 574 C 906 546 864 516 815 483 L 563 315 L 1108 315 L 1053 0 L -63 0 L -12 295 Z" unicode="2" />
<glyph horiz-adv-x="1260" d="M -4 299 C 113 301 212 302 292 303 C 372 304 438 306 492 310 C 545 313 587 318 619 326 C 650 334 676 346 696 362 C 716 377 731 397 739 423 C 747 449 754 475 760 502 C 762 513 763 524 764 536 C 764 547 764 558 762 569 C 760 580 756 590 750 600 C 744 610 737 619 727 627 C 713 637 696 646 674 654 C 652 662 628 669 600 676 C 572 682 543 688 511 693 C 479 698 447 703 414 707 L 455 940 L 735 1163 L 141 1163 L 203 1507 L 1214 1507 L 1155 1167 L 838 911 C 903 893 957 873 1001 851 C 1045 829 1079 800 1103 766 C 1127 731 1141 688 1146 637 C 1150 586 1147 523 1135 449 C 1125 391 1113 339 1097 293 C 1081 247 1058 205 1028 168 C 1006 140 981 117 952 97 C 922 77 887 59 846 45 C 805 31 757 19 703 10 C 648 1 585 -5 513 -11 C 441 -16 360 -20 269 -22 C 178 -24 76 -26 -37 -27 L -4 299 Z" unicode="3" />
<glyph horiz-adv-x="1391" d="M 682 246 L -33 246 L 31 602 L 762 1507 L 1169 1507 L 414 565 L 750 565 L 821 975 L 1194 975 L 1122 565 L 1286 565 L 1229 246 L 1065 246 L 1022 0 L 639 0 L 682 246 Z" unicode="4" />
<glyph horiz-adv-x="1315" d="M 57 299 C 172 299 269 300 349 301 C 429 301 495 303 549 307 C 603 311 646 317 678 325 C 710 333 736 346 756 362 C 766 370 774 379 782 390 C 789 400 795 412 800 424 C 805 436 809 449 812 463 C 815 477 818 490 821 504 C 823 515 824 526 825 538 C 825 549 825 560 823 571 C 821 581 817 591 811 601 C 805 610 798 619 788 627 C 760 647 692 669 583 691 C 474 713 320 729 121 741 L 279 1507 L 1278 1507 L 1217 1161 L 545 1161 L 514 1026 C 612 1013 697 999 769 983 C 841 967 903 950 955 931 C 1006 912 1048 892 1081 870 C 1114 848 1141 824 1161 799 C 1177 777 1189 753 1197 726 C 1205 699 1209 670 1211 640 C 1212 609 1211 577 1208 545 C 1205 512 1201 480 1196 449 C 1186 391 1173 339 1158 293 C 1142 247 1120 205 1090 168 C 1058 126 1015 93 962 68 C 908 42 840 23 756 9 C 672 -5 570 -14 451 -19 C 331 -24 189 -27 25 -27 L 57 299 Z" unicode="5" />
<glyph horiz-adv-x="1362" d="M 657 -23 C 543 -23 447 -14 371 4 C 295 22 233 47 185 80 C 137 113 102 153 80 199 C 58 245 43 296 37 352 C 31 408 31 468 37 532 C 43 596 51 662 61 731 L 80 856 C 86 900 94 947 104 996 C 114 1044 128 1092 147 1139 C 165 1185 190 1230 220 1272 C 250 1314 290 1352 338 1384 C 374 1408 416 1428 466 1444 C 515 1460 576 1473 648 1484 C 720 1495 805 1504 904 1512 C 1002 1520 1119 1527 1255 1534 L 1239 1208 C 1155 1202 1082 1197 1019 1193 C 956 1188 901 1183 854 1178 C 806 1172 766 1167 733 1161 C 699 1155 671 1148 648 1142 C 624 1135 605 1128 589 1120 C 573 1112 559 1103 547 1094 C 533 1084 522 1072 513 1058 C 504 1043 497 1027 491 1009 C 485 991 480 972 476 952 C 472 932 468 912 465 893 C 489 895 517 898 548 901 C 578 904 608 907 638 910 C 667 912 694 914 718 916 C 742 917 759 918 770 918 C 845 918 911 915 967 911 C 1023 907 1071 898 1111 886 C 1151 874 1183 856 1207 834 C 1231 811 1249 782 1259 746 C 1269 710 1274 666 1272 615 C 1270 563 1263 502 1251 432 C 1237 354 1217 286 1193 229 C 1169 171 1134 124 1089 87 C 1044 49 987 22 917 4 C 847 -14 761 -23 657 -23 Z M 686 633 C 649 633 617 632 590 632 C 562 631 538 630 517 629 C 496 627 478 626 462 624 C 446 622 432 620 418 618 L 412 575 C 403 523 398 479 397 441 C 395 403 402 371 418 346 C 434 320 460 301 496 289 C 532 276 584 270 651 270 C 685 270 715 272 741 278 C 766 283 787 292 805 306 C 823 319 837 337 848 359 C 858 381 866 408 872 442 C 878 480 883 511 886 536 C 889 560 885 580 875 594 C 864 608 844 618 815 624 C 786 630 743 633 686 633 Z" unicode="6" />
<glyph horiz-adv-x="1298" d="M 903 1161 L 141 1161 L 203 1507 L 1378 1507 L 1315 1153 L 539 0 L 88 0 L 903 1161 Z" unicode="7" />
<glyph horiz-adv-x="1450" d="M 762 -23 C 642 -23 539 -19 453 -11 C 367 -3 294 8 235 25 C 175 42 128 64 94 90 C 59 116 34 147 18 184 C 2 220 -6 262 -6 310 C -6 357 0 411 10 471 C 18 514 27 552 38 584 C 49 616 66 644 88 670 C 110 695 141 718 179 740 C 217 761 268 783 330 805 C 288 828 257 851 235 874 C 213 897 198 922 190 950 C 182 977 179 1008 182 1043 C 185 1078 191 1119 199 1167 C 213 1246 232 1310 257 1358 C 282 1406 315 1442 356 1468 C 397 1494 447 1511 507 1519 C 566 1527 637 1532 721 1532 C 833 1532 928 1527 1008 1519 C 1088 1511 1154 1498 1208 1482 C 1262 1465 1304 1444 1334 1418 C 1364 1392 1386 1362 1399 1328 C 1412 1294 1418 1255 1417 1211 C 1415 1167 1410 1119 1401 1067 C 1395 1034 1387 1004 1377 977 C 1367 950 1353 925 1335 902 C 1317 879 1292 858 1262 838 C 1231 818 1191 798 1143 780 C 1197 749 1239 719 1268 691 C 1296 662 1316 632 1327 600 C 1337 568 1341 532 1338 494 C 1335 455 1329 410 1321 360 C 1307 282 1286 218 1260 168 C 1234 118 1198 79 1154 51 C 1110 23 1055 3 991 -7 C 927 -17 850 -23 762 -23 Z M 571 694 C 533 677 504 662 483 649 C 461 635 445 620 433 603 C 421 586 413 566 407 542 C 401 518 395 488 389 451 C 384 423 385 399 391 379 C 397 359 412 342 436 329 C 460 315 494 305 539 299 C 583 292 642 289 715 289 C 751 289 781 290 806 292 C 831 294 852 300 869 308 C 885 316 898 329 908 345 C 918 361 925 382 930 410 C 935 441 936 466 933 486 C 929 505 918 523 899 539 C 879 555 850 572 811 590 C 771 608 719 631 653 659 L 571 694 Z M 584 1122 C 579 1098 578 1080 581 1066 C 583 1052 592 1039 607 1027 C 621 1015 643 1003 672 991 C 701 979 740 962 788 942 L 895 897 C 922 909 944 921 960 933 C 976 945 988 958 998 972 C 1007 986 1014 1002 1019 1021 C 1023 1039 1028 1062 1034 1090 C 1038 1113 1037 1132 1032 1148 C 1027 1164 1014 1176 993 1186 C 971 1195 940 1202 899 1206 C 858 1210 804 1212 737 1212 C 709 1212 687 1211 669 1211 C 651 1211 637 1208 626 1203 C 614 1197 605 1188 599 1176 C 593 1164 588 1146 584 1122 Z" unicode="8" />
<glyph horiz-adv-x="1362" d="M 127 291 C 210 296 283 301 346 306 C 409 311 464 316 511 322 C 558 327 598 333 632 339 C 665 345 693 351 717 358 C 740 364 760 372 776 380 C 792 388 806 396 819 406 C 831 415 842 427 851 443 C 859 458 867 475 873 494 C 879 512 884 532 888 553 C 892 573 895 594 899 616 C 875 612 847 609 817 607 C 786 604 756 601 727 599 C 698 597 672 595 648 594 C 624 592 606 592 596 592 C 520 592 454 594 398 598 C 342 602 294 611 254 623 C 214 635 182 653 158 675 C 134 697 116 727 106 763 C 96 799 91 842 93 894 C 95 945 102 1006 115 1077 C 129 1155 148 1223 172 1280 C 196 1337 231 1384 276 1422 C 321 1459 378 1487 448 1505 C 518 1523 605 1532 709 1532 C 823 1532 918 1523 994 1505 C 1070 1487 1132 1461 1180 1428 C 1228 1395 1263 1355 1285 1309 C 1307 1263 1322 1212 1328 1156 C 1334 1100 1335 1041 1329 977 C 1323 913 1315 846 1305 778 L 1286 653 C 1279 607 1271 560 1261 512 C 1251 464 1237 416 1219 370 C 1200 323 1175 278 1145 236 C 1115 194 1076 157 1028 125 C 992 101 949 82 900 66 C 850 50 790 36 718 25 C 646 13 560 4 461 -3 C 362 -11 245 -18 111 -25 L 127 291 Z M 680 877 C 716 877 747 877 775 878 C 802 878 826 879 847 881 C 868 882 886 883 902 885 C 918 887 932 889 946 891 L 954 934 C 963 985 968 1029 969 1066 C 970 1103 963 1134 948 1158 C 932 1182 906 1199 870 1211 C 833 1223 781 1229 715 1229 C 679 1229 649 1226 624 1222 C 598 1218 577 1210 560 1198 C 542 1186 528 1169 518 1148 C 507 1127 499 1100 494 1067 C 487 1029 482 997 479 973 C 476 948 480 929 491 915 C 501 901 521 891 550 885 C 579 879 622 877 680 877 Z" unicode="9" />
<glyph horiz-adv-x="748" d="M 86 389 L 537 389 L 467 0 L 16 0 L 86 389 Z M 193 995 L 643 995 L 573 606 L 123 606 L 193 995 Z" unicode=":" />
<glyph horiz-adv-x="748" d="M -35 -176 L 131 389 L 586 389 L 131 -279 L -35 -176 Z M 193 995 L 643 995 L 573 606 L 123 606 L 193 995 Z" unicode=";" />
<glyph horiz-adv-x="889" d="M 35 698 L 545 1171 L 885 1171 L 375 698 L 719 238 L 379 238 L 35 698 Z" unicode="&#x3C;" />
<glyph horiz-adv-x="1073" d="M 162 1028 L 1014 1028 L 969 774 L 117 774 L 162 1028 Z M 90 627 L 942 627 L 897 373 L 45 373 L 90 627 Z" unicode="=" />
<glyph horiz-adv-x="889" d="M 500 711 L 156 1171 L 496 1171 L 840 711 L 330 238 L -10 238 L 500 711 Z" unicode="&#x3E;" />
<glyph horiz-adv-x="1305" d="M 383 764 C 459 790 524 812 578 831 C 632 850 677 867 713 882 C 749 897 777 911 799 923 C 820 935 836 948 848 961 C 859 974 867 988 872 1004 C 877 1019 881 1037 885 1057 C 889 1078 888 1097 884 1114 C 879 1130 867 1144 848 1156 C 828 1168 800 1177 764 1183 C 728 1189 680 1192 621 1192 C 587 1192 552 1190 516 1187 C 480 1183 445 1179 412 1175 C 379 1171 349 1166 323 1161 C 296 1156 276 1152 262 1149 L 188 1485 C 212 1491 240 1498 274 1505 C 307 1511 344 1517 385 1522 C 425 1526 469 1530 516 1533 C 563 1536 612 1538 664 1538 C 761 1538 845 1533 917 1524 C 988 1515 1049 1502 1099 1484 C 1149 1466 1189 1443 1219 1417 C 1249 1390 1271 1359 1285 1324 C 1299 1289 1307 1250 1308 1206 C 1308 1162 1304 1115 1296 1063 C 1284 1001 1268 949 1247 905 C 1225 861 1193 823 1151 789 C 1109 755 1053 725 984 697 C 915 669 827 640 721 610 L 696 473 L 332 473 L 383 764 Z M 272 369 L 709 369 L 643 0 L 207 0 L 272 369 Z" unicode="?" />
<glyph horiz-adv-x="2124" d="M 1030 -406 C 880 -406 751 -398 644 -384 C 536 -369 446 -346 372 -315 C 298 -284 239 -244 195 -196 C 151 -148 117 -90 93 -24 C 69 42 54 119 46 205 C 38 291 35 387 35 494 C 35 600 38 697 46 783 C 54 869 69 945 93 1012 C 117 1079 151 1137 195 1185 C 239 1233 298 1272 372 1304 C 446 1335 536 1358 644 1373 C 751 1387 880 1395 1030 1395 C 1180 1395 1308 1388 1416 1374 C 1523 1360 1613 1338 1687 1308 C 1760 1278 1819 1239 1863 1192 C 1907 1145 1941 1089 1965 1023 C 1989 957 2004 882 2012 797 C 2019 711 2023 615 2023 508 C 2023 450 2020 397 2016 348 C 2012 299 2000 255 1982 215 C 1964 175 1936 140 1899 110 C 1861 80 1810 54 1744 34 C 1678 14 1596 -1 1497 -11 C 1397 -21 1277 -27 1135 -27 L 1110 106 C 1093 94 1071 80 1045 66 C 1019 51 990 37 959 25 C 928 13 896 2 864 -5 C 831 -13 800 -18 772 -18 C 716 -18 667 -13 625 -4 C 583 5 549 21 521 43 C 493 65 473 95 459 133 C 445 171 438 218 438 274 C 438 308 440 345 446 387 C 451 428 459 474 469 524 C 487 618 506 696 526 759 C 546 822 569 873 597 911 C 624 949 657 976 696 992 C 735 1008 784 1016 842 1016 C 868 1016 899 1012 934 1005 C 969 997 1005 988 1041 976 C 1077 964 1112 951 1146 936 C 1180 921 1209 906 1235 891 L 1286 993 L 1626 993 L 1470 195 C 1548 195 1610 201 1656 214 C 1702 227 1736 247 1760 273 C 1783 299 1798 332 1805 372 C 1811 412 1815 458 1815 512 C 1815 606 1812 688 1806 759 C 1800 829 1787 890 1769 942 C 1750 993 1723 1035 1688 1069 C 1653 1103 1606 1130 1548 1150 C 1490 1170 1418 1184 1334 1192 C 1249 1200 1148 1204 1030 1204 C 911 1204 809 1199 725 1190 C 640 1181 569 1166 511 1145 C 453 1124 406 1096 371 1061 C 336 1025 309 981 291 929 C 272 877 260 815 254 744 C 248 672 246 590 246 496 C 246 402 249 319 255 247 C 261 175 273 113 292 61 C 310 8 337 -35 372 -71 C 407 -106 454 -134 512 -156 C 570 -177 641 -192 726 -201 C 810 -210 912 -215 1030 -215 L 1309 -215 L 1309 -406 L 1030 -406 Z M 918 276 C 938 276 958 278 980 284 C 1002 289 1022 296 1042 304 C 1061 312 1078 320 1094 329 C 1109 338 1120 346 1128 354 L 1178 643 C 1162 653 1146 661 1128 669 C 1110 677 1091 683 1072 689 C 1053 694 1034 698 1016 701 C 998 703 981 705 967 705 C 951 705 939 704 929 702 C 919 700 909 693 901 681 C 893 669 885 651 878 625 C 870 599 862 563 852 516 C 844 478 839 447 835 421 C 831 395 829 373 829 356 C 829 338 830 323 834 313 C 838 303 843 295 851 289 C 858 283 867 280 878 278 C 889 276 902 276 918 276 Z" unicode="@" />
<glyph horiz-adv-x="1550" d="M 727 1518 L 1098 1518 L 1399 0 L 983 0 L 948 209 L 414 209 L 305 0 L -111 0 L 727 1518 Z M 895 524 L 819 987 L 578 524 L 895 524 Z" unicode="A" />
<glyph horiz-adv-x="1425" d="M 254 1507 L 819 1507 C 928 1507 1021 1500 1099 1488 C 1176 1475 1238 1453 1284 1423 C 1330 1392 1360 1351 1376 1300 C 1392 1248 1393 1184 1380 1106 C 1369 1046 1355 997 1337 957 C 1319 917 1298 885 1274 860 C 1249 835 1221 816 1191 802 C 1160 788 1126 778 1090 770 C 1123 760 1154 746 1184 730 C 1213 713 1237 690 1257 662 C 1277 633 1290 597 1298 554 C 1305 510 1303 457 1292 395 C 1278 316 1257 251 1229 200 C 1201 149 1166 109 1123 79 C 1080 49 1029 29 970 17 C 911 5 844 0 768 0 L -12 0 L 254 1507 Z M 750 311 C 766 311 781 313 797 317 C 813 321 827 328 840 338 C 853 348 864 363 874 382 C 884 400 891 425 897 455 C 903 487 904 513 901 535 C 897 556 889 573 877 586 C 865 599 848 608 827 614 C 805 620 780 623 750 623 L 496 623 L 440 311 L 750 311 Z M 817 911 C 833 911 848 912 863 915 C 878 917 892 923 905 932 C 918 941 929 954 939 972 C 949 989 957 1012 963 1042 C 967 1072 968 1096 964 1115 C 960 1133 951 1148 938 1159 C 924 1170 906 1178 884 1182 C 862 1186 835 1188 803 1188 L 594 1188 L 545 911 L 817 911 Z" unicode="B" />
<glyph horiz-adv-x="1262" d="M 702 -18 C 564 -18 448 -3 355 24 C 261 52 189 99 137 165 C 85 231 54 317 44 423 C 33 529 42 661 70 817 C 88 921 110 1010 137 1086 C 163 1162 193 1226 227 1278 C 261 1330 298 1373 340 1405 C 381 1437 426 1463 474 1481 C 522 1499 574 1511 630 1517 C 685 1523 743 1526 805 1526 C 853 1526 902 1523 951 1519 C 999 1514 1045 1508 1089 1501 C 1133 1494 1172 1486 1208 1477 C 1244 1468 1273 1460 1296 1452 L 1180 1120 C 1148 1129 1115 1137 1081 1145 C 1047 1152 1013 1158 979 1164 C 945 1169 912 1173 880 1176 C 848 1178 818 1180 791 1180 C 742 1180 701 1174 669 1163 C 637 1151 610 1133 589 1107 C 567 1081 550 1046 537 1003 C 523 959 511 906 500 842 L 479 723 C 471 681 465 642 461 606 C 456 569 454 536 456 506 C 457 476 462 449 472 425 C 481 401 496 381 517 365 C 537 349 564 336 598 328 C 632 319 674 315 725 315 C 749 315 775 316 802 318 C 828 320 854 322 880 326 C 906 330 930 334 952 338 C 974 342 994 346 1012 350 L 1085 27 C 1067 21 1044 16 1016 11 C 988 5 958 0 924 -3 C 890 -7 854 -11 816 -14 C 778 -16 740 -18 702 -18 Z" unicode="C" />
<glyph horiz-adv-x="1481" d="M 674 309 C 728 309 772 315 807 329 C 842 342 871 363 893 393 C 915 423 934 461 948 509 C 962 556 975 614 987 682 L 1004 780 C 1016 848 1023 907 1026 958 C 1028 1009 1021 1052 1004 1086 C 987 1120 958 1145 916 1162 C 874 1179 815 1188 739 1188 L 598 1188 L 444 309 L 674 309 Z M 254 1507 L 752 1507 C 849 1507 936 1502 1012 1493 C 1088 1484 1153 1468 1209 1445 C 1265 1422 1310 1391 1346 1352 C 1382 1312 1408 1262 1425 1202 C 1442 1142 1450 1070 1448 986 C 1446 902 1435 805 1415 694 C 1395 582 1372 488 1346 410 C 1320 332 1290 268 1258 217 C 1225 165 1189 125 1150 96 C 1110 67 1067 45 1020 31 C 972 17 921 8 867 5 C 812 1 753 0 690 0 L -12 0 L 254 1507 Z" unicode="D" />
<glyph horiz-adv-x="1235" d="M 254 1507 L 1292 1507 L 1231 1161 L 594 1161 L 553 930 L 1059 930 L 997 584 L 492 584 L 449 336 L 1085 336 L 1026 0 L -12 0 L 254 1507 Z" unicode="E" />
<glyph horiz-adv-x="1194" d="M 254 1507 L 1292 1507 L 1231 1161 L 594 1161 L 537 838 L 1042 838 L 985 512 L 479 512 L 389 0 L -12 0 L 254 1507 Z" unicode="F" />
<glyph horiz-adv-x="1389" d="M 711 -18 C 571 -18 453 -3 358 24 C 263 52 190 99 138 164 C 86 229 54 315 44 421 C 33 527 42 659 70 815 C 88 919 110 1008 137 1084 C 163 1160 193 1224 227 1277 C 261 1329 298 1372 340 1405 C 382 1437 427 1462 475 1480 C 523 1498 575 1510 631 1516 C 686 1522 745 1526 807 1526 C 871 1526 932 1523 989 1519 C 1046 1514 1098 1508 1146 1501 C 1193 1493 1235 1485 1271 1477 C 1307 1468 1336 1460 1358 1452 L 1241 1122 C 1218 1128 1188 1134 1151 1141 C 1113 1148 1073 1154 1031 1160 C 989 1166 947 1170 905 1174 C 863 1178 827 1180 797 1180 C 747 1180 705 1174 672 1163 C 639 1152 612 1134 590 1108 C 568 1082 550 1047 537 1004 C 523 961 511 908 500 844 L 479 725 C 471 683 465 643 461 606 C 457 569 455 535 457 504 C 459 473 464 445 474 420 C 484 395 499 374 521 357 C 543 339 571 326 606 317 C 641 307 685 303 737 303 C 741 303 748 303 757 303 C 765 303 775 304 785 305 C 795 305 806 306 817 307 C 828 308 838 309 848 311 L 934 807 L 1305 807 L 1169 39 C 1151 33 1126 27 1094 21 C 1062 14 1025 8 985 2 C 945 -3 901 -8 854 -12 C 807 -16 759 -18 711 -18 Z" unicode="G" />
<glyph horiz-adv-x="1563" d="M 254 1507 L 655 1507 L 557 950 L 1077 950 L 1176 1507 L 1579 1507 L 1313 0 L 909 0 L 1012 584 L 492 584 L 389 0 L -12 0 L 254 1507 Z" unicode="H" />
<glyph horiz-adv-x="662" d="M 264 1507 L 668 1507 L 401 0 L -2 0 L 264 1507 Z" unicode="I" />
<glyph horiz-adv-x="1098" d="M 381 -12 C 339 -12 298 -10 256 -6 C 214 -2 172 2 132 8 C 92 14 53 21 16 29 C -20 37 -54 45 -84 55 L 23 395 C 33 391 46 386 64 382 C 81 377 100 372 122 367 C 144 361 166 356 190 351 C 214 346 237 341 260 337 C 283 333 304 329 324 327 C 344 325 361 324 375 324 C 399 324 421 328 440 336 C 459 344 476 357 490 375 C 504 393 517 418 528 449 C 539 480 549 519 557 565 L 723 1507 L 1124 1507 L 946 502 C 932 423 915 356 895 300 C 875 244 853 197 828 159 C 803 121 775 90 744 68 C 712 45 678 28 641 16 C 604 4 564 -2 521 -6 C 477 -10 431 -12 381 -12 Z" unicode="J" />
<glyph horiz-adv-x="1499" d="M 549 610 L 492 557 L 393 0 L -12 0 L 254 1507 L 659 1507 L 580 1053 L 1071 1507 L 1528 1507 L 848 885 L 1307 0 L 866 0 L 549 610 Z" unicode="K" />
<glyph horiz-adv-x="1194" d="M 254 1507 L 655 1507 L 449 336 L 1085 336 L 1026 0 L -12 0 L 254 1507 Z" unicode="L" />
<glyph horiz-adv-x="1808" d="M 254 1507 L 756 1507 L 868 543 L 1323 1507 L 1825 1507 L 1559 0 L 1176 0 L 1333 899 L 913 0 L 602 0 L 498 899 L 340 0 L -12 0 L 254 1507 Z" unicode="M" />
<glyph horiz-adv-x="1542" d="M 254 1507 L 657 1507 L 1036 729 L 1174 1507 L 1559 1507 L 1292 0 L 952 0 L 528 879 L 373 0 L -12 0 L 254 1507 Z" unicode="N" />
<glyph horiz-adv-x="1577" d="M 754 307 C 806 307 851 312 887 323 C 923 334 953 353 977 381 C 1001 408 1022 445 1038 491 C 1054 537 1068 596 1081 668 L 1102 786 C 1114 857 1121 918 1121 969 C 1121 1020 1112 1062 1092 1095 C 1072 1128 1041 1152 999 1168 C 956 1184 898 1192 825 1192 C 773 1192 729 1187 693 1177 C 657 1167 627 1149 603 1123 C 579 1097 559 1061 543 1016 C 527 970 512 912 500 842 L 479 723 C 467 651 460 589 460 537 C 460 485 469 442 489 408 C 508 374 539 348 581 332 C 623 315 681 307 754 307 Z M 723 -25 C 592 -25 479 -12 384 13 C 288 39 212 83 156 147 C 100 211 64 297 49 405 C 33 513 40 649 70 815 C 89 925 113 1019 142 1097 C 171 1175 204 1241 241 1295 C 278 1348 319 1390 364 1422 C 409 1453 457 1477 509 1493 C 561 1509 615 1520 673 1525 C 731 1529 791 1532 854 1532 C 942 1532 1022 1526 1094 1516 C 1166 1505 1229 1487 1285 1461 C 1340 1435 1386 1402 1424 1360 C 1462 1318 1490 1266 1510 1204 C 1529 1142 1539 1068 1539 984 C 1539 899 1530 802 1511 692 C 1491 582 1467 487 1439 409 C 1410 331 1377 265 1340 212 C 1302 159 1261 117 1216 86 C 1171 54 1123 30 1071 14 C 1019 -2 963 -13 905 -18 C 847 -22 786 -25 723 -25 Z" unicode="O" />
<glyph horiz-adv-x="1395" d="M 254 1507 L 801 1507 C 919 1507 1019 1497 1101 1479 C 1183 1461 1248 1429 1296 1383 C 1343 1337 1373 1276 1386 1198 C 1398 1120 1394 1021 1374 901 C 1360 822 1342 755 1321 699 C 1300 643 1276 596 1248 558 C 1220 520 1190 490 1156 468 C 1122 446 1086 429 1047 418 C 1008 406 967 399 924 396 C 880 392 835 391 788 391 L 457 391 L 387 0 L -12 0 L 254 1507 Z M 770 709 C 780 709 791 709 803 710 C 815 711 828 714 841 718 C 853 722 866 729 879 739 C 892 748 904 761 916 778 C 928 794 938 815 948 840 C 958 865 966 896 973 932 C 983 990 984 1035 978 1069 C 971 1103 958 1128 939 1146 C 920 1163 896 1174 867 1179 C 838 1183 806 1186 772 1186 L 596 1186 L 512 709 L 770 709 Z" unicode="P" />
<glyph horiz-adv-x="1577" d="M 791 -13 C 779 -13 768 -14 757 -14 C 745 -14 734 -14 723 -14 C 636 -14 557 -8 485 1 C 413 11 350 29 295 54 C 240 78 194 111 156 152 C 118 193 90 244 71 306 C 51 367 41 440 41 524 C 41 608 50 705 70 815 C 89 925 113 1019 142 1097 C 171 1175 204 1241 241 1295 C 278 1348 319 1390 364 1422 C 409 1453 457 1477 509 1493 C 561 1509 615 1520 673 1525 C 731 1529 791 1532 854 1532 C 942 1532 1022 1526 1094 1516 C 1166 1505 1229 1487 1285 1461 C 1340 1435 1386 1402 1424 1360 C 1462 1318 1490 1266 1510 1204 C 1529 1142 1539 1068 1539 984 C 1539 899 1530 802 1511 692 C 1496 610 1479 537 1460 474 C 1440 410 1418 354 1394 306 C 1370 257 1343 215 1314 181 C 1285 147 1254 118 1221 94 L 1419 -266 L 930 -266 L 791 -13 Z M 754 295 C 806 295 851 301 887 313 C 923 325 953 345 977 374 C 1001 403 1022 441 1038 489 C 1054 537 1068 596 1081 668 L 1102 786 C 1114 857 1121 918 1121 969 C 1121 1020 1112 1062 1092 1095 C 1072 1128 1041 1152 999 1168 C 956 1184 898 1192 825 1192 C 773 1192 729 1187 693 1177 C 657 1167 627 1149 603 1123 C 579 1097 559 1061 543 1016 C 527 970 512 912 500 842 L 479 723 C 467 651 460 589 460 536 C 460 482 469 438 489 402 C 508 366 539 340 581 322 C 623 304 681 295 754 295 Z" unicode="Q" />
<glyph horiz-adv-x="1466" d="M 652 412 L 457 412 L 385 0 L -12 0 L 254 1507 L 748 1507 C 874 1507 980 1498 1067 1481 C 1154 1464 1222 1433 1272 1389 C 1322 1344 1353 1283 1367 1206 C 1380 1129 1376 1031 1356 911 C 1344 847 1331 791 1315 744 C 1299 696 1279 656 1255 622 C 1231 588 1203 560 1171 538 C 1139 515 1100 496 1056 482 L 1307 0 L 870 0 L 652 412 Z M 758 729 C 782 729 805 731 826 736 C 846 741 865 751 881 767 C 897 782 911 804 923 832 C 935 860 945 897 954 944 C 962 992 964 1031 961 1063 C 957 1094 948 1119 932 1137 C 916 1155 895 1168 867 1175 C 839 1182 804 1186 764 1186 L 594 1186 L 514 729 L 758 729 Z" unicode="R" />
<glyph horiz-adv-x="1296" d="M 612 -20 C 543 -20 477 -18 415 -15 C 353 -11 294 -7 240 -1 C 186 5 136 12 91 20 C 45 28 5 37 -29 47 L 74 387 C 84 384 100 380 122 375 C 143 370 168 365 196 360 C 224 354 256 349 290 343 C 324 337 360 332 396 328 C 432 323 468 319 505 317 C 541 314 576 313 610 313 C 642 313 667 314 686 316 C 705 318 720 322 732 330 C 743 338 751 349 757 364 C 762 379 767 400 772 426 C 776 450 777 470 776 486 C 774 501 767 514 753 525 C 739 536 716 547 685 557 C 654 567 611 580 555 596 C 487 615 427 633 377 651 C 326 668 283 686 248 706 C 213 726 185 748 165 772 C 144 796 129 824 121 857 C 112 889 109 927 111 971 C 113 1014 119 1065 129 1124 C 139 1181 153 1231 172 1273 C 190 1315 213 1352 239 1382 C 265 1412 294 1436 326 1455 C 358 1473 394 1488 432 1499 C 470 1510 510 1518 553 1522 C 596 1526 641 1528 688 1528 C 740 1528 793 1526 849 1524 C 905 1522 959 1518 1011 1514 C 1063 1509 1113 1503 1159 1496 C 1205 1489 1246 1481 1280 1473 L 1165 1139 C 1133 1146 1095 1153 1052 1159 C 1009 1165 964 1170 918 1174 C 872 1178 825 1181 779 1183 C 733 1185 691 1186 653 1186 C 629 1186 610 1184 596 1181 C 582 1177 570 1172 562 1164 C 553 1156 546 1145 542 1132 C 538 1118 534 1101 530 1081 C 526 1055 524 1035 525 1020 C 525 1005 532 992 544 982 C 556 972 577 962 605 954 C 633 945 672 934 723 920 C 798 899 863 879 918 861 C 973 843 1019 823 1056 803 C 1093 783 1122 761 1144 737 C 1165 713 1180 684 1189 652 C 1197 619 1200 581 1198 538 C 1196 495 1190 445 1180 387 C 1164 301 1141 232 1111 179 C 1080 126 1041 85 994 56 C 947 26 892 6 828 -4 C 764 -14 692 -20 612 -20 Z" unicode="S" />
<glyph horiz-adv-x="1399" d="M 571 1161 L 113 1161 L 174 1507 L 1495 1507 L 1434 1161 L 973 1161 L 768 0 L 367 0 L 571 1161 Z" unicode="T" />
<glyph horiz-adv-x="1511" d="M 737 -20 C 641 -20 557 -16 483 -10 C 409 -3 346 8 292 25 C 238 41 194 64 160 92 C 126 120 100 156 83 199 C 66 241 57 292 56 351 C 55 410 62 479 76 557 L 244 1507 L 647 1507 L 477 551 C 469 503 467 464 472 436 C 477 407 490 385 511 371 C 532 356 561 346 599 342 C 637 338 684 336 741 336 C 775 336 805 337 831 341 C 857 344 880 353 900 367 C 919 381 935 402 949 430 C 963 458 974 497 983 547 L 1153 1507 L 1538 1507 L 1358 494 C 1339 390 1313 304 1279 238 C 1245 171 1203 119 1153 81 C 1102 43 1042 16 973 2 C 904 -12 825 -20 737 -20 Z" unicode="U" />
<glyph horiz-adv-x="1550" d="M 156 1507 L 575 1507 L 743 541 L 1253 1507 L 1665 1507 L 827 -10 L 457 -10 L 156 1507 Z" unicode="V" />
<glyph horiz-adv-x="1937" d="M 156 1507 L 565 1507 L 616 698 L 958 1466 L 1262 1466 L 1333 698 L 1671 1507 L 2052 1507 L 1376 -10 L 1081 -10 L 1001 903 L 600 -10 L 295 -10 L 156 1507 Z" unicode="W" />
<glyph horiz-adv-x="1616" d="M 578 821 L 254 1507 L 696 1507 L 893 1092 L 1212 1507 L 1632 1507 L 1051 758 L 1411 0 L 969 0 L 735 489 L 360 0 L -59 0 L 578 821 Z" unicode="X" />
<glyph horiz-adv-x="1552" d="M 532 489 L 156 1507 L 582 1507 L 801 887 L 1241 1507 L 1667 1507 L 936 498 L 848 0 L 446 0 L 532 489 Z" unicode="Y" />
<glyph horiz-adv-x="1352" d="M 0 336 L 858 1161 L 164 1161 L 225 1507 L 1413 1507 L 1352 1161 L 502 336 L 1223 336 L 1163 0 L -59 0 L 0 336 Z" unicode="Z" />
<glyph horiz-adv-x="807" d="M 287 1548 L 877 1548 L 821 1233 L 565 1233 L 344 -20 L 600 -20 L 547 -328 L -43 -328 L 287 1548 Z" unicode="[" />
<glyph horiz-adv-x="870" d="M 145 1507 L 465 1507 L 729 0 L 410 0 L 145 1507 Z" unicode="\" />
<glyph horiz-adv-x="807" d="M -63 -20 L 213 -20 L 434 1233 L 158 1233 L 213 1548 L 803 1548 L 473 -328 L -117 -328 L -63 -20 Z" unicode="]" />
<glyph horiz-adv-x="1200" d="M 1190 670 L 805 670 L 592 1106 L 379 670 L 10 670 L 430 1507 L 770 1507 L 1190 670 Z" unicode="^" />
<glyph horiz-adv-x="1137" d="M -223 -100 L 1061 -100 L 1010 -391 L -274 -391 L -223 -100 Z" unicode="_" />
<glyph horiz-adv-x="971" d="M 154 1559 L 604 1559 L 743 1110 L 477 1110 L 154 1559 Z" unicode="`" />
<glyph horiz-adv-x="1231" d="M 295 -16 C 226 -16 170 -5 128 16 C 86 37 55 70 35 114 C 15 158 5 214 5 282 C 5 350 14 430 31 524 C 47 617 66 695 89 758 C 112 821 139 872 169 910 C 199 948 234 975 272 991 C 310 1007 353 1016 401 1016 C 443 1016 484 1012 523 1006 C 562 999 598 991 631 982 C 664 973 693 964 719 955 C 744 945 764 938 778 932 L 815 993 L 1157 993 L 985 0 L 643 0 L 635 80 C 617 72 596 62 570 51 C 544 40 515 30 485 20 C 455 10 423 1 391 -5 C 358 -12 326 -16 295 -16 Z M 512 285 C 534 285 558 286 582 290 C 606 294 632 299 659 307 L 725 678 C 704 682 678 685 647 688 C 616 690 585 692 555 692 C 538 692 523 689 509 685 C 495 680 482 671 471 657 C 459 643 449 622 439 596 C 429 570 421 535 414 492 C 406 446 402 410 402 383 C 402 355 406 334 414 320 C 422 306 434 296 450 292 C 466 287 486 285 512 285 Z" unicode="a" />
<glyph horiz-adv-x="1241" d="M 260 1548 L 641 1548 L 532 922 C 550 932 573 942 599 953 C 625 964 653 974 683 984 C 713 993 743 1001 774 1007 C 805 1013 835 1016 864 1016 C 932 1016 988 1005 1030 984 C 1072 962 1104 929 1124 885 C 1144 841 1153 785 1153 717 C 1153 649 1144 568 1128 475 C 1112 381 1092 303 1069 241 C 1046 178 1019 128 989 90 C 959 52 924 24 886 8 C 848 -7 805 -16 758 -16 C 715 -16 673 -13 633 -7 C 592 -1 554 6 520 14 C 485 22 454 31 428 40 C 401 49 381 57 367 63 L 330 0 L -12 0 L 260 1548 Z M 602 287 C 618 287 634 289 648 294 C 662 298 674 308 686 322 C 697 336 707 356 717 382 C 727 408 735 443 743 487 C 751 532 755 568 755 596 C 755 623 751 644 743 658 C 735 672 722 682 706 687 C 690 691 669 694 645 694 C 622 694 597 692 569 688 C 541 684 514 679 487 672 L 422 301 C 432 299 444 297 458 295 C 472 293 488 292 504 291 C 520 289 537 288 554 288 C 570 287 586 287 602 287 Z" unicode="b" />
<glyph horiz-adv-x="965" d="M 530 -14 C 415 -14 321 -5 247 12 C 173 30 116 60 77 103 C 37 145 14 203 7 275 C 0 347 5 437 25 547 C 37 619 52 682 70 734 C 88 786 108 829 132 865 C 156 900 183 928 213 950 C 243 971 278 987 316 999 C 354 1010 397 1017 445 1021 C 492 1024 544 1026 602 1026 C 636 1026 669 1024 702 1021 C 734 1018 765 1014 794 1010 C 823 1005 850 1000 875 995 C 899 990 921 985 940 981 L 842 678 C 810 686 774 693 733 700 C 692 707 646 711 594 711 C 558 711 529 708 508 704 C 486 699 470 690 458 676 C 446 662 436 643 430 618 C 423 593 416 560 410 520 C 402 480 397 445 395 416 C 392 387 396 363 406 344 C 416 325 436 311 464 302 C 492 293 534 289 588 289 C 599 289 612 289 628 290 C 644 291 660 293 678 295 C 696 297 714 299 732 302 C 750 304 768 307 784 311 L 823 25 C 802 19 779 14 755 10 C 731 5 706 1 680 -2 C 654 -6 628 -9 602 -11 C 576 -13 552 -14 530 -14 Z" unicode="c" />
<glyph horiz-adv-x="1241" d="M 295 -16 C 226 -16 170 -5 128 16 C 86 37 55 70 35 114 C 15 158 5 214 5 282 C 5 350 14 430 31 524 C 47 617 66 695 89 758 C 112 821 139 872 169 910 C 199 948 234 975 272 991 C 310 1007 353 1016 401 1016 C 443 1016 484 1013 524 1007 C 563 1001 599 993 633 985 C 666 977 695 968 721 959 C 746 949 766 942 780 936 L 887 1548 L 1268 1548 L 995 0 L 653 0 L 645 80 C 627 72 605 62 578 51 C 551 40 522 30 490 20 C 458 10 426 1 392 -5 C 358 -12 326 -16 295 -16 Z M 512 285 C 534 285 559 286 587 290 C 615 294 642 299 670 307 L 735 678 C 725 680 712 681 698 683 C 684 685 668 686 652 688 C 636 689 619 690 603 691 C 586 691 570 692 555 692 C 538 692 523 689 509 685 C 495 680 482 671 471 657 C 459 643 449 622 439 596 C 429 570 421 535 414 492 C 406 446 402 410 402 383 C 402 355 406 334 414 320 C 422 306 434 296 450 292 C 466 287 486 285 512 285 Z" unicode="d" />
<glyph horiz-adv-x="1126" d="M 571 -14 C 451 -14 351 -4 272 13 C 193 31 132 62 89 106 C 46 149 20 207 10 279 C 0 351 5 441 25 549 C 38 623 54 686 74 738 C 93 790 115 834 141 869 C 166 904 194 932 225 953 C 255 973 289 989 325 999 C 361 1009 399 1016 439 1019 C 479 1022 522 1024 567 1024 C 679 1024 769 1016 838 1001 C 906 985 958 959 992 921 C 1026 883 1044 832 1048 768 C 1052 704 1045 624 1028 528 L 1010 426 L 391 426 C 387 397 388 374 392 356 C 396 338 406 325 422 315 C 438 305 461 298 493 294 C 524 290 566 289 618 289 C 634 289 655 289 679 291 C 703 292 728 294 754 296 C 780 298 804 300 827 303 C 850 305 869 308 885 311 L 934 29 C 910 23 883 17 855 12 C 826 6 796 2 765 -2 C 734 -6 702 -9 669 -11 C 636 -13 603 -14 571 -14 Z M 575 772 C 549 772 527 770 511 767 C 495 764 481 757 471 747 C 461 736 452 720 445 700 C 438 679 431 651 424 616 L 682 616 C 686 645 689 670 691 690 C 693 710 690 726 684 738 C 677 750 665 758 648 764 C 631 769 607 772 575 772 Z" unicode="e" />
<glyph horiz-adv-x="850" d="M 199 690 L 61 690 L 117 993 L 254 993 L 279 1139 C 286 1183 294 1223 304 1259 C 313 1294 326 1326 342 1354 C 358 1382 379 1406 405 1427 C 431 1448 464 1466 505 1482 C 546 1497 596 1510 655 1521 C 714 1532 785 1542 868 1550 L 874 1196 C 820 1186 778 1178 748 1170 C 718 1162 695 1153 681 1143 C 666 1132 656 1118 652 1102 C 648 1086 644 1064 641 1038 L 635 993 L 838 993 L 782 690 L 580 690 L 387 -410 L 6 -410 L 199 690 Z" unicode="f" />
<glyph horiz-adv-x="1241" d="M 506 -410 C 440 -410 378 -407 319 -403 C 259 -398 205 -392 157 -385 C 108 -378 66 -371 30 -364 C -5 -356 -32 -350 -51 -344 L 49 -47 C 73 -53 103 -59 139 -66 C 175 -72 213 -78 253 -84 C 293 -89 333 -93 373 -97 C 413 -100 451 -102 485 -102 C 511 -102 532 -99 548 -94 C 564 -88 576 -80 586 -68 C 595 -56 602 -41 607 -22 C 611 -2 616 21 621 49 L 627 86 C 607 76 585 65 559 55 C 533 45 506 35 477 27 C 447 19 417 12 387 6 C 356 0 327 -2 299 -2 C 230 -2 174 8 132 28 C 89 48 57 79 37 121 C 17 163 6 218 6 284 C 6 350 14 430 31 524 C 47 617 66 695 89 758 C 112 821 139 872 169 910 C 199 948 234 975 272 991 C 310 1007 353 1016 401 1016 C 443 1016 485 1012 525 1006 C 565 999 603 991 637 982 C 671 973 701 964 727 955 C 753 945 774 938 788 932 L 825 993 L 1167 993 L 989 -8 C 978 -71 963 -128 943 -178 C 923 -228 895 -270 859 -304 C 822 -338 775 -365 718 -383 C 661 -401 590 -410 506 -410 Z M 512 285 C 534 285 559 286 587 290 C 615 294 642 299 670 307 L 735 678 C 725 680 712 681 698 683 C 684 685 668 686 652 688 C 636 689 619 690 603 691 C 586 691 570 692 555 692 C 538 692 523 689 509 685 C 495 680 482 671 471 657 C 459 643 449 622 439 596 C 429 570 421 535 414 492 C 406 446 402 410 402 383 C 402 355 406 334 414 320 C 422 306 434 296 450 292 C 466 287 486 285 512 285 Z" unicode="g" />
<glyph horiz-adv-x="1235" d="M 260 1548 L 641 1548 L 530 920 C 549 929 573 939 601 951 C 629 962 658 972 689 982 C 719 992 750 1000 780 1006 C 810 1012 838 1016 864 1016 C 972 1016 1046 990 1086 940 C 1126 890 1137 817 1120 721 L 993 0 L 612 0 L 721 618 C 726 646 721 664 707 674 C 693 683 665 688 623 688 C 610 688 597 687 584 686 C 571 685 558 684 546 682 C 534 680 522 678 512 676 C 502 674 493 672 487 670 L 371 0 L -12 0 L 260 1548 Z" unicode="h" />
<glyph horiz-adv-x="639" d="M 174 993 L 555 993 L 379 0 L -2 0 L 174 993 Z M 258 1475 L 639 1475 L 575 1110 L 195 1110 L 258 1475 Z" unicode="i" />
<glyph horiz-adv-x="639" d="M -217 -74 C -183 -66 -155 -59 -132 -53 C -108 -47 -89 -42 -73 -36 C -57 -30 -44 -23 -34 -15 C -24 -7 -15 1 -9 13 C -3 24 2 38 6 54 C 10 70 14 91 18 115 L 174 993 L 555 993 L 383 23 C 375 -20 367 -59 358 -94 C 349 -128 337 -159 323 -187 C 308 -215 289 -239 266 -261 C 242 -283 212 -302 176 -320 C 140 -337 95 -353 43 -367 C -8 -381 -71 -394 -143 -406 L -217 -74 Z M 258 1475 L 639 1475 L 575 1110 L 195 1110 L 258 1475 Z" unicode="j" />
<glyph horiz-adv-x="1169" d="M 475 399 L 432 362 L 369 0 L -12 0 L 260 1548 L 641 1548 L 500 750 L 774 993 L 1165 993 L 770 653 L 1012 0 L 623 0 L 475 399 Z" unicode="k" />
<glyph horiz-adv-x="639" d="M 270 1548 L 651 1548 L 379 0 L -2 0 L 270 1548 Z" unicode="l" />
<glyph horiz-adv-x="1821" d="M 1307 618 C 1312 646 1307 664 1293 674 C 1278 683 1250 688 1208 688 C 1184 688 1162 686 1143 682 C 1123 678 1107 673 1093 669 L 975 0 L 594 0 L 702 618 C 707 646 702 664 688 674 C 674 683 646 688 604 688 C 579 688 557 686 537 682 C 517 678 500 674 487 670 L 371 0 L -12 0 L 164 993 L 508 993 L 516 918 C 534 927 556 937 583 949 C 609 960 638 971 668 981 C 698 991 728 999 759 1006 C 790 1012 819 1016 846 1016 C 912 1016 964 1006 1004 988 C 1044 969 1072 942 1090 906 C 1118 920 1148 934 1180 948 C 1212 961 1245 973 1277 983 C 1309 993 1340 1001 1370 1007 C 1400 1013 1426 1016 1450 1016 C 1558 1016 1632 990 1672 940 C 1712 890 1723 817 1706 721 L 1579 0 L 1198 0 L 1307 618 Z" unicode="m" />
<glyph horiz-adv-x="1235" d="M 164 993 L 508 993 L 516 918 C 534 927 557 937 586 949 C 614 960 645 971 677 981 C 709 991 742 999 775 1006 C 807 1012 837 1016 864 1016 C 972 1016 1046 990 1086 940 C 1126 890 1137 817 1120 721 L 993 0 L 612 0 L 721 618 C 726 646 721 664 707 674 C 693 683 665 688 623 688 C 610 688 597 687 584 686 C 571 685 558 684 546 682 C 534 680 522 678 512 676 C 502 674 493 672 487 670 L 371 0 L -12 0 L 164 993 Z" unicode="n" />
<glyph horiz-adv-x="1210" d="M 545 -14 C 426 -14 329 -4 253 15 C 177 34 119 66 79 111 C 39 155 15 213 8 285 C 0 357 6 445 25 551 C 37 621 52 681 69 732 C 86 782 106 825 129 861 C 152 896 178 924 207 946 C 236 967 269 984 305 996 C 341 1008 382 1016 426 1020 C 470 1024 519 1026 573 1026 C 694 1026 793 1016 871 997 C 948 977 1007 945 1047 901 C 1087 856 1111 798 1119 726 C 1126 654 1120 565 1102 461 C 1090 391 1075 330 1058 280 C 1040 229 1020 186 997 151 C 974 115 948 87 918 66 C 888 44 855 28 818 16 C 781 4 740 -4 695 -8 C 649 -12 599 -14 545 -14 Z M 539 260 C 574 260 602 263 622 271 C 642 279 657 291 669 309 C 680 327 689 350 695 380 C 701 409 709 445 717 489 C 725 533 730 570 734 602 C 738 634 736 660 729 681 C 721 702 706 718 684 728 C 662 738 628 743 584 743 C 552 743 526 739 507 733 C 487 726 472 714 460 698 C 448 681 438 658 431 630 C 424 601 417 565 410 522 C 402 478 396 440 392 408 C 388 375 389 348 396 326 C 403 304 418 287 440 276 C 462 265 495 260 539 260 Z" unicode="o" />
<glyph horiz-adv-x="1241" d="M 164 993 L 506 993 L 514 920 C 531 928 553 937 580 948 C 607 959 636 970 668 980 C 700 990 732 998 766 1005 C 800 1012 832 1016 864 1016 C 932 1016 988 1005 1030 984 C 1072 962 1104 929 1124 885 C 1144 841 1153 785 1153 717 C 1153 649 1144 568 1128 475 C 1112 381 1092 303 1069 241 C 1046 178 1019 128 989 90 C 959 52 924 24 886 8 C 848 -7 805 -16 758 -16 C 715 -16 674 -13 635 -7 C 595 -1 559 6 526 14 C 492 22 463 31 438 40 C 412 49 393 57 379 63 L 297 -410 L -84 -410 L 164 993 Z M 602 287 C 618 287 634 289 648 294 C 662 298 674 308 686 322 C 697 336 707 356 717 382 C 727 408 735 443 743 487 C 751 532 755 568 755 596 C 755 623 751 644 743 658 C 735 672 722 682 706 687 C 690 691 669 694 645 694 C 622 694 597 692 569 688 C 541 684 514 679 487 672 L 422 301 C 432 299 444 297 458 295 C 472 293 488 292 504 291 C 520 289 537 288 554 288 C 570 287 586 287 602 287 Z" unicode="p" />
<glyph horiz-adv-x="1241" d="M 623 72 C 603 62 581 51 555 41 C 529 31 502 21 473 13 C 443 5 413 -1 383 -7 C 352 -13 323 -16 295 -16 C 226 -16 170 -5 128 16 C 86 37 55 70 35 114 C 15 158 5 214 5 282 C 5 350 14 430 31 524 C 47 617 66 695 89 758 C 112 821 139 872 169 910 C 199 948 234 975 272 991 C 310 1007 353 1016 401 1016 C 443 1016 485 1012 525 1006 C 565 999 603 991 637 982 C 671 973 701 964 727 955 C 753 945 774 938 788 932 L 825 993 L 1167 993 L 920 -410 L 539 -410 L 623 72 Z M 512 285 C 534 285 559 286 587 290 C 615 294 642 299 670 307 L 735 678 C 725 680 712 681 698 683 C 684 685 668 686 652 688 C 636 689 619 690 603 691 C 586 691 570 692 555 692 C 538 692 523 689 509 685 C 495 680 482 671 471 657 C 459 643 449 622 439 596 C 429 570 421 535 414 492 C 406 446 402 410 402 383 C 402 355 406 334 414 320 C 422 306 434 296 450 292 C 466 287 486 285 512 285 Z" unicode="q" />
<glyph horiz-adv-x="872" d="M 164 993 L 508 993 L 516 899 C 534 909 556 921 580 933 C 604 945 631 956 659 967 C 687 978 716 988 746 998 C 776 1007 807 1014 838 1020 L 838 670 C 811 670 780 669 744 667 C 708 665 672 663 637 661 C 602 659 571 656 543 654 C 515 651 495 649 485 647 L 371 0 L -12 0 L 164 993 Z" unicode="r" />
<glyph horiz-adv-x="1004" d="M 438 -12 C 351 -12 265 -7 181 1 C 97 9 21 24 -47 45 L 31 289 C 51 283 78 276 111 269 C 143 262 178 256 215 250 C 251 244 288 239 325 235 C 362 231 396 229 426 229 C 444 229 458 229 468 230 C 478 230 487 232 493 235 C 499 238 503 243 506 250 C 508 256 511 266 514 279 C 516 291 516 302 515 310 C 513 318 507 325 496 331 C 484 337 466 344 442 350 C 417 356 382 365 338 375 C 287 385 244 397 208 409 C 172 421 142 434 119 449 C 95 463 77 480 65 498 C 52 516 43 538 39 562 C 35 586 34 614 37 645 C 39 676 44 712 51 752 C 62 814 80 864 104 901 C 128 937 158 965 193 984 C 227 1003 267 1015 311 1020 C 355 1025 402 1028 453 1028 C 497 1028 544 1026 592 1024 C 640 1022 686 1019 730 1015 C 774 1011 814 1006 851 1000 C 887 994 917 989 940 983 L 862 733 C 833 740 802 746 768 752 C 734 758 699 762 664 766 C 629 770 595 773 562 775 C 528 777 498 778 471 778 C 459 778 449 777 441 776 C 433 775 426 773 422 769 C 417 765 413 760 410 754 C 407 748 405 739 403 729 C 400 715 399 704 401 696 C 403 688 409 681 421 675 C 433 669 451 664 477 659 C 502 653 537 647 582 639 C 660 625 722 609 767 592 C 811 575 844 553 864 527 C 884 500 894 467 894 428 C 894 389 889 341 879 283 C 866 213 847 159 821 120 C 795 80 763 51 726 31 C 688 11 645 0 597 -5 C 548 -9 495 -12 438 -12 Z" unicode="s" />
<glyph horiz-adv-x="838" d="M 336 -10 C 274 -10 223 -3 184 9 C 144 21 114 42 94 70 C 73 98 61 133 58 177 C 55 221 59 274 70 336 L 131 690 L 25 690 L 80 993 L 186 993 L 238 1288 L 627 1329 L 569 993 L 793 993 L 737 690 L 514 690 L 457 352 C 454 336 453 323 453 313 C 453 303 455 295 459 289 C 463 283 468 280 476 278 C 483 276 492 276 504 276 C 527 276 551 277 577 280 C 602 283 629 287 657 293 L 684 18 C 672 15 653 12 629 9 C 605 6 577 3 546 0 C 514 -2 480 -5 444 -7 C 408 -9 372 -10 336 -10 Z" unicode="t" />
<glyph horiz-adv-x="1235" d="M 285 -23 C 176 -23 102 2 62 52 C 22 102 11 176 29 272 L 156 993 L 537 993 L 424 356 C 418 328 423 310 437 301 C 451 291 480 287 522 287 C 546 287 572 289 598 293 C 624 297 643 301 657 305 L 778 993 L 1161 993 L 985 0 L 641 0 L 633 76 C 615 66 591 55 563 44 C 534 32 503 22 471 12 C 439 2 406 -6 374 -13 C 341 -19 311 -23 285 -23 Z" unicode="u" />
<glyph horiz-adv-x="1159" d="M 55 993 L 440 993 L 537 455 L 825 993 L 1194 993 L 616 -8 L 276 -8 L 55 993 Z" unicode="v" />
<glyph horiz-adv-x="1677" d="M 55 993 L 430 993 L 494 516 L 758 952 L 1030 952 L 1130 518 L 1364 993 L 1712 993 L 1200 -8 L 928 -8 L 805 522 L 494 -8 L 211 -8 L 55 993 Z" unicode="w" />
<glyph horiz-adv-x="1214" d="M 500 268 L 279 0 L -115 0 L 350 541 L 102 993 L 522 993 L 637 784 L 809 993 L 1202 993 L 786 510 L 1067 0 L 647 0 L 500 268 Z" unicode="x" />
<glyph horiz-adv-x="1169" d="M 266 29 L 55 993 L 444 993 L 547 459 L 840 993 L 1204 993 L 389 -410 L 6 -410 L 266 29 Z" unicode="y" />
<glyph horiz-adv-x="1087" d="M -12 266 L 512 690 L 80 690 L 135 993 L 1057 993 L 1010 727 L 494 299 L 965 299 L 911 0 L -59 0 L -12 266 Z" unicode="z" />
<glyph horiz-adv-x="1032" d="M 772 -328 C 678 -328 596 -322 526 -312 C 456 -301 397 -284 348 -260 C 299 -236 260 -204 231 -164 C 201 -124 180 -76 168 -18 C 156 39 151 107 153 185 C 155 263 164 352 180 453 L 6 453 L 59 754 L 233 754 C 255 864 278 961 301 1043 C 324 1125 351 1196 381 1255 C 411 1314 446 1362 486 1400 C 526 1438 575 1468 632 1490 C 688 1512 755 1527 832 1535 C 908 1543 998 1548 1102 1548 L 1047 1233 C 985 1233 931 1231 887 1228 C 842 1224 804 1216 772 1203 C 740 1189 714 1170 693 1144 C 671 1118 652 1083 636 1039 C 619 995 604 939 590 873 C 576 807 561 727 545 633 C 528 539 515 458 505 390 C 495 321 490 262 490 214 C 490 166 495 126 507 96 C 519 65 538 41 564 24 C 590 7 625 -4 668 -10 C 710 -16 763 -20 825 -20 L 772 -328 Z" unicode="{" />
<glyph horiz-adv-x="864" d="M 274 1618 L 590 1618 L 590 -410 L 274 -410 L 274 1618 Z" unicode="|" />
<glyph horiz-adv-x="1032" d="M -63 -20 C -1 -20 52 -18 96 -15 C 140 -11 178 -3 210 9 C 242 22 268 41 290 67 C 312 93 331 128 347 173 C 363 217 378 273 392 339 C 406 405 421 485 438 580 C 454 673 468 754 478 823 C 488 891 493 950 493 998 C 493 1046 487 1086 475 1117 C 463 1147 444 1171 418 1188 C 392 1205 357 1217 315 1223 C 272 1229 220 1233 158 1233 L 213 1548 C 307 1548 388 1542 458 1531 C 528 1519 587 1501 636 1476 C 685 1450 724 1417 754 1377 C 783 1337 804 1287 816 1228 C 828 1169 833 1100 831 1022 C 828 944 819 854 805 754 L 979 754 L 926 453 L 752 453 C 729 342 706 246 683 164 C 660 82 634 12 604 -45 C 574 -103 538 -150 498 -187 C 458 -223 409 -252 353 -273 C 296 -294 229 -308 153 -316 C 76 -324 -13 -328 -117 -328 L -63 -20 Z" unicode="}" />
<glyph horiz-adv-x="1073" d="M 12 737 C 24 748 38 761 55 775 C 72 789 90 804 110 819 C 130 834 150 849 172 864 C 193 878 214 891 235 903 C 255 915 275 924 295 931 C 314 938 332 942 348 942 C 363 942 382 939 404 934 C 426 929 450 923 476 916 C 502 909 528 901 554 893 C 580 884 605 876 628 869 C 651 862 672 856 690 851 C 708 846 722 844 731 844 C 741 844 752 847 765 854 C 778 860 792 869 806 880 C 820 890 835 902 851 916 C 867 929 882 942 897 956 L 1061 770 C 1043 754 1019 734 991 711 C 963 687 933 665 901 643 C 869 621 838 602 807 586 C 775 570 748 563 725 563 C 709 563 690 565 668 570 C 646 575 622 581 596 589 C 570 596 544 604 518 612 C 492 620 467 628 444 636 C 421 643 400 649 382 654 C 364 659 350 662 342 662 C 332 662 320 658 308 652 C 295 645 281 636 267 625 C 252 614 237 602 221 589 C 205 575 190 562 176 549 L 12 737 Z" unicode="~" />
<glyph horiz-adv-x="1108" d="M 313 170 L -29 170 L 20 449 L 362 449 L 418 772 L 76 772 L 125 1051 L 467 1051 L 555 1548 L 836 1548 L 748 1051 L 1090 1051 L 1040 772 L 698 772 L 643 449 L 985 449 L 936 170 L 594 170 L 506 -328 L 225 -328 L 313 170 Z" unicode="‡" />
<glyph horiz-adv-x="1749" d="M 874 -25 C 771 -25 680 -20 600 -10 C 520 0 451 16 391 40 C 331 63 281 94 240 133 C 198 171 165 219 140 277 C 114 335 96 403 85 481 C 73 559 68 649 68 752 C 68 854 73 944 85 1022 C 96 1100 114 1169 140 1227 C 165 1285 198 1333 240 1372 C 281 1411 331 1442 391 1466 C 451 1490 520 1507 600 1517 C 680 1527 771 1532 874 1532 C 976 1532 1068 1527 1148 1517 C 1228 1507 1297 1490 1357 1466 C 1417 1442 1467 1411 1509 1372 C 1550 1333 1583 1285 1609 1227 C 1634 1169 1652 1100 1664 1022 C 1675 944 1681 854 1681 752 C 1681 649 1675 559 1664 481 C 1652 403 1634 335 1609 277 C 1583 219 1550 171 1509 133 C 1467 94 1417 63 1357 40 C 1297 16 1228 0 1148 -10 C 1068 -20 976 -25 874 -25 Z M 874 152 C 950 152 1017 154 1077 158 C 1137 162 1189 170 1234 184 C 1279 197 1317 217 1349 243 C 1380 269 1405 305 1425 349 C 1445 393 1459 449 1468 515 C 1476 581 1481 660 1481 754 C 1481 847 1476 927 1468 993 C 1459 1059 1445 1114 1425 1158 C 1405 1202 1380 1238 1349 1264 C 1317 1290 1279 1310 1234 1324 C 1189 1337 1137 1346 1077 1350 C 1017 1354 950 1356 874 1356 C 798 1356 730 1354 671 1350 C 611 1346 559 1337 514 1324 C 469 1310 431 1290 400 1264 C 368 1238 343 1202 323 1158 C 303 1114 289 1059 281 993 C 272 927 268 847 268 754 C 268 660 272 581 281 515 C 289 449 303 393 323 349 C 343 305 368 269 400 243 C 431 217 469 197 514 184 C 559 170 611 162 671 158 C 730 154 798 152 874 152 Z M 510 1233 L 958 1233 C 1009 1233 1056 1230 1099 1224 C 1141 1218 1178 1203 1209 1179 C 1240 1155 1264 1120 1281 1072 C 1298 1024 1307 958 1307 874 C 1307 790 1298 723 1281 675 C 1263 626 1239 589 1208 565 C 1177 541 1140 525 1097 519 C 1054 513 1007 510 956 510 L 791 510 L 791 289 L 510 289 L 510 1233 Z M 938 729 C 970 729 992 741 1005 767 C 1017 793 1024 828 1024 872 C 1024 915 1017 949 1003 974 C 989 999 966 1012 936 1012 L 791 1012 L 791 729 L 938 729 Z" unicode="℗" />
<glyph horiz-adv-x="758" d="M 178 913 L 639 913 L 569 524 L 109 524 L 178 913 Z" unicode="∙" />
<glyph horiz-adv-x="1585" d="M 253 565 L 83 565 L 132 842 L 533 842 L 652 307 L 1333 1507 L 1679 1507 L 783 -8 L 394 -8 L 253 565 Z" unicode="√" />
<glyph horiz-adv-x="799" d="M 289 1036 L 614 1036 L 518 0 L 18 0 L 289 1036 Z M 317 1507 L 754 1507 L 688 1139 L 252 1139 L 317 1507 Z" unicode="¡" />
<glyph horiz-adv-x="1026" d="M 256 0 L 305 283 C 249 295 204 314 169 340 C 133 366 107 400 89 442 C 71 484 62 536 62 597 C 61 657 68 729 82 813 C 98 903 117 977 140 1035 C 163 1093 191 1140 224 1175 C 256 1210 294 1235 337 1251 C 379 1266 428 1276 483 1282 L 526 1528 L 831 1528 L 788 1278 C 826 1274 861 1268 893 1262 C 925 1255 952 1249 975 1243 L 879 944 C 847 952 811 960 770 967 C 729 973 683 977 631 977 C 599 977 573 974 554 970 C 534 965 519 956 507 942 C 495 928 485 909 478 884 C 470 859 463 826 457 786 C 449 746 445 711 444 682 C 442 653 447 629 458 610 C 469 591 488 577 514 568 C 540 559 577 555 625 555 C 636 555 649 555 665 557 C 681 558 697 560 715 562 C 733 564 751 566 769 569 C 787 571 805 574 821 578 L 860 297 C 842 292 823 287 803 283 C 782 279 760 275 738 272 C 716 268 693 265 671 263 C 648 260 626 258 606 258 L 561 0 L 256 0 Z" unicode="¢" />
<glyph horiz-adv-x="1251" d="M 96 885 L 199 885 C 197 933 197 977 198 1018 C 199 1058 202 1092 207 1120 C 221 1198 241 1264 269 1317 C 297 1370 333 1413 379 1445 C 425 1477 480 1499 546 1513 C 611 1527 688 1534 778 1534 C 882 1534 978 1527 1066 1514 C 1154 1501 1230 1485 1294 1466 L 1157 1128 C 1146 1131 1126 1136 1098 1143 C 1069 1149 1036 1156 999 1163 C 962 1169 924 1175 884 1180 C 844 1185 807 1188 774 1188 C 748 1188 726 1187 708 1185 C 689 1183 673 1178 659 1171 C 645 1163 634 1152 625 1138 C 616 1124 609 1104 604 1079 C 599 1052 596 1022 594 990 C 592 957 592 922 593 885 L 954 885 L 903 588 L 609 588 C 612 542 616 497 620 455 C 624 412 627 372 631 336 L 1102 336 L 1042 0 L -59 0 L 0 336 L 244 336 C 240 369 235 407 231 450 C 227 493 223 539 219 588 L 45 588 L 96 885 Z" unicode="£" />
<glyph horiz-adv-x="1198" d="M 817 328 C 786 318 753 311 717 306 C 681 301 641 299 598 299 C 554 299 515 301 479 305 C 443 309 411 317 383 328 L 205 150 L 23 330 L 186 494 C 160 554 147 631 147 725 C 147 818 160 894 188 954 L 23 1120 L 205 1300 L 381 1124 C 439 1144 512 1155 602 1155 C 688 1155 761 1145 821 1126 L 995 1300 L 1176 1120 L 1012 956 C 1038 894 1051 819 1051 729 C 1051 683 1047 640 1041 602 C 1034 563 1024 528 1010 496 L 1176 330 L 995 150 L 817 328 Z M 602 518 C 632 518 657 520 678 526 C 698 531 715 541 728 556 C 740 571 749 592 755 619 C 761 646 764 681 764 725 C 764 768 761 803 755 831 C 749 858 739 879 726 895 C 713 911 696 921 675 927 C 653 933 628 936 598 936 C 568 936 542 933 522 928 C 501 922 484 912 472 897 C 460 882 451 861 446 834 C 440 807 438 772 438 729 C 438 685 440 650 446 622 C 452 594 461 573 474 558 C 487 542 504 532 525 526 C 546 520 572 518 602 518 Z" unicode="¤" />
<glyph horiz-adv-x="1511" d="M 76 885 L 378 885 L 156 1507 L 598 1507 L 791 895 L 1202 1507 L 1626 1507 L 1170 885 L 1466 885 L 1425 650 L 997 650 L 930 557 L 1409 557 L 1368 322 L 873 322 L 817 0 L 414 0 L 470 322 L -23 322 L 18 557 L 495 557 L 462 650 L 35 650 L 76 885 Z" unicode="¥" />
<glyph horiz-adv-x="864" d="M 274 455 L 590 455 L 590 -410 L 274 -410 L 274 455 Z M 274 1618 L 590 1618 L 590 754 L 274 754 L 274 1618 Z" unicode="¦" />
<glyph horiz-adv-x="1266" d="M 629 664 C 653 660 677 657 699 654 C 721 650 743 647 764 643 C 770 653 775 663 781 674 C 787 685 792 696 797 707 C 801 718 805 729 809 740 C 813 750 815 760 817 768 C 819 779 819 789 818 797 C 817 805 811 812 800 819 C 789 825 771 831 746 837 C 721 842 686 848 641 854 C 617 857 595 860 574 863 C 552 865 532 868 514 872 C 500 852 488 831 476 808 C 464 785 456 766 453 750 C 451 738 450 728 451 720 C 451 712 457 704 469 698 C 480 692 498 686 523 680 C 547 674 583 669 629 664 Z M 571 -10 C 523 -10 474 -7 424 -3 C 374 0 327 6 281 13 C 235 20 193 28 155 37 C 117 46 85 56 59 66 L 154 303 C 175 296 203 289 237 282 C 271 274 306 267 344 261 C 382 255 419 250 456 246 C 493 242 525 240 553 240 C 575 240 594 240 609 241 C 624 241 636 243 645 247 C 653 250 660 255 664 262 C 668 269 672 279 674 291 C 676 306 676 318 672 326 C 668 334 659 340 645 346 C 631 351 610 356 583 360 C 555 364 519 369 475 377 C 413 386 360 396 316 406 C 272 416 235 427 205 439 C 175 451 152 464 135 480 C 118 496 106 514 99 535 C 92 556 89 580 90 608 C 91 636 95 668 102 705 C 106 725 113 749 124 775 C 135 801 148 827 163 853 C 177 879 193 905 210 929 C 226 953 242 975 256 993 C 233 1023 220 1059 216 1102 C 212 1144 215 1195 225 1255 C 235 1309 252 1354 277 1389 C 302 1424 335 1452 375 1473 C 415 1493 462 1508 516 1516 C 570 1524 630 1528 698 1528 C 746 1528 795 1525 847 1521 C 898 1517 947 1511 994 1504 C 1041 1497 1084 1489 1124 1480 C 1164 1471 1197 1462 1223 1452 L 1128 1214 C 1106 1220 1078 1227 1043 1235 C 1007 1243 970 1250 931 1256 C 891 1262 852 1268 814 1272 C 776 1276 743 1278 717 1278 C 693 1278 674 1277 658 1277 C 642 1276 630 1274 620 1271 C 610 1267 602 1262 597 1255 C 591 1248 588 1239 586 1227 C 583 1211 584 1199 588 1191 C 592 1183 602 1176 618 1171 C 634 1166 656 1161 684 1157 C 712 1153 749 1147 795 1141 C 856 1131 909 1121 953 1111 C 997 1101 1033 1090 1063 1078 C 1093 1066 1116 1052 1133 1036 C 1150 1020 1162 1002 1169 981 C 1176 960 1179 936 1178 908 C 1177 880 1173 849 1167 813 C 1162 788 1154 762 1143 735 C 1131 708 1118 682 1103 656 C 1088 630 1072 605 1056 581 C 1039 557 1024 537 1010 520 C 1030 490 1042 454 1045 412 C 1048 370 1044 320 1034 262 C 1024 208 1007 163 983 128 C 959 92 927 64 889 44 C 851 24 805 10 752 2 C 699 -6 639 -10 571 -10 Z" unicode="§" />
<glyph horiz-adv-x="973" d="M 205 1440 L 559 1440 L 502 1110 L 147 1110 L 205 1440 Z M 659 1440 L 1014 1440 L 956 1110 L 602 1110 L 659 1440 Z" unicode="¨" />
<glyph horiz-adv-x="1749" d="M 874 -25 C 771 -25 680 -20 600 -10 C 520 0 451 16 391 40 C 331 63 281 94 240 133 C 198 171 165 219 140 277 C 114 335 96 403 85 481 C 73 559 68 649 68 752 C 68 854 73 944 85 1022 C 96 1100 114 1169 140 1227 C 165 1285 198 1333 240 1372 C 281 1411 331 1442 391 1466 C 451 1490 520 1507 600 1517 C 680 1527 771 1532 874 1532 C 976 1532 1068 1527 1148 1517 C 1228 1507 1297 1490 1357 1466 C 1417 1442 1467 1411 1509 1372 C 1550 1333 1583 1285 1609 1227 C 1634 1169 1652 1100 1664 1022 C 1675 944 1681 854 1681 752 C 1681 649 1675 559 1664 481 C 1652 403 1634 335 1609 277 C 1583 219 1550 171 1509 133 C 1467 94 1417 63 1357 40 C 1297 16 1228 0 1148 -10 C 1068 -20 976 -25 874 -25 Z M 874 152 C 950 152 1017 154 1077 158 C 1137 162 1189 170 1234 184 C 1279 197 1317 217 1349 243 C 1380 269 1405 305 1425 349 C 1445 393 1459 449 1468 515 C 1476 581 1481 660 1481 754 C 1481 847 1476 927 1468 993 C 1459 1059 1445 1114 1425 1158 C 1405 1202 1380 1238 1349 1264 C 1317 1290 1279 1310 1234 1324 C 1189 1337 1137 1346 1077 1350 C 1017 1354 950 1356 874 1356 C 798 1356 730 1354 671 1350 C 611 1346 559 1337 514 1324 C 469 1310 431 1290 400 1264 C 368 1238 343 1202 323 1158 C 303 1114 289 1059 281 993 C 272 927 268 847 268 754 C 268 660 272 581 281 515 C 289 449 303 393 323 349 C 343 305 368 269 400 243 C 431 217 469 197 514 184 C 559 170 611 162 671 158 C 730 154 798 152 874 152 Z M 895 268 C 821 268 756 275 700 289 C 644 303 597 328 560 364 C 523 400 495 449 477 512 C 458 575 449 656 449 754 C 449 852 458 932 478 994 C 497 1056 526 1106 564 1142 C 602 1178 649 1202 705 1216 C 761 1230 825 1237 899 1237 C 941 1237 977 1236 1006 1234 C 1034 1232 1059 1230 1080 1228 C 1101 1225 1119 1222 1135 1219 C 1151 1215 1167 1212 1184 1210 L 1130 971 C 1101 974 1077 977 1058 979 C 1039 981 1021 983 1005 985 C 989 986 972 987 956 988 C 939 988 919 989 895 989 C 863 989 836 984 816 976 C 796 967 780 954 769 937 C 758 919 751 897 747 871 C 743 845 741 814 741 780 L 741 729 C 741 695 742 664 746 637 C 750 610 757 587 769 568 C 780 548 796 533 817 523 C 837 513 865 508 899 508 C 931 508 959 508 983 510 C 1007 512 1029 514 1048 517 C 1066 519 1083 522 1097 525 C 1111 527 1125 530 1139 532 L 1184 301 C 1168 297 1153 294 1137 290 C 1121 286 1103 282 1081 279 C 1059 275 1034 273 1004 271 C 974 269 937 268 895 268 Z" unicode="©" />
<glyph horiz-adv-x="1049" d="M 115 600 L 905 600 L 866 383 L 76 383 L 115 600 Z M 356 682 C 299 682 253 690 218 708 C 183 726 157 753 141 789 C 125 825 117 872 117 928 C 117 984 123 1050 137 1126 C 151 1202 167 1267 186 1319 C 205 1371 227 1412 252 1444 C 277 1476 305 1498 337 1512 C 368 1525 403 1532 442 1532 C 477 1532 511 1529 544 1524 C 576 1518 606 1512 633 1505 C 660 1497 684 1490 705 1482 C 725 1474 742 1467 754 1462 L 784 1513 L 1065 1513 L 924 696 L 641 696 L 635 762 C 621 755 603 747 582 738 C 560 728 537 719 512 711 C 487 703 461 696 435 690 C 408 684 382 682 356 682 Z M 535 930 C 571 930 611 936 655 948 L 709 1253 C 692 1256 671 1259 646 1262 C 620 1264 595 1266 569 1266 C 555 1266 543 1264 532 1260 C 520 1256 510 1248 501 1236 C 491 1224 483 1208 475 1186 C 467 1164 459 1136 453 1100 C 447 1062 443 1032 443 1010 C 443 988 446 971 453 959 C 459 947 469 939 483 935 C 496 931 513 930 535 930 Z" unicode="ª" />
<glyph horiz-adv-x="1309" d="M 53 469 L 375 891 L 682 891 L 399 469 L 535 51 L 225 51 L 53 469 Z M 578 469 L 899 891 L 1206 891 L 924 469 L 1059 51 L 750 51 L 578 469 Z" unicode="«" />
<glyph horiz-adv-x="1112" d="M 689 565 L 51 565 L 99 842 L 1023 842 L 915 231 L 631 231 L 689 565 Z" unicode="¬" />
<glyph horiz-adv-x="758" d="M 82 745 L 678 745 L 627 455 L 31 455 L 82 745 Z" unicode="­" />
<glyph horiz-adv-x="1749" d="M 874 -25 C 771 -25 680 -20 600 -10 C 520 0 451 16 391 40 C 331 63 281 94 240 133 C 198 171 165 219 140 277 C 114 335 96 403 85 481 C 73 559 68 649 68 752 C 68 854 73 944 85 1022 C 96 1100 114 1169 140 1227 C 165 1285 198 1333 240 1372 C 281 1411 331 1442 391 1466 C 451 1490 520 1507 600 1517 C 680 1527 771 1532 874 1532 C 976 1532 1068 1527 1148 1517 C 1228 1507 1297 1490 1357 1466 C 1417 1442 1467 1411 1509 1372 C 1550 1333 1583 1285 1609 1227 C 1634 1169 1652 1100 1664 1022 C 1675 944 1681 854 1681 752 C 1681 649 1675 559 1664 481 C 1652 403 1634 335 1609 277 C 1583 219 1550 171 1509 133 C 1467 94 1417 63 1357 40 C 1297 16 1228 0 1148 -10 C 1068 -20 976 -25 874 -25 Z M 874 152 C 950 152 1017 154 1077 158 C 1137 162 1189 170 1234 184 C 1279 197 1317 217 1349 243 C 1380 269 1405 305 1425 349 C 1445 393 1459 449 1468 515 C 1476 581 1481 660 1481 754 C 1481 847 1476 927 1468 993 C 1459 1059 1445 1114 1425 1158 C 1405 1202 1380 1238 1349 1264 C 1317 1290 1279 1310 1234 1324 C 1189 1337 1137 1346 1077 1350 C 1017 1354 950 1356 874 1356 C 798 1356 730 1354 671 1350 C 611 1346 559 1337 514 1324 C 469 1310 431 1290 400 1264 C 368 1238 343 1202 323 1158 C 303 1114 289 1059 281 993 C 272 927 268 847 268 754 C 268 660 272 581 281 515 C 289 449 303 393 323 349 C 343 305 368 269 400 243 C 431 217 469 197 514 184 C 559 170 611 162 671 158 C 730 154 798 152 874 152 Z M 469 1223 L 909 1223 C 959 1223 1005 1218 1047 1210 C 1089 1202 1125 1186 1155 1162 C 1185 1138 1208 1104 1224 1060 C 1240 1016 1249 959 1249 889 C 1249 864 1247 838 1245 811 C 1243 784 1237 758 1228 733 C 1219 708 1206 685 1189 664 C 1171 643 1148 626 1118 614 L 1339 297 L 1020 297 L 840 555 L 743 555 L 743 297 L 469 297 L 469 1223 Z M 889 752 C 919 752 941 762 955 783 C 968 804 975 837 975 883 C 975 925 968 956 954 976 C 940 996 917 1006 887 1006 L 743 1006 L 743 752 L 889 752 Z" unicode="®" />
<glyph horiz-adv-x="973" d="M 205 1440 L 1014 1440 L 956 1110 L 147 1110 L 205 1440 Z" unicode="¯" />
<glyph horiz-adv-x="1034" d="M 567 678 C 469 678 388 688 326 709 C 263 730 215 760 182 800 C 148 840 128 888 121 946 C 113 1003 116 1068 129 1141 C 141 1213 160 1275 186 1325 C 212 1375 244 1415 283 1446 C 322 1477 368 1499 420 1513 C 472 1527 532 1534 600 1534 C 696 1534 775 1523 837 1502 C 899 1481 946 1451 979 1411 C 1012 1371 1032 1322 1040 1264 C 1047 1206 1044 1141 1032 1069 C 1019 996 1000 935 974 885 C 948 835 916 794 878 764 C 840 733 795 711 743 698 C 691 684 632 678 567 678 Z M 565 897 C 591 897 612 899 630 903 C 647 907 662 916 675 930 C 687 944 698 964 706 990 C 714 1016 723 1050 731 1094 C 739 1137 743 1173 743 1202 C 743 1230 737 1253 727 1270 C 717 1286 701 1298 679 1305 C 657 1311 628 1315 592 1315 C 568 1315 547 1312 531 1308 C 514 1304 500 1295 488 1281 C 476 1267 465 1246 457 1220 C 448 1194 440 1159 432 1116 C 424 1072 420 1036 420 1008 C 420 980 425 957 435 941 C 445 924 460 912 481 906 C 502 900 530 897 565 897 Z" unicode="°" />
<glyph horiz-adv-x="1112" d="M 0 276 L 944 276 L 895 0 L -49 0 L 0 276 Z M 389 616 L 60 616 L 108 893 L 438 893 L 488 1176 L 773 1176 L 723 893 L 1052 893 L 1004 616 L 674 616 L 624 334 L 339 334 L 389 616 Z" unicode="±" />
<glyph horiz-adv-x="973" d="M 98 762 L 436 989 C 475 1015 506 1035 528 1051 C 550 1066 566 1079 577 1090 C 588 1101 595 1112 599 1122 C 602 1132 605 1145 608 1161 C 610 1175 611 1187 609 1197 C 607 1207 601 1215 592 1222 C 583 1228 570 1233 552 1236 C 534 1239 511 1241 483 1241 C 463 1241 446 1240 430 1239 C 414 1237 398 1236 384 1234 C 369 1232 355 1229 341 1227 C 327 1224 312 1221 297 1219 L 238 1485 C 258 1490 282 1495 310 1500 C 338 1504 365 1508 393 1512 C 421 1515 447 1517 472 1519 C 497 1521 518 1522 535 1522 C 613 1522 678 1515 732 1503 C 786 1490 828 1470 860 1442 C 891 1414 911 1377 921 1333 C 930 1288 929 1234 918 1171 C 913 1145 908 1123 902 1104 C 896 1085 889 1067 880 1051 C 870 1035 858 1019 844 1004 C 830 988 812 972 791 955 C 769 938 744 919 714 899 C 684 878 650 854 610 827 L 559 793 L 872 793 L 825 528 L 57 528 L 98 762 Z" unicode="²" />
<glyph horiz-adv-x="1014" d="M 129 782 C 207 781 274 780 329 780 C 383 780 429 780 465 782 C 501 784 529 787 550 792 C 570 797 586 805 596 815 C 602 821 606 828 608 836 C 610 844 614 858 618 877 C 622 901 620 918 610 928 C 596 941 572 951 537 957 C 501 963 453 969 393 977 L 424 1147 L 612 1241 L 203 1241 L 250 1507 L 956 1507 L 911 1249 L 719 1133 C 758 1119 791 1103 818 1087 C 844 1070 865 1050 880 1028 C 894 1005 903 978 907 948 C 910 918 908 882 901 842 C 893 804 885 769 875 738 C 865 707 849 679 829 653 C 809 627 779 606 740 588 C 701 570 652 556 592 545 C 532 533 461 525 379 520 C 297 515 202 512 96 512 L 129 782 Z" unicode="³" />
<glyph horiz-adv-x="971" d="M 643 1559 L 1114 1559 L 635 1110 L 348 1110 L 643 1559 Z" unicode="´" />
<glyph horiz-adv-x="1638" d="M 475 330 C 401 330 338 337 286 352 C 234 366 191 390 159 424 C 126 458 102 502 88 556 C 73 610 66 676 66 756 C 66 834 73 901 88 956 C 102 1010 126 1055 159 1089 C 192 1123 235 1147 287 1163 C 339 1178 403 1186 479 1186 C 525 1186 567 1183 603 1178 C 639 1172 670 1164 698 1154 C 725 1143 748 1129 768 1113 C 788 1096 805 1077 820 1055 C 834 1077 851 1096 871 1113 C 891 1129 914 1143 942 1154 C 969 1164 1001 1172 1037 1178 C 1073 1183 1115 1186 1163 1186 C 1237 1186 1300 1178 1352 1163 C 1404 1148 1446 1124 1479 1091 C 1511 1057 1535 1013 1550 959 C 1565 905 1573 838 1573 760 C 1573 680 1565 613 1550 559 C 1535 504 1511 460 1478 426 C 1445 392 1402 367 1350 352 C 1298 337 1234 330 1159 330 C 1111 330 1070 332 1034 338 C 998 343 967 351 940 362 C 912 372 889 386 869 402 C 849 418 832 438 818 460 C 803 438 786 418 766 402 C 746 386 723 372 696 362 C 668 351 636 343 600 338 C 564 332 522 330 475 330 Z M 1139 967 C 1105 967 1079 965 1059 961 C 1039 957 1022 949 1010 935 C 997 921 986 901 978 873 C 969 845 960 808 950 760 C 960 712 969 674 978 646 C 986 618 997 596 1010 582 C 1023 568 1040 559 1061 555 C 1081 551 1109 549 1143 549 C 1167 549 1187 551 1203 557 C 1219 562 1232 572 1242 587 C 1252 602 1259 623 1263 650 C 1267 677 1270 712 1270 756 C 1270 799 1268 834 1264 862 C 1260 889 1253 910 1243 926 C 1233 942 1219 952 1202 958 C 1185 964 1164 967 1139 967 Z M 500 549 C 533 549 560 550 580 554 C 600 557 616 566 628 580 C 640 594 651 614 660 642 C 668 670 678 708 688 756 C 678 804 668 842 660 870 C 651 898 640 919 628 933 C 615 947 598 957 578 961 C 557 965 530 967 496 967 C 472 967 451 964 435 959 C 419 953 406 943 396 928 C 386 913 379 892 375 865 C 371 838 369 803 369 760 C 369 716 371 681 375 653 C 379 625 386 604 396 589 C 406 573 419 563 436 557 C 452 551 474 549 500 549 Z" unicode="∞" />
<glyph horiz-adv-x="1309" d="M 361 545 C 305 555 257 572 217 594 C 177 616 145 647 122 686 C 98 724 84 772 79 829 C 73 885 78 954 92 1034 C 104 1106 121 1167 142 1219 C 163 1271 187 1314 215 1349 C 242 1384 272 1412 305 1433 C 337 1453 371 1469 407 1480 C 442 1491 478 1498 516 1502 C 553 1505 590 1507 627 1507 L 1325 1507 L 1059 0 L 694 0 L 786 524 L 703 524 L 610 0 L 264 0 L 361 545 Z M 836 801 L 903 1190 L 610 1190 C 594 1190 579 1187 564 1182 C 548 1176 534 1167 520 1153 C 506 1139 494 1121 483 1097 C 472 1073 463 1042 457 1004 C 449 964 448 931 453 905 C 457 879 467 858 482 842 C 497 826 517 816 542 810 C 566 804 595 801 629 801 L 836 801 Z" unicode="¶" />
<glyph horiz-adv-x="758" d="M 178 913 L 639 913 L 569 524 L 109 524 L 178 913 Z" unicode="·" />
<glyph horiz-adv-x="973" d="M 80 -205 C 100 -201 122 -196 144 -191 C 166 -185 186 -180 206 -174 C 226 -168 243 -163 259 -157 C 274 -151 285 -145 293 -141 L 293 31 L 522 80 L 524 -295 C 510 -307 490 -320 464 -334 C 437 -348 405 -363 368 -378 C 330 -392 289 -407 243 -421 C 197 -435 149 -447 98 -457 L 80 -205 Z" unicode="¸" />
<glyph horiz-adv-x="793" d="M 348 1239 L 223 1239 L 270 1507 L 711 1507 L 539 530 L 223 530 L 348 1239 Z" unicode="¹" />
<glyph horiz-adv-x="1028" d="M 578 680 C 474 680 390 688 326 704 C 262 720 213 746 180 782 C 147 818 128 866 123 924 C 117 982 122 1053 137 1137 C 151 1221 170 1288 194 1340 C 218 1392 247 1432 283 1460 C 319 1488 361 1507 411 1517 C 461 1527 520 1532 588 1532 C 689 1532 771 1523 834 1506 C 897 1489 945 1462 977 1424 C 1009 1386 1027 1338 1032 1279 C 1037 1220 1032 1149 1018 1065 C 1002 981 983 913 961 863 C 938 812 909 773 874 746 C 839 719 797 701 749 693 C 701 684 644 680 578 680 Z M 563 895 C 589 895 609 897 624 903 C 639 909 651 919 660 933 C 669 947 676 967 682 992 C 687 1017 693 1049 700 1087 C 706 1125 711 1159 714 1187 C 717 1215 716 1239 710 1258 C 704 1276 693 1290 676 1299 C 659 1308 634 1313 602 1313 C 574 1313 553 1310 537 1305 C 521 1299 508 1290 498 1276 C 488 1262 481 1242 475 1218 C 469 1194 463 1162 457 1124 C 450 1086 445 1052 443 1024 C 440 995 442 971 448 952 C 454 933 467 919 485 909 C 503 899 529 895 563 895 Z M 115 600 L 864 600 L 825 383 L 76 383 L 115 600 Z" unicode="º" />
<glyph horiz-adv-x="1309" d="M 289 473 L 154 891 L 463 891 L 635 473 L 313 51 L 6 51 L 289 473 Z M 813 473 L 678 891 L 987 891 L 1159 473 L 838 51 L 530 51 L 813 473 Z" unicode="»" />
<glyph horiz-adv-x="2107" d="M 1507 147 L 1042 147 L 1087 410 L 1548 979 L 1874 979 L 1405 393 L 1550 393 L 1579 557 L 1872 557 L 1843 393 L 1942 393 L 1898 147 L 1800 147 L 1774 0 L 1481 0 L 1507 147 Z M 348 1239 L 223 1239 L 270 1507 L 711 1507 L 539 530 L 223 530 L 348 1239 Z M 1219 1507 L 1561 1507 L 727 0 L 385 0 L 1219 1507 Z" unicode="¼" />
<glyph horiz-adv-x="2210" d="M 348 1239 L 223 1239 L 270 1507 L 711 1507 L 539 530 L 223 530 L 348 1239 Z M 1219 1507 L 1561 1507 L 727 0 L 385 0 L 1219 1507 Z M 1212 233 L 1550 461 C 1589 487 1620 507 1642 522 C 1664 537 1680 550 1691 561 C 1702 572 1709 583 1713 593 C 1716 603 1719 617 1722 633 C 1724 647 1725 659 1723 669 C 1721 679 1715 687 1706 693 C 1697 699 1684 704 1666 708 C 1648 711 1625 713 1597 713 C 1577 713 1560 712 1544 711 C 1528 709 1512 708 1498 706 C 1484 704 1469 701 1455 698 C 1441 695 1426 692 1411 690 L 1352 956 C 1372 962 1396 967 1424 971 C 1452 975 1479 979 1507 983 C 1535 986 1561 988 1586 990 C 1611 992 1632 993 1649 993 C 1727 993 1792 986 1846 974 C 1900 961 1942 941 1974 913 C 2005 885 2025 848 2035 804 C 2044 760 2043 706 2032 643 C 2027 617 2022 595 2016 576 C 2010 557 2003 539 1994 523 C 1984 507 1972 491 1958 476 C 1944 460 1926 444 1905 427 C 1883 410 1858 391 1828 371 C 1798 350 1764 326 1724 299 L 1673 264 L 1987 264 L 1939 0 L 1171 0 L 1212 233 Z" unicode="½" />
<glyph horiz-adv-x="2286" d="M 129 782 C 207 781 274 780 329 780 C 383 780 429 780 465 782 C 501 784 529 787 550 792 C 570 797 586 805 596 815 C 602 821 606 828 608 836 C 610 844 614 858 618 877 C 622 901 620 918 610 928 C 596 941 572 951 537 957 C 501 963 453 969 393 977 L 424 1147 L 612 1241 L 203 1241 L 250 1507 L 956 1507 L 911 1249 L 719 1133 C 758 1119 791 1103 818 1087 C 844 1070 865 1050 880 1028 C 894 1005 903 978 907 948 C 910 918 908 882 901 842 C 893 804 885 769 875 738 C 865 707 849 679 829 653 C 809 627 779 606 740 588 C 701 570 652 556 592 545 C 532 533 461 525 379 520 C 297 515 202 512 96 512 L 129 782 Z M 1686 147 L 1221 147 L 1266 410 L 1726 979 L 2052 979 L 1583 393 L 1729 393 L 1757 557 L 2050 557 L 2021 393 L 2120 393 L 2077 147 L 1978 147 L 1952 0 L 1659 0 L 1686 147 Z M 1397 1507 L 1739 1507 L 905 0 L 563 0 L 1397 1507 Z" unicode="¾" />
<glyph horiz-adv-x="1305" d="M 645 -33 C 547 -33 463 -28 391 -19 C 319 -10 259 3 209 21 C 159 39 119 61 89 88 C 59 114 36 145 22 180 C 8 215 0 254 0 298 C 0 342 3 390 12 442 C 23 503 39 555 61 599 C 82 643 114 681 157 715 C 199 749 255 780 324 808 C 393 836 481 865 588 895 L 612 1032 L 977 1032 L 926 741 C 849 715 784 692 730 674 C 676 655 631 638 595 623 C 559 608 530 594 509 582 C 488 569 472 556 460 543 C 448 530 440 516 436 501 C 431 486 427 469 424 449 C 420 427 420 407 425 391 C 429 374 441 360 461 348 C 480 336 508 328 544 322 C 580 316 628 313 688 313 C 721 313 756 314 792 317 C 828 320 862 324 895 329 C 928 333 958 338 985 343 C 1011 348 1032 352 1047 356 L 1120 20 C 1096 12 1068 5 1035 0 C 1001 -6 964 -12 924 -17 C 883 -21 839 -25 792 -28 C 745 -31 696 -33 645 -33 Z M 666 1505 L 1102 1505 L 1036 1137 L 600 1137 L 666 1505 Z" unicode="¿" />
<glyph horiz-adv-x="1550" d="M 727 1518 L 1098 1518 L 1399 0 L 983 0 L 948 209 L 414 209 L 305 0 L -111 0 L 727 1518 Z M 895 524 L 819 987 L 578 524 L 895 524 Z M 528 2050 L 978 2050 L 1117 1601 L 851 1601 L 528 2050 Z" unicode="À" />
<glyph horiz-adv-x="1550" d="M 727 1518 L 1098 1518 L 1399 0 L 983 0 L 948 209 L 414 209 L 305 0 L -111 0 L 727 1518 Z M 895 524 L 819 987 L 578 524 L 895 524 Z M 1017 2050 L 1488 2050 L 1009 1601 L 722 1601 L 1017 2050 Z" unicode="Á" />
<glyph horiz-adv-x="1550" d="M 727 1518 L 1098 1518 L 1399 0 L 983 0 L 948 209 L 414 209 L 305 0 L -111 0 L 727 1518 Z M 895 524 L 819 987 L 578 524 L 895 524 Z M 835 2009 L 1148 2009 L 1355 1601 L 1107 1601 L 952 1757 L 743 1601 L 485 1601 L 835 2009 Z" unicode="Â" />
<glyph horiz-adv-x="1550" d="M 727 1518 L 1098 1518 L 1399 0 L 983 0 L 948 209 L 414 209 L 305 0 L -111 0 L 727 1518 Z M 895 524 L 819 987 L 578 524 L 895 524 Z M 460 1781 C 480 1799 506 1819 537 1842 C 568 1865 600 1887 634 1907 C 667 1927 700 1945 732 1959 C 764 1973 792 1980 816 1980 C 839 1980 864 1974 892 1964 C 920 1954 947 1943 974 1931 C 1001 1919 1026 1907 1049 1897 C 1071 1887 1089 1882 1103 1882 C 1113 1882 1125 1885 1139 1892 C 1153 1898 1168 1907 1184 1918 C 1200 1928 1217 1940 1235 1954 C 1253 1967 1270 1980 1287 1994 L 1453 1779 C 1431 1763 1405 1743 1375 1721 C 1344 1699 1312 1677 1279 1656 C 1245 1635 1212 1617 1180 1603 C 1148 1588 1120 1581 1097 1581 C 1073 1581 1048 1586 1020 1596 C 992 1606 965 1618 939 1630 C 912 1642 887 1653 864 1663 C 841 1673 823 1679 810 1679 C 800 1679 788 1675 774 1669 C 760 1662 744 1653 728 1642 C 712 1631 695 1619 677 1606 C 659 1592 642 1579 626 1566 L 460 1781 Z" unicode="Ã" />
<glyph horiz-adv-x="1550" d="M 197 1505 L 551 1505 L 494 1176 L 139 1176 L 197 1505 Z M 1266 1505 L 1620 1505 L 1563 1176 L 1208 1176 L 1266 1505 Z M 727 1518 L 1098 1518 L 1399 0 L 983 0 L 948 209 L 414 209 L 305 0 L -111 0 L 727 1518 Z M 895 524 L 819 987 L 578 524 L 895 524 Z" unicode="Ä" />
<glyph horiz-adv-x="1550" d="M 680 1434 C 638 1454 611 1483 597 1520 C 583 1557 581 1605 592 1663 C 600 1713 614 1752 634 1782 C 653 1811 676 1833 703 1849 C 730 1864 761 1874 795 1879 C 829 1883 865 1886 903 1886 C 973 1886 1033 1880 1082 1870 C 1131 1859 1170 1842 1199 1820 C 1227 1797 1246 1768 1256 1733 C 1265 1697 1265 1655 1257 1606 C 1247 1547 1229 1503 1205 1474 C 1181 1444 1152 1423 1118 1411 L 1399 0 L 983 0 L 948 209 L 414 209 L 305 0 L -111 0 L 680 1434 Z M 895 524 L 819 987 L 578 524 L 895 524 Z M 920 1522 C 937 1522 952 1522 965 1524 C 978 1525 989 1529 999 1536 C 1008 1543 1016 1554 1023 1568 C 1029 1582 1035 1602 1040 1628 C 1044 1654 1046 1675 1045 1692 C 1043 1708 1038 1721 1030 1731 C 1021 1741 1009 1747 993 1751 C 977 1755 956 1757 932 1757 C 914 1757 898 1756 885 1754 C 871 1752 860 1747 850 1739 C 840 1731 832 1720 826 1705 C 819 1690 813 1670 809 1645 C 804 1619 802 1598 804 1582 C 806 1566 811 1553 820 1544 C 828 1535 841 1529 857 1526 C 873 1523 894 1522 920 1522 Z" unicode="Å" />
<glyph horiz-adv-x="2212" d="M 1049 1507 L 2269 1507 L 2208 1161 L 1610 1161 L 1569 930 L 2036 930 L 1974 584 L 1507 584 L 1464 336 L 2062 336 L 2003 0 L 1022 0 L 1079 322 L 565 322 L 326 0 L -111 0 L 1049 1507 Z M 1133 627 L 1241 1243 L 786 627 L 1133 627 Z" unicode="Æ" />
<glyph horiz-adv-x="1262" d="M 225 -205 C 245 -201 267 -196 289 -191 C 311 -185 331 -180 351 -174 C 371 -168 388 -163 404 -157 C 419 -151 430 -145 438 -141 L 438 4 C 408 9 381 16 355 24 C 261 52 189 99 137 165 C 85 231 54 317 44 423 C 33 529 42 661 70 817 C 88 921 110 1010 137 1086 C 163 1162 193 1226 227 1278 C 261 1330 298 1373 340 1405 C 381 1437 426 1463 474 1481 C 522 1499 574 1511 630 1517 C 685 1523 743 1526 805 1526 C 853 1526 902 1523 951 1519 C 999 1514 1045 1508 1089 1501 C 1133 1494 1172 1486 1208 1477 C 1244 1468 1273 1460 1296 1452 L 1180 1120 C 1148 1129 1115 1137 1081 1145 C 1047 1152 1013 1158 979 1164 C 945 1169 912 1173 880 1176 C 848 1178 818 1180 791 1180 C 742 1180 701 1174 669 1163 C 637 1151 610 1133 589 1107 C 567 1081 550 1046 537 1003 C 523 959 511 906 500 842 L 479 723 C 471 681 465 642 461 606 C 456 569 454 536 456 506 C 457 476 462 449 472 425 C 481 401 496 381 517 365 C 537 349 564 336 598 328 C 632 319 674 315 725 315 C 749 315 775 316 802 318 C 828 320 854 322 880 326 C 906 330 930 334 952 338 C 974 342 994 346 1012 350 L 1085 27 C 1067 21 1044 16 1016 11 C 988 5 958 0 924 -3 C 890 -7 854 -11 816 -14 C 778 -16 740 -18 702 -18 L 667 -18 L 669 -295 C 655 -307 635 -320 609 -334 C 582 -348 550 -363 513 -378 C 475 -392 434 -407 388 -421 C 342 -435 294 -447 243 -457 L 225 -205 Z" unicode="Ç" />
<glyph horiz-adv-x="1235" d="M 254 1507 L 1292 1507 L 1231 1161 L 594 1161 L 553 930 L 1059 930 L 997 584 L 492 584 L 449 336 L 1085 336 L 1026 0 L -12 0 L 254 1507 Z M 371 2050 L 821 2050 L 960 1601 L 694 1601 L 371 2050 Z" unicode="È" />
<glyph horiz-adv-x="1235" d="M 254 1507 L 1292 1507 L 1231 1161 L 594 1161 L 553 930 L 1059 930 L 997 584 L 492 584 L 449 336 L 1085 336 L 1026 0 L -12 0 L 254 1507 Z M 860 2050 L 1331 2050 L 852 1601 L 565 1601 L 860 2050 Z" unicode="É" />
<glyph horiz-adv-x="1235" d="M 254 1507 L 1292 1507 L 1231 1161 L 594 1161 L 553 930 L 1059 930 L 997 584 L 492 584 L 449 336 L 1085 336 L 1026 0 L -12 0 L 254 1507 Z M 678 2009 L 991 2009 L 1198 1601 L 950 1601 L 795 1757 L 586 1601 L 328 1601 L 678 2009 Z" unicode="Ê" />
<glyph horiz-adv-x="1235" d="M 254 1507 L 1292 1507 L 1231 1161 L 594 1161 L 553 930 L 1059 930 L 997 584 L 492 584 L 449 336 L 1085 336 L 1026 0 L -12 0 L 254 1507 Z M 422 1931 L 776 1931 L 719 1601 L 364 1601 L 422 1931 Z M 876 1931 L 1231 1931 L 1173 1601 L 819 1601 L 876 1931 Z" unicode="Ë" />
<glyph horiz-adv-x="662" d="M 264 1507 L 668 1507 L 401 0 L -2 0 L 264 1507 Z M 85 2050 L 535 2050 L 674 1601 L 408 1601 L 85 2050 Z" unicode="Ì" />
<glyph horiz-adv-x="662" d="M 264 1507 L 668 1507 L 401 0 L -2 0 L 264 1507 Z M 574 2050 L 1045 2050 L 566 1601 L 279 1601 L 574 2050 Z" unicode="Í" />
<glyph horiz-adv-x="662" d="M 264 1507 L 668 1507 L 401 0 L -2 0 L 264 1507 Z M 392 2009 L 705 2009 L 912 1601 L 664 1601 L 509 1757 L 300 1601 L 42 1601 L 392 2009 Z" unicode="Î" />
<glyph horiz-adv-x="662" d="M 264 1507 L 668 1507 L 401 0 L -2 0 L 264 1507 Z M 136 1931 L 490 1931 L 433 1601 L 78 1601 L 136 1931 Z M 590 1931 L 945 1931 L 887 1601 L 533 1601 L 590 1931 Z" unicode="Ï" />
<glyph horiz-adv-x="1481" d="M 12 883 L 143 883 L 254 1507 L 752 1507 C 849 1507 936 1502 1012 1493 C 1088 1484 1153 1468 1209 1445 C 1265 1422 1310 1391 1346 1352 C 1382 1312 1408 1262 1425 1202 C 1442 1142 1450 1070 1448 986 C 1446 902 1435 805 1415 694 C 1395 582 1372 488 1346 410 C 1320 332 1290 268 1258 217 C 1225 165 1189 125 1150 96 C 1110 67 1067 45 1020 31 C 972 17 921 8 867 5 C 812 1 753 0 690 0 L -12 0 L 98 627 L -33 627 L 12 883 Z M 674 309 C 728 309 772 315 807 329 C 842 342 871 363 893 393 C 915 423 934 461 948 509 C 962 556 975 614 987 682 L 1004 780 C 1016 848 1023 907 1026 958 C 1028 1009 1021 1052 1004 1086 C 987 1120 958 1145 916 1162 C 874 1179 815 1188 739 1188 L 598 1188 L 544 883 L 731 883 L 686 627 L 499 627 L 444 309 L 674 309 Z" unicode="Ð" />
<glyph horiz-adv-x="1542" d="M 254 1507 L 657 1507 L 1036 729 L 1174 1507 L 1559 1507 L 1292 0 L 952 0 L 528 879 L 373 0 L -12 0 L 254 1507 Z M 456 1781 C 476 1799 502 1819 533 1842 C 564 1865 596 1887 630 1907 C 663 1927 696 1945 728 1959 C 760 1973 788 1980 812 1980 C 835 1980 860 1974 888 1964 C 916 1954 943 1943 970 1931 C 997 1919 1022 1907 1045 1897 C 1067 1887 1085 1882 1099 1882 C 1109 1882 1121 1885 1135 1892 C 1149 1898 1164 1907 1180 1918 C 1196 1928 1213 1940 1231 1954 C 1249 1967 1266 1980 1283 1994 L 1449 1779 C 1427 1763 1401 1743 1371 1721 C 1340 1699 1308 1677 1275 1656 C 1241 1635 1208 1617 1176 1603 C 1144 1588 1116 1581 1093 1581 C 1069 1581 1044 1586 1016 1596 C 988 1606 961 1618 935 1630 C 908 1642 883 1653 860 1663 C 837 1673 819 1679 806 1679 C 796 1679 784 1675 770 1669 C 756 1662 740 1653 724 1642 C 708 1631 691 1619 673 1606 C 655 1592 638 1579 622 1566 L 456 1781 Z" unicode="Ñ" />
<glyph horiz-adv-x="1577" d="M 754 307 C 806 307 851 312 887 323 C 923 334 953 353 977 381 C 1001 408 1022 445 1038 491 C 1054 537 1068 596 1081 668 L 1102 786 C 1114 857 1121 918 1121 969 C 1121 1020 1112 1062 1092 1095 C 1072 1128 1041 1152 999 1168 C 956 1184 898 1192 825 1192 C 773 1192 729 1187 693 1177 C 657 1167 627 1149 603 1123 C 579 1097 559 1061 543 1016 C 527 970 512 912 500 842 L 479 723 C 467 651 460 589 460 537 C 460 485 469 442 489 408 C 508 374 539 348 581 332 C 623 315 681 307 754 307 Z M 723 -25 C 592 -25 479 -12 384 13 C 288 39 212 83 156 147 C 100 211 64 297 49 405 C 33 513 40 649 70 815 C 89 925 113 1019 142 1097 C 171 1175 204 1241 241 1295 C 278 1348 319 1390 364 1422 C 409 1453 457 1477 509 1493 C 561 1509 615 1520 673 1525 C 731 1529 791 1532 854 1532 C 942 1532 1022 1526 1094 1516 C 1166 1505 1229 1487 1285 1461 C 1340 1435 1386 1402 1424 1360 C 1462 1318 1490 1266 1510 1204 C 1529 1142 1539 1068 1539 984 C 1539 899 1530 802 1511 692 C 1491 582 1467 487 1439 409 C 1410 331 1377 265 1340 212 C 1302 159 1261 117 1216 86 C 1171 54 1123 30 1071 14 C 1019 -2 963 -13 905 -18 C 847 -22 786 -25 723 -25 Z M 543 2050 L 993 2050 L 1132 1601 L 866 1601 L 543 2050 Z" unicode="Ò" />
<glyph horiz-adv-x="1577" d="M 754 307 C 806 307 851 312 887 323 C 923 334 953 353 977 381 C 1001 408 1022 445 1038 491 C 1054 537 1068 596 1081 668 L 1102 786 C 1114 857 1121 918 1121 969 C 1121 1020 1112 1062 1092 1095 C 1072 1128 1041 1152 999 1168 C 956 1184 898 1192 825 1192 C 773 1192 729 1187 693 1177 C 657 1167 627 1149 603 1123 C 579 1097 559 1061 543 1016 C 527 970 512 912 500 842 L 479 723 C 467 651 460 589 460 537 C 460 485 469 442 489 408 C 508 374 539 348 581 332 C 623 315 681 307 754 307 Z M 723 -25 C 592 -25 479 -12 384 13 C 288 39 212 83 156 147 C 100 211 64 297 49 405 C 33 513 40 649 70 815 C 89 925 113 1019 142 1097 C 171 1175 204 1241 241 1295 C 278 1348 319 1390 364 1422 C 409 1453 457 1477 509 1493 C 561 1509 615 1520 673 1525 C 731 1529 791 1532 854 1532 C 942 1532 1022 1526 1094 1516 C 1166 1505 1229 1487 1285 1461 C 1340 1435 1386 1402 1424 1360 C 1462 1318 1490 1266 1510 1204 C 1529 1142 1539 1068 1539 984 C 1539 899 1530 802 1511 692 C 1491 582 1467 487 1439 409 C 1410 331 1377 265 1340 212 C 1302 159 1261 117 1216 86 C 1171 54 1123 30 1071 14 C 1019 -2 963 -13 905 -18 C 847 -22 786 -25 723 -25 Z M 1032 2050 L 1503 2050 L 1024 1601 L 737 1601 L 1032 2050 Z" unicode="Ó" />
<glyph horiz-adv-x="1577" d="M 754 307 C 806 307 851 312 887 323 C 923 334 953 353 977 381 C 1001 408 1022 445 1038 491 C 1054 537 1068 596 1081 668 L 1102 786 C 1114 857 1121 918 1121 969 C 1121 1020 1112 1062 1092 1095 C 1072 1128 1041 1152 999 1168 C 956 1184 898 1192 825 1192 C 773 1192 729 1187 693 1177 C 657 1167 627 1149 603 1123 C 579 1097 559 1061 543 1016 C 527 970 512 912 500 842 L 479 723 C 467 651 460 589 460 537 C 460 485 469 442 489 408 C 508 374 539 348 581 332 C 623 315 681 307 754 307 Z M 723 -25 C 592 -25 479 -12 384 13 C 288 39 212 83 156 147 C 100 211 64 297 49 405 C 33 513 40 649 70 815 C 89 925 113 1019 142 1097 C 171 1175 204 1241 241 1295 C 278 1348 319 1390 364 1422 C 409 1453 457 1477 509 1493 C 561 1509 615 1520 673 1525 C 731 1529 791 1532 854 1532 C 942 1532 1022 1526 1094 1516 C 1166 1505 1229 1487 1285 1461 C 1340 1435 1386 1402 1424 1360 C 1462 1318 1490 1266 1510 1204 C 1529 1142 1539 1068 1539 984 C 1539 899 1530 802 1511 692 C 1491 582 1467 487 1439 409 C 1410 331 1377 265 1340 212 C 1302 159 1261 117 1216 86 C 1171 54 1123 30 1071 14 C 1019 -2 963 -13 905 -18 C 847 -22 786 -25 723 -25 Z M 850 2009 L 1163 2009 L 1370 1601 L 1122 1601 L 967 1757 L 758 1601 L 500 1601 L 850 2009 Z" unicode="Ô" />
<glyph horiz-adv-x="1577" d="M 754 307 C 806 307 851 312 887 323 C 923 334 953 353 977 381 C 1001 408 1022 445 1038 491 C 1054 537 1068 596 1081 668 L 1102 786 C 1114 857 1121 918 1121 969 C 1121 1020 1112 1062 1092 1095 C 1072 1128 1041 1152 999 1168 C 956 1184 898 1192 825 1192 C 773 1192 729 1187 693 1177 C 657 1167 627 1149 603 1123 C 579 1097 559 1061 543 1016 C 527 970 512 912 500 842 L 479 723 C 467 651 460 589 460 537 C 460 485 469 442 489 408 C 508 374 539 348 581 332 C 623 315 681 307 754 307 Z M 723 -25 C 592 -25 479 -12 384 13 C 288 39 212 83 156 147 C 100 211 64 297 49 405 C 33 513 40 649 70 815 C 89 925 113 1019 142 1097 C 171 1175 204 1241 241 1295 C 278 1348 319 1390 364 1422 C 409 1453 457 1477 509 1493 C 561 1509 615 1520 673 1525 C 731 1529 791 1532 854 1532 C 942 1532 1022 1526 1094 1516 C 1166 1505 1229 1487 1285 1461 C 1340 1435 1386 1402 1424 1360 C 1462 1318 1490 1266 1510 1204 C 1529 1142 1539 1068 1539 984 C 1539 899 1530 802 1511 692 C 1491 582 1467 487 1439 409 C 1410 331 1377 265 1340 212 C 1302 159 1261 117 1216 86 C 1171 54 1123 30 1071 14 C 1019 -2 963 -13 905 -18 C 847 -22 786 -25 723 -25 Z M 475 1781 C 495 1799 521 1819 552 1842 C 583 1865 615 1887 649 1907 C 682 1927 715 1945 747 1959 C 779 1973 807 1980 831 1980 C 854 1980 879 1974 907 1964 C 935 1954 962 1943 989 1931 C 1016 1919 1041 1907 1064 1897 C 1086 1887 1104 1882 1118 1882 C 1128 1882 1140 1885 1154 1892 C 1168 1898 1183 1907 1199 1918 C 1215 1928 1232 1940 1250 1954 C 1268 1967 1285 1980 1302 1994 L 1468 1779 C 1446 1763 1420 1743 1390 1721 C 1359 1699 1327 1677 1294 1656 C 1260 1635 1227 1617 1195 1603 C 1163 1588 1135 1581 1112 1581 C 1088 1581 1063 1586 1035 1596 C 1007 1606 980 1618 954 1630 C 927 1642 902 1653 879 1663 C 856 1673 838 1679 825 1679 C 815 1679 803 1675 789 1669 C 775 1662 759 1653 743 1642 C 727 1631 710 1619 692 1606 C 674 1592 657 1579 641 1566 L 475 1781 Z" unicode="Õ" />
<glyph horiz-adv-x="1577" d="M 754 307 C 806 307 851 312 887 323 C 923 334 953 353 977 381 C 1001 408 1022 445 1038 491 C 1054 537 1068 596 1081 668 L 1102 786 C 1114 857 1121 918 1121 969 C 1121 1020 1112 1062 1092 1095 C 1072 1128 1041 1152 999 1168 C 956 1184 898 1192 825 1192 C 773 1192 729 1187 693 1177 C 657 1167 627 1149 603 1123 C 579 1097 559 1061 543 1016 C 527 970 512 912 500 842 L 479 723 C 467 651 460 589 460 537 C 460 485 469 442 489 408 C 508 374 539 348 581 332 C 623 315 681 307 754 307 Z M 723 -25 C 592 -25 479 -12 384 13 C 288 39 212 83 156 147 C 100 211 64 297 49 405 C 33 513 40 649 70 815 C 89 925 113 1019 142 1097 C 171 1175 204 1241 241 1295 C 278 1348 319 1390 364 1422 C 409 1453 457 1477 509 1493 C 561 1509 615 1520 673 1525 C 731 1529 791 1532 854 1532 C 942 1532 1022 1526 1094 1516 C 1166 1505 1229 1487 1285 1461 C 1340 1435 1386 1402 1424 1360 C 1462 1318 1490 1266 1510 1204 C 1529 1142 1539 1068 1539 984 C 1539 899 1530 802 1511 692 C 1491 582 1467 487 1439 409 C 1410 331 1377 265 1340 212 C 1302 159 1261 117 1216 86 C 1171 54 1123 30 1071 14 C 1019 -2 963 -13 905 -18 C 847 -22 786 -25 723 -25 Z M 594 1931 L 948 1931 L 891 1601 L 536 1601 L 594 1931 Z M 1048 1931 L 1403 1931 L 1345 1601 L 991 1601 L 1048 1931 Z" unicode="Ö" />
<glyph horiz-adv-x="1112" d="M 47 430 L 367 702 L 143 975 L 338 1139 L 563 866 L 883 1139 L 1032 958 L 711 686 L 936 414 L 743 250 L 518 522 L 199 250 L 47 430 Z" unicode="×" />
<glyph horiz-adv-x="1577" d="M 723 -25 C 644 -25 572 -20 507 -12 C 442 -3 383 10 331 30 L 164 -174 L -102 -174 L 159 145 C 130 177 106 214 88 256 C 70 298 57 347 49 402 C 41 457 39 519 43 587 C 46 655 55 731 70 815 C 89 925 113 1019 142 1097 C 171 1175 204 1241 241 1295 C 278 1348 319 1390 364 1422 C 409 1453 457 1477 509 1493 C 561 1509 615 1520 673 1525 C 731 1529 791 1532 854 1532 C 932 1532 1005 1527 1071 1519 C 1137 1510 1196 1496 1249 1476 L 1417 1681 L 1683 1681 L 1422 1362 C 1450 1330 1474 1292 1492 1250 C 1510 1208 1523 1159 1531 1104 C 1539 1049 1541 987 1538 919 C 1534 851 1525 775 1511 692 C 1491 582 1467 487 1439 409 C 1410 331 1377 265 1340 212 C 1302 159 1261 117 1216 86 C 1171 54 1123 30 1071 14 C 1019 -2 963 -13 905 -18 C 847 -22 786 -25 723 -25 Z M 754 299 C 806 299 851 304 888 316 C 925 328 956 348 982 376 C 1008 404 1029 442 1046 490 C 1063 537 1078 596 1092 668 L 1112 786 C 1120 830 1126 871 1130 908 C 1134 944 1134 978 1132 1008 L 572 325 C 615 307 676 299 754 299 Z M 469 723 C 461 679 456 638 452 601 C 448 564 448 531 451 501 L 1004 1177 C 981 1184 955 1190 926 1194 C 896 1198 863 1200 825 1200 C 773 1200 728 1194 692 1184 C 655 1173 624 1154 598 1127 C 572 1100 551 1063 534 1017 C 516 971 501 912 489 842 L 469 723 Z" unicode="Ø" />
<glyph horiz-adv-x="1511" d="M 737 -20 C 641 -20 557 -16 483 -10 C 409 -3 346 8 292 25 C 238 41 194 64 160 92 C 126 120 100 156 83 199 C 66 241 57 292 56 351 C 55 410 62 479 76 557 L 244 1507 L 647 1507 L 477 551 C 469 503 467 464 472 436 C 477 407 490 385 511 371 C 532 356 561 346 599 342 C 637 338 684 336 741 336 C 775 336 805 337 831 341 C 857 344 880 353 900 367 C 919 381 935 402 949 430 C 963 458 974 497 983 547 L 1153 1507 L 1538 1507 L 1358 494 C 1339 390 1313 304 1279 238 C 1245 171 1203 119 1153 81 C 1102 43 1042 16 973 2 C 904 -12 825 -20 737 -20 Z M 510 2050 L 960 2050 L 1099 1601 L 833 1601 L 510 2050 Z" unicode="Ù" />
<glyph horiz-adv-x="1511" d="M 737 -20 C 641 -20 557 -16 483 -10 C 409 -3 346 8 292 25 C 238 41 194 64 160 92 C 126 120 100 156 83 199 C 66 241 57 292 56 351 C 55 410 62 479 76 557 L 244 1507 L 647 1507 L 477 551 C 469 503 467 464 472 436 C 477 407 490 385 511 371 C 532 356 561 346 599 342 C 637 338 684 336 741 336 C 775 336 805 337 831 341 C 857 344 880 353 900 367 C 919 381 935 402 949 430 C 963 458 974 497 983 547 L 1153 1507 L 1538 1507 L 1358 494 C 1339 390 1313 304 1279 238 C 1245 171 1203 119 1153 81 C 1102 43 1042 16 973 2 C 904 -12 825 -20 737 -20 Z M 999 2050 L 1470 2050 L 991 1601 L 704 1601 L 999 2050 Z" unicode="Ú" />
<glyph horiz-adv-x="1511" d="M 737 -20 C 641 -20 557 -16 483 -10 C 409 -3 346 8 292 25 C 238 41 194 64 160 92 C 126 120 100 156 83 199 C 66 241 57 292 56 351 C 55 410 62 479 76 557 L 244 1507 L 647 1507 L 477 551 C 469 503 467 464 472 436 C 477 407 490 385 511 371 C 532 356 561 346 599 342 C 637 338 684 336 741 336 C 775 336 805 337 831 341 C 857 344 880 353 900 367 C 919 381 935 402 949 430 C 963 458 974 497 983 547 L 1153 1507 L 1538 1507 L 1358 494 C 1339 390 1313 304 1279 238 C 1245 171 1203 119 1153 81 C 1102 43 1042 16 973 2 C 904 -12 825 -20 737 -20 Z M 817 2009 L 1130 2009 L 1337 1601 L 1089 1601 L 934 1757 L 725 1601 L 467 1601 L 817 2009 Z" unicode="Û" />
<glyph horiz-adv-x="1511" d="M 737 -20 C 641 -20 557 -16 483 -10 C 409 -3 346 8 292 25 C 238 41 194 64 160 92 C 126 120 100 156 83 199 C 66 241 57 292 56 351 C 55 410 62 479 76 557 L 244 1507 L 647 1507 L 477 551 C 469 503 467 464 472 436 C 477 407 490 385 511 371 C 532 356 561 346 599 342 C 637 338 684 336 741 336 C 775 336 805 337 831 341 C 857 344 880 353 900 367 C 919 381 935 402 949 430 C 963 458 974 497 983 547 L 1153 1507 L 1538 1507 L 1358 494 C 1339 390 1313 304 1279 238 C 1245 171 1203 119 1153 81 C 1102 43 1042 16 973 2 C 904 -12 825 -20 737 -20 Z M 561 1931 L 915 1931 L 858 1601 L 503 1601 L 561 1931 Z M 1015 1931 L 1370 1931 L 1312 1601 L 958 1601 L 1015 1931 Z" unicode="Ü" />
<glyph horiz-adv-x="1552" d="M 532 489 L 156 1507 L 582 1507 L 801 887 L 1241 1507 L 1667 1507 L 936 498 L 848 0 L 446 0 L 532 489 Z M 1019 2050 L 1490 2050 L 1011 1601 L 724 1601 L 1019 2050 Z" unicode="Ý" />
<glyph horiz-adv-x="1425" d="M 254 1507 L 655 1507 L 625 1335 L 768 1335 C 886 1335 986 1325 1068 1307 C 1150 1289 1215 1257 1263 1211 C 1310 1165 1340 1104 1353 1026 C 1365 948 1361 849 1341 729 C 1327 650 1310 583 1289 527 C 1267 471 1243 424 1215 386 C 1187 348 1157 318 1123 296 C 1089 274 1053 257 1015 246 C 976 234 935 227 891 224 C 847 220 802 219 756 219 L 428 219 L 387 0 L -12 0 L 254 1507 Z M 737 537 C 752 537 769 538 789 541 C 809 544 828 553 847 567 C 866 581 884 604 900 634 C 916 664 930 706 940 760 C 950 818 951 863 945 897 C 939 931 926 956 907 974 C 888 991 864 1002 835 1007 C 805 1011 773 1014 739 1014 L 563 1014 L 479 537 L 737 537 Z" unicode="Þ" />
<glyph horiz-adv-x="1411" d="M 563 285 C 613 287 658 290 696 292 C 734 294 767 297 795 301 C 823 304 846 308 866 314 C 885 320 901 327 915 336 C 931 346 942 360 948 380 C 953 400 958 425 963 455 C 965 472 967 487 967 500 C 967 512 967 523 965 533 C 963 543 959 551 955 559 C 950 566 944 573 936 580 C 914 598 881 614 835 630 C 789 646 736 659 674 670 L 715 911 C 743 939 768 965 788 987 C 808 1009 826 1029 840 1049 C 854 1069 865 1088 873 1107 C 881 1125 887 1146 891 1169 C 894 1189 896 1206 896 1220 C 896 1234 891 1245 881 1253 C 871 1261 855 1268 833 1272 C 811 1276 779 1278 739 1278 C 727 1278 717 1277 710 1275 C 702 1273 696 1269 691 1263 C 686 1257 682 1248 679 1237 C 675 1225 672 1210 670 1192 L 387 -410 L 6 -410 L 203 711 L 66 711 L 117 993 L 254 993 L 291 1212 C 302 1280 318 1336 339 1381 C 360 1425 388 1461 423 1487 C 458 1513 501 1532 551 1543 C 601 1553 661 1559 731 1559 C 845 1559 940 1553 1014 1542 C 1088 1531 1146 1511 1187 1483 C 1227 1454 1253 1415 1263 1365 C 1273 1315 1271 1252 1257 1174 C 1251 1144 1246 1116 1240 1092 C 1234 1068 1224 1044 1210 1021 C 1196 997 1175 974 1149 950 C 1122 926 1085 899 1038 870 C 1062 860 1086 848 1112 835 C 1138 821 1162 807 1186 791 C 1210 775 1231 758 1250 740 C 1269 722 1284 703 1296 684 C 1312 655 1323 621 1328 582 C 1332 542 1330 496 1321 442 C 1314 404 1307 369 1300 336 C 1292 302 1284 272 1274 244 C 1264 216 1252 190 1238 168 C 1224 146 1207 127 1188 113 C 1158 90 1123 72 1082 58 C 1041 44 994 32 942 23 C 890 14 832 7 769 2 C 705 -2 637 -7 563 -12 L 563 285 Z" unicode="ß" />
<glyph horiz-adv-x="1231" d="M 283 1559 L 733 1559 L 872 1110 L 606 1110 L 283 1559 Z M 295 -16 C 226 -16 170 -5 128 16 C 86 37 55 70 35 114 C 15 158 5 214 5 282 C 5 350 14 430 31 524 C 47 617 66 695 89 758 C 112 821 139 872 169 910 C 199 948 234 975 272 991 C 310 1007 353 1016 401 1016 C 443 1016 484 1012 523 1006 C 562 999 598 991 631 982 C 664 973 693 964 719 955 C 744 945 764 938 778 932 L 815 993 L 1157 993 L 985 0 L 643 0 L 635 80 C 617 72 596 62 570 51 C 544 40 515 30 485 20 C 455 10 423 1 391 -5 C 358 -12 326 -16 295 -16 Z M 512 285 C 534 285 558 286 582 290 C 606 294 632 299 659 307 L 725 678 C 704 682 678 685 647 688 C 616 690 585 692 555 692 C 538 692 523 689 509 685 C 495 680 482 671 471 657 C 459 643 449 622 439 596 C 429 570 421 535 414 492 C 406 446 402 410 402 383 C 402 355 406 334 414 320 C 422 306 434 296 450 292 C 466 287 486 285 512 285 Z" unicode="à" />
<glyph horiz-adv-x="1231" d="M 772 1559 L 1243 1559 L 764 1110 L 477 1110 L 772 1559 Z M 295 -16 C 226 -16 170 -5 128 16 C 86 37 55 70 35 114 C 15 158 5 214 5 282 C 5 350 14 430 31 524 C 47 617 66 695 89 758 C 112 821 139 872 169 910 C 199 948 234 975 272 991 C 310 1007 353 1016 401 1016 C 443 1016 484 1012 523 1006 C 562 999 598 991 631 982 C 664 973 693 964 719 955 C 744 945 764 938 778 932 L 815 993 L 1157 993 L 985 0 L 643 0 L 635 80 C 617 72 596 62 570 51 C 544 40 515 30 485 20 C 455 10 423 1 391 -5 C 358 -12 326 -16 295 -16 Z M 512 285 C 534 285 558 286 582 290 C 606 294 632 299 659 307 L 725 678 C 704 682 678 685 647 688 C 616 690 585 692 555 692 C 538 692 523 689 509 685 C 495 680 482 671 471 657 C 459 643 449 622 439 596 C 429 570 421 535 414 492 C 406 446 402 410 402 383 C 402 355 406 334 414 320 C 422 306 434 296 450 292 C 466 287 486 285 512 285 Z" unicode="á" />
<glyph horiz-adv-x="1231" d="M 590 1518 L 903 1518 L 1110 1110 L 862 1110 L 707 1266 L 498 1110 L 240 1110 L 590 1518 Z M 295 -16 C 226 -16 170 -5 128 16 C 86 37 55 70 35 114 C 15 158 5 214 5 282 C 5 350 14 430 31 524 C 47 617 66 695 89 758 C 112 821 139 872 169 910 C 199 948 234 975 272 991 C 310 1007 353 1016 401 1016 C 443 1016 484 1012 523 1006 C 562 999 598 991 631 982 C 664 973 693 964 719 955 C 744 945 764 938 778 932 L 815 993 L 1157 993 L 985 0 L 643 0 L 635 80 C 617 72 596 62 570 51 C 544 40 515 30 485 20 C 455 10 423 1 391 -5 C 358 -12 326 -16 295 -16 Z M 512 285 C 534 285 558 286 582 290 C 606 294 632 299 659 307 L 725 678 C 704 682 678 685 647 688 C 616 690 585 692 555 692 C 538 692 523 689 509 685 C 495 680 482 671 471 657 C 459 643 449 622 439 596 C 429 570 421 535 414 492 C 406 446 402 410 402 383 C 402 355 406 334 414 320 C 422 306 434 296 450 292 C 466 287 486 285 512 285 Z" unicode="â" />
<glyph horiz-adv-x="1231" d="M 215 1290 C 235 1308 261 1328 292 1351 C 323 1374 355 1396 389 1416 C 422 1436 455 1454 487 1468 C 519 1482 547 1489 571 1489 C 594 1489 619 1483 647 1473 C 675 1463 702 1452 729 1440 C 756 1428 781 1416 804 1406 C 826 1396 844 1391 858 1391 C 868 1391 880 1394 894 1401 C 908 1407 923 1416 939 1427 C 955 1437 972 1449 990 1463 C 1008 1476 1025 1489 1042 1503 L 1208 1288 C 1186 1272 1160 1252 1130 1230 C 1099 1208 1067 1186 1034 1165 C 1000 1144 967 1126 935 1112 C 903 1097 875 1090 852 1090 C 828 1090 803 1095 775 1105 C 747 1115 720 1127 694 1139 C 667 1151 642 1162 619 1172 C 596 1182 578 1188 565 1188 C 555 1188 543 1184 529 1178 C 515 1171 499 1162 483 1151 C 467 1140 450 1128 432 1115 C 414 1101 397 1088 381 1075 L 215 1290 Z M 295 -16 C 226 -16 170 -5 128 16 C 86 37 55 70 35 114 C 15 158 5 214 5 282 C 5 350 14 430 31 524 C 47 617 66 695 89 758 C 112 821 139 872 169 910 C 199 948 234 975 272 991 C 310 1007 353 1016 401 1016 C 443 1016 484 1012 523 1006 C 562 999 598 991 631 982 C 664 973 693 964 719 955 C 744 945 764 938 778 932 L 815 993 L 1157 993 L 985 0 L 643 0 L 635 80 C 617 72 596 62 570 51 C 544 40 515 30 485 20 C 455 10 423 1 391 -5 C 358 -12 326 -16 295 -16 Z M 512 285 C 534 285 558 286 582 290 C 606 294 632 299 659 307 L 725 678 C 704 682 678 685 647 688 C 616 690 585 692 555 692 C 538 692 523 689 509 685 C 495 680 482 671 471 657 C 459 643 449 622 439 596 C 429 570 421 535 414 492 C 406 446 402 410 402 383 C 402 355 406 334 414 320 C 422 306 434 296 450 292 C 466 287 486 285 512 285 Z" unicode="ã" />
<glyph horiz-adv-x="1231" d="M 334 1440 L 688 1440 L 631 1110 L 276 1110 L 334 1440 Z M 788 1440 L 1143 1440 L 1085 1110 L 731 1110 L 788 1440 Z M 295 -16 C 226 -16 170 -5 128 16 C 86 37 55 70 35 114 C 15 158 5 214 5 282 C 5 350 14 430 31 524 C 47 617 66 695 89 758 C 112 821 139 872 169 910 C 199 948 234 975 272 991 C 310 1007 353 1016 401 1016 C 443 1016 484 1012 523 1006 C 562 999 598 991 631 982 C 664 973 693 964 719 955 C 744 945 764 938 778 932 L 815 993 L 1157 993 L 985 0 L 643 0 L 635 80 C 617 72 596 62 570 51 C 544 40 515 30 485 20 C 455 10 423 1 391 -5 C 358 -12 326 -16 295 -16 Z M 512 285 C 534 285 558 286 582 290 C 606 294 632 299 659 307 L 725 678 C 704 682 678 685 647 688 C 616 690 585 692 555 692 C 538 692 523 689 509 685 C 495 680 482 671 471 657 C 459 643 449 622 439 596 C 429 570 421 535 414 492 C 406 446 402 410 402 383 C 402 355 406 334 414 320 C 422 306 434 296 450 292 C 466 287 486 285 512 285 Z" unicode="ä" />
<glyph horiz-adv-x="1231" d="M 745 1092 C 673 1092 613 1096 563 1106 C 513 1115 474 1130 445 1152 C 416 1173 397 1201 388 1235 C 378 1269 378 1312 387 1362 C 395 1412 409 1451 429 1481 C 448 1510 471 1532 498 1548 C 525 1563 556 1573 590 1578 C 624 1582 660 1585 698 1585 C 768 1585 828 1579 877 1569 C 926 1558 965 1541 994 1519 C 1023 1496 1042 1467 1052 1432 C 1061 1396 1061 1354 1053 1305 C 1044 1255 1030 1215 1010 1187 C 990 1159 967 1138 940 1124 C 913 1110 883 1101 850 1097 C 816 1093 781 1092 745 1092 Z M 715 1221 C 732 1221 747 1221 760 1223 C 773 1224 784 1228 794 1235 C 804 1242 812 1253 819 1267 C 825 1281 831 1301 836 1327 C 840 1353 842 1374 840 1391 C 838 1407 833 1420 825 1430 C 816 1440 804 1446 788 1450 C 772 1454 751 1456 727 1456 C 709 1456 693 1455 680 1453 C 666 1451 655 1446 645 1438 C 635 1430 627 1419 621 1404 C 614 1389 608 1369 604 1343 C 599 1317 597 1297 599 1281 C 601 1265 606 1252 615 1243 C 623 1234 636 1228 652 1225 C 668 1222 689 1221 715 1221 Z M 295 -16 C 226 -16 170 -5 128 16 C 86 37 55 70 35 114 C 15 158 5 214 5 282 C 5 350 14 430 31 524 C 47 617 66 695 89 758 C 112 821 139 872 169 910 C 199 948 234 975 272 991 C 310 1007 353 1016 401 1016 C 443 1016 484 1012 523 1006 C 562 999 598 991 631 982 C 664 973 693 964 719 955 C 744 945 764 938 778 932 L 815 993 L 1157 993 L 985 0 L 643 0 L 635 80 C 617 72 596 62 570 51 C 544 40 515 30 485 20 C 455 10 423 1 391 -5 C 358 -12 326 -16 295 -16 Z M 512 285 C 534 285 558 286 582 290 C 606 294 632 299 659 307 L 725 678 C 704 682 678 685 647 688 C 616 690 585 692 555 692 C 538 692 523 689 509 685 C 495 680 482 671 471 657 C 459 643 449 622 439 596 C 429 570 421 535 414 492 C 406 446 402 410 402 383 C 402 355 406 334 414 320 C 422 306 434 296 450 292 C 466 287 486 285 512 285 Z" unicode="å" />
<glyph horiz-adv-x="1729" d="M 1194 -14 C 1138 -14 1089 -12 1045 -8 C 1001 -4 962 2 928 11 C 894 19 864 31 840 45 C 816 59 795 76 779 96 C 747 78 711 63 673 49 C 634 35 594 24 552 14 C 510 4 467 -2 423 -8 C 379 -13 337 -16 295 -16 C 226 -16 170 -5 128 16 C 86 37 55 70 35 114 C 15 158 5 214 5 282 C 5 350 14 430 31 524 C 47 617 66 695 89 758 C 112 821 139 872 169 910 C 199 948 234 975 272 991 C 310 1007 353 1016 401 1016 C 444 1016 488 1013 532 1008 C 576 1003 619 996 662 987 C 704 978 745 968 785 956 C 824 944 861 931 895 917 C 931 957 974 985 1022 1001 C 1070 1016 1126 1024 1190 1024 C 1292 1024 1375 1016 1440 1001 C 1505 985 1555 959 1589 921 C 1623 883 1642 832 1648 768 C 1653 704 1647 624 1630 528 L 1612 426 L 1034 426 C 1030 397 1029 374 1031 356 C 1033 338 1042 325 1057 315 C 1071 305 1093 298 1123 294 C 1152 290 1191 289 1241 289 C 1257 289 1276 289 1298 291 C 1320 292 1342 294 1365 296 C 1388 298 1410 300 1432 303 C 1453 305 1471 308 1487 311 L 1536 29 C 1488 16 1434 6 1376 -2 C 1317 -10 1256 -14 1194 -14 Z M 512 285 C 534 285 558 286 582 290 C 606 294 632 299 659 307 L 725 678 C 704 682 678 685 647 688 C 616 690 585 692 555 692 C 538 692 523 689 509 685 C 495 680 482 671 471 657 C 459 643 449 622 439 596 C 429 570 421 535 414 492 C 406 446 402 410 402 383 C 402 355 406 334 414 320 C 422 306 434 296 450 292 C 466 287 486 285 512 285 Z M 1198 772 C 1176 772 1158 770 1144 767 C 1130 764 1119 757 1110 747 C 1101 736 1093 720 1087 700 C 1080 679 1073 651 1067 616 L 1284 616 C 1289 645 1292 670 1294 690 C 1296 710 1294 726 1289 738 C 1283 750 1273 758 1259 764 C 1245 769 1224 772 1198 772 Z" unicode="æ" />
<glyph horiz-adv-x="965" d="M 66 -205 C 86 -201 108 -196 130 -191 C 152 -185 172 -180 192 -174 C 212 -168 229 -163 245 -157 C 260 -151 271 -145 279 -141 L 279 5 C 267 7 257 10 247 12 C 173 30 116 60 77 103 C 37 145 14 203 7 275 C 0 347 5 437 25 547 C 37 619 52 682 70 734 C 88 786 108 829 132 865 C 156 900 183 928 213 950 C 243 971 278 987 316 999 C 354 1010 397 1017 445 1021 C 492 1024 544 1026 602 1026 C 636 1026 669 1024 702 1021 C 734 1018 765 1014 794 1010 C 823 1005 850 1000 875 995 C 899 990 921 985 940 981 L 842 678 C 810 686 774 693 733 700 C 692 707 646 711 594 711 C 558 711 529 708 508 704 C 486 699 470 690 458 676 C 446 662 436 643 430 618 C 423 593 416 560 410 520 C 402 480 397 445 395 416 C 392 387 396 363 406 344 C 416 325 436 311 464 302 C 492 293 534 289 588 289 C 599 289 612 289 628 290 C 644 291 660 293 678 295 C 696 297 714 299 732 302 C 750 304 768 307 784 311 L 823 25 C 802 19 779 14 755 10 C 731 5 706 1 680 -2 C 654 -6 628 -9 602 -11 C 576 -13 552 -14 530 -14 L 508 -14 L 510 -295 C 496 -307 476 -320 450 -334 C 423 -348 391 -363 354 -378 C 316 -392 275 -407 229 -421 C 183 -435 135 -447 84 -457 L 66 -205 Z" unicode="ç" />
<glyph horiz-adv-x="1126" d="M 571 -14 C 451 -14 351 -4 272 13 C 193 31 132 62 89 106 C 46 149 20 207 10 279 C 0 351 5 441 25 549 C 38 623 54 686 74 738 C 93 790 115 834 141 869 C 166 904 194 932 225 953 C 255 973 289 989 325 999 C 361 1009 399 1016 439 1019 C 479 1022 522 1024 567 1024 C 679 1024 769 1016 838 1001 C 906 985 958 959 992 921 C 1026 883 1044 832 1048 768 C 1052 704 1045 624 1028 528 L 1010 426 L 391 426 C 387 397 388 374 392 356 C 396 338 406 325 422 315 C 438 305 461 298 493 294 C 524 290 566 289 618 289 C 634 289 655 289 679 291 C 703 292 728 294 754 296 C 780 298 804 300 827 303 C 850 305 869 308 885 311 L 934 29 C 910 23 883 17 855 12 C 826 6 796 2 765 -2 C 734 -6 702 -9 669 -11 C 636 -13 603 -14 571 -14 Z M 575 772 C 549 772 527 770 511 767 C 495 764 481 757 471 747 C 461 736 452 720 445 700 C 438 679 431 651 424 616 L 682 616 C 686 645 689 670 691 690 C 693 710 690 726 684 738 C 677 750 665 758 648 764 C 631 769 607 772 575 772 Z M 211 1559 L 661 1559 L 800 1110 L 534 1110 L 211 1559 Z" unicode="è" />
<glyph horiz-adv-x="1126" d="M 571 -14 C 451 -14 351 -4 272 13 C 193 31 132 62 89 106 C 46 149 20 207 10 279 C 0 351 5 441 25 549 C 38 623 54 686 74 738 C 93 790 115 834 141 869 C 166 904 194 932 225 953 C 255 973 289 989 325 999 C 361 1009 399 1016 439 1019 C 479 1022 522 1024 567 1024 C 679 1024 769 1016 838 1001 C 906 985 958 959 992 921 C 1026 883 1044 832 1048 768 C 1052 704 1045 624 1028 528 L 1010 426 L 391 426 C 387 397 388 374 392 356 C 396 338 406 325 422 315 C 438 305 461 298 493 294 C 524 290 566 289 618 289 C 634 289 655 289 679 291 C 703 292 728 294 754 296 C 780 298 804 300 827 303 C 850 305 869 308 885 311 L 934 29 C 910 23 883 17 855 12 C 826 6 796 2 765 -2 C 734 -6 702 -9 669 -11 C 636 -13 603 -14 571 -14 Z M 575 772 C 549 772 527 770 511 767 C 495 764 481 757 471 747 C 461 736 452 720 445 700 C 438 679 431 651 424 616 L 682 616 C 686 645 689 670 691 690 C 693 710 690 726 684 738 C 677 750 665 758 648 764 C 631 769 607 772 575 772 Z M 700 1559 L 1171 1559 L 692 1110 L 405 1110 L 700 1559 Z" unicode="é" />
<glyph horiz-adv-x="1126" d="M 571 -14 C 451 -14 351 -4 272 13 C 193 31 132 62 89 106 C 46 149 20 207 10 279 C 0 351 5 441 25 549 C 38 623 54 686 74 738 C 93 790 115 834 141 869 C 166 904 194 932 225 953 C 255 973 289 989 325 999 C 361 1009 399 1016 439 1019 C 479 1022 522 1024 567 1024 C 679 1024 769 1016 838 1001 C 906 985 958 959 992 921 C 1026 883 1044 832 1048 768 C 1052 704 1045 624 1028 528 L 1010 426 L 391 426 C 387 397 388 374 392 356 C 396 338 406 325 422 315 C 438 305 461 298 493 294 C 524 290 566 289 618 289 C 634 289 655 289 679 291 C 703 292 728 294 754 296 C 780 298 804 300 827 303 C 850 305 869 308 885 311 L 934 29 C 910 23 883 17 855 12 C 826 6 796 2 765 -2 C 734 -6 702 -9 669 -11 C 636 -13 603 -14 571 -14 Z M 575 772 C 549 772 527 770 511 767 C 495 764 481 757 471 747 C 461 736 452 720 445 700 C 438 679 431 651 424 616 L 682 616 C 686 645 689 670 691 690 C 693 710 690 726 684 738 C 677 750 665 758 648 764 C 631 769 607 772 575 772 Z M 518 1518 L 831 1518 L 1038 1110 L 790 1110 L 635 1266 L 426 1110 L 168 1110 L 518 1518 Z" unicode="ê" />
<glyph horiz-adv-x="1126" d="M 571 -14 C 451 -14 351 -4 272 13 C 193 31 132 62 89 106 C 46 149 20 207 10 279 C 0 351 5 441 25 549 C 38 623 54 686 74 738 C 93 790 115 834 141 869 C 166 904 194 932 225 953 C 255 973 289 989 325 999 C 361 1009 399 1016 439 1019 C 479 1022 522 1024 567 1024 C 679 1024 769 1016 838 1001 C 906 985 958 959 992 921 C 1026 883 1044 832 1048 768 C 1052 704 1045 624 1028 528 L 1010 426 L 391 426 C 387 397 388 374 392 356 C 396 338 406 325 422 315 C 438 305 461 298 493 294 C 524 290 566 289 618 289 C 634 289 655 289 679 291 C 703 292 728 294 754 296 C 780 298 804 300 827 303 C 850 305 869 308 885 311 L 934 29 C 910 23 883 17 855 12 C 826 6 796 2 765 -2 C 734 -6 702 -9 669 -11 C 636 -13 603 -14 571 -14 Z M 575 772 C 549 772 527 770 511 767 C 495 764 481 757 471 747 C 461 736 452 720 445 700 C 438 679 431 651 424 616 L 682 616 C 686 645 689 670 691 690 C 693 710 690 726 684 738 C 677 750 665 758 648 764 C 631 769 607 772 575 772 Z M 262 1440 L 616 1440 L 559 1110 L 204 1110 L 262 1440 Z M 716 1440 L 1071 1440 L 1013 1110 L 659 1110 L 716 1440 Z" unicode="ë" />
<glyph horiz-adv-x="639" d="M 174 993 L 555 993 L 379 0 L -2 0 L 174 993 Z M -11 1559 L 439 1559 L 578 1110 L 312 1110 L -11 1559 Z" unicode="ì" />
<glyph horiz-adv-x="639" d="M 174 993 L 555 993 L 379 0 L -2 0 L 174 993 Z M 478 1559 L 949 1559 L 470 1110 L 183 1110 L 478 1559 Z" unicode="í" />
<glyph horiz-adv-x="639" d="M 174 993 L 555 993 L 379 0 L -2 0 L 174 993 Z M 296 1518 L 609 1518 L 816 1110 L 568 1110 L 413 1266 L 204 1110 L -54 1110 L 296 1518 Z" unicode="î" />
<glyph horiz-adv-x="639" d="M 174 993 L 555 993 L 379 0 L -2 0 L 174 993 Z M 40 1440 L 394 1440 L 337 1110 L -18 1110 L 40 1440 Z M 494 1440 L 849 1440 L 791 1110 L 437 1110 L 494 1440 Z" unicode="ï" />
<glyph horiz-adv-x="1255" d="M 616 1358 L 769 1358 C 764 1377 759 1397 754 1417 C 749 1437 744 1457 739 1479 L 1124 1548 C 1131 1520 1138 1491 1145 1459 C 1151 1427 1157 1394 1163 1358 L 1382 1358 L 1333 1077 L 1192 1077 C 1195 1009 1195 940 1191 871 C 1187 801 1180 733 1169 666 C 1151 563 1132 475 1112 401 C 1092 327 1071 265 1047 214 C 1023 162 997 121 968 90 C 938 59 905 35 867 19 C 829 2 787 -8 739 -14 C 691 -20 638 -23 578 -23 C 456 -23 355 -15 275 0 C 195 14 134 42 92 82 C 49 122 23 176 14 246 C 4 315 9 404 29 514 C 47 616 67 699 91 764 C 115 829 142 880 173 918 C 203 955 238 981 276 995 C 314 1009 355 1016 401 1016 C 421 1016 448 1014 481 1010 C 513 1006 549 1001 587 993 C 625 985 664 974 704 962 C 744 950 781 935 815 918 C 816 946 816 973 816 999 C 815 1025 814 1051 813 1077 L 567 1077 L 616 1358 Z M 580 260 C 602 260 622 261 638 264 C 654 267 667 273 679 283 C 690 292 700 305 708 322 C 716 339 723 362 730 390 C 737 418 744 452 752 492 C 759 532 768 581 778 637 C 745 652 711 664 677 672 C 643 680 608 684 573 684 C 550 684 530 682 513 678 C 496 674 481 665 469 653 C 457 641 446 623 437 599 C 428 575 420 544 414 506 C 404 451 399 407 399 375 C 399 342 405 317 417 300 C 429 283 449 272 475 267 C 501 262 536 260 580 260 Z" unicode="ð" />
<glyph horiz-adv-x="1235" d="M 164 993 L 508 993 L 516 918 C 534 927 557 937 586 949 C 614 960 645 971 677 981 C 709 991 742 999 775 1006 C 807 1012 837 1016 864 1016 C 972 1016 1046 990 1086 940 C 1126 890 1137 817 1120 721 L 993 0 L 612 0 L 721 618 C 726 646 721 664 707 674 C 693 683 665 688 623 688 C 610 688 597 687 584 686 C 571 685 558 684 546 682 C 534 680 522 678 512 676 C 502 674 493 672 487 670 L 371 0 L -12 0 L 164 993 Z M 217 1290 C 237 1308 263 1328 294 1351 C 325 1374 357 1396 391 1416 C 424 1436 457 1454 489 1468 C 521 1482 549 1489 573 1489 C 596 1489 621 1483 649 1473 C 677 1463 704 1452 731 1440 C 758 1428 783 1416 806 1406 C 828 1396 846 1391 860 1391 C 870 1391 882 1394 896 1401 C 910 1407 925 1416 941 1427 C 957 1437 974 1449 992 1463 C 1010 1476 1027 1489 1044 1503 L 1210 1288 C 1188 1272 1162 1252 1132 1230 C 1101 1208 1069 1186 1036 1165 C 1002 1144 969 1126 937 1112 C 905 1097 877 1090 854 1090 C 830 1090 805 1095 777 1105 C 749 1115 722 1127 696 1139 C 669 1151 644 1162 621 1172 C 598 1182 580 1188 567 1188 C 557 1188 545 1184 531 1178 C 517 1171 501 1162 485 1151 C 469 1140 452 1128 434 1115 C 416 1101 399 1088 383 1075 L 217 1290 Z" unicode="ñ" />
<glyph horiz-adv-x="1210" d="M 545 -14 C 426 -14 329 -4 253 15 C 177 34 119 66 79 111 C 39 155 15 213 8 285 C 0 357 6 445 25 551 C 37 621 52 681 69 732 C 86 782 106 825 129 861 C 152 896 178 924 207 946 C 236 967 269 984 305 996 C 341 1008 382 1016 426 1020 C 470 1024 519 1026 573 1026 C 694 1026 793 1016 871 997 C 948 977 1007 945 1047 901 C 1087 856 1111 798 1119 726 C 1126 654 1120 565 1102 461 C 1090 391 1075 330 1058 280 C 1040 229 1020 186 997 151 C 974 115 948 87 918 66 C 888 44 855 28 818 16 C 781 4 740 -4 695 -8 C 649 -12 599 -14 545 -14 Z M 539 260 C 574 260 602 263 622 271 C 642 279 657 291 669 309 C 680 327 689 350 695 380 C 701 409 709 445 717 489 C 725 533 730 570 734 602 C 738 634 736 660 729 681 C 721 702 706 718 684 728 C 662 738 628 743 584 743 C 552 743 526 739 507 733 C 487 726 472 714 460 698 C 448 681 438 658 431 630 C 424 601 417 565 410 522 C 402 478 396 440 392 408 C 388 375 389 348 396 326 C 403 304 418 287 440 276 C 462 265 495 260 539 260 Z M 272 1559 L 722 1559 L 861 1110 L 595 1110 L 272 1559 Z" unicode="ò" />
<glyph horiz-adv-x="1210" d="M 545 -14 C 426 -14 329 -4 253 15 C 177 34 119 66 79 111 C 39 155 15 213 8 285 C 0 357 6 445 25 551 C 37 621 52 681 69 732 C 86 782 106 825 129 861 C 152 896 178 924 207 946 C 236 967 269 984 305 996 C 341 1008 382 1016 426 1020 C 470 1024 519 1026 573 1026 C 694 1026 793 1016 871 997 C 948 977 1007 945 1047 901 C 1087 856 1111 798 1119 726 C 1126 654 1120 565 1102 461 C 1090 391 1075 330 1058 280 C 1040 229 1020 186 997 151 C 974 115 948 87 918 66 C 888 44 855 28 818 16 C 781 4 740 -4 695 -8 C 649 -12 599 -14 545 -14 Z M 539 260 C 574 260 602 263 622 271 C 642 279 657 291 669 309 C 680 327 689 350 695 380 C 701 409 709 445 717 489 C 725 533 730 570 734 602 C 738 634 736 660 729 681 C 721 702 706 718 684 728 C 662 738 628 743 584 743 C 552 743 526 739 507 733 C 487 726 472 714 460 698 C 448 681 438 658 431 630 C 424 601 417 565 410 522 C 402 478 396 440 392 408 C 388 375 389 348 396 326 C 403 304 418 287 440 276 C 462 265 495 260 539 260 Z M 761 1559 L 1232 1559 L 753 1110 L 466 1110 L 761 1559 Z" unicode="ó" />
<glyph horiz-adv-x="1210" d="M 545 -14 C 426 -14 329 -4 253 15 C 177 34 119 66 79 111 C 39 155 15 213 8 285 C 0 357 6 445 25 551 C 37 621 52 681 69 732 C 86 782 106 825 129 861 C 152 896 178 924 207 946 C 236 967 269 984 305 996 C 341 1008 382 1016 426 1020 C 470 1024 519 1026 573 1026 C 694 1026 793 1016 871 997 C 948 977 1007 945 1047 901 C 1087 856 1111 798 1119 726 C 1126 654 1120 565 1102 461 C 1090 391 1075 330 1058 280 C 1040 229 1020 186 997 151 C 974 115 948 87 918 66 C 888 44 855 28 818 16 C 781 4 740 -4 695 -8 C 649 -12 599 -14 545 -14 Z M 539 260 C 574 260 602 263 622 271 C 642 279 657 291 669 309 C 680 327 689 350 695 380 C 701 409 709 445 717 489 C 725 533 730 570 734 602 C 738 634 736 660 729 681 C 721 702 706 718 684 728 C 662 738 628 743 584 743 C 552 743 526 739 507 733 C 487 726 472 714 460 698 C 448 681 438 658 431 630 C 424 601 417 565 410 522 C 402 478 396 440 392 408 C 388 375 389 348 396 326 C 403 304 418 287 440 276 C 462 265 495 260 539 260 Z M 579 1518 L 892 1518 L 1099 1110 L 851 1110 L 696 1266 L 487 1110 L 229 1110 L 579 1518 Z" unicode="ô" />
<glyph horiz-adv-x="1210" d="M 545 -14 C 426 -14 329 -4 253 15 C 177 34 119 66 79 111 C 39 155 15 213 8 285 C 0 357 6 445 25 551 C 37 621 52 681 69 732 C 86 782 106 825 129 861 C 152 896 178 924 207 946 C 236 967 269 984 305 996 C 341 1008 382 1016 426 1020 C 470 1024 519 1026 573 1026 C 694 1026 793 1016 871 997 C 948 977 1007 945 1047 901 C 1087 856 1111 798 1119 726 C 1126 654 1120 565 1102 461 C 1090 391 1075 330 1058 280 C 1040 229 1020 186 997 151 C 974 115 948 87 918 66 C 888 44 855 28 818 16 C 781 4 740 -4 695 -8 C 649 -12 599 -14 545 -14 Z M 539 260 C 574 260 602 263 622 271 C 642 279 657 291 669 309 C 680 327 689 350 695 380 C 701 409 709 445 717 489 C 725 533 730 570 734 602 C 738 634 736 660 729 681 C 721 702 706 718 684 728 C 662 738 628 743 584 743 C 552 743 526 739 507 733 C 487 726 472 714 460 698 C 448 681 438 658 431 630 C 424 601 417 565 410 522 C 402 478 396 440 392 408 C 388 375 389 348 396 326 C 403 304 418 287 440 276 C 462 265 495 260 539 260 Z M 204 1290 C 224 1308 250 1328 281 1351 C 312 1374 344 1396 378 1416 C 411 1436 444 1454 476 1468 C 508 1482 536 1489 560 1489 C 583 1489 608 1483 636 1473 C 664 1463 691 1452 718 1440 C 745 1428 770 1416 793 1406 C 815 1396 833 1391 847 1391 C 857 1391 869 1394 883 1401 C 897 1407 912 1416 928 1427 C 944 1437 961 1449 979 1463 C 997 1476 1014 1489 1031 1503 L 1197 1288 C 1175 1272 1149 1252 1119 1230 C 1088 1208 1056 1186 1023 1165 C 989 1144 956 1126 924 1112 C 892 1097 864 1090 841 1090 C 817 1090 792 1095 764 1105 C 736 1115 709 1127 683 1139 C 656 1151 631 1162 608 1172 C 585 1182 567 1188 554 1188 C 544 1188 532 1184 518 1178 C 504 1171 488 1162 472 1151 C 456 1140 439 1128 421 1115 C 403 1101 386 1088 370 1075 L 204 1290 Z" unicode="õ" />
<glyph horiz-adv-x="1210" d="M 545 -14 C 426 -14 329 -4 253 15 C 177 34 119 66 79 111 C 39 155 15 213 8 285 C 0 357 6 445 25 551 C 37 621 52 681 69 732 C 86 782 106 825 129 861 C 152 896 178 924 207 946 C 236 967 269 984 305 996 C 341 1008 382 1016 426 1020 C 470 1024 519 1026 573 1026 C 694 1026 793 1016 871 997 C 948 977 1007 945 1047 901 C 1087 856 1111 798 1119 726 C 1126 654 1120 565 1102 461 C 1090 391 1075 330 1058 280 C 1040 229 1020 186 997 151 C 974 115 948 87 918 66 C 888 44 855 28 818 16 C 781 4 740 -4 695 -8 C 649 -12 599 -14 545 -14 Z M 539 260 C 574 260 602 263 622 271 C 642 279 657 291 669 309 C 680 327 689 350 695 380 C 701 409 709 445 717 489 C 725 533 730 570 734 602 C 738 634 736 660 729 681 C 721 702 706 718 684 728 C 662 738 628 743 584 743 C 552 743 526 739 507 733 C 487 726 472 714 460 698 C 448 681 438 658 431 630 C 424 601 417 565 410 522 C 402 478 396 440 392 408 C 388 375 389 348 396 326 C 403 304 418 287 440 276 C 462 265 495 260 539 260 Z M 323 1440 L 677 1440 L 620 1110 L 265 1110 L 323 1440 Z M 777 1440 L 1132 1440 L 1074 1110 L 720 1110 L 777 1440 Z" unicode="ö" />
<glyph horiz-adv-x="1112" d="M 344 477 L 668 477 L 612 162 L 289 162 L 344 477 Z M 100 842 L 1044 842 L 997 565 L 53 565 L 100 842 Z M 479 1245 L 803 1245 L 748 930 L 424 930 L 479 1245 Z" unicode="÷" />
<glyph horiz-adv-x="1208" d="M 545 -14 C 488 -14 436 -11 390 -7 C 344 -3 302 3 264 12 L 121 -143 L -156 -143 L 79 111 C 39 155 15 213 8 285 C 0 357 6 445 25 551 C 37 621 52 681 69 732 C 86 782 106 825 129 861 C 152 896 178 924 207 946 C 236 967 269 984 305 996 C 341 1008 382 1016 426 1020 C 470 1024 519 1026 573 1026 C 639 1026 699 1023 752 1017 C 804 1011 851 1003 892 991 L 995 1102 L 1272 1102 L 1065 878 C 1097 833 1115 777 1120 709 C 1125 641 1119 558 1102 461 C 1090 391 1075 330 1058 280 C 1040 229 1020 186 997 151 C 974 115 948 87 918 66 C 888 44 855 28 818 16 C 781 4 740 -4 695 -8 C 649 -12 599 -14 545 -14 Z M 395 522 C 391 506 389 492 387 478 C 385 464 383 450 381 438 L 666 746 C 642 751 615 754 584 754 C 550 754 523 750 503 743 C 482 736 465 724 452 706 C 438 688 427 665 419 635 C 411 605 403 568 395 522 Z M 539 250 C 575 250 603 253 625 261 C 647 269 664 282 677 301 C 689 319 699 344 707 375 C 715 405 723 443 731 489 L 737 524 L 487 253 C 501 251 519 250 539 250 Z" unicode="ø" />
<glyph horiz-adv-x="1235" d="M 285 -23 C 176 -23 102 2 62 52 C 22 102 11 176 29 272 L 156 993 L 537 993 L 424 356 C 418 328 423 310 437 301 C 451 291 480 287 522 287 C 546 287 572 289 598 293 C 624 297 643 301 657 305 L 778 993 L 1161 993 L 985 0 L 641 0 L 633 76 C 615 66 591 55 563 44 C 534 32 503 22 471 12 C 439 2 406 -6 374 -13 C 341 -19 311 -23 285 -23 Z M 285 1559 L 735 1559 L 874 1110 L 608 1110 L 285 1559 Z" unicode="ù" />
<glyph horiz-adv-x="1235" d="M 285 -23 C 176 -23 102 2 62 52 C 22 102 11 176 29 272 L 156 993 L 537 993 L 424 356 C 418 328 423 310 437 301 C 451 291 480 287 522 287 C 546 287 572 289 598 293 C 624 297 643 301 657 305 L 778 993 L 1161 993 L 985 0 L 641 0 L 633 76 C 615 66 591 55 563 44 C 534 32 503 22 471 12 C 439 2 406 -6 374 -13 C 341 -19 311 -23 285 -23 Z M 774 1559 L 1245 1559 L 766 1110 L 479 1110 L 774 1559 Z" unicode="ú" />
<glyph horiz-adv-x="1235" d="M 285 -23 C 176 -23 102 2 62 52 C 22 102 11 176 29 272 L 156 993 L 537 993 L 424 356 C 418 328 423 310 437 301 C 451 291 480 287 522 287 C 546 287 572 289 598 293 C 624 297 643 301 657 305 L 778 993 L 1161 993 L 985 0 L 641 0 L 633 76 C 615 66 591 55 563 44 C 534 32 503 22 471 12 C 439 2 406 -6 374 -13 C 341 -19 311 -23 285 -23 Z M 592 1518 L 905 1518 L 1112 1110 L 864 1110 L 709 1266 L 500 1110 L 242 1110 L 592 1518 Z" unicode="û" />
<glyph horiz-adv-x="1235" d="M 285 -23 C 176 -23 102 2 62 52 C 22 102 11 176 29 272 L 156 993 L 537 993 L 424 356 C 418 328 423 310 437 301 C 451 291 480 287 522 287 C 546 287 572 289 598 293 C 624 297 643 301 657 305 L 778 993 L 1161 993 L 985 0 L 641 0 L 633 76 C 615 66 591 55 563 44 C 534 32 503 22 471 12 C 439 2 406 -6 374 -13 C 341 -19 311 -23 285 -23 Z M 336 1440 L 690 1440 L 633 1110 L 278 1110 L 336 1440 Z M 790 1440 L 1145 1440 L 1087 1110 L 733 1110 L 790 1440 Z" unicode="ü" />
<glyph horiz-adv-x="1169" d="M 266 29 L 55 993 L 444 993 L 547 459 L 840 993 L 1204 993 L 389 -410 L 6 -410 L 266 29 Z M 741 1559 L 1212 1559 L 733 1110 L 446 1110 L 741 1559 Z" unicode="ý" />
<glyph horiz-adv-x="1241" d="M 260 1548 L 641 1548 L 532 928 C 550 936 573 945 599 955 C 625 965 653 975 683 984 C 713 993 743 1001 774 1007 C 805 1013 835 1016 864 1016 C 932 1016 988 1005 1030 984 C 1072 962 1104 929 1124 885 C 1144 841 1153 785 1153 717 C 1153 649 1144 568 1128 475 C 1112 381 1092 303 1069 241 C 1046 178 1019 128 989 90 C 959 52 924 24 886 8 C 848 -7 805 -16 758 -16 C 715 -16 674 -13 635 -7 C 595 -1 559 6 526 14 C 492 22 463 31 438 40 C 412 49 393 57 379 63 L 297 -410 L -84 -410 L 260 1548 Z M 602 287 C 618 287 634 289 648 294 C 662 298 674 308 686 322 C 697 336 707 356 717 382 C 727 408 735 443 743 487 C 751 532 755 568 755 596 C 755 623 751 644 743 658 C 735 672 722 682 706 687 C 690 691 669 694 645 694 C 622 694 597 692 569 688 C 541 684 514 679 487 672 L 422 301 C 432 299 444 297 458 295 C 472 293 488 292 504 291 C 520 289 537 288 554 288 C 570 287 586 287 602 287 Z" unicode="þ" />
<glyph horiz-adv-x="1169" d="M 266 29 L 55 993 L 444 993 L 547 459 L 840 993 L 1204 993 L 389 -410 L 6 -410 L 266 29 Z M 303 1440 L 657 1440 L 600 1110 L 245 1110 L 303 1440 Z M 757 1440 L 1112 1440 L 1054 1110 L 700 1110 L 757 1440 Z" unicode="ÿ" />
<glyph horiz-adv-x="1475" d="M 199 690 L 61 690 L 117 993 L 254 993 L 268 1069 C 276 1113 285 1154 293 1192 C 301 1229 312 1263 326 1293 C 340 1323 358 1350 382 1374 C 406 1397 437 1417 477 1435 C 517 1453 566 1468 625 1480 C 684 1492 756 1501 842 1509 L 848 1155 C 802 1147 765 1139 739 1132 C 713 1124 693 1115 679 1105 C 665 1095 656 1082 651 1066 C 645 1050 641 1030 637 1006 L 635 993 L 879 993 L 899 1110 C 906 1154 913 1194 921 1231 C 928 1267 939 1301 953 1331 C 967 1361 986 1387 1010 1411 C 1034 1435 1066 1456 1108 1474 C 1150 1492 1202 1507 1264 1519 C 1326 1531 1403 1542 1493 1550 L 1499 1196 C 1463 1190 1432 1184 1407 1178 C 1382 1172 1361 1166 1345 1160 C 1328 1154 1315 1147 1305 1139 C 1295 1131 1288 1123 1283 1113 C 1278 1103 1274 1092 1272 1080 C 1270 1068 1268 1054 1266 1038 L 1260 993 L 1462 993 L 1407 690 L 1204 690 L 1012 -410 L 631 -410 L 823 690 L 580 690 L 387 -410 L 6 -410 L 199 690 Z" unicode="ﬀ" />
<glyph horiz-adv-x="1346" d="M 199 690 L 61 690 L 117 993 L 254 993 L 276 1122 C 284 1170 295 1212 308 1250 C 321 1287 339 1320 362 1349 C 385 1378 414 1404 450 1426 C 486 1448 530 1467 584 1484 C 638 1501 701 1516 775 1529 C 849 1541 936 1553 1036 1565 L 1061 1237 C 997 1227 942 1217 898 1209 C 853 1201 815 1192 785 1184 C 755 1176 731 1167 713 1159 C 695 1150 682 1141 673 1131 C 663 1121 657 1111 653 1099 C 649 1087 647 1075 645 1061 L 635 993 L 1262 993 L 1085 0 L 702 0 L 825 694 L 582 694 L 387 -410 L 6 -410 L 199 690 Z" unicode="ﬁ" />
<glyph horiz-adv-x="1343" d="M 975 1548 L 1356 1548 L 1083 0 L 702 0 L 975 1548 Z M 199 690 L 61 690 L 117 993 L 254 993 L 270 1090 C 278 1136 285 1178 293 1217 C 301 1255 311 1291 324 1323 C 337 1355 354 1383 376 1408 C 398 1433 427 1455 464 1474 C 500 1492 546 1508 601 1521 C 655 1533 722 1543 801 1550 L 815 1192 C 779 1184 750 1177 730 1171 C 709 1165 693 1157 682 1148 C 670 1138 662 1126 657 1111 C 652 1095 647 1075 643 1049 L 635 993 L 778 993 L 723 690 L 580 690 L 387 -410 L 6 -410 L 199 690 Z" unicode="ﬂ" />
<glyph horiz-adv-x="1020" d="M 477 152 C 391 152 321 160 265 176 C 209 192 165 219 135 255 C 104 291 85 339 79 397 C 72 455 76 526 90 610 C 104 693 124 761 148 814 C 172 866 201 908 234 938 C 267 968 304 988 346 999 C 388 1010 433 1016 483 1016 C 568 1016 639 1007 696 990 C 753 973 797 946 828 909 C 859 871 878 823 884 764 C 890 705 886 634 872 551 C 857 467 837 400 813 348 C 789 296 760 255 727 226 C 694 197 657 177 615 167 C 573 157 527 152 477 152 Z" unicode="•" />
<glyph horiz-adv-x="973" d="M 205 1440 L 1014 1440 L 956 1110 L 147 1110 L 205 1440 Z" unicode="̄" />
<glyph horiz-adv-x="973" d="M 588 1096 C 548 1096 506 1097 462 1101 C 418 1105 375 1110 335 1116 C 294 1122 257 1130 225 1138 C 193 1146 169 1155 154 1165 L 217 1522 L 510 1522 L 485 1386 C 498 1378 513 1372 531 1368 C 548 1364 569 1362 594 1362 C 616 1362 638 1363 658 1367 C 678 1370 696 1376 713 1386 L 737 1522 L 1030 1522 L 967 1165 C 950 1155 927 1145 899 1137 C 870 1128 838 1121 804 1115 C 769 1109 733 1104 695 1101 C 657 1097 622 1096 588 1096 Z" unicode="˘" />
<glyph horiz-adv-x="971" d="M 426 1487 L 807 1487 L 741 1110 L 360 1110 L 426 1487 Z" unicode="˙" />
<glyph horiz-adv-x="973" d="M 616 1092 C 544 1092 484 1096 434 1106 C 384 1115 345 1130 316 1152 C 287 1173 268 1201 259 1235 C 249 1269 249 1312 258 1362 C 266 1412 280 1451 300 1481 C 319 1510 342 1532 369 1548 C 396 1563 427 1573 461 1578 C 495 1582 531 1585 569 1585 C 639 1585 699 1579 748 1569 C 797 1558 836 1541 865 1519 C 894 1496 913 1467 923 1432 C 932 1396 932 1354 924 1305 C 915 1255 901 1215 881 1187 C 861 1159 838 1138 811 1124 C 784 1110 754 1101 721 1097 C 687 1093 652 1092 616 1092 Z M 586 1221 C 603 1221 618 1221 631 1223 C 644 1224 655 1228 665 1235 C 675 1242 683 1253 690 1267 C 696 1281 702 1301 707 1327 C 711 1353 713 1374 711 1391 C 709 1407 704 1420 696 1430 C 687 1440 675 1446 659 1450 C 643 1454 622 1456 598 1456 C 580 1456 564 1455 551 1453 C 537 1451 526 1446 516 1438 C 506 1430 498 1419 492 1404 C 485 1389 479 1369 475 1343 C 470 1317 468 1297 470 1281 C 472 1265 477 1252 486 1243 C 494 1234 507 1228 523 1225 C 539 1222 560 1221 586 1221 Z" unicode="˚" />
<glyph horiz-adv-x="3607" d="M 578 754 C 602 754 623 756 640 761 C 656 765 670 775 682 790 C 694 805 704 827 712 855 C 720 883 729 921 737 969 L 752 1042 C 760 1089 764 1128 765 1158 C 765 1188 761 1211 751 1229 C 741 1246 726 1258 705 1264 C 683 1270 654 1274 618 1274 C 594 1274 573 1272 557 1268 C 541 1264 527 1256 516 1242 C 504 1228 494 1207 486 1180 C 477 1152 469 1115 461 1069 L 449 995 C 440 947 435 908 434 878 C 432 847 436 822 446 804 C 455 785 470 772 492 765 C 513 757 542 754 578 754 Z M 1937 221 C 1961 221 1982 223 1999 228 C 2015 232 2029 242 2041 258 C 2053 273 2063 295 2072 323 C 2080 351 2089 388 2097 436 L 2111 510 C 2119 556 2123 595 2124 625 C 2125 655 2121 678 2111 696 C 2101 713 2086 725 2065 731 C 2043 737 2014 741 1978 741 C 1954 741 1933 739 1917 735 C 1901 731 1887 723 1875 709 C 1863 695 1853 675 1845 648 C 1837 620 1829 583 1821 537 L 1808 463 C 1799 415 1794 376 1793 345 C 1792 314 1796 289 1806 271 C 1815 252 1830 239 1851 232 C 1872 224 1901 221 1937 221 Z M 2990 221 C 3014 221 3035 223 3052 228 C 3068 232 3082 242 3094 258 C 3106 273 3116 295 3125 323 C 3133 351 3142 388 3150 436 L 3164 510 C 3172 556 3176 595 3177 625 C 3178 655 3174 678 3164 696 C 3154 713 3139 725 3117 731 C 3095 737 3067 741 3031 741 C 3007 741 2986 739 2970 735 C 2954 731 2940 723 2928 709 C 2916 695 2906 675 2898 648 C 2889 620 2881 583 2873 537 L 2861 463 C 2852 415 2847 376 2846 345 C 2845 314 2849 289 2859 271 C 2868 252 2883 239 2904 232 C 2925 224 2954 221 2990 221 Z M 586 506 C 486 506 402 514 334 532 C 266 550 212 580 174 622 C 135 664 111 721 101 792 C 91 863 96 952 115 1059 C 127 1130 143 1191 161 1242 C 179 1292 201 1335 225 1370 C 249 1405 275 1433 304 1454 C 333 1475 365 1491 399 1502 C 433 1513 469 1520 507 1524 C 545 1528 585 1530 627 1530 C 723 1530 804 1521 870 1504 C 936 1486 987 1456 1025 1414 C 1063 1372 1086 1315 1095 1245 C 1104 1174 1099 1085 1081 979 C 1068 907 1053 846 1035 796 C 1017 745 996 702 972 667 C 948 631 923 603 895 582 C 867 561 836 545 804 534 C 771 522 736 515 700 511 C 664 507 626 506 586 506 Z M 1946 -27 C 1846 -27 1762 -18 1694 0 C 1626 17 1572 47 1534 89 C 1495 131 1471 188 1461 259 C 1451 330 1456 419 1475 526 C 1487 596 1503 657 1521 708 C 1539 759 1561 802 1585 837 C 1609 872 1635 900 1664 921 C 1693 942 1725 958 1759 969 C 1793 980 1829 987 1867 991 C 1905 995 1945 997 1987 997 C 2083 997 2164 988 2230 971 C 2296 953 2347 923 2385 881 C 2423 839 2446 782 2455 712 C 2464 641 2459 552 2441 446 C 2428 375 2412 314 2394 263 C 2376 212 2355 169 2332 134 C 2308 98 2282 70 2254 49 C 2226 28 2195 12 2163 1 C 2131 -10 2096 -17 2060 -21 C 2024 -25 1986 -27 1946 -27 Z M 2998 -27 C 2899 -27 2815 -18 2747 0 C 2679 17 2625 47 2587 89 C 2548 131 2524 188 2514 259 C 2504 330 2509 419 2527 526 C 2539 596 2555 657 2574 708 C 2592 759 2613 802 2637 837 C 2661 872 2687 900 2717 921 C 2746 942 2777 958 2811 969 C 2845 980 2881 987 2919 991 C 2957 995 2997 997 3039 997 C 3135 997 3216 988 3282 971 C 3348 953 3400 923 3438 881 C 3475 839 3498 782 3508 712 C 3517 641 3512 552 3494 446 C 3481 375 3465 314 3447 263 C 3429 212 3408 169 3385 134 C 3361 98 3335 70 3307 49 C 3279 28 3248 12 3216 1 C 3184 -10 3149 -17 3113 -21 C 3076 -25 3038 -27 2998 -27 Z M 1505 1507 L 1847 1507 L 1055 0 L 713 0 L 1505 1507 Z" unicode="‰" />
<glyph horiz-adv-x="2083" d="M 1112 1507 L 1432 1507 L 1487 858 L 1749 1507 L 2083 1507 L 1921 594 L 1683 594 L 1808 1296 L 1526 594 L 1300 594 L 1266 1296 L 1141 594 L 950 594 L 1112 1507 Z M 449 1288 L 170 1288 L 209 1507 L 1024 1507 L 985 1288 L 707 1288 L 584 594 L 326 594 L 449 1288 Z" unicode="™" />
<glyph horiz-adv-x="973" d="M 401 -457 C 353 -447 308 -435 267 -421 C 226 -407 190 -392 158 -378 C 126 -363 100 -348 79 -334 C 57 -320 42 -307 33 -295 L 166 80 L 379 31 L 317 -141 C 322 -145 331 -151 345 -157 C 358 -163 373 -168 391 -174 C 409 -180 428 -185 448 -191 C 468 -196 487 -201 506 -205 L 401 -457 Z" unicode="˛" />
<glyph horiz-adv-x="973" d="M 86 1290 C 106 1308 132 1328 163 1351 C 194 1374 226 1396 260 1416 C 293 1436 326 1454 358 1468 C 390 1482 418 1489 442 1489 C 465 1489 490 1483 518 1473 C 546 1463 573 1452 600 1440 C 627 1428 652 1416 675 1406 C 697 1396 715 1391 729 1391 C 739 1391 751 1394 765 1401 C 779 1407 794 1416 810 1427 C 826 1437 843 1449 861 1463 C 879 1476 896 1489 913 1503 L 1079 1288 C 1057 1272 1031 1252 1001 1230 C 970 1208 938 1186 905 1165 C 871 1144 838 1126 806 1112 C 774 1097 746 1090 723 1090 C 699 1090 674 1095 646 1105 C 618 1115 591 1127 565 1139 C 538 1151 513 1162 490 1172 C 467 1182 449 1188 436 1188 C 426 1188 414 1184 400 1178 C 386 1171 370 1162 354 1151 C 338 1140 321 1128 303 1115 C 285 1101 268 1088 252 1075 L 86 1290 Z" unicode="˜" />
<glyph horiz-adv-x="1427" d="M 713 -25 C 616 -25 528 -7 450 29 C 372 65 305 113 250 175 C 195 237 153 309 123 391 C 93 473 78 560 78 653 C 78 747 92 835 122 917 C 151 999 193 1071 248 1133 C 303 1194 370 1242 450 1278 C 529 1313 619 1331 719 1331 C 819 1331 908 1313 987 1277 C 1065 1241 1132 1192 1187 1130 C 1241 1068 1283 996 1313 914 C 1343 832 1358 744 1360 651 L 356 651 L 356 201 C 404 153 458 116 517 92 C 576 67 641 55 713 55 C 773 55 828 62 876 77 C 924 92 967 113 1006 139 C 1044 165 1079 197 1110 233 C 1141 269 1170 309 1198 352 L 1274 305 C 1242 256 1208 211 1172 171 C 1136 131 1095 96 1051 67 C 1007 38 957 15 902 0 C 846 -16 783 -25 713 -25 Z M 1075 733 L 1075 1106 C 1053 1126 1028 1146 1001 1164 C 973 1182 944 1197 914 1210 C 883 1222 851 1232 818 1240 C 784 1247 751 1251 717 1251 C 647 1251 581 1238 520 1214 C 458 1190 404 1154 356 1106 L 356 733 L 1075 733 Z" unicode="℮" />
<glyph horiz-adv-x="971" d="M 342 1559 L 723 1559 L 244 1110 L 47 1110 L 342 1559 Z M 752 1559 L 1133 1559 L 653 1110 L 457 1110 L 752 1559 Z" unicode="˝" />
<glyph horiz-adv-x="639" d="M 174 993 L 555 993 L 379 0 L -2 0 L 174 993 Z" unicode="ı" />
<glyph horiz-adv-x="1196" d="M 84 537 L -53 489 L -8 745 L 129 793 L 256 1507 L 657 1507 L 557 938 L 801 1022 L 756 766 L 512 682 L 451 336 L 1087 336 L 1028 0 L -10 0 L 84 537 Z" unicode="Ł" />
<glyph horiz-adv-x="803" d="M 176 551 L 10 489 L 55 745 L 221 807 L 352 1548 L 733 1548 L 631 961 L 797 1022 L 752 766 L 586 705 L 461 0 L 80 0 L 176 551 Z" unicode="ł" />
<glyph horiz-adv-x="971" d="M 461 1518 L 774 1518 L 981 1110 L 733 1110 L 578 1266 L 369 1110 L 111 1110 L 461 1518 Z" unicode="ˆ" />
<glyph horiz-adv-x="2050" d="M 803 0 C 697 0 603 4 521 12 C 438 20 366 35 305 57 C 244 79 194 108 154 146 C 114 184 85 232 66 291 C 47 349 38 420 39 503 C 39 585 50 683 70 795 C 89 906 112 1001 139 1080 C 165 1158 196 1224 230 1277 C 264 1329 303 1371 345 1402 C 387 1432 432 1455 482 1471 C 531 1486 584 1496 641 1500 C 697 1504 758 1507 823 1507 L 2107 1507 L 2046 1161 L 1427 1161 L 1386 930 L 1874 930 L 1812 584 L 1325 584 L 1282 336 L 1901 336 L 1841 0 L 803 0 Z M 897 330 L 1047 1167 L 831 1167 C 775 1167 729 1161 691 1150 C 653 1138 622 1119 596 1092 C 570 1064 550 1028 534 983 C 518 937 504 881 492 813 L 473 715 C 461 647 455 588 456 540 C 457 491 468 451 489 420 C 509 389 541 366 585 352 C 628 337 686 330 760 330 L 897 330 Z" unicode="Œ" />
<glyph horiz-adv-x="1757" d="M 1223 -14 C 1136 -14 1063 -9 1003 1 C 943 11 893 27 854 51 C 816 25 772 7 722 -1 C 672 -9 613 -14 545 -14 C 426 -14 329 -4 253 15 C 177 34 119 66 79 111 C 39 155 15 213 8 285 C 0 357 6 445 25 551 C 37 621 52 681 69 732 C 86 782 106 825 129 861 C 152 896 178 924 207 946 C 236 967 269 984 305 996 C 341 1008 382 1016 426 1020 C 470 1024 519 1026 573 1026 C 655 1026 725 1019 785 1007 C 845 995 895 975 935 947 C 955 964 977 978 1000 988 C 1022 998 1046 1006 1070 1012 C 1094 1017 1118 1020 1143 1022 C 1168 1023 1193 1024 1219 1024 C 1321 1024 1404 1016 1469 1001 C 1534 985 1584 959 1618 921 C 1652 883 1671 832 1677 768 C 1682 704 1676 624 1659 528 L 1640 426 L 1062 426 C 1058 397 1057 374 1060 356 C 1062 338 1071 325 1086 315 C 1100 305 1122 298 1152 294 C 1181 290 1220 289 1270 289 C 1286 289 1305 289 1327 291 C 1349 292 1371 294 1394 296 C 1417 298 1439 300 1461 303 C 1482 305 1500 308 1516 311 L 1565 29 C 1516 16 1462 6 1404 -2 C 1346 -10 1285 -14 1223 -14 Z M 539 260 C 574 260 602 263 622 271 C 642 279 657 291 669 309 C 680 327 689 350 695 380 C 701 409 709 445 717 489 C 725 533 730 570 734 602 C 738 634 736 660 729 681 C 721 702 706 718 684 728 C 662 738 628 743 584 743 C 552 743 526 739 507 733 C 487 726 472 714 460 698 C 448 681 438 658 431 630 C 424 601 417 565 410 522 C 402 478 396 440 392 408 C 388 375 389 348 396 326 C 403 304 418 287 440 276 C 462 265 495 260 539 260 Z M 1227 772 C 1205 772 1187 770 1173 767 C 1159 764 1147 757 1138 747 C 1129 736 1121 720 1115 700 C 1108 679 1101 651 1095 616 L 1313 616 C 1317 645 1320 670 1322 690 C 1324 710 1322 726 1317 738 C 1311 750 1302 758 1288 764 C 1274 769 1253 772 1227 772 Z" unicode="œ" />
<glyph horiz-adv-x="805" d="M 53 469 L 375 891 L 702 891 L 420 469 L 555 51 L 225 51 L 53 469 Z" unicode="‹" />
<glyph horiz-adv-x="805" d="M 289 473 L 154 891 L 483 891 L 655 473 L 334 51 L 6 51 L 289 473 Z" unicode="›" />
<glyph horiz-adv-x="1296" d="M 612 -20 C 543 -20 477 -18 415 -15 C 353 -11 294 -7 240 -1 C 186 5 136 12 91 20 C 45 28 5 37 -29 47 L 74 387 C 84 384 100 380 122 375 C 143 370 168 365 196 360 C 224 354 256 349 290 343 C 324 337 360 332 396 328 C 432 323 468 319 505 317 C 541 314 576 313 610 313 C 642 313 667 314 686 316 C 705 318 720 322 732 330 C 743 338 751 349 757 364 C 762 379 767 400 772 426 C 776 450 777 470 776 486 C 774 501 767 514 753 525 C 739 536 716 547 685 557 C 654 567 611 580 555 596 C 487 615 427 633 377 651 C 326 668 283 686 248 706 C 213 726 185 748 165 772 C 144 796 129 824 121 857 C 112 889 109 927 111 971 C 113 1014 119 1065 129 1124 C 139 1181 153 1231 172 1273 C 190 1315 213 1352 239 1382 C 265 1412 294 1436 326 1455 C 358 1473 394 1488 432 1499 C 470 1510 510 1518 553 1522 C 596 1526 641 1528 688 1528 C 740 1528 793 1526 849 1524 C 905 1522 959 1518 1011 1514 C 1063 1509 1113 1503 1159 1496 C 1205 1489 1246 1481 1280 1473 L 1165 1139 C 1133 1146 1095 1153 1052 1159 C 1009 1165 964 1170 918 1174 C 872 1178 825 1181 779 1183 C 733 1185 691 1186 653 1186 C 629 1186 610 1184 596 1181 C 582 1177 570 1172 562 1164 C 553 1156 546 1145 542 1132 C 538 1118 534 1101 530 1081 C 526 1055 524 1035 525 1020 C 525 1005 532 992 544 982 C 556 972 577 962 605 954 C 633 945 672 934 723 920 C 798 899 863 879 918 861 C 973 843 1019 823 1056 803 C 1093 783 1122 761 1144 737 C 1165 713 1180 684 1189 652 C 1197 619 1200 581 1198 538 C 1196 495 1190 445 1180 387 C 1164 301 1141 232 1111 179 C 1080 126 1041 85 994 56 C 947 26 892 6 828 -4 C 764 -14 692 -20 612 -20 Z M 440 2009 L 691 2009 L 845 1853 L 1056 2009 L 1310 2009 L 960 1601 L 646 1601 L 440 2009 Z" unicode="Š" />
<glyph horiz-adv-x="1004" d="M 438 -12 C 351 -12 265 -7 181 1 C 97 9 21 24 -47 45 L 31 289 C 51 283 78 276 111 269 C 143 262 178 256 215 250 C 251 244 288 239 325 235 C 362 231 396 229 426 229 C 444 229 458 229 468 230 C 478 230 487 232 493 235 C 499 238 503 243 506 250 C 508 256 511 266 514 279 C 516 291 516 302 515 310 C 513 318 507 325 496 331 C 484 337 466 344 442 350 C 417 356 382 365 338 375 C 287 385 244 397 208 409 C 172 421 142 434 119 449 C 95 463 77 480 65 498 C 52 516 43 538 39 562 C 35 586 34 614 37 645 C 39 676 44 712 51 752 C 62 814 80 864 104 901 C 128 937 158 965 193 984 C 227 1003 267 1015 311 1020 C 355 1025 402 1028 453 1028 C 497 1028 544 1026 592 1024 C 640 1022 686 1019 730 1015 C 774 1011 814 1006 851 1000 C 887 994 917 989 940 983 L 862 733 C 833 740 802 746 768 752 C 734 758 699 762 664 766 C 629 770 595 773 562 775 C 528 777 498 778 471 778 C 459 778 449 777 441 776 C 433 775 426 773 422 769 C 417 765 413 760 410 754 C 407 748 405 739 403 729 C 400 715 399 704 401 696 C 403 688 409 681 421 675 C 433 669 451 664 477 659 C 502 653 537 647 582 639 C 660 625 722 609 767 592 C 811 575 844 553 864 527 C 884 500 894 467 894 428 C 894 389 889 341 879 283 C 866 213 847 159 821 120 C 795 80 763 51 726 31 C 688 11 645 0 597 -5 C 548 -9 495 -12 438 -12 Z M 209 1518 L 460 1518 L 614 1362 L 825 1518 L 1079 1518 L 729 1110 L 415 1110 L 209 1518 Z" unicode="š" />
<glyph horiz-adv-x="850" d="M 6 -66 C 56 -57 94 -48 122 -40 C 150 -31 170 -21 183 -9 C 195 3 203 17 205 35 C 207 52 209 74 209 102 L 209 1110 C 209 1154 210 1193 212 1229 C 214 1265 221 1297 231 1326 C 241 1355 257 1381 279 1404 C 300 1427 330 1448 368 1466 C 406 1484 455 1499 513 1513 C 571 1527 643 1539 727 1550 L 793 1206 C 743 1197 704 1188 676 1180 C 648 1172 628 1162 616 1150 C 603 1138 595 1123 593 1105 C 591 1087 590 1065 590 1038 L 590 31 C 590 -13 588 -53 586 -89 C 584 -125 577 -157 567 -186 C 557 -215 541 -241 519 -264 C 497 -286 467 -307 429 -325 C 391 -343 343 -359 285 -373 C 227 -387 156 -399 72 -410 L 6 -66 Z" unicode="∫" />
<glyph horiz-adv-x="971" d="M 193 1518 L 444 1518 L 598 1362 L 809 1518 L 1063 1518 L 713 1110 L 399 1110 L 193 1518 Z" unicode="ˇ" />
<glyph horiz-adv-x="1552" d="M 532 489 L 156 1507 L 582 1507 L 801 887 L 1241 1507 L 1667 1507 L 936 498 L 848 0 L 446 0 L 532 489 Z M 581 1931 L 935 1931 L 878 1601 L 523 1601 L 581 1931 Z M 1035 1931 L 1390 1931 L 1332 1601 L 978 1601 L 1035 1931 Z" unicode="Ÿ" />
<glyph horiz-adv-x="2271" d="M 86 389 L 547 389 L 477 0 L 16 0 L 86 389 Z M 844 389 L 1305 389 L 1235 0 L 774 0 L 844 389 Z M 1599 389 L 2060 389 L 1991 0 L 1530 0 L 1599 389 Z" unicode="…" />
<glyph horiz-adv-x="1352" d="M 0 336 L 858 1161 L 164 1161 L 225 1507 L 1413 1507 L 1352 1161 L 502 336 L 1223 336 L 1163 0 L -59 0 L 0 336 Z M 469 2009 L 720 2009 L 874 1853 L 1085 2009 L 1339 2009 L 989 1601 L 675 1601 L 469 2009 Z" unicode="Ž" />
<glyph horiz-adv-x="1087" d="M -12 266 L 512 690 L 80 690 L 135 993 L 1057 993 L 1010 727 L 494 299 L 965 299 L 911 0 L -59 0 L -12 266 Z M 250 1518 L 501 1518 L 655 1362 L 866 1518 L 1120 1518 L 770 1110 L 456 1110 L 250 1518 Z" unicode="ž" />
<glyph horiz-adv-x="889" d="M 10 360 L 496 760 L 153 1171 L 493 1171 L 847 760 L 350 360 L 10 360 Z M -55 0 L -11 254 L 751 254 L 707 0 L -55 0 Z" unicode="≥" />
<glyph horiz-adv-x="1970" d="M 199 690 L 61 690 L 117 993 L 254 993 L 268 1069 C 276 1113 285 1154 293 1192 C 301 1229 312 1263 326 1293 C 340 1323 358 1350 382 1374 C 406 1397 437 1417 477 1435 C 517 1453 566 1468 625 1480 C 684 1492 756 1501 842 1509 L 848 1155 C 802 1147 765 1139 739 1132 C 713 1124 693 1115 679 1105 C 665 1095 656 1082 651 1066 C 645 1050 641 1030 637 1006 L 635 993 L 879 993 L 901 1122 C 909 1170 919 1212 932 1250 C 945 1287 963 1320 987 1349 C 1010 1378 1039 1404 1075 1426 C 1111 1448 1155 1467 1209 1484 C 1262 1501 1326 1516 1400 1529 C 1474 1541 1561 1553 1661 1565 L 1686 1237 C 1622 1227 1567 1217 1523 1209 C 1478 1201 1440 1192 1410 1184 C 1380 1176 1356 1167 1338 1159 C 1320 1150 1307 1141 1298 1131 C 1288 1121 1282 1111 1278 1099 C 1274 1087 1272 1075 1270 1061 L 1260 993 L 1886 993 L 1710 0 L 1327 0 L 1450 694 L 1206 694 L 1012 -410 L 631 -410 L 825 690 L 580 690 L 387 -410 L 6 -410 L 199 690 Z" unicode="ﬃ" />
<glyph horiz-adv-x="1024" d="M 268 571 L 109 571 L 109 870 L 319 870 L 360 1130 C 366 1172 375 1210 385 1243 C 395 1276 408 1305 425 1330 C 442 1355 464 1377 491 1396 C 517 1414 550 1430 590 1444 C 630 1458 677 1470 733 1480 C 788 1490 853 1499 928 1507 L 975 1200 C 921 1191 878 1183 847 1175 C 816 1167 792 1158 776 1147 C 759 1135 747 1121 741 1103 C 735 1085 729 1062 725 1034 L 698 870 L 918 870 L 918 571 L 647 571 L 498 -328 L 119 -328 L 268 571 Z" unicode="ƒ" />
<glyph horiz-adv-x="1591" d="M 745 1518 L 1115 1518 L 1438 0 L -113 0 L 745 1518 Z M 458 334 L 966 334 L 831 1008 L 458 334 Z" unicode="Δ" />
<glyph horiz-adv-x="868" d="M 662 1507 L 1004 1507 L 211 0 L -131 0 L 662 1507 Z" unicode="⁄" />
<glyph horiz-adv-x="1356" d="M -80 0 L -31 276 L 246 276 L 266 393 C 235 405 207 420 182 439 C 157 458 136 482 118 510 C 100 538 87 572 77 610 C 67 648 63 693 63 745 C 63 774 64 804 68 836 C 71 868 76 902 82 940 C 96 1024 115 1097 137 1159 C 159 1220 184 1272 214 1314 C 244 1356 277 1391 315 1417 C 353 1443 395 1463 441 1477 C 487 1491 537 1501 592 1506 C 647 1510 707 1513 772 1513 C 856 1513 933 1507 1004 1495 C 1074 1483 1135 1461 1187 1429 C 1238 1397 1278 1353 1307 1297 C 1335 1241 1350 1169 1350 1081 C 1350 1054 1348 1026 1346 997 C 1344 967 1339 936 1333 903 C 1318 819 1299 748 1275 690 C 1251 632 1224 584 1192 545 C 1160 506 1125 475 1087 451 C 1049 427 1007 408 963 393 L 942 276 L 1219 276 L 1169 0 L 606 0 L 707 573 C 751 579 788 587 817 598 C 845 609 869 626 888 650 C 907 673 923 704 935 744 C 947 784 958 835 969 899 C 974 927 978 953 981 977 C 983 1001 985 1022 985 1042 C 985 1075 980 1103 972 1125 C 963 1147 949 1164 929 1177 C 909 1190 882 1199 850 1205 C 818 1210 778 1213 731 1214 C 683 1214 642 1209 610 1200 C 578 1191 551 1175 529 1151 C 507 1127 489 1096 475 1056 C 461 1016 448 965 438 903 C 432 867 427 834 423 806 C 419 778 418 753 418 733 C 418 707 420 685 426 668 C 432 650 441 636 455 625 C 468 613 485 604 507 597 C 528 590 554 584 586 580 L 483 0 L -80 0 Z" unicode="Ω" />
<glyph horiz-adv-x="1073" d="M -41 451 C -27 461 -10 474 9 488 C 28 502 49 517 71 532 C 93 547 116 562 140 577 C 164 591 187 604 210 616 C 233 628 255 637 276 644 C 296 651 315 655 331 655 C 346 655 364 652 386 647 C 408 642 431 636 455 629 C 479 622 503 614 528 606 C 552 597 576 589 598 582 C 620 575 639 569 657 564 C 674 559 687 557 696 557 C 706 557 718 560 732 567 C 746 573 761 582 777 593 C 793 603 811 615 829 629 C 847 643 864 656 882 670 L 1013 483 C 992 467 965 447 933 424 C 900 400 866 378 831 356 C 795 334 761 315 727 299 C 693 283 664 276 641 276 C 617 276 588 281 552 291 C 516 301 479 313 443 325 C 406 337 372 349 341 359 C 310 369 288 375 275 375 C 265 375 253 371 239 365 C 225 358 209 349 193 338 C 176 327 159 315 141 302 C 123 288 106 275 89 262 L -41 451 Z M 38 901 C 52 911 68 924 88 939 C 107 953 128 968 150 983 C 172 998 196 1013 220 1028 C 244 1042 267 1055 290 1067 C 313 1079 335 1088 355 1095 C 375 1102 394 1106 410 1106 C 425 1106 443 1103 465 1098 C 487 1093 510 1087 534 1080 C 558 1073 582 1065 607 1057 C 632 1048 656 1040 678 1033 C 700 1026 719 1020 736 1015 C 753 1010 766 1008 776 1008 C 786 1008 798 1011 812 1018 C 826 1024 841 1033 857 1044 C 873 1054 890 1066 908 1080 C 926 1093 943 1106 961 1120 L 1092 934 C 1071 918 1044 898 1012 874 C 980 850 946 828 910 806 C 874 784 840 766 806 750 C 772 734 743 727 720 727 C 704 727 686 729 664 734 C 642 739 620 745 596 752 C 572 759 547 767 522 776 C 497 784 474 792 452 799 C 430 806 410 812 393 817 C 375 822 362 825 354 825 C 344 825 332 821 318 815 C 304 808 288 799 272 789 C 256 778 239 766 221 753 C 203 739 185 726 169 713 L 38 901 Z" unicode="≈" />
<glyph horiz-adv-x="1276" d="M -95 -410 L 153 993 L 534 993 L 424 375 C 419 347 424 328 438 319 C 452 309 479 305 519 305 C 537 305 555 305 574 307 C 592 309 610 311 627 314 C 643 316 658 319 671 322 C 684 324 694 326 701 328 L 818 993 L 1199 993 L 1024 2 L 682 0 L 670 96 C 656 88 639 80 617 71 C 595 62 570 54 543 46 C 516 38 488 31 458 26 C 428 20 398 18 368 18 L 362 18 L 286 -410 L -95 -410 Z" unicode="μ" />
<glyph horiz-adv-x="1268" d="M 153 993 L 1199 993 L 1024 0 L 643 0 L 765 690 L 480 690 L 358 0 L -23 0 L 153 993 Z" unicode="π" />
<glyph horiz-adv-x="1073" d="M 969 1233 L 848 1028 L 1011 1028 L 966 774 L 699 774 L 613 627 L 940 627 L 895 373 L 464 373 L 337 156 L 81 156 L 209 373 L 43 373 L 88 627 L 359 627 L 446 774 L 114 774 L 159 1028 L 596 1028 L 717 1233 L 969 1233 Z" unicode="≠" />
<glyph horiz-adv-x="1339" d="M 43 741 L 469 1507 L 870 1507 L 1296 766 L 870 0 L 469 0 L 43 741 Z M 946 766 L 672 1255 L 393 741 L 668 252 L 946 766 Z" unicode="◊" />
<glyph horiz-adv-x="889" d="M 44 760 L 542 1171 L 882 1171 L 394 760 L 739 360 L 399 360 L 44 760 Z M -39 254 L 723 254 L 678 0 L -84 0 L -39 254 Z" unicode="≤" />
<glyph horiz-adv-x="1108" d="M 418 772 L 76 772 L 125 1051 L 467 1051 L 555 1548 L 836 1548 L 748 1051 L 1090 1051 L 1040 772 L 698 772 L 514 -276 L 233 -276 L 418 772 Z" unicode="†" />
<glyph horiz-adv-x="1968" d="M 199 690 L 61 690 L 117 993 L 254 993 L 268 1069 C 276 1113 285 1154 293 1192 C 301 1229 312 1263 326 1293 C 340 1323 358 1350 382 1374 C 406 1397 437 1417 477 1435 C 517 1453 566 1468 625 1480 C 684 1492 756 1501 842 1509 L 848 1155 C 802 1147 765 1139 739 1132 C 713 1124 693 1115 679 1105 C 665 1095 656 1082 651 1066 C 645 1050 641 1030 637 1006 L 635 993 L 877 993 L 895 1090 C 903 1136 910 1178 918 1217 C 926 1255 936 1291 949 1323 C 962 1355 979 1383 1001 1408 C 1022 1433 1051 1455 1088 1474 C 1124 1492 1170 1508 1225 1521 C 1279 1533 1346 1543 1425 1550 L 1440 1192 C 1403 1184 1374 1177 1354 1171 C 1333 1165 1317 1157 1306 1148 C 1294 1138 1286 1126 1282 1111 C 1277 1095 1272 1075 1268 1049 L 1260 993 L 1403 993 L 1348 690 L 1204 690 L 1012 -410 L 631 -410 L 823 690 L 580 690 L 387 -410 L 6 -410 L 199 690 Z M 1599 1548 L 1980 1548 L 1708 0 L 1327 0 L 1599 1548 Z" unicode="ﬄ" />
<glyph horiz-adv-x="1452" d="M 174 156 C 174 246 186 322 211 382 C 236 442 271 491 315 527 C 359 563 410 588 470 603 C 529 617 593 625 662 625 L 662 819 L 174 819 L 174 1217 L 319 1217 L 319 954 L 662 954 L 662 1092 L 553 1092 L 553 1485 L 913 1485 L 913 1092 L 805 1092 L 805 954 L 1137 954 L 1137 1217 L 1280 1217 L 1280 819 L 805 819 L 805 625 C 873 625 937 617 997 603 C 1056 588 1107 563 1151 527 C 1195 491 1229 442 1254 382 C 1279 322 1292 246 1292 156 L 1292 0 L 1143 0 L 1143 147 C 1143 214 1136 269 1123 312 C 1109 355 1089 389 1062 414 C 1034 438 999 455 957 465 C 914 474 863 479 805 479 L 805 274 L 662 274 L 662 479 C 602 479 551 474 509 465 C 467 455 432 438 404 414 C 376 389 356 355 343 312 C 330 269 324 214 324 147 L 324 0 L 174 0 L 174 156 Z" unicode="" />
</font>
</defs>
</svg>
