<?xml version="1.0" standalone="no"?> <!DOCTYPE svg PUBLIC "-//W3C//DTD SVG 1.0//EN" "http://www.w3.org/TR/2001/REC-SVG-20010904/DTD/svg10.dtd" > <svg xmlns="http://www.w3.org/2000/svg" width="100%" height="100%">
<defs >
<font id="scout-regular" horiz-adv-x="365" ><font-face
    font-family="Scout Regular"
    units-per-em="1000"
    panose-1="2 0 5 6 0 0 0 2 0 4"
    ascent="800"
    descent="-200"
    alphabetic="0" />
<missing-glyph horiz-adv-x="183" />
<glyph unicode=" " glyph-name="space" horiz-adv-x="183" />
<glyph unicode="!" glyph-name="exclam" horiz-adv-x="273" d="M87 0V103H185V0H87ZM100 176L87 522V626H185V522L173 176H100Z" />
<glyph unicode="&quot;" glyph-name="quotedbl" horiz-adv-x="439" d="M100 378L87 524V626H180V524L168 378H100ZM271 378L259 524V626H352V524L340 378H271Z" />
<glyph unicode="#" glyph-name="numbersign" horiz-adv-x="607" d="M138 0L155 192H57V269H161L169 360H57V437H176L193 626H277L260 437H366L383 626H468L451 437H549V360H444L436 269H549V192H430L413 0H328L345 192H239L222 0H138ZM243 267H354L362 362H251L243 267Z" />
<glyph unicode="$" glyph-name="dollar" horiz-adv-x="546" d="M230 -116V0Q72 16 35 167L128 185Q148 96 232 82V292Q148 316 107 352T65 466Q65 532 106 574T230 626V723H315V625Q445 608 478 487L382 465Q368 528 313 542V360Q403 332 444 294T485 174Q485
97 437 54T315 1V-116H230ZM396 176Q396 213 375 233T313 268V82Q396 96 396 176ZM155 466Q155 434 172 417T232 385V544Q155 533 155 466Z" />
<glyph unicode="%" glyph-name="percent" horiz-adv-x="802" d="M177 247Q103 247 68 295T33 427V449Q33 536 65 583T177 631Q257 631 289 585T321 452V429Q321 247 177 247ZM107 317T177 317T247 428V449Q247 509 231 534T177 560T123 535T107 449V429Q107 317
177 317ZM624 -4Q550 -4 516 44T481 176V198Q481 285 513 332T624 380Q704 380 736 334T769 201V178Q769 94 734 45T624 -4ZM624 66Q695 66 695 177V199Q695 259 679 284T624 309Q587 309 571 284T555 199V178Q555 66 624 66ZM220 0L495 626H582L307 0H220Z" />
<glyph unicode="&amp;" glyph-name="ampersand" horiz-adv-x="589" d="M213 -4Q119 -4 69 34T19 160Q19 225 56 271T160 364Q105 439 105 497Q105 631 248 631Q320 631 352 598T384 502Q384 423 284 347L388 221Q397 253 412 357L502 348Q482 211 453 141L570
0H458L405 64Q342 -4 213 -4ZM217 77Q312 77 351 131L210 302Q162 266 137 235T112 162Q112 77 217 77ZM193 499Q193 465 237 407Q300 455 300 501Q300 555 246 555Q217 555 205 541T193 499Z" />
<glyph unicode="&apos;" glyph-name="quotesingle" horiz-adv-x="270" d="M100 378L87 524V626H182V524L170 378H100Z" />
<glyph unicode="(" glyph-name="parenleft" horiz-adv-x="324" d="M229 -186Q53 -61 53 220Q53 503 229 626L280 562Q146 454 146 220Q146 88 180 12T280 -124L229 -186Z" />
<glyph unicode=")" glyph-name="parenright" horiz-adv-x="324" d="M95 -186L44 -124Q110 -65 144 12T178 220Q178 454 44 562L95 626Q271 503 271 220Q271 -61 95 -186Z" />
<glyph unicode="*" glyph-name="asterisk" horiz-adv-x="413" d="M168 248L174 380L69 301L27 366L149 436L27 508L69 573L174 494L168 626H245L239 494L344 573L385 508L263 436L385 366L344 301L239 380L245 248H168Z" />
<glyph unicode="+" glyph-name="plus" horiz-adv-x="510" d="M47 271V350H211V517H299V350H462V271H299V104H211V271H47Z" />
<glyph unicode="," glyph-name="comma" horiz-adv-x="208" d="M57 -97V-49Q84 -46 91 -37T99 0H57V103H150V0Q150 -49 132 -72T57 -97Z" />
<glyph unicode="-" glyph-name="hyphen" horiz-adv-x="360" d="M27 222V302H332V222H27Z" />
<glyph unicode="." glyph-name="period" horiz-adv-x="208" d="M57 0V103H150V0H57Z" />
<glyph unicode="/" glyph-name="slash" horiz-adv-x="357" d="M-7 0L268 626H363L88 0H-7Z" />
<glyph unicode="0" glyph-name="zero" horiz-adv-x="577" d="M520 -4T288 -4T56 295V331Q56 402 65 452T100 545T171 609T288 631T405 610T476 547T510 455T520 334V296Q520 -4 288 -4ZM213 78T288 78T394 131T426 295V333Q426 446 398 496T288 547T179 497T150
332V296Q150 186 181 132Z" />
<glyph unicode="1" glyph-name="one" horiz-adv-x="397" d="M188 0V542H44V626H281V0H188Z" />
<glyph unicode="2" glyph-name="two" horiz-adv-x="536" d="M50 0V59Q50 108 62 145T106 215T171 272T267 334Q340 379 361 405T382 471Q382 512 356 529T275 547Q217 547 187 528T147 466L49 479Q91 631 276 631Q475 631 475 475Q475 404 443 365T311 264Q215
205 182 169T144 83H476V0H50Z" />
<glyph unicode="3" glyph-name="three" horiz-adv-x="546" d="M277 -4Q167 -4 114 38T46 169L144 182Q149 124 180 101T276 78Q341 78 370 103T399 191V201Q399 254 367 274T269 295H184V374H267Q330 374 356 394T383 458V466Q383 507 358 527T274 547Q211 547
183 528T145 471L50 490Q91 631 274 631Q477 631 477 475V467Q477 379 397 341Q493 314 493 201V189Q493 -5 277 -4Z" />
<glyph unicode="4" glyph-name="four" horiz-adv-x="571" d="M337 0V145H34V228L332 626H428V228H533V145H428V0H337ZM136 227H337V499L136 227Z" />
<glyph unicode="5" glyph-name="five" horiz-adv-x="545" d="M278 -4Q170 -4 115 37T47 163L145 176Q150 119 183 99T278 78Q340 78 369 110T399 209V228Q399 298 370 327T277 356Q226 356 200 345T156 311L69 335L98 626H453V542H176L162 401Q208 437 305 437Q406
437 449 383T493 229V209Q493 -4 278 -4Z" />
<glyph unicode="6" glyph-name="six" horiz-adv-x="550" d="M280 -4Q164 -4 110 52T56 219V275Q56 328 57 363T64 439T78 506T104 558T145 598T203 622T283 631Q447 631 485 515L385 497Q375 527 350 537T278 548Q206 548 180 512T149 381Q202 435 307 435Q405
435 454 386T503 229V209Q503 -4 280 -4ZM206 76T280 76T382 110T411 208V227Q411 292 384 324T280 357Q204 357 176 324T148 226V208Q148 144 177 110Z" />
<glyph unicode="7" glyph-name="seven" horiz-adv-x="477" d="M115 0L330 545H34V626H429V552L211 0H115Z" />
<glyph unicode="8" glyph-name="eight" horiz-adv-x="573" d="M286 -4Q54 -4 54 178V190Q54 298 146 340Q72 375 72 466V476Q72 631 286 631Q502 631 502 476V466Q502 375 427 340Q520 299 520 190V178Q520 -4 286 -4ZM286 76Q358 76 392 102T426 185V194Q426
302 286 302Q212 302 180 275T148 194V185Q148 76 286 76ZM286 377Q408 377 408 461V468Q408 551 286 551Q166 551 166 468V461Q166 377 286 377Z" />
<glyph unicode="9" glyph-name="nine" horiz-adv-x="550" d="M267 -4Q104 -4 65 112L164 130Q175 100 200 89T272 77Q343 77 369 114T400 246Q350 192 242 192Q145 192 96 241T46 398V418Q46 631 270 631Q386 631 439 575T493 408V352Q493 289 491 248T482 162T459
90T419 40T357 6T267 -4ZM270 269Q346 269 374 302T402 400V418Q402 482 373 516T270 550T168 516T139 418V399Q139 334 166 302T270 269Z" />
<glyph unicode=":" glyph-name="colon" horiz-adv-x="208" d="M59 0V103H148V0H59ZM59 336V439H148V336H59Z" />
<glyph unicode=";" glyph-name="semicolon" horiz-adv-x="208" d="M59 -97V-49Q85 -46 92 -37T99 0H59V103H148V0Q148 -50 131 -72T59 -97ZM59 335V439H148V335H59Z" />
<glyph unicode="&lt;" glyph-name="less" horiz-adv-x="510" d="M429 100L70 270V352L429 522V440L152 311L429 181V100Z" />
<glyph unicode="=" glyph-name="equal" horiz-adv-x="510" d="M57 355V432H452V355H57ZM57 184V260H452V184H57Z" />
<glyph unicode="&gt;" glyph-name="greater" horiz-adv-x="510" d="M81 100V181L358 311L81 440V522L439 352V270L81 100Z" />
<glyph unicode="?" glyph-name="question" horiz-adv-x="483" d="M198 176V197Q198 237 213 271T243 321T286 364Q311 387 321 398T343 429T355 472Q355 547 248 547Q194 547 164 529T121 466L23 479Q46 551 103 591T249 631Q343 631 396 592T449 475Q449 441
434 409T405 361T362 317Q337 293 326 281T302 246T290 199V176H198ZM197 0V103H295V0H197Z" />
<glyph unicode="@" glyph-name="at" horiz-adv-x="802" d="M415 -152Q332 -152 270 -132T169 -78T106 5T73 107T64 224Q64 306 79 369T131 489T239 575T415 606Q499 606 559 585T654 530T707 444T732 342T738 224Q738 136 708 92T604 47Q500 47 482 105Q437 46
350 46Q259 46 235 99T228 245L232 268Q250 354 286 397T388 440Q471 440 503 393L510 433H588L546 197Q538 152 552 134T605 116Q626 116 639 124T657 149T664 181T666 224Q666 284 662 324T644 409T604 480T530 524T415 541Q347 541 297 525T217 480T168 410T143
324T136 224Q136 153 148 101T189 4T275 -64T415 -87Q573 -87 637 -13L690 -62Q656 -103 583 -127T415 -152ZM373 115Q420 115 442 144T474 228L479 259Q489 317 474 343T400 370Q358 370 340 344T310 256Q300 209 300 180Q300 148 316 132T373 115Z" />
<glyph unicode="A" glyph-name="A" horiz-adv-x="549" d="M16 0L227 631H321L532 0H439L389 149H156L107 0H16ZM272 497L182 227H363L272 497Z" />
<glyph unicode="B" glyph-name="B" horiz-adv-x="579" d="M66 0V626H318Q414 626 466 592T518 469Q518 367 435 337Q533 301 533 183Q533 0 333 0H66ZM159 78H335Q388 78 414 108T440 185Q440 235 414 264T335 293H159V78ZM159 374H320Q425 374 425 461Q425 506
400 527T320 548H159V374Z" />
<glyph unicode="C" glyph-name="C" horiz-adv-x="556" d="M284 -4Q149 -4 93 75T36 295V331Q36 474 93 552T291 631Q401 631 454 582T523 431L422 417Q416 480 385 513T289 547Q200 547 165 492T130 331V295Q130 185 165 132T290 79Q359 79 389 110T429 213L528
201Q510 102 453 49T284 -4Z" />
<glyph unicode="D" glyph-name="D" horiz-adv-x="558" d="M66 0V626H267Q330 626 376 610T449 569T493 504T515 424T521 333V294Q521 0 268 0H66ZM159 81H268Q358 81 392 134T427 295V333Q427 447 392 495T267 543H159V81Z" />
<glyph unicode="E" glyph-name="E" horiz-adv-x="517" d="M66 0V626H465V542H159V385H435V301H159V83H465V0H66Z" />
<glyph unicode="F" glyph-name="F" horiz-adv-x="487" d="M66 0V626H465V542H159V378H435V294H159V0H66Z" />
<glyph unicode="G" glyph-name="G" horiz-adv-x="589" d="M282 264V344H531V0H460L445 66Q393 -4 277 -4Q145 -4 91 74T36 295V331Q36 476 95 553T291 631Q489 631 522 452L421 438Q413 497 383 522T290 547Q198 547 164 493T130 332V296Q130 187 165 133T290
79Q438 79 442 237V264H282Z" />
<glyph unicode="H" glyph-name="H" horiz-adv-x="589" d="M429 0V308H159V0H66V626H159V392H429V626H522V0H429Z" />
<glyph unicode="I" glyph-name="I" horiz-adv-x="230" d="M68 0V626H161V0H68Z" />
<glyph unicode="J" glyph-name="J" horiz-adv-x="470" d="M219 -7Q124 -7 75 41T19 197L113 212Q119 132 143 104T221 76Q272 76 292 104T313 210V626H406V208Q406 90 359 42T219 -7Z" />
<glyph unicode="K" glyph-name="K" horiz-adv-x="559" d="M431 0L249 346L159 254V0H66V626H159V367L412 626H523L315 413L533 0H431Z" />
<glyph unicode="L" glyph-name="L" horiz-adv-x="481" d="M66 0V626H159V83H458V0H66Z" />
<glyph unicode="M" glyph-name="M" horiz-adv-x="737" d="M66 0V626H199L368 139L537 626H670V0H577V479L410 0H322L155 477V0H66Z" />
<glyph unicode="N" glyph-name="N" horiz-adv-x="589" d="M66 0V626H185L433 178V626H522V0H431L156 497V0H66Z" />
<glyph unicode="O" glyph-name="O" horiz-adv-x="581" d="M290 -4Q156 -4 96 77T36 295V331Q36 399 47 450T86 543T165 608T290 631Q364 631 415 609T493 545T532 453T544 334V296Q544 246 536 203T510 121T462 55T390 12T290 -4ZM130 78T290 78T450 294V333Q450
441 415 494T290 547T166 494T130 332V295Q130 78 290 78Z" />
<glyph unicode="P" glyph-name="P" horiz-adv-x="549" d="M66 0V626H323Q523 626 523 446Q523 355 466 307T323 259H159V0H66ZM159 339H317Q430 339 430 442T317 545H159V339Z" />
<glyph unicode="Q" glyph-name="Q" horiz-adv-x="581" d="M441 -111L365 6Q328 -2 290 -2Q156 -2 96 78T36 295V331Q36 399 47 450T86 543T165 608T290 631Q364 631 415 609T493 545T532 453T544 334V296Q544 118 448 45L518 -63L441 -111ZM130 78T290 78T450
294V333Q450 441 415 494T290 547T166 494T130 332V295Q130 78 290 78Z" />
<glyph unicode="R" glyph-name="R" horiz-adv-x="569" d="M433 0L305 268H159V0H66V626H323Q523 626 523 450Q523 383 489 340T400 279L533 0H433ZM159 348H317Q430 348 430 448Q430 545 317 545H159V348Z" />
<glyph unicode="S" glyph-name="S" horiz-adv-x="546" d="M282 -5Q165 -5 107 40T25 174L125 185Q139 127 175 103T283 78Q341 78 379 100T418 176Q418 196 410 212T391 237T355 257T315 271T263 285Q227 295 207 300T159 317T115 340T84 370T62 412T55 466Q55
541 112 586T280 631Q463 631 506 478L402 465Q381 547 280 547Q149 547 149 466Q149 449 155 436T171 415T202 398T240 384T292 369Q352 353 385 341T452 307T498 253T512 174Q512 85 444 40T282 -5Z" />
<glyph unicode="T" glyph-name="T" horiz-adv-x="519" d="M213 0V542H22V626H496V542H306V0H213Z" />
<glyph unicode="U" glyph-name="U" horiz-adv-x="582" d="M410 -7T291 -7T118 43T63 214V626H156V218Q156 138 183 107T291 76T399 107T428 217V626H519V215Q519 94 465 44Z" />
<glyph unicode="V" glyph-name="V" horiz-adv-x="545" d="M529 626L320 -5H225L16 626H110L274 122L438 626H529Z" />
<glyph unicode="W" glyph-name="W" horiz-adv-x="846" d="M200 -5L41 626H134L250 155L383 626H466L598 155L715 626H805L646 -5H558L423 465L288 -5H200Z" />
<glyph unicode="X" glyph-name="X" horiz-adv-x="550" d="M19 0L223 337L46 626H148L278 413L402 626H499L325 336L531 0H429L270 259L119 0H19Z" />
<glyph unicode="Y" glyph-name="Y" horiz-adv-x="543" d="M224 0V281L5 626H107L273 361L441 626H537L317 281V0H224Z" />
<glyph unicode="Z" glyph-name="Z" horiz-adv-x="521" d="M46 0V76L357 542H51V626H470V548L160 83H475V0H46Z" />
<glyph unicode="[" glyph-name="bracketleft" horiz-adv-x="324" d="M66 -178V626H284V542H159V-96H284V-178H66Z" />
<glyph unicode="\" glyph-name="backslash" horiz-adv-x="357" d="M268 0L-7 626H88L363 0H268Z" />
<glyph unicode="]" glyph-name="bracketright" horiz-adv-x="324" d="M39 -178V-95H164V543H39V626H257V-178H39Z" />
<glyph unicode="^" glyph-name="asciicircum" horiz-adv-x="520" d="M105 315L207 439H313L415 315H327L259 388L192 315H105Z" />
<glyph unicode="_" glyph-name="underscore" horiz-adv-x="373" d="M-40 -122V-46H413V-122H-40Z" />
<glyph unicode="`" glyph-name="grave" horiz-adv-x="520" d="M236 492L91 616H197L329 492H236Z" />
<glyph unicode="a" glyph-name="a" horiz-adv-x="435" d="M166 -4Q31 -4 31 129Q31 205 96 247T297 304V309Q297 343 278 356T212 370Q148 370 123 327L36 357Q55 396 103 421T220 446Q307 446 345 414T383 313V0H297V52Q253 -4 166 -4ZM190 69Q297 69 297 176V231Q207
220 164 198T120 132Q120 69 190 69Z" />
<glyph unicode="b" glyph-name="b" horiz-adv-x="468" d="M57 0V656H145V391Q186 446 275 446Q367 446 400 393T434 235V209Q434 -4 274 -4Q187 -4 145 44V0H57ZM254 74Q305 74 325 108T345 206V236Q345 306 327 336T254 367Q195 367 171 336T145 246V201Q145
136 168 105T254 74Z" />
<glyph unicode="c" glyph-name="c" horiz-adv-x="436" d="M218 -4Q31 -4 31 207V232Q31 334 78 390T222 446Q301 446 344 409T401 291L310 276Q305 323 284 345T220 367Q163 367 142 333T120 229V212Q120 73 220 73Q265 73 286 94T314 158L402 145Q370 -4 218 -4Z" />
<glyph unicode="d" glyph-name="d" horiz-adv-x="468" d="M323 0V51Q280 -4 193 -4Q101 -4 68 49T34 206V232Q34 446 194 446Q278 446 323 398V656H411V0H323ZM215 74Q275 74 299 108T323 206V251Q321 309 298 338T215 367Q161 367 142 333T123 229V211Q123 137
140 106T215 74Z" />
<glyph unicode="e" glyph-name="e" horiz-adv-x="429" d="M221 -4Q31 -4 31 207V232Q31 333 77 389T221 446Q316 446 357 396T398 249V192H118Q120 132 143 101T219 70Q266 70 286 84T312 132L397 116Q383 63 341 30T221 -4ZM220 369Q169 369 147 344T119 267H311Q309
320 290 344T220 369Z" />
<glyph unicode="f" glyph-name="f" horiz-adv-x="312" d="M16 358V439H101V502Q101 581 132 618T255 656H296V575H260Q214 575 202 556T189 493V439H296V358H189V0H101V358H16Z" />
<glyph unicode="g" glyph-name="g" horiz-adv-x="468" d="M193 -3Q101 -3 68 49T34 206V232Q34 446 194 446Q278 446 323 398V439H411V-14Q411 -98 370 -140T224 -183Q80 -183 37 -86L127 -56Q138 -85 160 -96T226 -107Q278 -107 300 -86T323 -16V53Q279 -3 193
-3ZM215 74Q275 74 299 108T323 206V240Q323 305 301 336T215 367Q161 367 142 333T123 229V211Q123 137 140 106T215 74Z" />
<glyph unicode="h" glyph-name="h" horiz-adv-x="465" d="M57 0V656H145V392Q194 446 282 446Q353 446 383 409T413 296V0H325V283Q325 322 311 344T252 367Q195 367 170 337T145 239V0H57Z" />
<glyph unicode="i" glyph-name="i" horiz-adv-x="206" d="M59 0V439H147V0H59ZM57 505V605H148V505H57Z" />
<glyph unicode="j" glyph-name="j" horiz-adv-x="206" d="M-13 -178V-101H11Q41 -101 50 -87T59 -35V439H147V-40Q147 -112 120 -145T20 -178H-13ZM57 505V605H148V505H57Z" />
<glyph unicode="k" glyph-name="k" horiz-adv-x="415" d="M313 0L195 226L144 174V0H57V656H144V277L304 439H407L256 287L407 0H313Z" />
<glyph unicode="l" glyph-name="l" horiz-adv-x="206" d="M59 0V656H147V0H59Z" />
<glyph unicode="m" glyph-name="m" horiz-adv-x="713" d="M57 0V439H145V395Q189 446 277 446Q323 446 347 432T387 389Q428 446 535 446Q606 446 633 409T661 296V0H573V283Q573 303 572 314T564 340T543 360T505 367Q449 367 426 338T403 242V0H315V283Q315
303 314 314T306 340T285 360T247 367Q190 367 168 338T145 239V0H57Z" />
<glyph unicode="n" glyph-name="n" horiz-adv-x="465" d="M57 0V439H145V392Q194 446 282 446Q353 446 383 409T413 296V0H325V283Q325 322 311 344T252 367Q195 367 170 337T145 239V0H57Z" />
<glyph unicode="o" glyph-name="o" horiz-adv-x="439" d="M315 -4T220 -4T78 54T31 207V232Q31 446 220 446T409 235V209Q409 113 362 55ZM120 74T220 74T320 212V230Q320 300 299 333T220 367Q164 367 142 333T120 229V212Q120 74 220 74Z" />
<glyph unicode="p" glyph-name="p" horiz-adv-x="468" d="M57 -178V439H145V391Q186 446 275 446Q367 446 400 393T434 235V209Q434 -4 274 -4Q187 -4 145 44V-178H57ZM254 74Q307 74 326 108T345 212V230Q345 304 328 335T254 367Q195 367 171 336T145 246V201Q145
136 168 105T254 74Z" />
<glyph unicode="q" glyph-name="q" horiz-adv-x="468" d="M323 -178V51Q280 -4 193 -4Q101 -4 68 49T34 206V232Q34 446 194 446Q278 446 323 398V439H411V-178H323ZM215 74Q275 74 299 108T323 206V251Q321 309 298 338T215 367Q161 367 142 333T123 229V211Q123
137 140 106T215 74Z" />
<glyph unicode="r" glyph-name="r" horiz-adv-x="283" d="M57 0V439H145V383Q191 444 268 444V365Q201 365 173 329T145 219V0H57Z" />
<glyph unicode="s" glyph-name="s" horiz-adv-x="410" d="M209 -4Q131 -4 84 23T18 112L108 135Q118 98 139 83T209 68Q292 68 292 121Q292 149 273 161T198 188Q115 206 77 232T39 319Q39 373 81 409T207 446Q349 446 379 344L290 316Q279 372 207 372Q129 372
129 325Q129 299 146 289T222 263Q262 253 284 246T332 223T369 185T381 128Q381 61 332 29T209 -4Z" />
<glyph unicode="t" glyph-name="t" horiz-adv-x="330" d="M16 358V439H101V569H189V439H296V358H189V157Q189 110 202 95T261 79H296V0H241Q159 0 130 31T101 145V358H16Z" />
<glyph unicode="u" glyph-name="u" horiz-adv-x="465" d="M320 0V48Q272 -4 183 -4Q112 -4 82 33T52 146V439H140V158Q140 119 154 97T214 74Q269 74 293 100T320 188V439H408V0H320Z" />
<glyph unicode="v" glyph-name="v" horiz-adv-x="407" d="M395 439L248 -4H156L11 439H103L135 339L204 118L273 339L305 439H395Z" />
<glyph unicode="w" glyph-name="w" horiz-adv-x="650" d="M148 -4L18 439H109L133 352L194 130L257 353L283 439H369L394 353L456 130L518 354L543 439H632L500 -4H414L325 300L234 -4H148Z" />
<glyph unicode="x" glyph-name="x" horiz-adv-x="409" d="M13 0L155 232L27 439H123L207 304L286 439H380L252 230L396 0H300L201 159L107 0H13Z" />
<glyph unicode="y" glyph-name="y" horiz-adv-x="406" d="M41 -178V-101H75Q106 -101 118 -90T142 -46L158 1L11 439H103L131 351L204 119L278 351L307 439H395L219 -81Q202 -133 171 -155T83 -178H41Z" />
<glyph unicode="z" glyph-name="z" horiz-adv-x="405" d="M37 0V73L243 358H47V439H358V364L152 79H368V0H37Z" />
<glyph unicode="{" glyph-name="braceleft" horiz-adv-x="354" d="M233 -178Q158 -178 130 -146T109 -32L125 133Q127 159 116 170T75 182H27V266H75Q104 266 115 277T125 315L109 479Q102 559 130 592T233 626H314V542H251Q223 542 211 529T202 484L219 307Q225
250 173 225Q225 202 219 141L202 -37Q199 -69 211 -82T251 -95H314V-178H233Z" />
<glyph unicode="|" glyph-name="bar" horiz-adv-x="270" d="M88 -178V626H181V-178H88Z" />
<glyph unicode="}" glyph-name="braceright" horiz-adv-x="354" d="M39 -178V-95H103Q131 -95 143 -82T152 -37L134 141Q129 200 181 224Q129 246 134 307L152 484Q155 516 143 529T103 542H39V626H121Q195 626 223 593T245 479L229 315Q227 289 238 278T279 266H326V182H279Q250
182 238 171T229 133L245 -32Q253 -113 225 -145T121 -178H39Z" />
<glyph unicode="~" glyph-name="asciitilde" horiz-adv-x="520" d="M174 325L102 335Q108 439 191 439Q222 439 264 417T319 394Q346 394 347 439L420 429Q413 325 330 325Q300 325 258 347T203 370Q188 370 182 360T174 325Z" />
</font>
</defs>
</svg>
