<?xml version="1.0" standalone="no"?>
<!DOCTYPE svg PUBLIC "-//W3C//DTD SVG 1.1//EN" "http://www.w3.org/Graphics/SVG/1.1/DTD/svg11.dtd" >
<svg>
<metadata>
Created by FontForge 20090914 at Wed Mar 20 18:19:47 2013
 By www-data
[c] Copyright 2006, The Font Bureau, Inc. Designed by Cyrus Highsmith. All Rights Reserved.
</metadata>
<defs>
<font id="Scout-Light" horiz-adv-x="500" >
  <font-face 
    font-family="Scout Light"
    font-weight="300"
    font-stretch="normal"
    units-per-em="1000"
    panose-1="2 0 5 6 0 0 0 2 0 3"
    ascent="800"
    descent="-200"
    x-height="433"
    cap-height="626"
    bbox="-72 -196 996 795.002"
    underline-thickness="50"
    underline-position="-50"
    unicode-range="U+0020-U+FB02"
  />
<missing-glyph horiz-adv-x="190" 
 />
    <glyph glyph-name="fi" unicode="fi" horiz-adv-x="466" 
d="M14 377v56.001h90v73c0 51.333 10 89.166 30 113.499s57 36.5 111 36.5h31v-55h-30c-36 0 -59 -8 -69 -24s-15 -41.333 -15 -76v-68h114v-56h-114v-377h-58v377h-90zM342 0.000976562v433h58v-433h-58zM340 511.001v84h62v-84h-62z" />
    <glyph glyph-name="fl" unicode="fl" horiz-adv-x="466" 
d="M14 377v56.001h90v73c0 51.333 10 89.166 30 113.499s57 36.5 111 36.5h31v-55h-30c-36 0 -59 -8 -69 -24s-15 -41.333 -15 -76v-68h114v-56h-114v-377h-58v377h-90zM342 0.000976562v656h58v-656h-58z" />
    <glyph glyph-name="f_f_l" unicode="ffl" horiz-adv-x="704" 
d="M342 0v377.002h-180v-377h-58v377h-90v56h90v73c0 51.333 10 89.166 30 113.499s57 36.5 111 36.5h11v-55h-10c-36 0 -59 -8 -69 -24s-15 -41.333 -15 -76v-68h180v73c0 51.333 10 89.166 30 113.499s57 36.5 111 36.5h31v-55h-30c-36 0 -59 -8 -69 -24
s-15 -41.333 -15 -76v-68h114v-56h-114v-377h-58zM580 0.00195312v656h58v-656h-58z" />
    <glyph glyph-name="f_f_i" unicode="ffi" horiz-adv-x="704" 
d="M342 0v377.002h-180v-377h-58v377h-90v56h90v73c0 51.333 10 89.166 30 113.499s57 36.5 111 36.5h11v-55h-10c-36 0 -59 -8 -69 -24s-15 -41.333 -15 -76v-68h180v73c0 51.333 10 89.166 30 113.499s57 36.5 111 36.5h31v-55h-30c-36 0 -59 -8 -69 -24
s-15 -41.333 -15 -76v-68h114v-56h-114v-377h-58zM580 0.00195312v433h58v-433h-58zM578 511.002v84h62v-84h-62z" />
    <glyph glyph-name="f_f" unicode="ff" horiz-adv-x="530" 
d="M342 0v377.002h-180v-377h-58v377h-90v56h90v73c0 51.333 10 89.166 30 113.499s57 36.5 111 36.5h11v-55h-10c-36 0 -59 -8 -69 -24s-15 -41.333 -15 -76v-68h180v73c0 51.333 10 89.166 30 113.499s57 36.5 111 36.5h31v-55h-30c-36 0 -59 -8 -69 -24
s-15 -41.333 -15 -76v-68h114v-56h-114v-377h-58z" />
    <glyph glyph-name="f_j" unicode="fj" horiz-adv-x="466" 
d="M14 377v56.001h90v73c0 51.333 10 89.166 30 113.499s57 36.5 111 36.5h31v-55h-30c-36 0 -59 -8 -69 -24s-15 -41.333 -15 -76v-68h114v-56h-114v-377h-58v377h-90zM258 -177.999v55h29c23.333 0 38.333 5.66699 45 17s10 32.333 10 63v476h58v-476
c0 -48 -8.33301 -82.5 -25 -103.5s-45.667 -31.5 -87 -31.5h-30zM340 511.001v84h62v-84h-62z" />
    <glyph glyph-name=".notdef" horiz-adv-x="190" 
 />
    <glyph glyph-name=".notdef" horiz-adv-x="190" 
 />
    <glyph glyph-name="space" unicode=" " horiz-adv-x="190" 
 />
    <glyph glyph-name="space" unicode="&#xa0;" horiz-adv-x="190" 
 />
    <glyph glyph-name="exclam" unicode="!" horiz-adv-x="253" 
d="M94 0v80h65v-80h-65zM103 166l-9 356v104h65v-104l-9 -356h-47z" />
    <glyph glyph-name="quotedbl" unicode="&#x22;" horiz-adv-x="413" 
d="M103 388l-9 136v102h65v-102l-9 -136h-47zM263 388l-9 136v102h65v-102l-9 -136h-47z" />
    <glyph glyph-name="numbersign" unicode="#" horiz-adv-x="600" 
d="M151 0l18 204h-105v53h109l10 115h-119v53h124l18 201h58l-18 -201h126l18 201h58l-18 -201h106v-53h-111l-10 -115h121v-53h-125l-18 -204h-58l18 204h-126l-18 -204h-58zM231 257h126l10 115h-126z" />
    <glyph glyph-name="dollar" unicode="$" horiz-adv-x="526" 
d="M234 -116l-0.000976562 113.002c-102.667 8 -167.667 59 -195 153l62 18c17.333 -68.667 62.333 -107 135 -115v253c-28.667 9.33301 -51 17.666 -67 24.999s-32.333 17.5 -49 30.5s-28.667 29 -36 48s-11 41.833 -11 68.5c0 42 14.167 76.333 42.5 103
s67.833 42.334 118.5 47.001v95h57v-95c83.333 -8 137 -49.667 161 -125l-63 -22c-13.333 53.333 -46.666 83.333 -99.999 90v-219c60 -20.667 103.5 -43.334 130.5 -68.001s40.5 -63.334 40.5 -116.001s-17 -93 -51 -121s-73.333 -44.333 -118 -49v-114h-57z
M399.999 171.002c0 32 -9.33203 56.333 -27.999 73s-46.334 31.667 -83.001 45v-236c74 10 111 49.333 111 118zM134 476.002c0 -28.667 7.83203 -50.168 23.499 -64.501s41.834 -28.166 78.501 -41.499v202c-34 -3.33301 -59.5 -13.333 -76.5 -30s-25.5 -38.667 -25.5 -66z
" />
    <glyph glyph-name="percent" unicode="%" horiz-adv-x="736" 
d="M168 264c-44 0 -76.333 15.499 -97 46.499s-31 72.833 -31 125.5v21c0 116 42.667 174 128 174c86 0 129 -57 129 -171v-22c0 -53.333 -10.5 -95.666 -31.5 -126.999s-53.5 -47 -97.5 -47zM168 313.999c51.333 0 77 40.667 77 122v23c0 42 -5.66699 72.667 -17 92
s-31.333 29 -60 29s-48.5 -9.66699 -59.5 -29s-16.5 -50 -16.5 -92v-21c0 -82.667 25.333 -124 76 -124zM567 -4.00098c-44 0 -76.333 15.499 -97 46.499s-31 72.833 -31 125.5v21c0 116 42.667 174 128 174c86 0 129 -57 129 -171v-22
c0 -53.333 -10.5 -95.666 -31.5 -126.999s-53.5 -47 -97.5 -47zM567 45.998c51.333 0 77 40.667 77 122v23c0 42 -5.66699 72.667 -17 92s-31.333 29 -60 29s-48.5 -9.66699 -59.5 -29s-16.5 -50 -16.5 -92v-21c0 -82.667 25.333 -124 76 -124zM200 -0.00195312l275 626h60
l-275 -626h-60z" />
    <glyph glyph-name="ampersand" unicode="&#x26;" horiz-adv-x="569" 
d="M200 -4c-116.667 0 -175 53.333 -175 160c0 24 4 46.5 12 67.5s20.5 41 37.5 60s32.167 34.167 45.5 45.5s32 26 56 44c-22 28.667 -38 53.167 -48 73.5s-15 41.5 -15 63.5c0 80.667 41.667 121 125 121c41.333 0 71.833 -9.5 91.5 -28.5s29.5 -49.5 29.5 -91.5
c0 -26.667 -8.66699 -51.5 -26 -74.5s-42 -47.5 -74 -73.5l126 -162c8.66699 32 17 83 25 153l62 -6c-10.667 -90.667 -24.667 -159 -42 -205l112 -143h-73l-67 85c-40 -59.333 -107.333 -89 -202 -89zM204 54c41.333 0 74.5 6.50098 99.5 19.501s44.5 33.833 58.5 62.5
l-152 195c-26.667 -20.667 -47.5 -37.834 -62.5 -51.501s-29 -31.667 -42 -54s-19.5 -45.5 -19.5 -69.5c0 -68 39.333 -102 118 -102zM173 510.001c0 -24 17.667 -59 53 -105c49.333 40 74 75.333 74 106c0 21.333 -4.66699 37.333 -14 48s-26 16 -50 16
s-40.5 -5.33301 -49.5 -16s-13.5 -27 -13.5 -49z" />
    <glyph glyph-name="quotesingle" unicode="'" horiz-adv-x="253" 
d="M103 388l-9 136v102h65v-102l-9 -136h-47z" />
    <glyph glyph-name="parenleft" unicode="(" horiz-adv-x="304" 
d="M230 -186c-117.333 83.333 -176 218.666 -176 405.999c0 188.667 58.667 324 176 406l37 -46c-101.333 -73.333 -152 -193.333 -152 -360c0 -167.333 50.667 -287.666 152 -360.999z" />
    <glyph glyph-name="parenright" unicode=")" horiz-adv-x="304" 
d="M74 -186l-37 45c101.333 73.333 152 193.666 152 360.999c0 166.667 -50.667 286.667 -152 360l37 46c117.333 -82 176 -217.333 176 -406c0 -187.333 -58.667 -322.666 -176 -405.999z" />
    <glyph glyph-name="asterisk" unicode="*" horiz-adv-x="393" 
d="M168 261l4 137l-108 -83l-34 48l124 80l-124 81l34 48l108 -83l-4 137h57l-4 -137l108 83l34 -48l-124 -81l124 -80l-34 -48l-108 83l4 -137h-57z" />
    <glyph glyph-name="plus" unicode="+" horiz-adv-x="503" 
d="M54 284v53h170v180h55v-180h170v-53h-170v-180h-55v180h-170z" />
    <glyph glyph-name="comma" unicode="," horiz-adv-x="193" 
d="M64 -86v31.999c14 2.66699 22.667 7.33398 26 14.001s5 20 5 40h-31v82h65v-82c0 -28 -4 -48.833 -12 -62.5s-25.667 -21.5 -53 -23.5z" />
    <glyph glyph-name="hyphen" unicode="-" horiz-adv-x="373" 
d="M34 229v53h305v-53h-305z" />
    <glyph glyph-name="hyphen" unicode="&#xad;" horiz-adv-x="373" 
d="M34 229v53h305v-53h-305z" />
    <glyph glyph-name="period" unicode="." horiz-adv-x="193" 
d="M64 0v82h65v-82h-65z" />
    <glyph glyph-name="slash" unicode="/" horiz-adv-x="337" 
d="M0 0l275 626h62l-275 -626h-62z" />
    <glyph glyph-name="zero" unicode="0" horiz-adv-x="557" 
d="M278 -4c-78.667 0 -134.167 26.168 -166.5 78.501s-48.5 125.833 -48.5 220.5v36c0 47.333 2.83301 87.833 8.5 121.5s16 64.667 31 93s37.167 49.666 66.5 63.999s65.666 21.5 108.999 21.5c44 0 80.667 -7 110 -21s51.5 -35 66.5 -63s25.333 -58.667 31 -92
s8.5 -73.666 8.5 -120.999v-38c0 -94.667 -16.167 -168.334 -48.5 -221.001s-88.166 -79 -167.499 -79zM278 53.001c31.333 0 57.499 5.83398 78.499 17.501s36.833 29 47.5 52s18.167 48 22.5 75s6.5 59.5 6.5 97.5v38c0 32 -0.833008 58.667 -2.5 80s-5.5 43 -11.5 65
s-14.5 39.333 -25.5 52s-26.167 23 -45.5 31s-42.666 12 -69.999 12s-50.5 -4 -69.5 -12s-34 -18.5 -45 -31.5s-19.5 -30.5 -25.5 -52.5s-9.83301 -43.667 -11.5 -65s-2.5 -48 -2.5 -80v-36c0 -78.667 10.833 -138.834 32.5 -180.501s62.167 -62.5 121.5 -62.5z" />
    <glyph glyph-name="one" unicode="1" horiz-adv-x="380" 
d="M195 0v569h-151v57h211v-626h-60z" />
    <glyph glyph-name="two" unicode="2" horiz-adv-x="516" 
d="M57 0l0.00292969 45c0 60 15.167 108.833 45.5 146.5s83.166 80.5 158.499 128.5c54 34 88.667 61.667 104 83s23 47.666 23 78.999c0 32.667 -10 56 -30 70s-50.667 21 -92 21c-44 0 -77 -7.33301 -99 -22s-37 -38 -45 -70l-66 9c26 94 96 141 210 141
c57.333 0 102.166 -12.167 134.499 -36.5s48.5 -60.166 48.5 -107.499c0 -46.667 -10 -83.5 -30 -110.5s-62.667 -61.5 -128 -103.5c-68 -44 -113.333 -80.5 -136 -109.5s-34.334 -64.5 -35.001 -106.5h330v-57h-393z" />
    <glyph glyph-name="three" unicode="3" horiz-adv-x="527" 
d="M268 -4c-68.667 0 -119.002 13.3301 -151.002 39.9971s-52.333 68.334 -61 125.001l65 9c4 -44.667 17.833 -75.167 41.5 -91.5s58.834 -24.5 105.501 -24.5c48 0 83.333 9.83301 106 29.5s34 53.834 34 102.501v12c0 41.333 -12.667 70 -38 86s-62.333 24 -111 24h-81
v58h81c46.667 0 80.334 8 101.001 24s31 41 31 75v9c0 32.667 -9.66699 57.334 -29 74.001s-51.333 25 -96 25c-46 0 -79.333 -7.83301 -100 -23.5s-35.334 -38.5 -44.001 -68.5l-65 14c26.667 90.667 96.334 136 209.001 136c124 0 186 -52 186 -156v-9
c0 -26.667 -7 -51.5 -21 -74.5s-33.667 -40.167 -59 -51.5c26.667 -6.66699 49.5 -21 68.5 -43s28.5 -54.667 28.5 -98v-13c0 -60.667 -16.5 -107.5 -49.5 -140.5s-83.5 -49.5 -151.5 -49.5z" />
    <glyph glyph-name="four" unicode="4" horiz-adv-x="554" 
d="M345 0v161h-304v57l298 408h66v-408h105v-57h-105v-161h-60zM110 218h235v322z" />
    <glyph glyph-name="five" unicode="5" horiz-adv-x="525" 
d="M268 -4c-125.333 0 -196.664 55 -213.997 165l65 9c4 -43.333 19 -73.5 45 -90.5s60.667 -25.5 104 -25.5c92 0 138 51 138 153v25c0 56.667 -10.667 96.167 -32 118.5s-56.333 33.5 -105 33.5c-37.333 0 -65.833 -4 -85.5 -12s-36.167 -20.667 -49.5 -38l-57 21l27 271
h323v-57h-269l-16 -165c32.667 25.333 79.667 38 141 38c69.333 0 117.333 -18.167 144 -54.5s40 -88.166 40 -155.499v-26c0 -26.667 -2.83301 -51.334 -8.5 -74.001s-15.334 -44.667 -29.001 -66s-34.334 -38.333 -62.001 -51s-60.834 -19 -99.501 -19z" />
    <glyph glyph-name="six" unicode="6" horiz-adv-x="530" 
d="M270 -4c-72 0 -124.497 17.666 -157.497 52.999s-49.5 87 -49.5 155v71c0 36 0.166992 64 0.5 84s1.83301 44.667 4.5 74s6.66699 52 12 68s13.166 33.5 23.499 52.5s22.833 33.333 37.5 43s33.167 17.834 55.5 24.501s47.833 10 76.5 10
c96.667 0 157.334 -34 182.001 -102l-68 -13c-8.66699 22 -22.334 37 -41.001 45s-44.334 12 -77.001 12c-53.333 0 -89.833 -14.333 -109.5 -43s-31.5 -78 -35.5 -148c33.333 38.667 87 58 161 58c65.333 0 113.666 -16.5 144.999 -49.5s47 -85.833 47 -158.5v-26
c0 -140 -69 -210 -207 -210zM270.003 52.999c54.667 0 92.667 13.333 114 40s32 64.667 32 114v25c0 50.667 -9.83301 88.667 -29.5 114s-58.5 38 -116.5 38c-57.333 0 -96.166 -13 -116.499 -39s-30.5 -64 -30.5 -114v-24c0 -48.667 10.667 -86.5 32 -113.5
s59.666 -40.5 114.999 -40.5z" />
    <glyph glyph-name="seven" unicode="7" horiz-adv-x="457" 
d="M123 0l218 573h-307v53h369v-53l-218 -573h-62z" />
    <glyph glyph-name="eight" unicode="8" horiz-adv-x="549" 
d="M274 -4c-144 0 -216 60.666 -216 181.999v12c0 76.667 31 127.334 93 152.001c-50.667 22 -76 63.667 -76 125v10c0 48.667 15.167 86.5 45.5 113.5s81.5 40.5 153.5 40.5c73.333 0 125 -13.5 155 -40.5s45 -64.833 45 -113.5v-10c0 -62 -25 -104 -75 -126
c61.333 -24 92 -74.333 92 -151v-12c0 -61.333 -17.667 -107 -53 -137s-90 -45 -164 -45zM274 53.999c104 0 156 41.333 156 124v12c0 82.667 -52 124 -156 124c-103.333 0 -155 -41.333 -155 -124v-12c0 -82.667 51.667 -124 155 -124zM274 368.999c48 0 83.167 8 105.5 24
s33.5 40.667 33.5 74v10c0 64 -46.333 96 -139 96c-92 0 -138 -32 -138 -96v-10c0 -65.333 46 -98 138 -98z" />
    <glyph glyph-name="nine" unicode="9" horiz-adv-x="530" 
d="M257 -4c-96.667 0 -157.337 34.001 -182.004 102.001l68 13c8.66699 -22 22.334 -37 41.001 -45s44.334 -12 77.001 -12c52.667 0 89 14.333 109 43s31.667 77.667 35 147c-32 -38 -85.333 -57 -160 -57c-65.333 0 -113.666 16.5 -144.999 49.5s-47 85.833 -47 158.5v26
c0 140 69 210 207 210c72 0 124.5 -17.667 157.5 -53s49.5 -87 49.5 -155v-71c0 -36 -0.166992 -64 -0.5 -84s-1.83301 -44.667 -4.5 -74s-6.66699 -52 -12 -68s-13.166 -33.5 -23.499 -52.5s-22.833 -33.333 -37.5 -43s-33.167 -17.834 -55.5 -24.501
s-47.833 -10 -76.5 -10zM259.997 243.001c57.333 0 96.166 13 116.499 39s30.5 64 30.5 114v24c0 48.667 -10.667 86.5 -32 113.5s-59.666 40.5 -114.999 40.5c-54.667 0 -92.667 -13.333 -114 -40s-32 -64.667 -32 -114v-25c0 -50.667 9.83301 -88.667 29.5 -114
s58.5 -38 116.5 -38z" />
    <glyph glyph-name="colon" unicode=":" horiz-adv-x="193" 
d="M64 0v82h65v-82h-65zM64 350v82h65v-82h-65z" />
    <glyph glyph-name="semicolon" unicode=";" horiz-adv-x="193" 
d="M64 -86v31.999c14 2.66699 22.667 7.33398 26 14.001s5 20 5 40h-31v82h65v-82c0 -28 -4 -48.833 -12 -62.5s-25.667 -21.5 -53 -23.5zM64 349.999v82h65v-82h-65z" />
    <glyph glyph-name="less" unicode="&#x3c;" horiz-adv-x="503" 
d="M419 113l-345 170v54l345 170v-55l-292 -142l292 -142v-55z" />
    <glyph glyph-name="equal" unicode="=" horiz-adv-x="503" 
d="M64 362v53h375v-53h-375zM64 194v53h375v-53h-375z" />
    <glyph glyph-name="greater" unicode="&#x3e;" horiz-adv-x="503" 
d="M84 113v55l292 142l-292 142v55l345 -170v-54z" />
    <glyph glyph-name="question" unicode="?" horiz-adv-x="463" 
d="M205 166v21c0 25.333 4.5 49.333 13.5 72s18.333 40.167 28 52.5s23.167 27.5 40.5 45.5c33.333 34 54 58.667 62 74c8.66699 16.667 13 33.667 13 51c0 60.667 -41 91 -123 91c-39.333 0 -70.5 -6.83301 -93.5 -20.5s-39.5 -37.5 -49.5 -71.5l-66 9
c30 94 99.667 141 209 141c60 0 105.667 -12.833 137 -38.5s47 -61.5 47 -107.5c0 -22 -5.33301 -44 -16 -66s-20 -37.5 -28 -46.5s-23 -24.833 -45 -47.5c-22.667 -24 -40 -46 -52 -66s-18 -43.333 -18 -70v-23h-59zM204 0v80h65v-80h-65z" />
    <glyph glyph-name="at" unicode="@" horiz-adv-x="782" 
d="M405 -152c-54 0 -101.502 6.83496 -142.502 20.502s-73.833 31.667 -98.5 54s-44.667 50.166 -60 83.499s-25.833 67.333 -31.5 102s-8.5 73.334 -8.5 116.001s2.83301 81.667 8.5 117s16.167 69.833 31.5 103.5s35.5 62 60.5 85s57.833 41.5 98.5 55.5s88 21 142 21
s100.5 -7.16699 139.5 -21.5s69.5 -32.5 91.5 -54.5s39.333 -50.667 52 -86s20.834 -69.5 24.501 -102.5s5.5 -72.167 5.5 -117.5c0 -27.333 -1.5 -50.5 -4.5 -69.5s-8.66699 -37.333 -17 -55s-21.166 -30.834 -38.499 -39.501s-39.333 -13 -66 -13
c-66 0 -103.667 21 -113 63c-29.333 -42.667 -72 -64 -128 -64c-47.333 0 -80.833 10.5 -100.5 31.5s-29.5 50.833 -29.5 89.5c0 20 4.66699 54.333 14 103c13.333 60 31.333 103.333 54 130s56 40 100 40c58.667 0 98.334 -17 119.001 -51l8 45h54l-45 -251
c-5.33301 -32.667 -2.33301 -54.834 9 -66.501s30.666 -17.5 57.999 -17.5c16 0 29.167 3 39.5 9s17.666 15.667 21.999 29s7.16602 26 8.49902 38s2 28.333 2 49c0 28 -0.5 52.5 -1.5 73.5s-3.66699 43.667 -8 68s-10 45 -17 62s-17 34 -30 51s-28.5 30.667 -46.5 41
s-40.167 18.666 -66.5 24.999s-56.166 9.5 -89.499 9.5c-46 0 -86.333 -6 -121 -18s-62.334 -27.833 -83.001 -47.5s-37.334 -44.167 -50.001 -73.5s-21.167 -59 -25.5 -89s-6.5 -64 -6.5 -102c0 -37.333 2.33301 -71 7 -101s13.334 -59.333 26.001 -88
s29.334 -52.5 50.001 -71.5s48.167 -34.333 82.5 -46s74.5 -17.5 120.5 -17.5c105.333 0 180 25.333 224 76l41 -38c-22.667 -27.333 -57.167 -49.166 -103.5 -65.499s-100.166 -24.5 -161.499 -24.5zM362.998 98.002c36 0 62.499 11.332 79.499 33.999s29.5 55 37.5 97
l5 30c2.66699 24.667 4.33398 46.667 5.00098 66s-6.83301 34.833 -22.5 46.5s-40.5 17.5 -74.5 17.5c-32 0 -55.167 -10 -69.5 -30s-25.833 -52 -34.5 -96c-8 -38.667 -12 -68.667 -12 -90c0 -25.333 6.33301 -44.166 19 -56.499s35 -18.5 67 -18.5z" />
    <glyph glyph-name="A" unicode="A" horiz-adv-x="526" 
d="M23 0l209 631h62l209 -631h-61l-57 172h-247l-57 -172h-58zM261 545l-105 -319h211z" />
    <glyph glyph-name="B" unicode="B" horiz-adv-x="559" 
d="M73 0v626h235c60 0 105.667 -11.5 137 -34.5s47 -63.5 47 -121.5c0 -66 -27.667 -109.667 -83 -131c30 -13.333 53.833 -33.5 71.5 -60.5s26.5 -59.5 26.5 -97.5c0 -59.333 -16.333 -104.333 -49 -135s-77.667 -46 -135 -46h-250zM133 58l193.999 0.000976562
c40 0 70 11.667 90 35s30 53.333 30 90c0 37.333 -10.667 67.666 -32 90.999s-50.666 35 -87.999 35h-194v-251zM132.999 366.001h179c80 0 120 33.667 120 101c0 34.667 -9.5 60.167 -28.5 76.5s-49.5 24.5 -91.5 24.5h-179v-202z" />
    <glyph glyph-name="C" unicode="C" horiz-adv-x="536" 
d="M277 -4c-85.333 0 -145.668 26.167 -181.001 78.5s-53 125.833 -53 220.5v36c0 95.333 18 169.166 54 221.499s97.333 78.5 184 78.5c67.333 0 116.833 -15.5 148.5 -46.5s53.834 -77.5 66.501 -139.5l-67 -9c-6 44 -20.333 77.833 -43 101.5s-58 35.5 -106 35.5
c-66.667 0 -112.667 -20.667 -138 -62s-38 -101 -38 -179v-36c0 -81.333 13.167 -142.166 39.5 -182.499s71.833 -60.5 136.5 -60.5c49.333 0 85.5 11.5 108.5 34.5s38.5 57.167 46.5 102.5l65 -9c-26 -123.333 -100.333 -185 -223 -185z" />
    <glyph glyph-name="D" unicode="D" horiz-adv-x="538" 
d="M73 0l-0.00292969 626h184c40.667 0 75.834 -5.83301 105.501 -17.5s52.834 -26.5 69.501 -44.5s29.834 -40.667 39.501 -68s16 -53.333 19 -78s4.5 -53 4.5 -85v-39c0 -196 -79 -294 -237 -294h-185zM132.997 57h125c64.667 0 110.167 19.667 136.5 59s39.5 99 39.5 179
v38c0 84 -13 144.167 -39 180.5s-72 54.5 -138 54.5h-124v-511z" />
    <glyph glyph-name="E" unicode="E" horiz-adv-x="504" 
d="M73 0v626h372v-58h-312v-193h282v-58h-282v-260h312v-57h-372z" />
    <glyph glyph-name="F" unicode="F" horiz-adv-x="474" 
d="M73 0v626h372v-58h-312v-193h282v-58h-282v-317h-60z" />
    <glyph glyph-name="G" unicode="G" horiz-adv-x="571" 
d="M272 277l0.000976562 56.999h234v-334h-41l-16 72c-38.667 -50.667 -96 -76 -172 -76c-85.333 0 -145.666 26.167 -180.999 78.5s-53 125.833 -53 220.5v36c0 95.333 18 169.166 54 221.499s97.333 78.5 184 78.5c67.333 0 116.666 -13.833 147.999 -41.5
s53.666 -70.167 66.999 -127.5l-67 -9c-8 42.667 -22.667 73.334 -44 92.001s-56.333 28 -105 28c-66.667 0 -112.667 -20.667 -138 -62s-38 -101 -38 -179v-36c0 -81.333 13.167 -142.166 39.5 -182.499s71.833 -60.5 136.5 -60.5c52 0 92.5 14.667 121.5 44
s44.167 73 45.5 131v49h-175z" />
    <glyph glyph-name="H" unicode="H" horiz-adv-x="569" 
d="M436 0v324h-303v-324h-60v626h60v-244h303v244h60v-626h-60z" />
    <glyph glyph-name="I" unicode="I" horiz-adv-x="210" 
d="M75 0v626h60v-626h-60z" />
    <glyph glyph-name="J" unicode="J" horiz-adv-x="450" 
d="M209 -8c-115.333 0 -176.331 67 -182.998 201l61 10c5.33301 -59.333 17.666 -99.833 36.999 -121.5s48.666 -32.5 87.999 -32.5s67.166 10.833 83.499 32.5s24.5 62.167 24.5 121.5v423h60v-422c0 -79.333 -13.667 -134.5 -41 -165.5s-70.666 -46.5 -129.999 -46.5z" />
    <glyph glyph-name="K" unicode="K" horiz-adv-x="539" 
d="M441 0l-197 374l-111 -110v-264h-60v626h60v-285l289 285h75l-210 -209l220 -417h-66z" />
    <glyph glyph-name="L" unicode="L" horiz-adv-x="474" 
d="M73 0v626h60v-569h312v-57h-372z" />
    <glyph glyph-name="M" unicode="M" horiz-adv-x="720" 
d="M73 0v626h87l200 -545l200 545h87v-626h-60v539l-198 -539h-60l-198 539v-539h-58z" />
    <glyph glyph-name="N" unicode="N" horiz-adv-x="569" 
d="M73 0v626h86l279 -506v506h58v-626h-58l-307 557v-557h-58z" />
    <glyph glyph-name="O" unicode="O" horiz-adv-x="561" 
d="M280 -4c-158 0 -237 99.667 -237 299v36c0 96 17.5 170 52.5 222s96.5 78 184.5 78c88.667 0 150.5 -25.5 185.5 -76.5s52.5 -124.5 52.5 -220.5v-38c0 -200 -79.333 -300 -238 -300zM280 53c118 0 177.002 80.667 177.002 242v38c0 38 -2.33301 70.5 -7 97.5
s-13.334 51.833 -26.001 74.5s-30.834 39.667 -54.501 51s-53.5 17 -89.5 17c-68 0 -114.333 -20.5 -139 -61.5s-37 -100.833 -37 -179.5v-36c0 -162 58.667 -243 176 -243z" />
    <glyph glyph-name="P" unicode="P" horiz-adv-x="529" 
d="M73 0v626h240c122.667 0 184 -57 184 -171c0 -55.333 -17.667 -98.333 -53 -129s-79 -46 -131 -46h-180v-280h-60zM133 337h184.001c38 0 67.5 10.167 88.5 30.5s31.5 48.833 31.5 85.5c0 36 -9.83301 64.167 -29.5 84.5s-49.834 30.5 -90.501 30.5h-184v-231z" />
    <glyph glyph-name="Q" unicode="Q" horiz-adv-x="561" 
d="M437 -105l-74 112.999c-25.333 -7.33301 -53 -11 -83 -11c-158 0 -237 99.333 -237 298v36c0 96 17.5 170 52.5 222s96.5 78 184.5 78c88.667 0 150.5 -25.5 185.5 -76.5s52.5 -124.5 52.5 -220.5v-38c0 -129.333 -33.667 -216.666 -101 -261.999l70 -108zM280 52.999
c118 0 177.002 80.667 177.002 242v38c0 38 -2.33301 70.5 -7 97.5s-13.334 51.833 -26.001 74.5s-30.834 39.667 -54.501 51s-53.5 17 -89.5 17c-68 0 -114.333 -20.5 -139 -61.5s-37 -100.833 -37 -179.5v-36c0 -162 58.667 -243 176 -243z" />
    <glyph glyph-name="R" unicode="R" horiz-adv-x="549" 
d="M441 0l-138 290h-170v-290h-60v626h240c58 0 103.167 -13.5 135.5 -40.5s48.5 -68.5 48.5 -124.5c0 -43.333 -12.167 -79.333 -36.5 -108s-55.833 -47.667 -94.5 -57l141 -296h-66zM133 347h184c38 0 67.5 10.167 88.5 30.5s31.5 47.5 31.5 81.5
c0 33.333 -10 59.833 -30 79.5s-50 29.5 -90 29.5h-184v-221z" />
    <glyph glyph-name="S" unicode="S" horiz-adv-x="526" 
d="M272 -6c-69.333 0 -122.829 13.6621 -160.496 40.9951s-64.834 69 -81.501 125l66 8c12 -42.667 32 -72.667 60 -90s67 -26 117 -26c40 0 75.333 9.16699 106 27.5s46 48.833 46 91.5c0 16 -3.5 30.5 -10.5 43.5s-14.5 23.333 -22.5 31s-21.167 15.5 -39.5 23.5
s-32.5 13.5 -42.5 16.5l-51 15.5c-28.667 8.66699 -50.5 15.5 -65.5 20.5s-32.333 12.5 -52 22.5s-34.167 20.5 -43.5 31.5s-17.5 25.167 -24.5 42.5s-10.5 37.333 -10.5 60c0 46.667 18.333 83.834 55 111.501s87.667 41.5 153 41.5c110.667 0 180.334 -47 209.001 -141
l-69 -9c-16.667 61.333 -63.334 92 -140.001 92c-48 0 -84.5 -8.5 -109.5 -25.5s-37.5 -40.833 -37.5 -71.5c0 -11.333 1.16699 -21.5 3.5 -30.5s7.66602 -17.333 15.999 -25s15.166 -13.667 20.499 -18s16.166 -9.66602 32.499 -15.999s28.333 -10.666 36 -12.999
l45.5 -14.5c38 -11.333 67.333 -21.166 88 -29.499s41.5 -19.666 62.5 -33.999s35.833 -31.833 44.5 -52.5s13 -45.667 13 -75c0 -30.667 -6.83301 -57.667 -20.5 -81s-31.667 -41.5 -54 -54.5s-45.333 -22.667 -69 -29s-47.167 -9.5 -70.5 -9.5z" />
    <glyph glyph-name="T" unicode="T" horiz-adv-x="512" 
d="M226 0v568h-197v58h454v-58h-197v-568h-60z" />
    <glyph glyph-name="U" unicode="U" horiz-adv-x="563" 
d="M281 -8c-74 0 -127.667 16.835 -161 50.502s-50 90.5 -50 170.5v413h60v-412c0 -62.667 10.333 -105.834 31 -129.501s60.667 -35.5 120 -35.5c60 0 100.667 11.833 122 35.5s32 66.5 32 128.5v413h58v-412c0 -80.667 -16.667 -137.834 -50 -171.501
s-87.333 -50.5 -162 -50.5z" />
    <glyph glyph-name="V" unicode="V" horiz-adv-x="526" 
d="M503 626l-209 -631h-62l-209 631h61l180 -545l181 545h58z" />
    <glyph glyph-name="W" unicode="W" horiz-adv-x="833" 
d="M206 -5l-159 631h61l131 -524l151 524h56l150 -523l132 523h58l-159 -631h-59l-152 528l-151 -528h-59z" />
    <glyph glyph-name="X" unicode="X" horiz-adv-x="528" 
d="M26 0l204 336l-177 290h66l146 -240l144 240h64l-176 -291l205 -335h-66l-175 285l-171 -285h-64z" />
    <glyph glyph-name="Y" unicode="Y" horiz-adv-x="523" 
d="M231 0v284l-219 342h65l185 -290l187 290h62l-220 -342v-284h-60z" />
    <glyph glyph-name="Z" unicode="Z" horiz-adv-x="508" 
d="M53 0v57l330 511h-325v58h392v-58l-330 -511h335v-57h-402z" />
    <glyph glyph-name="bracketleft" unicode="[" horiz-adv-x="304" 
d="M73 -178v804h185v-58h-125v-689h125v-57h-185z" />
    <glyph glyph-name="backslash" unicode="\" horiz-adv-x="337" 
d="M275 0l-275 626h62l275 -626h-62z" />
    <glyph glyph-name="bracketright" unicode="]" horiz-adv-x="304" 
d="M46 -178v58h125v689h-125v57h185v-804h-185z" />
    <glyph glyph-name="asciicircum" unicode="^" 
d="M112 309l102 124h73l102 -124h-59l-81 87l-80 -87h-57z" />
    <glyph glyph-name="underscore" unicode="_" horiz-adv-x="373" 
d="M-40 -112v53h453v-53h-453z" />
    <glyph glyph-name="grave" unicode="`" 
d="M242 492l-145 124h74l132 -124h-61z" />
    <glyph glyph-name="a" unicode="a" horiz-adv-x="419" 
d="M171 -4c-89.333 0 -133.999 44 -133.999 132c0 53.333 22.5 93.333 67.5 120s111.5 44.334 199.5 53.001v8c0 28 -8 47.5 -24 58.5s-41 16.5 -75 16.5c-48.667 0 -82 -16 -100 -48l-62 20c12.667 25.333 33.667 45.666 63 60.999s64.666 23 105.999 23
c53.333 0 91.5 -10.5 114.5 -31.5s34.5 -52.833 34.5 -95.5v-313h-57v58c-26.667 -41.333 -71 -62 -133 -62zM179.001 50c46.667 0 79.167 11.832 97.5 35.499s27.5 55.834 27.5 96.501v67c-138.667 -14 -208 -54.667 -208 -122c0 -51.333 27.667 -77 83 -77z" />
    <glyph glyph-name="b" unicode="b" horiz-adv-x="448" 
d="M63 0v656h58v-274c29.333 38.667 73 58 131 58c61.333 0 103 -17.333 125 -52s33 -86.667 33 -156v-26c0 -66 -12 -117.5 -36 -154.5s-65 -55.5 -123 -55.5s-101.333 17 -130 51v-47h-58zM246 51c40.667 0 68.332 13.3311 82.999 39.998s22 64.667 22 114v26
c0 54.667 -6.66699 93.834 -20 117.501s-41.666 35.5 -84.999 35.5c-46 0 -78 -12.167 -96 -36.5s-27.667 -59.166 -29 -104.499v-43c0 -49.333 8.5 -86.5 25.5 -111.5s50.167 -37.5 99.5 -37.5z" />
    <glyph glyph-name="c" unicode="c" horiz-adv-x="422" 
d="M209 -4c-114.667 0 -172.001 69.334 -172.001 208.001v25c0 140.667 58.333 211 175 211c95.333 0 150 -49 164 -147l-61 -11c-4 33.333 -14 58.666 -30 75.999s-40.667 26 -74 26c-44 0 -74.167 -13.167 -90.5 -39.5s-24.5 -64.5 -24.5 -114.5v-24
c0 -103.333 38.333 -155 115 -155c62.667 0 98.334 32.333 107.001 97l59 -8c-21.333 -96 -77.333 -144 -168 -144z" />
    <glyph glyph-name="d" unicode="d" horiz-adv-x="448" 
d="M326 0v53.001c-30 -38 -73.667 -57 -131 -57c-61.333 0 -103 17.167 -125 51.5s-33 86.166 -33 155.499v26c0 66.667 12 118.5 36 155.5s65 55.5 123 55.5s101.333 -17 130 -51v267h58v-656h-58zM202 51.001c47.333 0 79.832 13.167 97.499 39.5s26.5 64.5 26.5 114.5v43
c-1.33301 45.333 -10.666 79.333 -27.999 102s-49.333 34 -96 34c-40.667 0 -68.5 -13.167 -83.5 -39.5s-22.5 -64.5 -22.5 -114.5v-25c0 -55.333 6.66699 -94.833 20 -118.5s42 -35.5 86 -35.5z" />
    <glyph glyph-name="e" unicode="e" horiz-adv-x="412" 
d="M211 -4c-116 0 -173.999 69.334 -173.999 208.001v25c0 140.667 58 211 174 211c61.333 0 104.166 -16.667 128.499 -50s36.5 -81.333 36.5 -144v-44h-281c0 -100.667 38.667 -151 116 -151c33.333 0 57.833 6 73.5 18s26.167 30.333 31.5 55l58 -14
c-9.33301 -34.667 -27.5 -62.334 -54.5 -83.001s-63.167 -31 -108.5 -31zM211.001 385.001c-72 0 -110.667 -43.001 -116 -129.001h222c-1.33301 44.667 -9.5 77.334 -24.5 98.001s-42.167 31 -81.5 31z" />
    <glyph glyph-name="f" unicode="f" horiz-adv-x="292" 
d="M14 377v56.001h90v73c0 51.333 10 89.166 30 113.499s57 36.5 111 36.5h31v-55h-30c-36 0 -59 -8 -69 -24s-15 -41.333 -15 -76v-68h114v-56h-114v-377h-58v377h-90z" />
    <glyph glyph-name="g" unicode="g" horiz-adv-x="448" 
d="M195 -4c-61.333 0 -103.003 17.168 -125.003 51.501s-33 86.166 -33 155.499v26c0 66.667 12 118.5 36 155.5s65 55.5 123 55.5s101.333 -17 130 -51v44h58v-455c0 -53.333 -12.667 -93.5 -38 -120.5s-69.333 -40.5 -132 -40.5c-83.333 0 -139.666 32.333 -168.999 97
l60 20c9.33301 -22.667 22.833 -38.667 40.5 -48s40.834 -14 69.501 -14c38.667 0 66.834 8.16699 84.501 24.5s26.5 43.5 26.5 81.5v75c-30 -38 -73.667 -57 -131 -57zM201.997 51.001c45.333 0 77 12.168 95 36.501s27.667 59.166 29 104.499v43
c0 50 -8.33301 87.333 -25 112s-49.667 37 -99 37c-40.667 0 -68.5 -13.167 -83.5 -39.5s-22.5 -64.5 -22.5 -114.5v-25c0 -55.333 6.66699 -94.833 20 -118.5s42 -35.5 86 -35.5z" />
    <glyph glyph-name="h" unicode="h" horiz-adv-x="448" 
d="M63 0v656.001h58v-274c30 38.667 76 58 138 58c47.333 0 80.833 -12.5 100.5 -37.5s29.5 -62.5 29.5 -112.5v-290h-58v285c0 14.667 -0.666992 26.667 -2 36s-4.5 19.5 -9.5 30.5s-13.5 19.167 -25.5 24.5s-27.667 8 -47 8c-46 0 -78.5 -12.333 -97.5 -37
s-28.5 -63.334 -28.5 -116.001v-231h-58z" />
    <glyph glyph-name="i" unicode="i" horiz-adv-x="189" 
d="M65 0v433h58v-433h-58zM63 511v84h62v-84h-62z" />
    <glyph glyph-name="j" unicode="j" horiz-adv-x="189" 
d="M-19 -178v55h29c23.333 0 38.333 5.66699 45 17s10 32.333 10 63v476h58v-476c0 -48 -8.33301 -82.5 -25 -103.5s-45.667 -31.5 -87 -31.5h-30zM63 511v84h62v-84h-62z" />
    <glyph glyph-name="k" unicode="k" horiz-adv-x="398" 
d="M317 0l-134 244l-62 -60v-184h-58v656h58v-399l187 176h72l-155 -149l155 -284h-63z" />
    <glyph glyph-name="l" unicode="l" horiz-adv-x="189" 
d="M65 0v656h58v-656h-58z" />
    <glyph glyph-name="m" unicode="m" horiz-adv-x="696" 
d="M63 0l-0.00488281 432.999h58v-47c28.667 36 73 54 133 54c30.667 0 54.334 -5.16699 71.001 -15.5s30 -25.5 40 -45.5c26 40.667 75 61 147 61c47.333 0 80 -12.333 98 -37s27 -62.334 27 -113.001v-290h-58v285c0 16.667 -0.5 29 -1.5 37s-3.66699 17.833 -8 29.5
s-12.166 20 -23.499 25s-26.666 7.5 -45.999 7.5c-45.333 0 -76.833 -12.167 -94.5 -36.5s-26.5 -63.166 -26.5 -116.499v-231h-58v285c0 16.667 -0.5 29 -1.5 37s-3.66699 17.833 -8 29.5s-12.166 20 -23.499 25s-26.666 7.5 -45.999 7.5
c-45.333 0 -76.833 -12.167 -94.5 -36.5s-26.5 -63.166 -26.5 -116.499v-231h-58z" />
    <glyph glyph-name="n" unicode="n" horiz-adv-x="448" 
d="M63 0v433.001h58v-51c30 38.667 76 58 138 58c47.333 0 80.833 -12.5 100.5 -37.5s29.5 -62.5 29.5 -112.5v-290h-58v285c0 14.667 -0.666992 26.667 -2 36s-4.5 19.5 -9.5 30.5s-13.5 19.167 -25.5 24.5s-27.667 8 -47 8c-46 0 -78.5 -12.333 -97.5 -37
s-28.5 -63.334 -28.5 -116.001v-231h-58z" />
    <glyph glyph-name="o" unicode="o" horiz-adv-x="422" 
d="M211 -4c-59.333 0 -103.168 18.834 -131.501 56.501s-42.5 88.167 -42.5 151.5v25c0 140.667 58 211 174 211s174 -69.333 174 -208v-26c0 -64.667 -14.167 -115.834 -42.5 -153.501s-72.166 -56.5 -131.499 -56.5zM210.998 51.001c76.667 0 115 51.667 115 155v25
c0 50 -8.16699 88 -24.5 114s-46.5 39 -90.5 39c-43.333 0 -73.333 -13.333 -90 -40s-25 -64.667 -25 -114v-24c0 -103.333 38.333 -155 115 -155z" />
    <glyph glyph-name="p" unicode="p" horiz-adv-x="448" 
d="M63 -178v611h58v-51c29.333 38.667 73 58 131 58c61.333 0 103 -17.333 125 -52s33 -86.667 33 -156v-26c0 -66 -12 -117.5 -36 -154.5s-65 -55.5 -123 -55.5s-101.333 17 -130 51v-225h-58zM246 51c40.667 0 68.333 13.167 83 39.5s22 64.833 22 115.5v25
c0 55.333 -6.5 94.666 -19.5 117.999s-41.5 35 -85.5 35c-46 0 -78 -12.167 -96 -36.5s-27.667 -59.166 -29 -104.499v-43c0 -49.333 8.5 -86.5 25.5 -111.5s50.167 -37.5 99.5 -37.5z" />
    <glyph glyph-name="q" unicode="q" horiz-adv-x="448" 
d="M326 -178v231.001c-30 -38 -73.667 -57 -131 -57c-61.333 0 -103 17.167 -125 51.5s-33 86.166 -33 155.499v26c0 66.667 12 118.5 36 155.5s65 55.5 123 55.5s101.333 -17 130 -51v44h58v-611h-58zM202 51.001c47.333 0 79.832 13.167 97.499 39.5s26.5 64.5 26.5 114.5
v43c-1.33301 45.333 -10.666 79.333 -27.999 102s-49.333 34 -96 34c-40.667 0 -68.5 -13.167 -83.5 -39.5s-22.5 -64.5 -22.5 -114.5v-25c0 -55.333 6.66699 -94.833 20 -118.5s42 -35.5 86 -35.5z" />
    <glyph glyph-name="r" unicode="r" horiz-adv-x="259" 
d="M63 0l-0.000976562 433h58v-59c28.667 43.333 69.334 65 122.001 65v-55c-45.333 0 -77 -14.833 -95 -44.5s-27 -72.5 -27 -128.5v-211h-58z" />
    <glyph glyph-name="s" unicode="s" horiz-adv-x="391" 
d="M201 -4c-93.333 0 -151.665 39.668 -174.998 119.001l59 15c8.66699 -28.667 21.5 -49 38.5 -61s42.833 -18 77.5 -18c65.333 0 98 22 98 66c0 23.333 -7.33301 39.833 -22 49.5s-42.334 20.167 -83.001 31.5c-27.333 7.33301 -47.833 13.5 -61.5 18.5
s-28.167 12.167 -43.5 21.5s-26.166 21 -32.499 35s-9.5 31 -9.5 51c0 34 13.5 61.833 40.5 83.5s64.167 32.5 111.5 32.5c86 0 138.333 -32.667 157 -98l-61 -19c-10 41.333 -42 62 -96 62c-62 0 -93 -19.333 -93 -58c0 -20.667 6.16699 -35.334 18.5 -44.001
s38.833 -18.334 79.5 -29.001c21.333 -6 37.166 -10.667 47.499 -14s23.666 -8.66602 39.999 -15.999s28.333 -15.333 36 -24s14.5 -20 20.5 -34s9 -30 9 -48c0 -40 -15 -70.333 -45 -91s-67 -31 -111 -31z" />
    <glyph glyph-name="t" unicode="t" horiz-adv-x="310" 
d="M14 377v56h90v132h58v-132h114v-56h-114v-231c0 -37.333 5 -61.833 15 -73.5s33 -17.5 69 -17.5h30v-55h-41c-50.667 0 -85.167 10.167 -103.5 30.5s-27.5 56.5 -27.5 108.5v238h-90z" />
    <glyph glyph-name="u" unicode="u" horiz-adv-x="448" 
d="M327 0l0.000976562 51c-30.667 -36.667 -76.667 -55 -138 -55c-47.333 0 -80.833 12.5 -100.5 37.5s-29.5 62.5 -29.5 112.5v287h58v-282c0 -14.667 0.666992 -26.834 2 -36.501s4.66602 -20 9.99902 -31s14 -19.167 26 -24.5s27.333 -8 46 -8c46 0 78.5 12.333 97.5 37
s28.5 63.334 28.5 116.001v229h58v-433h-58z" />
    <glyph glyph-name="v" unicode="v" horiz-adv-x="388" 
d="M370 433l-147 -437h-60l-145 437h60l38 -115l78 -241l80 241l38 115h58z" />
    <glyph glyph-name="w" unicode="w" horiz-adv-x="631" 
d="M154 -4l-130 437h59l29 -99l72 -247l74 248l30 98h57l29 -98l72 -248l74 249l29 97h57l-132 -437h-57l-102 341l-103 -341h-58z" />
    <glyph glyph-name="x" unicode="x" horiz-adv-x="383" 
d="M19 0l140 229l-126 204h64l96 -156l93 156h62l-125 -206l141 -227h-64l-111 180l-108 -180h-62z" />
    <glyph glyph-name="y" unicode="y" horiz-adv-x="387" 
d="M44 -178v55h30c19.333 0 33.5 3.66699 42.5 11s16.5 20.333 22.5 39l25 73l-147 433h60l32 -96l85 -253l85 253l32 96h58l-176 -514c-12 -35.333 -26.833 -60.333 -44.5 -75s-42.167 -22 -73.5 -22h-31z" />
    <glyph glyph-name="z" unicode="z" horiz-adv-x="392" 
d="M43 0v55l222 322h-212v56h286v-56l-222 -322h232v-55h-306z" />
    <glyph glyph-name="braceleft" unicode="{" horiz-adv-x="334" 
d="M222 -178c-42 0 -71.668 9.33301 -89.001 28s-24 49.667 -20 93l20 203c1.33301 17.333 -1.83398 29.833 -9.50098 37.5s-21.167 11.5 -40.5 11.5h-49v58h49c19.333 0 32.833 3.83301 40.5 11.5s10.834 20.167 9.50098 37.5l-20 203c-4 43.333 2.66699 74.333 20 93
s47 28 89 28h66v-58h-66c-18.667 0 -32 -4.33301 -40 -13s-11 -23.667 -9 -45l20 -203c2.66699 -38.667 -10.666 -66 -39.999 -82c30 -16 43.333 -44 40 -84l-20 -203c-2 -21.333 1 -36.333 9 -45s21.333 -13 40 -13h66v-58h-66z" />
    <glyph glyph-name="bar" unicode="|" horiz-adv-x="250" 
d="M95 -178v804h60v-804h-60z" />
    <glyph glyph-name="braceright" unicode="}" horiz-adv-x="334" 
d="M46 -178l0.000976562 58h66c18.667 0 32 4.33301 40 13s11 23.667 9 45l-20 203c-2.66699 38.667 10.666 66 39.999 82c-30 16 -43.333 44 -40 84l20 203c2 21.333 -1 36.333 -9 45s-21.333 13 -40 13h-66v58h66c42 0 71.667 -9.33301 89 -28s24 -49.667 20 -93l-20 -203
c-1.33301 -17.333 1.83398 -29.833 9.50098 -37.5s21.167 -11.5 40.5 -11.5h49v-58h-49c-19.333 0 -32.833 -3.83301 -40.5 -11.5s-10.834 -20.167 -9.50098 -37.5l20 -203c4 -43.333 -2.66699 -74.333 -20 -93s-47 -28 -89 -28h-66z" />
    <glyph glyph-name="asciitilde" unicode="~" 
d="M157 332l-51.999 6c4 62.667 31.667 94 83 94c20 0 44 -8.5 72 -25.5s46.667 -25.5 56 -25.5c18 0 27.333 17 28 51l53 -6c-4 -62.667 -32 -94 -84 -94c-20 0 -43.833 8.5 -71.5 25.5s-46.167 25.5 -55.5 25.5c-18.667 0 -28.334 -17 -29.001 -51z" />
    <glyph glyph-name="exclamdown" unicode="&#xa1;" horiz-adv-x="253" 
d="M94 0v104l9 356h47l9 -356v-104h-65zM94 546v80h65v-80h-65z" />
    <glyph glyph-name="cent" unicode="&#xa2;" horiz-adv-x="482" 
d="M215 -116l-0.000976562 114c-98.667 9.33301 -148 78 -148 206v25c0 128.667 49.333 198 148 208v93h53v-93c79.333 -8 125.333 -56 138 -144l-61 -11c-7.33301 58.667 -33.666 92 -78.999 100v-329c46.667 7.33301 74 39 82 95l59 -8c-20 -86 -66.333 -133 -139 -141
v-115h-53zM125.999 206c0 -92 30.333 -143 91 -153v329c-34.667 -4.66699 -58.5 -19.667 -71.5 -45s-19.5 -61 -19.5 -107v-24z" />
    <glyph glyph-name="sterling" unicode="&#xa3;" horiz-adv-x="506" 
d="M52 278v53h72c-21.333 58.667 -32 105.334 -32 140.001c0 48.667 14.833 87.5 44.5 116.5s72.5 43.5 128.5 43.5c101.333 0 166.666 -42.667 195.999 -128l-61 -21c-20 60.667 -65 91 -135 91c-35.333 0 -62.833 -9.16699 -82.5 -27.5s-29.5 -44.833 -29.5 -79.5
c0 -7.33301 0.666992 -15 2 -23s3.5 -17.5 6.5 -28.5l7 -25.5c1.66699 -6 5 -16.167 10 -30.5l9.5 -27.5h181v-53h-164c6 -26.667 9 -47.667 9 -63c0 -62 -20 -114.667 -60 -158h298v-57h-380v47c26.667 27.333 46.834 53.166 60.501 77.499s20.5 53.833 20.5 88.5
c0 15.333 -3.66699 37 -11 65h-90z" />
    <glyph glyph-name="yen" unicode="&#xa5;" horiz-adv-x="523" 
d="M74 224v53h157v37l-209 312h65l175 -262l177 262h62l-210 -312v-37h158v-53h-158v-95h158v-53h-158v-76h-60v76h-157v53h157v95h-157z" />
    <glyph glyph-name="brokenbar" unicode="&#xa6;" horiz-adv-x="250" 
d="M95 289v337h60v-337h-60zM95 -178v337h60v-337h-60z" />
    <glyph glyph-name="section" unicode="&#xa7;" horiz-adv-x="431" 
d="M221 -4c-90.667 0 -147.669 39.668 -171.002 119.001l59 15c8.66699 -29.333 20.834 -49.833 36.501 -61.5s40.834 -17.5 75.501 -17.5c62.667 0 94 22 94 66c0 27.333 -17.333 48.666 -52 63.999c-10 4 -38 13 -84 27c-34.667 10.667 -62 24.667 -82 42
s-30 41.666 -30 72.999c0 44.667 19 75.667 57 93c-38 20.667 -57 52 -57 94c0 33.333 13.5 61 40.5 83s64.167 33 111.5 33c86 0 138.333 -32.667 157 -98l-61 -19c-10 41.333 -42 62 -96 62c-62 0 -93 -19.333 -93 -58c0 -20.667 8.16699 -36.167 24.5 -46.5
s40.833 -19.833 73.5 -28.5c20 -5.33301 34.667 -9.5 44 -12.5s22.333 -8.33301 39 -16s29.167 -15.667 37.5 -24s15.833 -19.666 22.5 -33.999s10 -30.5 10 -48.5c0 -46.667 -18 -76 -54 -88c33.333 -22 50 -54.333 50 -97c0 -40 -14.333 -70.333 -43 -91s-65 -31 -109 -31
zM232.998 250.001c30 -9.33301 51.834 -8.50098 65.501 2.49902s20.5 27.833 20.5 50.5c0 20 -8 36.333 -24 49s-44.333 24.334 -85 35.001c-28.667 8 -50 6 -64 -6s-21 -28 -21 -48c0 -20.667 7.16699 -36 21.5 -46s43.166 -22.333 86.499 -37z" />
    <glyph glyph-name="dieresis" unicode="&#xa8;" 
d="M142 492v82h61v-82h-61zM297 492v82h61v-82h-61z" />
    <glyph glyph-name="copyright" unicode="&#xa9;" horiz-adv-x="681" 
d="M340 -4c-58 0 -107 8.00293 -147 24.0029s-70.667 39.167 -92 69.5s-36.333 63.166 -45 98.499s-13 76.333 -13 123s4.33301 87.834 13 123.501s23.667 68.5 45 98.5s52 53 92 69s89 24 147 24c58.667 0 108.167 -8 148.5 -24s71 -39 92 -69s35.833 -62.833 44.5 -98.5
s13 -76.834 13 -123.501c0 -36.667 -2.5 -69.834 -7.5 -99.501s-14.333 -58.334 -28 -86.001s-31.334 -50.667 -53.001 -69s-50.167 -33 -85.5 -44s-76.666 -16.5 -123.999 -16.5zM340 34.0029c53.333 0 97.834 7 133.501 21s62.167 34.5 79.5 61.5s29.166 55.667 35.499 86
s9.5 66.5 9.5 108.5c0 33.333 -1.83301 62.666 -5.5 87.999s-10.834 50.333 -21.501 75s-25.334 45 -44.001 61s-43.667 28.833 -75 38.5s-68.666 14.5 -111.999 14.5c-42.667 0 -79.667 -4.83301 -111 -14.5s-56.166 -22.5 -74.499 -38.5s-33 -36.333 -44 -61
s-18.333 -49.667 -22 -75s-5.5 -54.666 -5.5 -87.999c0 -42 3.16699 -78.167 9.5 -108.5s18.333 -59 36 -86s44.167 -47.5 79.5 -61.5s79.333 -21 132 -21zM338.001 85.0029c-62 0 -105.668 18.832 -131.001 56.499s-38 90.834 -38 159.501v25
c0 68.667 13 121.834 39 159.501s70.333 56.5 133 56.5c48.667 0 84.667 -11.833 108 -35.5s40 -58.834 50 -105.501l-59 -9c-8.66699 64.667 -42 97 -100 97c-44.667 0 -75.334 -14 -92.001 -42s-25 -68.333 -25 -121v-25c0 -54.667 8.83301 -95.667 26.5 -123
s47.834 -41 90.501 -41c32.667 0 56.667 8 72 24s26 40.333 32 73l57 -8c-19.333 -94 -73.666 -141 -162.999 -141z" />
    <glyph glyph-name="ordfeminine" unicode="&#xaa;" horiz-adv-x="417" 
d="M181 231c-82 0 -122.998 39.667 -122.998 119c0 48 20.5 84.333 61.5 109s101.167 40.667 180.5 48v6c0 25.333 -7 42.333 -21 51s-36.667 13 -68 13c-46 0 -76.667 -13.333 -92 -40l-55 18c10.667 22.667 29.667 41 57 55s59.666 21 96.999 21
c48 0 82.667 -9.5 104 -28.5s32 -47.5 32 -85.5v-282h-54v52c-24.667 -37.333 -64.334 -56 -119.001 -56zM188.002 283c42 0 71.167 10.167 87.5 30.5s24.5 48.833 24.5 85.5v59c-124 -12.667 -186 -49 -186 -109c0 -44 24.667 -66 74 -66z" />
    <glyph glyph-name="guillemotleft" unicode="&#xab;" horiz-adv-x="406" 
d="M140 0l-111 217l111 216h58l-111 -216l111 -217h-58zM317 0l-111 217l111 216h58l-111 -216l111 -217h-58z" />
    <glyph glyph-name="logicalnot" unicode="&#xac;" horiz-adv-x="518" 
d="M181 0c-50 11.333 -86.499 29.833 -109.499 55.5s-34.5 63.167 -34.5 112.5c0 74 30 122.333 90 145c-60 23.333 -90 73 -90 149c0 95.333 49 150 147 164l11 -63c-33.333 -4 -58 -13.5 -74 -28.5s-24 -39.5 -24 -73.5c0 -44.667 12.833 -75.834 38.5 -93.501
s62.834 -26.5 111.501 -26.5h24c100.667 0 151 40 151 120c0 34 -7.66699 59 -23 75s-38.666 26 -69.999 30l8 61c49.333 -11.333 85.666 -30.333 108.999 -57s35 -63.667 35 -111c0 -74 -30.333 -122.667 -91 -146c60.667 -24 91 -73.333 91 -148
c0 -95.333 -49 -150 -147 -164l-11 65c33.333 4 58 13.333 74 28s24 38.667 24 72c0 44.667 -12.833 75.834 -38.5 93.501s-62.834 26.5 -111.501 26.5h-24c-100.667 0 -151 -40 -151 -120c0 -34 7.66699 -58.667 23 -74s38.666 -25 69.999 -29z" />
    <glyph glyph-name="registered" unicode="&#xae;" horiz-adv-x="681" 
d="M340 -4c-58 0 -107 8.00293 -147 24.0029s-70.667 39.167 -92 69.5s-36.333 63.166 -45 98.499s-13 76.333 -13 123s4.33301 87.834 13 123.501s23.667 68.5 45 98.5s52 53 92 69s89 24 147 24c58.667 0 108.167 -8 148.5 -24s71 -39 92 -69s35.833 -62.833 44.5 -98.5
s13 -76.834 13 -123.501c0 -36.667 -2.5 -69.834 -7.5 -99.501s-14.333 -58.334 -28 -86.001s-31.334 -50.667 -53.001 -69s-50.167 -33 -85.5 -44s-76.666 -16.5 -123.999 -16.5zM340 34.0029c53.333 0 97.834 7 133.501 21s62.167 34.5 79.5 61.5s29.166 55.667 35.499 86
s9.5 66.5 9.5 108.5c0 33.333 -1.83301 62.666 -5.5 87.999s-10.834 50.333 -21.501 75s-25.334 45 -44.001 61s-43.667 28.833 -75 38.5s-68.666 14.5 -111.999 14.5c-42.667 0 -79.667 -4.83301 -111 -14.5s-56.166 -22.5 -74.499 -38.5s-33 -36.333 -44 -61
s-18.333 -49.667 -22 -75s-5.5 -54.666 -5.5 -87.999c0 -42 3.16699 -78.167 9.5 -108.5s18.333 -59 36 -86s44.167 -47.5 79.5 -61.5s79.333 -21 132 -21zM200.001 105.003l0.000976562 422h164c84.667 0 127 -37.667 127 -113c0 -28.667 -7.83301 -52.667 -23.5 -72
s-35.834 -33 -60.501 -41l92 -196h-55l-89 190h-105v-190h-50zM250.002 479.003v-135h116c23.333 0 41.333 6.16699 54 18.5s19 28.833 19 49.5c0 44.667 -24.333 67 -73 67h-116z" />
    <glyph glyph-name="macron" unicode="&#xaf;" 
d="M132 492v53h237v-53h-237z" />
    <glyph glyph-name="macron" unicode="&#x2c9;" 
d="M132 492v53h237v-53h-237z" />
    <glyph glyph-name="degree" unicode="&#xb0;" horiz-adv-x="432" 
d="M216 231c-53.333 0 -93.167 16.833 -119.5 50.5s-39.5 79.167 -39.5 136.5v23c0 126.667 53 190 159 190s159 -62.333 159 -187v-24c0 -58 -13 -104 -39 -138s-66 -51 -120 -51zM215.999 284c68.667 0 103.001 45.334 103.001 136.001v23
c0 44.667 -7.16699 78.167 -21.5 100.5s-41.5 33.5 -81.5 33.5c-38.667 0 -65.334 -11.333 -80.001 -34s-22 -56.334 -22 -101.001v-22c0 -90.667 34 -136 102 -136z" />
    <glyph glyph-name="plusminus" unicode="&#xb1;" horiz-adv-x="704" 
d="M342 0v377.002h-180v-377h-58v377h-90v56h90v73c0 51.333 10 89.166 30 113.499s57 36.5 111 36.5h11v-55h-10c-36 0 -59 -8 -69 -24s-15 -41.333 -15 -76v-68h180v73c0 51.333 10 89.166 30 113.499s57 36.5 111 36.5h31v-55h-30c-36 0 -59 -8 -69 -24
s-15 -41.333 -15 -76v-68h114v-56h-114v-377h-58zM580 0.00195312v656h58v-656h-58z" />
    <glyph glyph-name="twosuperior" unicode="&#xb2;" horiz-adv-x="433" 
d="M69 188v30.999c0 42 10.667 76.167 32 102.5s58.333 56.5 111 90.5c37.333 24 61.5 43.333 72.5 58s16.5 33 16.5 55c0 34.667 -26.333 52 -79 52c-55.333 0 -87.666 -19.667 -96.999 -59l-56 13c11.333 33.333 28.666 58 51.999 74s57 24 101 24
c89.333 0 134 -33.667 134 -101c0 -33.333 -7.5 -60.166 -22.5 -80.499s-44.5 -44.5 -88.5 -72.5c-46 -30 -76.833 -53.833 -92.5 -71.5s-24.5 -39.167 -26.5 -64.5h231v-51h-288z" />
    <glyph glyph-name="threesuperior" unicode="&#xb3;" horiz-adv-x="441" 
d="M223 186c-48.667 0 -85.001 9.3291 -109.001 27.9961s-39 47.334 -45 86.001l55 9c3.33301 -30 12.833 -49.5 28.5 -58.5s39.167 -13.5 70.5 -13.5c32.667 0 56.167 5.33301 70.5 16s21.5 32.334 21.5 65.001v8c0 28.667 -8.33301 47.834 -25 57.501s-41 14.5 -73 14.5
h-63v51h63c30 0 51.833 5 65.5 15s20.5 26.333 20.5 49v6c0 22 -6 37.167 -18 45.5s-33 12.5 -63 12.5c-30.667 0 -53.167 -4.66699 -67.5 -14s-24.166 -23.666 -29.499 -42.999l-56 14c23.333 63.333 74.333 95 153 95c49.333 0 84.333 -9.16699 105 -27.5
s31 -45.5 31 -81.5v-6c0 -18.667 -4.83301 -36 -14.5 -52s-23.167 -28 -40.5 -36c44.667 -12 67 -45 67 -99v-9c0 -88 -49 -132 -147 -132z" />
    <glyph glyph-name="acute" unicode="&#xb4;" 
d="M197 492l132 124h74l-145 -124h-61z" />
    <glyph glyph-name="mu" unicode="&#xb5;" horiz-adv-x="454" 
d="M64 -178l0.00195312 611.001h58v-283c0 -14.667 0.666992 -26.834 2 -36.501s4.66602 -20 9.99902 -31s14 -19.167 26 -24.5s27.333 -8 46 -8c46 0 78.5 12.5 97.5 37.5s28.5 63.833 28.5 116.5v229h58v-433h-58v51c-30.667 -36.667 -74.334 -55 -131.001 -55
c-40 0 -66.333 9.33301 -79 28v-202h-58z" />
    <glyph glyph-name="mu" unicode="&#x3bc;" horiz-adv-x="454" 
d="M64 -178l0.00195312 611.001h58v-283c0 -14.667 0.666992 -26.834 2 -36.501s4.66602 -20 9.99902 -31s14 -19.167 26 -24.5s27.333 -8 46 -8c46 0 78.5 12.5 97.5 37.5s28.5 63.833 28.5 116.5v229h58v-433h-58v51c-30.667 -36.667 -74.334 -55 -131.001 -55
c-40 0 -66.333 9.33301 -79 28v-202h-58z" />
    <glyph glyph-name="paragraph" unicode="&#xb6;" horiz-adv-x="510" 
d="M210 0l-0.000976562 330c-104.667 4.66699 -157 53.334 -157 146.001c0 55.333 14.333 94.166 43 116.499s72.334 33.5 131.001 33.5h210v-626h-60v330h-107v-330h-60z" />
    <glyph glyph-name="periodcentered" unicode="&#xb7;" horiz-adv-x="193" 
d="M64 279v82h65v-82h-65z" />
    <glyph glyph-name="periodcentered" unicode="&#x2219;" horiz-adv-x="193" 
d="M64 279v82h65v-82h-65z" />
    <glyph glyph-name="cedilla" unicode="&#xb8;" 
d="M253 -196c-54.667 0 -89 20 -103 60l46 16c6.66699 -23.333 25.667 -35 57 -35c19.333 0 33.333 3.16699 42 9.5s13 17.5 13 33.5c0 28.667 -17.333 43 -52 43c-15.333 0 -28 -2.66699 -38 -8l-38 18l42 79h46l-30 -56c10 2 19.667 3 29 3c26 0 47 -6.33301 63 -19
s24 -32.667 24 -60c0 -28 -9 -49 -27 -63s-42.667 -21 -74 -21z" />
    <glyph glyph-name="onesuperior" unicode="&#xb9;" horiz-adv-x="338" 
d="M166 188v386h-106v52h160v-438h-54z" />
    <glyph glyph-name="ordmasculine" unicode="&#xba;" horiz-adv-x="432" 
d="M216 231c-53.333 0 -93.167 16.833 -119.5 50.5s-39.5 79.167 -39.5 136.5v23c0 126.667 53 190 159 190s159 -62.333 159 -187v-24c0 -58 -13 -104 -39 -138s-66 -51 -120 -51zM215.999 284c68.667 0 103.001 45.334 103.001 136.001v23
c0 44.667 -7.16699 78.167 -21.5 100.5s-41.5 33.5 -81.5 33.5c-38.667 0 -65.334 -11.333 -80.001 -34s-22 -56.334 -22 -101.001v-22c0 -90.667 34 -136 102 -136z" />
    <glyph glyph-name="guillemotright" unicode="&#xbb;" horiz-adv-x="406" 
d="M31 0l111 217l-111 216h58l111 -216l-111 -217h-58zM208 0l111 217l-111 216h58l111 -216l-111 -217h-58z" />
    <glyph glyph-name="onequarter" unicode="&#xbc;" horiz-adv-x="763" 
d="M604 0v100h-213v52l209 286h58v-286h74v-52h-74v-100h-54zM136 188v386h-106v52h160v-438h-54zM193 0l275 626h56l-275 -626h-56zM452 152h152v209z" />
    <glyph glyph-name="onehalf" unicode="&#xbd;" horiz-adv-x="809" 
d="M475 0v30.999c0 42 10.667 76.167 32 102.5s58.333 56.5 111 90.5c37.333 24 61.5 43.333 72.5 58s16.5 33 16.5 55c0 34.667 -26.333 52 -79 52c-55.333 0 -87.666 -19.667 -96.999 -59l-56 13c11.333 33.333 28.666 58 51.999 74s57 24 101 24
c89.333 0 134 -33.667 134 -101c0 -33.333 -7.5 -60.166 -22.5 -80.499s-44.5 -44.5 -88.5 -72.5c-46 -30 -76.833 -53.833 -92.5 -71.5s-24.5 -39.167 -26.5 -64.5h231v-51h-288zM136 187.999v386h-106v52h160v-438h-54zM193 -0.000976562l275 626h56l-275 -626h-56z" />
    <glyph glyph-name="threequarters" unicode="&#xbe;" horiz-adv-x="856" 
d="M193 186c-48.667 0 -85.001 9.3291 -109.001 27.9961s-39 47.334 -45 86.001l55 9c3.33301 -30 12.833 -49.5 28.5 -58.5s39.167 -13.5 70.5 -13.5c32.667 0 56.167 5.33301 70.5 16s21.5 32.334 21.5 65.001v8c0 28.667 -8.16699 47.667 -24.5 57s-40.833 14 -73.5 14
h-63v53h63c30.667 0 52.667 4.83301 66 14.5s20 25.834 20 48.501v6c0 22 -6 37.167 -18 45.5s-33 12.5 -63 12.5c-30.667 0 -53.167 -4.66699 -67.5 -14s-24.166 -23.666 -29.499 -42.999l-56 14c23.333 63.333 74.333 95 153 95c49.333 0 84.333 -9.16699 105 -27.5
s31 -45.5 31 -81.5v-6c0 -18.667 -4.83301 -36 -14.5 -52s-23.167 -28 -40.5 -36c44.667 -12 67 -45 67 -99v-9c0 -88 -49 -132 -147 -132zM696.999 -0.00390625v100h-213v52l209 286h58v-286h74v-52h-74v-100h-54zM285.999 -0.00390625l275 626h56l-275 -626h-56z
M544.999 151.996h152v209z" />
    <glyph glyph-name="questiondown" unicode="&#xbf;" horiz-adv-x="463" 
d="M224 -5c-60 0 -105.668 12.832 -137.001 38.499s-47 61.5 -47 107.5c0 21.333 4.83301 42.333 14.5 63s18.834 36.167 27.501 46.5s22.667 25.5 42 45.5c16.667 18 29.167 32 37.5 42s16.666 24.167 24.999 42.5s12.5 37.166 12.5 56.499v23h59v-21
c0 -20.667 -2.33301 -39.667 -7 -57s-12.5 -34 -23.5 -50s-20.167 -28.167 -27.5 -36.5s-18.333 -20.166 -33 -35.499c-15.333 -15.333 -26.666 -27.5 -33.999 -36.5s-14.5 -20.667 -21.5 -35s-10.5 -29.166 -10.5 -44.499c0 -60.667 41 -91 123 -91
c39.333 0 70.5 6.83301 93.5 20.5s39.5 37.5 49.5 71.5l66 -9c-30 -94 -99.667 -141 -209 -141zM193.999 545.999v80h65v-80h-65z" />
    <glyph glyph-name="Agrave" unicode="&#xc0;" horiz-adv-x="525" 
d="M233 671l-145 124h74l132 -124h-61zM23 0l209 631h62l209 -631h-61l-57 172h-247l-57 -172h-58zM261 545l-105 -319h211z" />
    <glyph glyph-name="Aacute" unicode="&#xc1;" horiz-adv-x="525" 
d="M233 671l132 124h74l-145 -124h-61zM23 0l209 631h62l209 -631h-61l-57 172h-247l-57 -172h-58zM261 545l-105 -319h211z" />
    <glyph glyph-name="Acircumflex" unicode="&#xc2;" horiz-adv-x="525" 
d="M23 0l209 631h62l209 -631h-61l-57 172h-247l-57 -172h-58zM261 545l-105 -319h211zM124 671l102 124h73l102 -124h-59l-81 87l-80 -87h-57z" />
    <glyph glyph-name="Atilde" unicode="&#xc3;" horiz-adv-x="525" 
d="M23 0l209 631h62l209 -631h-61l-57 172h-247l-57 -172h-58zM261 545l-105 -319h211zM173 671l-50.998 6c4 62.667 29 94 75 94c20 0 44.333 -8.5 73 -25.5s46.667 -25.5 54 -25.5c18 0 27.333 17 28 51l52 -6c-2 -31.333 -8.83301 -54.833 -20.5 -70.5
s-30.167 -23.5 -55.5 -23.5c-20 0 -44.333 8.5 -73 25.5s-46.334 25.5 -53.001 25.5c-18.667 0 -28.334 -17 -29.001 -51z" />
    <glyph glyph-name="Adieresis" unicode="&#xc4;" horiz-adv-x="525" 
d="M23 0l209 631h62l209 -631h-61l-57 172h-247l-57 -172h-58zM261 545l-105 -319h211zM154 671v82h61v-82h-61zM309 671v82h61v-82h-61z" />
    <glyph glyph-name="Aring" unicode="&#xc5;" horiz-adv-x="525" 
d="M23 0l199 602c-28 10.667 -42 35.667 -42 75c0 54.667 27.333 82 82 82s82 -27.333 82 -82c0 -38 -13.667 -63 -41 -75l200 -602h-61l-57 172h-247l-57 -172h-58zM261 545l-105 -319h211zM262 632c28.667 0 43 15 43 45s-14.333 45 -43 45s-43 -15 -43 -45
s14.333 -45 43 -45z" />
    <glyph glyph-name="AE" unicode="&#xc6;" horiz-adv-x="822" 
d="M0 0l359 626h404v-58h-312v-193h282v-57h-282v-261h312v-57h-372v172h-229l-98 -172h-64zM194 228h197v342z" />
    <glyph glyph-name="Ccedilla" unicode="&#xc7;" horiz-adv-x="536" 
d="M271 -196c-54.667 0 -89.001 20 -103.001 60l46 16c6.66699 -23.333 25.667 -35 57 -35c19.333 0 33.333 3.16699 42 9.5s13 17.5 13 33.5c0 28.667 -17.333 43 -52 43c-15.333 0 -28 -2.66699 -38 -8l-38 18l31 58c-68 10 -116 40.5 -144 91.5s-42 119.167 -42 204.5v36
c0 95.333 18 169.166 54 221.499s97.333 78.5 184 78.5c67.333 0 116.833 -15.5 148.5 -46.5s53.834 -77.5 66.501 -139.5l-67 -9c-6 44 -20.333 77.833 -43 101.5s-58 35.5 -106 35.5c-66.667 0 -112.667 -20.667 -138 -62s-38 -101 -38 -179v-36
c0 -81.333 13.167 -142.166 39.5 -182.499s71.833 -60.5 136.5 -60.5c49.333 0 85.5 11.5 108.5 34.5s38.5 57.167 46.5 102.5l65 -9c-26 -123.333 -100.333 -185 -223 -185h-4l-17 -32c10 2 19.667 3 29 3c26 0 47 -6.33301 63 -19s24 -32.667 24 -60c0 -28 -9 -49 -27 -63
s-42.667 -21 -74 -21z" />
    <glyph glyph-name="Egrave" unicode="&#xc8;" horiz-adv-x="504" 
d="M73 0v626h372v-58h-312v-193h282v-58h-282v-260h312v-57h-372zM244 671l-145 124h74l132 -124h-61z" />
    <glyph glyph-name="Eacute" unicode="&#xc9;" horiz-adv-x="504" 
d="M73 0v626h372v-58h-312v-193h282v-58h-282v-260h312v-57h-372zM199 671l132 124h74l-145 -124h-61z" />
    <glyph glyph-name="Ecircumflex" unicode="&#xca;" horiz-adv-x="504" 
d="M73 0v626h372v-58h-312v-193h282v-58h-282v-260h312v-57h-372zM114 671l102 124h73l102 -124h-59l-81 87l-80 -87h-57z" />
    <glyph glyph-name="Edieresis" unicode="&#xcb;" horiz-adv-x="504" 
d="M73 0v626h372v-58h-312v-193h282v-58h-282v-260h312v-57h-372zM144 671v82h61v-82h-61zM299 671v82h61v-82h-61z" />
    <glyph glyph-name="Igrave" unicode="&#xcc;" horiz-adv-x="210" 
d="M75 0v626h60v-626h-60zM73 671l-145 124h74l132 -124h-61z" />
    <glyph glyph-name="Iacute" unicode="&#xcd;" horiz-adv-x="210" 
d="M75 0v626h60v-626h-60zM73 671l132 124h74l-145 -124h-61z" />
    <glyph glyph-name="Icircumflex" unicode="&#xce;" horiz-adv-x="210" 
d="M75 0v626h60v-626h-60zM-33 671l102 124h73l102 -124h-59l-81 87l-80 -87h-57z" />
    <glyph glyph-name="Idieresis" unicode="&#xcf;" horiz-adv-x="210" 
d="M75 0v626h60v-626h-60zM-3 671v82h61v-82h-61zM152 671v82h61v-82h-61z" />
    <glyph glyph-name="Eth" unicode="&#xd0;" horiz-adv-x="538" 
d="M0 297l-0.00292969 53h73v276h184c40.667 0 75.834 -5.83301 105.501 -17.5s52.834 -26.5 69.501 -44.5s29.834 -40.667 39.501 -68s16 -53.333 19 -78s4.5 -53 4.5 -85v-39c0 -196 -79 -294 -237 -294h-185v297h-73zM132.997 57h125c64.667 0 110.167 19.667 136.5 59
s39.5 99 39.5 179v38c0 84 -13 144.167 -39 180.5s-72 54.5 -138 54.5h-124v-218h132v-53h-132v-240z" />
    <glyph glyph-name="Ntilde" unicode="&#xd1;" horiz-adv-x="569" 
d="M73 0v626h86l279 -506v506h58v-626h-58l-307 557v-557h-58zM195 671l-50.998 6c4 62.667 29 94 75 94c20 0 44.333 -8.5 73 -25.5s46.667 -25.5 54 -25.5c18 0 27.333 17 28 51l52 -6c-2 -31.333 -8.83301 -54.833 -20.5 -70.5s-30.167 -23.5 -55.5 -23.5
c-20 0 -44.333 8.5 -73 25.5s-46.334 25.5 -53.001 25.5c-18.667 0 -28.334 -17 -29.001 -51z" />
    <glyph glyph-name="Ograve" unicode="&#xd2;" horiz-adv-x="561" 
d="M280 -4c-158 0 -237 99.667 -237 299v36c0 96 17.5 170 52.5 222s96.5 78 184.5 78c88.667 0 150.5 -25.5 185.5 -76.5s52.5 -124.5 52.5 -220.5v-38c0 -200 -79.333 -300 -238 -300zM280 53c118 0 177.002 80.667 177.002 242v38c0 38 -2.33301 70.5 -7 97.5
s-13.334 51.833 -26.001 74.5s-30.834 39.667 -54.501 51s-53.5 17 -89.5 17c-68 0 -114.333 -20.5 -139 -61.5s-37 -100.833 -37 -179.5v-36c0 -162 58.667 -243 176 -243zM272.002 671l-145 124h74l132 -124h-61z" />
    <glyph glyph-name="Oacute" unicode="&#xd3;" horiz-adv-x="561" 
d="M280 -4c-158 0 -237 99.667 -237 299v36c0 96 17.5 170 52.5 222s96.5 78 184.5 78c88.667 0 150.5 -25.5 185.5 -76.5s52.5 -124.5 52.5 -220.5v-38c0 -200 -79.333 -300 -238 -300zM280 53c118 0 177.002 80.667 177.002 242v38c0 38 -2.33301 70.5 -7 97.5
s-13.334 51.833 -26.001 74.5s-30.834 39.667 -54.501 51s-53.5 17 -89.5 17c-68 0 -114.333 -20.5 -139 -61.5s-37 -100.833 -37 -179.5v-36c0 -162 58.667 -243 176 -243zM227.002 671l132 124h74l-145 -124h-61z" />
    <glyph glyph-name="Ocircumflex" unicode="&#xd4;" horiz-adv-x="561" 
d="M280 -4c-158 0 -237 99.667 -237 299v36c0 96 17.5 170 52.5 222s96.5 78 184.5 78c88.667 0 150.5 -25.5 185.5 -76.5s52.5 -124.5 52.5 -220.5v-38c0 -200 -79.333 -300 -238 -300zM280 53c118 0 177.002 80.667 177.002 242v38c0 38 -2.33301 70.5 -7 97.5
s-13.334 51.833 -26.001 74.5s-30.834 39.667 -54.501 51s-53.5 17 -89.5 17c-68 0 -114.333 -20.5 -139 -61.5s-37 -100.833 -37 -179.5v-36c0 -162 58.667 -243 176 -243zM142.002 671l102 124h73l102 -124h-59l-81 87l-80 -87h-57z" />
    <glyph glyph-name="Otilde" unicode="&#xd5;" horiz-adv-x="561" 
d="M280 -4c-158 0 -237 99.667 -237 299v36c0 96 17.5 170 52.5 222s96.5 78 184.5 78c88.667 0 150.5 -25.5 185.5 -76.5s52.5 -124.5 52.5 -220.5v-38c0 -200 -79.333 -300 -238 -300zM280 53c118 0 177.002 80.667 177.002 242v38c0 38 -2.33301 70.5 -7 97.5
s-13.334 51.833 -26.001 74.5s-30.834 39.667 -54.501 51s-53.5 17 -89.5 17c-68 0 -114.333 -20.5 -139 -61.5s-37 -100.833 -37 -179.5v-36c0 -162 58.667 -243 176 -243zM191.002 671l-50.998 6c4 62.667 29 94 75 94c20 0 44.333 -8.5 73 -25.5s46.667 -25.5 54 -25.5
c18 0 27.333 17 28 51l52 -6c-2 -31.333 -8.83301 -54.833 -20.5 -70.5s-30.167 -23.5 -55.5 -23.5c-20 0 -44.333 8.5 -73 25.5s-46.334 25.5 -53.001 25.5c-18.667 0 -28.334 -17 -29.001 -51z" />
    <glyph glyph-name="Odieresis" unicode="&#xd6;" horiz-adv-x="561" 
d="M280 -4c-158 0 -237 99.667 -237 299v36c0 96 17.5 170 52.5 222s96.5 78 184.5 78c88.667 0 150.5 -25.5 185.5 -76.5s52.5 -124.5 52.5 -220.5v-38c0 -200 -79.333 -300 -238 -300zM280 53c118 0 177.002 80.667 177.002 242v38c0 38 -2.33301 70.5 -7 97.5
s-13.334 51.833 -26.001 74.5s-30.834 39.667 -54.501 51s-53.5 17 -89.5 17c-68 0 -114.333 -20.5 -139 -61.5s-37 -100.833 -37 -179.5v-36c0 -162 58.667 -243 176 -243zM172.002 671v82h61v-82h-61zM327.002 671v82h61v-82h-61z" />
    <glyph glyph-name="multiply" unicode="&#xd7;" horiz-adv-x="503" 
d="M108 132l-35 35l143 143l-143 144l35 35l143 -144l144 144l35 -35l-144 -144l144 -143l-35 -35l-144 143z" />
    <glyph glyph-name="Oslash" unicode="&#xd8;" horiz-adv-x="561" 
d="M43 -30l59.999 100c-40 50 -60 125 -60 225v36c0 96 17.5 170 52.5 222s96.5 78 184.5 78c58.667 0 105.334 -11.667 140.001 -35l36 60h62l-58 -96c38.667 -46.667 58 -122 58 -226v-38c0 -200 -79.333 -300 -238 -300c-55.333 0 -101 12.333 -137 37l-38 -63h-62z
M103.999 296c0 -77.333 11 -135 33 -173l254 422c-26.667 18.667 -63.667 28 -111 28c-68 0 -114.333 -20.5 -139 -61.5s-37 -100.833 -37 -179.5v-36zM279.999 53c118 0 177 80.667 177 242v38c0 81.333 -10.333 139.333 -31 174l-255 -423c26.667 -20.667 63 -31 109 -31z
" />
    <glyph glyph-name="Ugrave" unicode="&#xd9;" horiz-adv-x="563" 
d="M281 -8c-74 0 -127.667 16.835 -161 50.502s-50 90.5 -50 170.5v413h60v-412c0 -62.667 10.333 -105.834 31 -129.501s60.667 -35.5 120 -35.5c60 0 100.667 11.833 122 35.5s32 66.5 32 128.5v413h58v-412c0 -80.667 -16.667 -137.834 -50 -171.501
s-87.333 -50.5 -162 -50.5zM273 671.002l-145 124h74l132 -124h-61z" />
    <glyph glyph-name="Uacute" unicode="&#xda;" horiz-adv-x="563" 
d="M281 -8c-74 0 -127.667 16.835 -161 50.502s-50 90.5 -50 170.5v413h60v-412c0 -62.667 10.333 -105.834 31 -129.501s60.667 -35.5 120 -35.5c60 0 100.667 11.833 122 35.5s32 66.5 32 128.5v413h58v-412c0 -80.667 -16.667 -137.834 -50 -171.501
s-87.333 -50.5 -162 -50.5zM228 671.002l132 124h74l-145 -124h-61z" />
    <glyph glyph-name="Ucircumflex" unicode="&#xdb;" horiz-adv-x="563" 
d="M281 -8c-74 0 -127.667 16.835 -161 50.502s-50 90.5 -50 170.5v413h60v-412c0 -62.667 10.333 -105.834 31 -129.501s60.667 -35.5 120 -35.5c60 0 100.667 11.833 122 35.5s32 66.5 32 128.5v413h58v-412c0 -80.667 -16.667 -137.834 -50 -171.501
s-87.333 -50.5 -162 -50.5zM143 671.002l102 124h73l102 -124h-59l-81 87l-80 -87h-57z" />
    <glyph glyph-name="Udieresis" unicode="&#xdc;" horiz-adv-x="563" 
d="M281 -8c-74 0 -127.667 16.835 -161 50.502s-50 90.5 -50 170.5v413h60v-412c0 -62.667 10.333 -105.834 31 -129.501s60.667 -35.5 120 -35.5c60 0 100.667 11.833 122 35.5s32 66.5 32 128.5v413h58v-412c0 -80.667 -16.667 -137.834 -50 -171.501
s-87.333 -50.5 -162 -50.5zM173 671.002v82h61v-82h-61zM328 671.002v82h61v-82h-61z" />
    <glyph glyph-name="Yacute" unicode="&#xdd;" horiz-adv-x="523" 
d="M231 0v284l-219 342h65l185 -290l187 290h62l-220 -342v-284h-60zM208 671l132 124h74l-145 -124h-61z" />
    <glyph glyph-name="Thorn" unicode="&#xde;" horiz-adv-x="529" 
d="M73 0v626h60v-120h180c122.667 0 184 -57 184 -171c0 -55.333 -17.667 -98.333 -53 -129s-79 -46 -131 -46h-180v-160h-60zM133 217h184.001c38 0 67.5 10.167 88.5 30.5s31.5 48.833 31.5 85.5c0 36 -9.83301 64.167 -29.5 84.5s-49.834 30.5 -90.501 30.5h-184v-231z
" />
    <glyph glyph-name="germandbls" unicode="&#xdf;" horiz-adv-x="509" 
d="M307 -4c-47.333 0 -83.9961 10.333 -109.996 31s-42.667 55 -50 103l59 9c3.33301 -30.667 12.666 -53 27.999 -67s39.666 -21 72.999 -21c39.333 0 66.333 11.833 81 35.5s22 60.167 22 109.5c0 46 -9.16699 78.667 -27.5 98s-50.833 29 -97.5 29h-44v58h34
c69.333 0 104 35.333 104 106c0 35.333 -8.33301 63.166 -25 83.499s-49.334 30.5 -98.001 30.5c-90 0 -135 -43.333 -135 -130v-471h-58v468c0 125.333 64 188 192 188c68 0 115.5 -14 142.5 -42s40.5 -68.333 40.5 -121c0 -68 -22.333 -112.333 -67 -133
c65.333 -18.667 98 -72 98 -160c0 -63.333 -11.833 -113.166 -35.5 -149.499s-65.834 -54.5 -126.501 -54.5z" />
    <glyph glyph-name="agrave" unicode="&#xe0;" horiz-adv-x="418" 
d="M171 -4c-89.333 0 -133.999 44 -133.999 132c0 53.333 22.5 93.333 67.5 120s111.5 44.334 199.5 53.001v8c0 28 -8 47.5 -24 58.5s-41 16.5 -75 16.5c-48.667 0 -82 -16 -100 -48l-62 20c12.667 25.333 33.667 45.666 63 60.999s64.666 23 105.999 23
c53.333 0 91.5 -10.5 114.5 -31.5s34.5 -52.833 34.5 -95.5v-313h-57v58c-26.667 -41.333 -71 -62 -133 -62zM179.001 50c46.667 0 79.167 11.832 97.5 35.499s27.5 55.834 27.5 96.501v67c-138.667 -14 -208 -54.667 -208 -122c0 -51.333 27.667 -77 83 -77z
M201.001 491.999l-145 124h74l132 -124h-61z" />
    <glyph glyph-name="aacute" unicode="&#xe1;" horiz-adv-x="418" 
d="M171 -4c-89.333 0 -133.999 44 -133.999 132c0 53.333 22.5 93.333 67.5 120s111.5 44.334 199.5 53.001v8c0 28 -8 47.5 -24 58.5s-41 16.5 -75 16.5c-48.667 0 -82 -16 -100 -48l-62 20c12.667 25.333 33.667 45.666 63 60.999s64.666 23 105.999 23
c53.333 0 91.5 -10.5 114.5 -31.5s34.5 -52.833 34.5 -95.5v-313h-57v58c-26.667 -41.333 -71 -62 -133 -62zM179.001 50c46.667 0 79.167 11.832 97.5 35.499s27.5 55.834 27.5 96.501v67c-138.667 -14 -208 -54.667 -208 -122c0 -51.333 27.667 -77 83 -77z
M156.001 491.999l132 124h74l-145 -124h-61z" />
    <glyph glyph-name="acircumflex" unicode="&#xe2;" horiz-adv-x="418" 
d="M171 -4c-89.333 0 -133.999 44 -133.999 132c0 53.333 22.5 93.333 67.5 120s111.5 44.334 199.5 53.001v8c0 28 -8 47.5 -24 58.5s-41 16.5 -75 16.5c-48.667 0 -82 -16 -100 -48l-62 20c12.667 25.333 33.667 45.666 63 60.999s64.666 23 105.999 23
c53.333 0 91.5 -10.5 114.5 -31.5s34.5 -52.833 34.5 -95.5v-313h-57v58c-26.667 -41.333 -71 -62 -133 -62zM179.001 50c46.667 0 79.167 11.832 97.5 35.499s27.5 55.834 27.5 96.501v67c-138.667 -14 -208 -54.667 -208 -122c0 -51.333 27.667 -77 83 -77z
M71.001 491.999l102 124h73l102 -124h-59l-81 87l-80 -87h-57z" />
    <glyph glyph-name="atilde" unicode="&#xe3;" horiz-adv-x="418" 
d="M171 -4c-89.333 0 -133.999 44 -133.999 132c0 53.333 22.5 93.333 67.5 120s111.5 44.334 199.5 53.001v8c0 28 -8 47.5 -24 58.5s-41 16.5 -75 16.5c-48.667 0 -82 -16 -100 -48l-62 20c12.667 25.333 33.667 45.666 63 60.999s64.666 23 105.999 23
c53.333 0 91.5 -10.5 114.5 -31.5s34.5 -52.833 34.5 -95.5v-313h-57v58c-26.667 -41.333 -71 -62 -133 -62zM179.001 50c46.667 0 79.167 11.832 97.5 35.499s27.5 55.834 27.5 96.501v67c-138.667 -14 -208 -54.667 -208 -122c0 -51.333 27.667 -77 83 -77z
M120.001 491.999l-50.998 6c4 62.667 29 94 75 94c20 0 44.333 -8.5 73 -25.5s46.667 -25.5 54 -25.5c18 0 27.333 17 28 51l52 -6c-2 -31.333 -8.83301 -54.833 -20.5 -70.5s-30.167 -23.5 -55.5 -23.5c-20 0 -44.333 8.5 -73 25.5s-46.334 25.5 -53.001 25.5
c-18.667 0 -28.334 -17 -29.001 -51z" />
    <glyph glyph-name="adieresis" unicode="&#xe4;" horiz-adv-x="418" 
d="M171 -4c-89.333 0 -133.999 44 -133.999 132c0 53.333 22.5 93.333 67.5 120s111.5 44.334 199.5 53.001v8c0 28 -8 47.5 -24 58.5s-41 16.5 -75 16.5c-48.667 0 -82 -16 -100 -48l-62 20c12.667 25.333 33.667 45.666 63 60.999s64.666 23 105.999 23
c53.333 0 91.5 -10.5 114.5 -31.5s34.5 -52.833 34.5 -95.5v-313h-57v58c-26.667 -41.333 -71 -62 -133 -62zM179.001 50c46.667 0 79.167 11.832 97.5 35.499s27.5 55.834 27.5 96.501v67c-138.667 -14 -208 -54.667 -208 -122c0 -51.333 27.667 -77 83 -77z
M101.001 491.999v82h61v-82h-61zM256.001 491.999v82h61v-82h-61z" />
    <glyph glyph-name="aring" unicode="&#xe5;" horiz-adv-x="418" 
d="M171 -4c-89.333 0 -133.999 44 -133.999 132c0 53.333 22.5 93.333 67.5 120s111.5 44.334 199.5 53.001v8c0 28 -8 47.5 -24 58.5s-41 16.5 -75 16.5c-48.667 0 -82 -16 -100 -48l-62 20c12.667 25.333 33.667 45.666 63 60.999s64.666 23 105.999 23
c53.333 0 91.5 -10.5 114.5 -31.5s34.5 -52.833 34.5 -95.5v-313h-57v58c-26.667 -41.333 -71 -62 -133 -62zM179.001 50c46.667 0 79.167 11.832 97.5 35.499s27.5 55.834 27.5 96.501v67c-138.667 -14 -208 -54.667 -208 -122c0 -51.333 27.667 -77 83 -77z
M209.001 491.999c-54.667 0 -82 27.333 -82 82s27.333 82 82 82s82 -27.333 82 -82s-27.333 -82 -82 -82zM209.001 528.999c28.667 0 43 15 43 45s-14.333 45 -43 45s-43 -15 -43 -45s14.333 -45 43 -45z" />
    <glyph glyph-name="ae" unicode="&#xe6;" horiz-adv-x="678" 
d="M477 -4c-72.667 0 -122.332 27.335 -148.999 82.002c-17.333 -29.333 -37.5 -50.333 -60.5 -63s-55.167 -19 -96.5 -19c-89.333 0 -134 44 -134 132c0 52.667 22.333 92 67 118s111.334 43.333 200.001 52v11c0 28 -8 47.5 -24 58.5s-41 16.5 -75 16.5
c-48.667 0 -82 -16 -100 -48l-62 20c12.667 25.333 33.667 45.666 63 60.999s64.666 23 105.999 23c68.667 0 112.667 -19 132 -57c28.667 38 73 57 133 57c61.333 0 104.166 -16.667 128.499 -50s36.5 -81.333 36.5 -144v-44h-281c0 -100.667 38.667 -151 116 -151
c33.333 0 57.833 6 73.5 18s26.167 30.333 31.5 55l58 -14c-9.33301 -34.667 -27.5 -62.334 -54.5 -83.001s-63.167 -31 -108.5 -31zM179.002 50.002c46.667 0 79.167 11.832 97.5 35.499s27.5 55.834 27.5 96.501v64c-66.667 -6.66699 -118 -19 -154 -37
s-54 -45.333 -54 -82c0 -51.333 27.667 -77 83 -77zM477.002 385.001c-72 0 -110.667 -43.001 -116 -129.001h222c-1.33301 44.667 -9.5 77.334 -24.5 98.001s-42.167 31 -81.5 31z" />
    <glyph glyph-name="ccedilla" unicode="&#xe7;" horiz-adv-x="421" 
d="M213 -196c-54.667 0 -89.001 20.001 -103.001 60.001l46 16c6.66699 -23.333 25.667 -35 57 -35c19.333 0 33.333 3.16699 42 9.5s13 17.5 13 33.5c0 28.667 -17.333 43 -52 43c-15.333 0 -28 -2.66699 -38 -8l-38 18l31 58c-89.333 14 -134 82.333 -134 205v25
c0 140.667 58.333 211 175 211c95.333 0 150 -49 164 -147l-61 -11c-4 33.333 -14 58.666 -30 75.999s-40.667 26 -74 26c-44 0 -74.167 -13.167 -90.5 -39.5s-24.5 -64.5 -24.5 -114.5v-24c0 -103.333 38.333 -155 115 -155c62.667 0 98.334 32.333 107.001 97l59 -8
c-21.333 -94 -75.333 -142 -162 -144l-17 -32c10 2 19.667 3 29 3c26 0 47 -6.33301 63 -19s24 -32.667 24 -60c0 -28 -9 -49 -27 -63s-42.667 -21 -74 -21z" />
    <glyph glyph-name="egrave" unicode="&#xe8;" horiz-adv-x="410" 
d="M211 -4c-116 0 -173.999 69.334 -173.999 208.001v25c0 140.667 58 211 174 211c61.333 0 104.166 -16.667 128.499 -50s36.5 -81.333 36.5 -144v-44h-281c0 -100.667 38.667 -151 116 -151c33.333 0 57.833 6 73.5 18s26.167 30.333 31.5 55l58 -14
c-9.33301 -34.667 -27.5 -62.334 -54.5 -83.001s-63.167 -31 -108.5 -31zM211.001 385.001c-72 0 -110.667 -43.001 -116 -129.001h222c-1.33301 44.667 -9.5 77.334 -24.5 98.001s-42.167 31 -81.5 31zM197.001 492l-145 124h74l132 -124h-61z" />
    <glyph glyph-name="eacute" unicode="&#xe9;" horiz-adv-x="410" 
d="M211 -4c-116 0 -173.999 69.334 -173.999 208.001v25c0 140.667 58 211 174 211c61.333 0 104.166 -16.667 128.499 -50s36.5 -81.333 36.5 -144v-44h-281c0 -100.667 38.667 -151 116 -151c33.333 0 57.833 6 73.5 18s26.167 30.333 31.5 55l58 -14
c-9.33301 -34.667 -27.5 -62.334 -54.5 -83.001s-63.167 -31 -108.5 -31zM211.001 385.001c-72 0 -110.667 -43.001 -116 -129.001h222c-1.33301 44.667 -9.5 77.334 -24.5 98.001s-42.167 31 -81.5 31zM152.001 492l132 124h74l-145 -124h-61z" />
    <glyph glyph-name="ecircumflex" unicode="&#xea;" horiz-adv-x="410" 
d="M211 -4c-116 0 -173.999 69.334 -173.999 208.001v25c0 140.667 58 211 174 211c61.333 0 104.166 -16.667 128.499 -50s36.5 -81.333 36.5 -144v-44h-281c0 -100.667 38.667 -151 116 -151c33.333 0 57.833 6 73.5 18s26.167 30.333 31.5 55l58 -14
c-9.33301 -34.667 -27.5 -62.334 -54.5 -83.001s-63.167 -31 -108.5 -31zM211.001 385.001c-72 0 -110.667 -43.001 -116 -129.001h222c-1.33301 44.667 -9.5 77.334 -24.5 98.001s-42.167 31 -81.5 31zM67.001 492l102 124h73l102 -124h-59l-81 87l-80 -87h-57z" />
    <glyph glyph-name="edieresis" unicode="&#xeb;" horiz-adv-x="410" 
d="M211 -4c-116 0 -173.999 69.334 -173.999 208.001v25c0 140.667 58 211 174 211c61.333 0 104.166 -16.667 128.499 -50s36.5 -81.333 36.5 -144v-44h-281c0 -100.667 38.667 -151 116 -151c33.333 0 57.833 6 73.5 18s26.167 30.333 31.5 55l58 -14
c-9.33301 -34.667 -27.5 -62.334 -54.5 -83.001s-63.167 -31 -108.5 -31zM211.001 385.001c-72 0 -110.667 -43.001 -116 -129.001h222c-1.33301 44.667 -9.5 77.334 -24.5 98.001s-42.167 31 -81.5 31zM97.001 492v82h61v-82h-61zM252.001 492v82h61v-82h-61z" />
    <glyph glyph-name="igrave" unicode="&#xec;" horiz-adv-x="189" 
d="M61 492l-120 124h72l107 -124h-59zM65 0v433h58v-433h-58z" />
    <glyph glyph-name="iacute" unicode="&#xed;" horiz-adv-x="189" 
d="M67 492l106 124h72l-119 -124h-59zM65 0v433h58v-433h-58z" />
    <glyph glyph-name="icircumflex" unicode="&#xee;" horiz-adv-x="189" 
d="M65 0v433h58v-433h-58zM-45 492l102 124h73l102 -124h-59l-81 87l-80 -87h-57z" />
    <glyph glyph-name="idieresis" unicode="&#xef;" horiz-adv-x="189" 
d="M65 0v433h58v-433h-58zM-15 492v82h61v-82h-61zM140 492v82h61v-82h-61z" />
    <glyph glyph-name="eth" unicode="&#xf0;" horiz-adv-x="422" 
d="M150 476l-0.00195312 56.002l83 25c-20 23.333 -40.333 42 -61 56l41 43c34 -24.667 61.333 -51.334 82 -80.001l90 28v-56l-60 -19c40 -77.333 60 -180.333 60 -309v-14c0 -64.667 -14.167 -115.834 -42.5 -153.501s-72.166 -56.5 -131.499 -56.5
s-103.166 18.833 -131.499 56.5s-42.5 88.167 -42.5 151.5v25c0 140.667 55 211 165 211c44.667 0 78.667 -11.333 102 -34c-6 37.333 -19 72.333 -39 105zM210.998 51.002c76.667 0 115 51.667 115 155v25c0 50 -8.16699 88 -24.5 114s-46.5 39 -90.5 39
c-43.333 0 -73.333 -13.333 -90 -40s-25 -64.667 -25 -114v-24c0 -103.333 38.333 -155 115 -155z" />
    <glyph glyph-name="ntilde" unicode="&#xf1;" horiz-adv-x="446" 
d="M53 0v433.001h58v-51c30 38.667 76 58 138 58c47.333 0 80.833 -12.5 100.5 -37.5s29.5 -62.5 29.5 -112.5v-290h-58v285c0 14.667 -0.666992 26.667 -2 36s-4.5 19.5 -9.5 30.5s-13.5 19.167 -25.5 24.5s-27.667 8 -47 8c-46 0 -78.5 -12.333 -97.5 -37
s-28.5 -63.334 -28.5 -116.001v-231h-58zM134 492.001l-50.998 6c4 62.667 29 94 75 94c20 0 44.333 -8.5 73 -25.5s46.667 -25.5 54 -25.5c18 0 27.333 17 28 51l52 -6c-2 -31.333 -8.83301 -54.833 -20.5 -70.5s-30.167 -23.5 -55.5 -23.5c-20 0 -44.333 8.5 -73 25.5
s-46.334 25.5 -53.001 25.5c-18.667 0 -28.334 -17 -29.001 -51z" />
    <glyph glyph-name="ograve" unicode="&#xf2;" horiz-adv-x="422" 
d="M211 -4c-59.333 0 -103.168 18.834 -131.501 56.501s-42.5 88.167 -42.5 151.5v25c0 140.667 58 211 174 211s174 -69.333 174 -208v-26c0 -64.667 -14.167 -115.834 -42.5 -153.501s-72.166 -56.5 -131.499 -56.5zM210.998 51.001c76.667 0 115 51.667 115 155v25
c0 50 -8.16699 88 -24.5 114s-46.5 39 -90.5 39c-43.333 0 -73.333 -13.333 -90 -40s-25 -64.667 -25 -114v-24c0 -103.333 38.333 -155 115 -155zM201.998 492.001l-145 124h74l132 -124h-61z" />
    <glyph glyph-name="oacute" unicode="&#xf3;" horiz-adv-x="422" 
d="M211 -4c-59.333 0 -103.168 18.834 -131.501 56.501s-42.5 88.167 -42.5 151.5v25c0 140.667 58 211 174 211s174 -69.333 174 -208v-26c0 -64.667 -14.167 -115.834 -42.5 -153.501s-72.166 -56.5 -131.499 -56.5zM210.998 51.001c76.667 0 115 51.667 115 155v25
c0 50 -8.16699 88 -24.5 114s-46.5 39 -90.5 39c-43.333 0 -73.333 -13.333 -90 -40s-25 -64.667 -25 -114v-24c0 -103.333 38.333 -155 115 -155zM156.998 492.001l132 124h74l-145 -124h-61z" />
    <glyph glyph-name="ocircumflex" unicode="&#xf4;" horiz-adv-x="422" 
d="M211 -4c-59.333 0 -103.168 18.834 -131.501 56.501s-42.5 88.167 -42.5 151.5v25c0 140.667 58 211 174 211s174 -69.333 174 -208v-26c0 -64.667 -14.167 -115.834 -42.5 -153.501s-72.166 -56.5 -131.499 -56.5zM210.998 51.001c76.667 0 115 51.667 115 155v25
c0 50 -8.16699 88 -24.5 114s-46.5 39 -90.5 39c-43.333 0 -73.333 -13.333 -90 -40s-25 -64.667 -25 -114v-24c0 -103.333 38.333 -155 115 -155zM71.998 492.001l102 124h73l102 -124h-59l-81 87l-80 -87h-57z" />
    <glyph glyph-name="otilde" unicode="&#xf5;" horiz-adv-x="422" 
d="M211 -4c-59.333 0 -103.168 18.834 -131.501 56.501s-42.5 88.167 -42.5 151.5v25c0 140.667 58 211 174 211s174 -69.333 174 -208v-26c0 -64.667 -14.167 -115.834 -42.5 -153.501s-72.166 -56.5 -131.499 -56.5zM210.998 51.001c76.667 0 115 51.667 115 155v25
c0 50 -8.16699 88 -24.5 114s-46.5 39 -90.5 39c-43.333 0 -73.333 -13.333 -90 -40s-25 -64.667 -25 -114v-24c0 -103.333 38.333 -155 115 -155zM120.998 492.001l-50.998 6c4 62.667 29 94 75 94c20 0 44.333 -8.5 73 -25.5s46.667 -25.5 54 -25.5c18 0 27.333 17 28 51
l52 -6c-2 -31.333 -8.83301 -54.833 -20.5 -70.5s-30.167 -23.5 -55.5 -23.5c-20 0 -44.333 8.5 -73 25.5s-46.334 25.5 -53.001 25.5c-18.667 0 -28.334 -17 -29.001 -51z" />
    <glyph glyph-name="odieresis" unicode="&#xf6;" horiz-adv-x="422" 
d="M211 -4c-59.333 0 -103.168 18.834 -131.501 56.501s-42.5 88.167 -42.5 151.5v25c0 140.667 58 211 174 211s174 -69.333 174 -208v-26c0 -64.667 -14.167 -115.834 -42.5 -153.501s-72.166 -56.5 -131.499 -56.5zM210.998 51.001c76.667 0 115 51.667 115 155v25
c0 50 -8.16699 88 -24.5 114s-46.5 39 -90.5 39c-43.333 0 -73.333 -13.333 -90 -40s-25 -64.667 -25 -114v-24c0 -103.333 38.333 -155 115 -155zM101.998 492.001v82h61v-82h-61zM256.998 492.001v82h61v-82h-61z" />
    <glyph glyph-name="divide" unicode="&#xf7;" horiz-adv-x="503" 
d="M54 284v53h395v-53h-395zM219 104v82h65v-82h-65zM219 435v82h65v-82h-65z" />
    <glyph glyph-name="oslash" unicode="&#xf8;" horiz-adv-x="422" 
d="M39 -30l43.998 77.001c-30.667 36.667 -46 89 -46 157v25c0 140.667 58 211 174 211c33.333 0 62 -5.66699 86 -17l28 47h58l-44 -78c30.667 -34.667 46 -88 46 -160v-26c0 -64.667 -14.167 -115.834 -42.5 -153.501s-72.166 -56.5 -131.499 -56.5
c-33.333 0 -62.666 6.33301 -87.999 19l-26 -45h-58zM210.998 51.001c76.667 0 114.999 51.667 114.999 155v25c0 50 -6.66699 86.333 -20 109l-157 -275c16.667 -9.33301 37.334 -14 62.001 -14zM95.9971 206.001c0 -45.333 6.33301 -80.333 19 -105l155 271
c-15.333 8 -35 12 -59 12c-43.333 0 -73.333 -13.333 -90 -40s-25 -64.667 -25 -114v-24z" />
    <glyph glyph-name="ugrave" unicode="&#xf9;" horiz-adv-x="446" 
d="M326 0l0.000976562 51c-30.667 -36.667 -76.667 -55 -138 -55c-47.333 0 -80.833 12.5 -100.5 37.5s-29.5 62.5 -29.5 112.5v287h58v-282c0 -14.667 0.666992 -26.834 2 -36.501s4.66602 -20 9.99902 -31s14 -19.167 26 -24.5s27.333 -8 46 -8c46 0 78.5 12.333 97.5 37
s28.5 63.334 28.5 116.001v229h58v-433h-58zM215.001 492l-145 124h74l132 -124h-61z" />
    <glyph glyph-name="uacute" unicode="&#xfa;" horiz-adv-x="446" 
d="M326 0l0.000976562 51c-30.667 -36.667 -76.667 -55 -138 -55c-47.333 0 -80.833 12.5 -100.5 37.5s-29.5 62.5 -29.5 112.5v287h58v-282c0 -14.667 0.666992 -26.834 2 -36.501s4.66602 -20 9.99902 -31s14 -19.167 26 -24.5s27.333 -8 46 -8c46 0 78.5 12.333 97.5 37
s28.5 63.334 28.5 116.001v229h58v-433h-58zM170.001 492l132 124h74l-145 -124h-61z" />
    <glyph glyph-name="ucircumflex" unicode="&#xfb;" horiz-adv-x="446" 
d="M326 0l0.000976562 51c-30.667 -36.667 -76.667 -55 -138 -55c-47.333 0 -80.833 12.5 -100.5 37.5s-29.5 62.5 -29.5 112.5v287h58v-282c0 -14.667 0.666992 -26.834 2 -36.501s4.66602 -20 9.99902 -31s14 -19.167 26 -24.5s27.333 -8 46 -8c46 0 78.5 12.333 97.5 37
s28.5 63.334 28.5 116.001v229h58v-433h-58zM85.001 492l102 124h73l102 -124h-59l-81 87l-80 -87h-57z" />
    <glyph glyph-name="udieresis" unicode="&#xfc;" horiz-adv-x="446" 
d="M326 0l0.000976562 51c-30.667 -36.667 -76.667 -55 -138 -55c-47.333 0 -80.833 12.5 -100.5 37.5s-29.5 62.5 -29.5 112.5v287h58v-282c0 -14.667 0.666992 -26.834 2 -36.501s4.66602 -20 9.99902 -31s14 -19.167 26 -24.5s27.333 -8 46 -8c46 0 78.5 12.333 97.5 37
s28.5 63.334 28.5 116.001v229h58v-433h-58zM115.001 492v82h61v-82h-61zM270.001 492v82h61v-82h-61z" />
    <glyph glyph-name="yacute" unicode="&#xfd;" horiz-adv-x="385" 
d="M44 -178v55h30c19.333 0 33.5 3.66699 42.5 11s16.5 20.333 22.5 39l25 73l-147 433h60l32 -96l85 -253l85 253l32 96h58l-176 -514c-12 -35.333 -26.833 -60.333 -44.5 -75s-42.167 -22 -73.5 -22h-31zM139 492l132 124h74l-145 -124h-61z" />
    <glyph glyph-name="thorn" unicode="&#xfe;" horiz-adv-x="448" 
d="M63 -178v834h58v-274c29.333 38.667 73 58 131 58c61.333 0 103 -17.333 125 -52s33 -86.667 33 -156v-26c0 -66 -12 -117.5 -36 -154.5s-65 -55.5 -123 -55.5s-101.333 17 -130 51v-225h-58zM246 51c40.667 0 68.333 13.167 83 39.5s22 64.833 22 115.5v25
c0 55.333 -6.5 94.666 -19.5 117.999s-41.5 35 -85.5 35c-46 0 -78 -12.167 -96 -36.5s-27.667 -59.166 -29 -104.499v-43c0 -49.333 8.5 -86.5 25.5 -111.5s50.167 -37.5 99.5 -37.5z" />
    <glyph glyph-name="ydieresis" unicode="&#xff;" horiz-adv-x="385" 
d="M44 -178v55h30c19.333 0 33.5 3.66699 42.5 11s16.5 20.333 22.5 39l25 73l-147 433h60l32 -96l85 -253l85 253l32 96h58l-176 -514c-12 -35.333 -26.833 -60.333 -44.5 -75s-42.167 -22 -73.5 -22h-31zM84 492v82h61v-82h-61zM239 492v82h61v-82h-61z" />
    <glyph glyph-name="dotlessi" unicode="&#x131;" horiz-adv-x="189" 
d="M65 0v433h58v-433h-58z" />
    <glyph glyph-name="Lslash" unicode="&#x141;" horiz-adv-x="474" 
d="M0 277v56l73 22v271h60v-252l132 41v-56l-132 -41v-261h312v-57h-372v299z" />
    <glyph glyph-name="lslash" unicode="&#x142;" horiz-adv-x="229" 
d="M10 363v56l75 22v215h58v-198l76 23v-56l-76 -23v-402h-58v385z" />
    <glyph glyph-name="OE" unicode="&#x152;" horiz-adv-x="888" 
d="M461 0v79c-38 -55.333 -98.333 -83 -181 -83c-158 0 -237 99.667 -237 299v36c0 96 17.5 170 52.5 222s96.5 78 184.5 78c84 0 144.333 -25 181 -75v70h368v-58h-312v-193h282v-57h-282v-261h312v-57h-368zM280 53c118 0 177.002 80.667 177.002 242v38
c0 38 -2.33301 70.5 -7 97.5s-13.334 51.833 -26.001 74.5s-30.834 39.667 -54.501 51s-53.5 17 -89.5 17c-68 0 -114.333 -20.5 -139 -61.5s-37 -100.833 -37 -179.5v-36c0 -162 58.667 -243 176 -243z" />
    <glyph glyph-name="oe" unicode="&#x153;" horiz-adv-x="700" 
d="M499 -4c-70.667 0 -119.001 25.334 -145.001 76.001c-28 -50.667 -75.667 -76 -143 -76c-59.333 0 -103.166 18.833 -131.499 56.5s-42.5 88.167 -42.5 151.5v25c0 140.667 58 211 174 211c70 0 118.333 -25 145 -75c26.667 50 74.334 75 143.001 75
c61.333 0 104.166 -16.667 128.499 -50s36.5 -81.333 36.5 -144v-44h-280c0 -100.667 38.333 -151 115 -151c33.333 0 57.833 6 73.5 18s26.167 30.333 31.5 55l58 -14c-9.33301 -34.667 -27.5 -62.334 -54.5 -83.001s-63.167 -31 -108.5 -31zM210.999 51.001
c76.667 0 115 51.667 115 155v25c0 50 -8.16699 88 -24.5 114s-46.5 39 -90.5 39c-43.333 0 -73.333 -13.333 -90 -40s-25 -64.667 -25 -114v-24c0 -103.333 38.333 -155 115 -155zM498.999 385.001c-39.333 0 -67.667 -11.1689 -85 -33.502s-27.333 -54.166 -30 -95.499
h221c-1.33301 44.667 -9.5 77.334 -24.5 98.001s-42.167 31 -81.5 31z" />
    <glyph glyph-name="Scaron" unicode="&#x160;" horiz-adv-x="526" 
d="M272 -6c-69.333 0 -122.829 13.6621 -160.496 40.9951s-64.834 69 -81.501 125l66 8c12 -42.667 32 -72.667 60 -90s67 -26 117 -26c40 0 75.333 9.16699 106 27.5s46 48.833 46 91.5c0 16 -3.5 30.5 -10.5 43.5s-14.5 23.333 -22.5 31s-21.167 15.5 -39.5 23.5
s-32.5 13.5 -42.5 16.5l-51 15.5c-28.667 8.66699 -50.5 15.5 -65.5 20.5s-32.333 12.5 -52 22.5s-34.167 20.5 -43.5 31.5s-17.5 25.167 -24.5 42.5s-10.5 37.333 -10.5 60c0 46.667 18.333 83.834 55 111.501s87.667 41.5 153 41.5c110.667 0 180.334 -47 209.001 -141
l-69 -9c-16.667 61.333 -63.334 92 -140.001 92c-48 0 -84.5 -8.5 -109.5 -25.5s-37.5 -40.833 -37.5 -71.5c0 -11.333 1.16699 -21.5 3.5 -30.5s7.66602 -17.333 15.999 -25s15.166 -13.667 20.499 -18s16.166 -9.66602 32.499 -15.999s28.333 -10.666 36 -12.999
l45.5 -14.5c38 -11.333 67.333 -21.166 88 -29.499s41.5 -19.666 62.5 -33.999s35.833 -31.833 44.5 -52.5s13 -45.667 13 -75c0 -30.667 -6.83301 -57.667 -20.5 -81s-31.667 -41.5 -54 -54.5s-45.333 -22.667 -69 -29s-47.167 -9.5 -70.5 -9.5zM227.004 670.995l-102 124
h59l81 -87l80 87h57l-102 -124h-73z" />
    <glyph glyph-name="scaron" unicode="&#x161;" horiz-adv-x="389" 
d="M201 -4c-93.333 0 -151.665 39.668 -174.998 119.001l59 15c8.66699 -28.667 21.5 -49 38.5 -61s42.833 -18 77.5 -18c65.333 0 98 22 98 66c0 23.333 -7.33301 39.833 -22 49.5s-42.334 20.167 -83.001 31.5c-27.333 7.33301 -47.833 13.5 -61.5 18.5
s-28.167 12.167 -43.5 21.5s-26.166 21 -32.499 35s-9.5 31 -9.5 51c0 34 13.5 61.833 40.5 83.5s64.167 32.5 111.5 32.5c86 0 138.333 -32.667 157 -98l-61 -19c-10 41.333 -42 62 -96 62c-62 0 -93 -19.333 -93 -58c0 -20.667 6.16699 -35.334 18.5 -44.001
s38.833 -18.334 79.5 -29.001c21.333 -6 37.166 -10.667 47.499 -14s23.666 -8.66602 39.999 -15.999s28.333 -15.333 36 -24s14.5 -20 20.5 -34s9 -30 9 -48c0 -40 -15 -70.333 -45 -91s-67 -31 -111 -31zM158.001 492.001l-102 124h59l81 -87l80 87h57l-102 -124h-73z" />
    <glyph glyph-name="Ydieresis" unicode="&#x178;" horiz-adv-x="523" 
d="M231 0v284l-219 342h65l185 -290l187 290h62l-220 -342v-284h-60zM153 671v82h61v-82h-61zM308 671v82h61v-82h-61z" />
    <glyph glyph-name="Zcaron" unicode="&#x17d;" horiz-adv-x="508" 
d="M53 0v57l330 511h-325v58h392v-58l-330 -511h335v-57h-402zM218 671l-102 124h59l81 -87l80 87h57l-102 -124h-73z" />
    <glyph glyph-name="zcaron" unicode="&#x17e;" horiz-adv-x="391" 
d="M43 0v55l222 322h-212v56h286v-56l-222 -322h232v-55h-306zM159 492l-102 124h59l81 -87l80 87h57l-102 -124h-73z" />
    <glyph glyph-name="florin" unicode="&#x192;" horiz-adv-x="332" 
d="M39 317v56.001h90v103c0 51.333 10 89.166 30 113.499s57 36.5 111 36.5h31v-55h-30c-36 0 -59 -8 -69 -24s-15 -41.333 -15 -76v-98h114v-56h-114v-495h-58v495h-90z" />
    <glyph glyph-name="circumflex" unicode="&#x2c6;" 
d="M112 492l102 124h73l102 -124h-59l-81 87l-80 -87h-57z" />
    <glyph glyph-name="caron" unicode="&#x2c7;" 
d="M214 492l-102 124h59l81 -87l80 87h57l-102 -124h-73z" />
    <glyph glyph-name="breve" unicode="&#x2d8;" 
d="M250 492c-92 0 -137.998 43 -137.998 129h50c1.33301 -28 8.5 -48.5 21.5 -61.5s35.167 -19.5 66.5 -19.5s53.666 6.5 66.999 19.5s20.666 33.5 21.999 61.5h50c0 -86 -46.333 -129 -139 -129z" />
    <glyph glyph-name="dotaccent" unicode="&#x2d9;" 
d="M221 492v82h59v-82h-59z" />
    <glyph glyph-name="ring" unicode="&#x2da;" 
d="M250 492c-54.667 0 -82 27.333 -82 82s27.333 82 82 82s82 -27.333 82 -82s-27.333 -82 -82 -82zM250 529c28.667 0 43 15 43 45s-14.333 45 -43 45s-43 -15 -43 -45s14.333 -45 43 -45z" />
    <glyph glyph-name="ogonek" unicode="&#x2db;" 
d="M251 -161c-34.667 0 -58.833 5.50098 -72.5 16.501s-20.5 31.5 -20.5 61.5c0 36.667 19.333 71 58 103h53c-24 -24.667 -40.167 -43.334 -48.5 -56.001s-12.5 -27.667 -12.5 -45c0 -14.667 3 -24.167 9 -28.5s17 -6.5 33 -6.5c24 0 40.667 10.333 50 31l46 -17
c-20 -39.333 -51.667 -59 -95 -59z" />
    <glyph glyph-name="tilde" unicode="&#x2dc;" 
d="M161 492l-50.998 6c4 62.667 29 94 75 94c20 0 44.333 -8.5 73 -25.5s46.667 -25.5 54 -25.5c18 0 27.333 17 28 51l52 -6c-2 -31.333 -8.83301 -54.833 -20.5 -70.5s-30.167 -23.5 -55.5 -23.5c-20 0 -44.333 8.5 -73 25.5s-46.334 25.5 -53.001 25.5
c-18.667 0 -28.334 -17 -29.001 -51z" />
    <glyph glyph-name="hungarumlaut" unicode="&#x2dd;" 
d="M118 492l72 134h62l-85 -134h-49zM278 492l72 134h62l-85 -134h-49z" />
    <glyph glyph-name="Delta" unicode="&#x394;" horiz-adv-x="466" 
d="M14 377v56.001h90v73c0 51.333 10 89.166 30 113.499s57 36.5 111 36.5h31v-55h-30c-36 0 -59 -8 -69 -24s-15 -41.333 -15 -76v-68h114v-56h-114v-377h-58v377h-90zM258 -177.999v55h29c23.333 0 38.333 5.66699 45 17s10 32.333 10 63v476h58v-476
c0 -48 -8.33301 -82.5 -25 -103.5s-45.667 -31.5 -87 -31.5h-30zM340 511.001v84h62v-84h-62z" />
    <glyph glyph-name="Delta" unicode="&#x2206;" horiz-adv-x="466" 
d="M14 377v56.001h90v73c0 51.333 10 89.166 30 113.499s57 36.5 111 36.5h31v-55h-30c-36 0 -59 -8 -69 -24s-15 -41.333 -15 -76v-68h114v-56h-114v-377h-58v377h-90zM258 -177.999v55h29c23.333 0 38.333 5.66699 45 17s10 32.333 10 63v476h58v-476
c0 -48 -8.33301 -82.5 -25 -103.5s-45.667 -31.5 -87 -31.5h-30zM340 511.001v84h62v-84h-62z" />
    <glyph glyph-name="Omega" unicode="&#x3a9;" horiz-adv-x="518" 
d="M181 0c-50 11.333 -86.499 29.833 -109.499 55.5s-34.5 63.167 -34.5 112.5c0 74 30 122.333 90 145c-60 23.333 -90 73 -90 149c0 95.333 49 150 147 164l11 -63c-33.333 -4 -58 -13.5 -74 -28.5s-24 -39.5 -24 -73.5c0 -44.667 12.833 -75.834 38.5 -93.501
s62.834 -26.5 111.501 -26.5h24c100.667 0 151 40 151 120c0 34 -7.66699 59 -23 75s-38.666 26 -69.999 30l8 61c49.333 -11.333 85.666 -30.333 108.999 -57s35 -63.667 35 -111c0 -74 -30.333 -122.667 -91 -146c60.667 -24 91 -73.333 91 -148
c0 -95.333 -49 -150 -147 -164l-11 65c33.333 4 58 13.333 74 28s24 38.667 24 72c0 44.667 -12.833 75.834 -38.5 93.501s-62.834 26.5 -111.501 26.5h-24c-100.667 0 -151 -40 -151 -120c0 -34 7.66699 -58.667 23 -74s38.666 -25 69.999 -29z" />
    <glyph glyph-name="Omega" unicode="&#x2126;" horiz-adv-x="518" 
d="M181 0c-50 11.333 -86.499 29.833 -109.499 55.5s-34.5 63.167 -34.5 112.5c0 74 30 122.333 90 145c-60 23.333 -90 73 -90 149c0 95.333 49 150 147 164l11 -63c-33.333 -4 -58 -13.5 -74 -28.5s-24 -39.5 -24 -73.5c0 -44.667 12.833 -75.834 38.5 -93.501
s62.834 -26.5 111.501 -26.5h24c100.667 0 151 40 151 120c0 34 -7.66699 59 -23 75s-38.666 26 -69.999 30l8 61c49.333 -11.333 85.666 -30.333 108.999 -57s35 -63.667 35 -111c0 -74 -30.333 -122.667 -91 -146c60.667 -24 91 -73.333 91 -148
c0 -95.333 -49 -150 -147 -164l-11 65c33.333 4 58 13.333 74 28s24 38.667 24 72c0 44.667 -12.833 75.834 -38.5 93.501s-62.834 26.5 -111.501 26.5h-24c-100.667 0 -151 -40 -151 -120c0 -34 7.66699 -58.667 23 -74s38.666 -25 69.999 -29z" />
    <glyph glyph-name="pi" unicode="&#x3c0;" horiz-adv-x="681" 
d="M340 -4c-58 0 -107 8.00293 -147 24.0029s-70.667 39.167 -92 69.5s-36.333 63.166 -45 98.499s-13 76.333 -13 123s4.33301 87.834 13 123.501s23.667 68.5 45 98.5s52 53 92 69s89 24 147 24c58.667 0 108.167 -8 148.5 -24s71 -39 92 -69s35.833 -62.833 44.5 -98.5
s13 -76.834 13 -123.501c0 -36.667 -2.5 -69.834 -7.5 -99.501s-14.333 -58.334 -28 -86.001s-31.334 -50.667 -53.001 -69s-50.167 -33 -85.5 -44s-76.666 -16.5 -123.999 -16.5zM340 34.0029c53.333 0 97.834 7 133.501 21s62.167 34.5 79.5 61.5s29.166 55.667 35.499 86
s9.5 66.5 9.5 108.5c0 33.333 -1.83301 62.666 -5.5 87.999s-10.834 50.333 -21.501 75s-25.334 45 -44.001 61s-43.667 28.833 -75 38.5s-68.666 14.5 -111.999 14.5c-42.667 0 -79.667 -4.83301 -111 -14.5s-56.166 -22.5 -74.499 -38.5s-33 -36.333 -44 -61
s-18.333 -49.667 -22 -75s-5.5 -54.666 -5.5 -87.999c0 -42 3.16699 -78.167 9.5 -108.5s18.333 -59 36 -86s44.167 -47.5 79.5 -61.5s79.333 -21 132 -21zM210.001 105.003v422h164c38.667 0 69.5 -10.667 92.5 -32s34.5 -51.666 34.5 -90.999
c0 -38.667 -11.667 -69.834 -35 -93.501s-54 -35.5 -92 -35.5h-114v-170h-50zM260.001 324.003l116 0.000976562c22.667 0 40.5 7.66699 53.5 23s19.5 33.666 19.5 54.999s-6.16699 39.5 -18.5 54.5s-30.5 22.5 -54.5 22.5h-116v-155z" />
    <glyph glyph-name="endash" unicode="&#x2013;" horiz-adv-x="551" 
d="M34 229v53h483v-53h-483z" />
    <glyph glyph-name="emdash" unicode="&#x2014;" horiz-adv-x="720" 
d="M34 229v53h652v-53h-652z" />
    <glyph glyph-name="quoteleft" unicode="&#x2018;" horiz-adv-x="213" 
d="M74 463v77.001c0 28 4 48.833 12 62.5s25.667 21.5 53 23.5v-32c-14 -2.66699 -22.667 -7.33398 -26 -14.001s-5 -20 -5 -40h31v-77h-65z" />
    <glyph glyph-name="quoteright" unicode="&#x2019;" horiz-adv-x="213" 
d="M74 463v31.999c14 2.66699 22.667 7.33398 26 14.001s5 20 5 40h-31v77h65v-77c0 -28 -4 -48.833 -12 -62.5s-25.667 -21.5 -53 -23.5z" />
    <glyph glyph-name="quotesinglbase" unicode="&#x201a;" horiz-adv-x="213" 
d="M74 -86v31.999c14 2.66699 22.667 7.33398 26 14.001s5 20 5 40h-31v77h65v-77c0 -28 -4 -48.833 -12 -62.5s-25.667 -21.5 -53 -23.5z" />
    <glyph glyph-name="quotedblleft" unicode="&#x201c;" horiz-adv-x="353" 
d="M74 463v77.001c0 28 4 48.833 12 62.5s25.667 21.5 53 23.5v-32c-14 -2.66699 -22.667 -7.33398 -26 -14.001s-5 -20 -5 -40h31v-77h-65zM214 463.001v77.001c0 28 4 48.833 12 62.5s25.667 21.5 53 23.5v-32c-14 -2.66699 -22.667 -7.33398 -26 -14.001s-5 -20 -5 -40
h31v-77h-65z" />
    <glyph glyph-name="quotedblright" unicode="&#x201d;" horiz-adv-x="353" 
d="M74 463v31.999c14 2.66699 22.667 7.33398 26 14.001s5 20 5 40h-31v77h65v-77c0 -28 -4 -48.833 -12 -62.5s-25.667 -21.5 -53 -23.5zM214 462.999v31.999c14 2.66699 22.667 7.33398 26 14.001s5 20 5 40h-31v77h65v-77c0 -28 -4 -48.833 -12 -62.5
s-25.667 -21.5 -53 -23.5z" />
    <glyph glyph-name="quotedblbase" unicode="&#x201e;" horiz-adv-x="353" 
d="M74 -86v31.999c14 2.66699 22.667 7.33398 26 14.001s5 20 5 40h-31v77h65v-77c0 -28 -4 -48.833 -12 -62.5s-25.667 -21.5 -53 -23.5zM214 -86.001v31.999c14 2.66699 22.667 7.33398 26 14.001s5 20 5 40h-31v77h65v-77c0 -28 -4 -48.833 -12 -62.5
s-25.667 -21.5 -53 -23.5z" />
    <glyph glyph-name="dagger" unicode="&#x2020;" horiz-adv-x="503" 
d="M224 -178v511h-170v53h170v240h55v-240h170v-53h-170v-511h-55z" />
    <glyph glyph-name="daggerdbl" unicode="&#x2021;" horiz-adv-x="503" 
d="M224 -177v210h-170v53h170v277h-170v53h170v210h55v-210h170v-53h-170v-277h170v-53h-170v-210h-55z" />
    <glyph glyph-name="bullet" unicode="&#x2022;" horiz-adv-x="422" 
d="M211 171c-76.667 0 -115 51.667 -115 155v24c0 49.333 8.33301 87.333 25 114s46.667 40 90 40c44 0 74.167 -13 90.5 -39s24.5 -64 24.5 -114v-25c0 -103.333 -38.333 -155 -115 -155z" />
    <glyph glyph-name="ellipsis" unicode="&#x2026;" horiz-adv-x="531" 
d="M64 0v82h65v-82h-65zM233 0v82h65v-82h-65zM402 0v82h65v-82h-65z" />
    <glyph glyph-name="perthousand" unicode="&#x2030;" horiz-adv-x="1036" 
d="M168 264c-44 0 -76.333 15.499 -97 46.499s-31 72.833 -31 125.5v21c0 116 42.667 174 128 174c86 0 129 -57 129 -171v-22c0 -53.333 -10.5 -95.666 -31.5 -126.999s-53.5 -47 -97.5 -47zM168 313.999c51.333 0 77 40.667 77 122v23c0 42 -5.66699 72.667 -17 92
s-31.333 29 -60 29s-48.5 -9.66699 -59.5 -29s-16.5 -50 -16.5 -92v-21c0 -82.667 25.333 -124 76 -124zM567 -4.00098c-44 0 -76.333 15.499 -97 46.499s-31 72.833 -31 125.5v21c0 116 42.667 174 128 174c86 0 129 -57 129 -171v-22
c0 -53.333 -10.5 -95.666 -31.5 -126.999s-53.5 -47 -97.5 -47zM567 45.998c51.333 0 77 40.667 77 122v23c0 42 -5.66699 72.667 -17 92s-31.333 29 -60 29s-48.5 -9.66699 -59.5 -29s-16.5 -50 -16.5 -92v-21c0 -82.667 25.333 -124 76 -124zM867 -4.00195
c-44 0 -76.333 15.499 -97 46.499s-31 72.833 -31 125.5v21c0 116 42.667 174 128 174c86 0 129 -57 129 -171v-22c0 -53.333 -10.5 -95.666 -31.5 -126.999s-53.5 -47 -97.5 -47zM867 45.9971c51.333 0 77 40.667 77 122v23c0 42 -5.66699 72.667 -17 92s-31.333 29 -60 29
s-48.5 -9.66699 -59.5 -29s-16.5 -50 -16.5 -92v-21c0 -82.667 25.333 -124 76 -124zM200 -0.00292969l275 626h60l-275 -626h-60z" />
    <glyph glyph-name="guilsinglleft" unicode="&#x2039;" horiz-adv-x="229" 
d="M140 0l-111 217l111 216h58l-111 -216l111 -217h-58z" />
    <glyph glyph-name="guilsinglright" unicode="&#x203a;" horiz-adv-x="229" 
d="M31 0l111 217l-111 216h58l111 -216l-111 -217h-58z" />
    <glyph glyph-name="fraction" unicode="&#x2044;" horiz-adv-x="345" 
d="M7 0l275 626h56l-275 -626h-56z" />
    <glyph glyph-name="fraction" unicode="&#x2215;" horiz-adv-x="345" 
d="M7 0l275 626h56l-275 -626h-56z" />
    <glyph glyph-name="Euro" unicode="&#x20ac;" horiz-adv-x="617" 
d="M56 359v52.998h91c7.33301 70.667 27.333 124.834 60 162.501s83 56.5 151 56.5c64.667 0 111.667 -15.833 141 -47.5s48.666 -77.834 57.999 -138.501l-67 -9c-4.66699 44 -17 78 -37 102s-52 36 -96 36c-50 0 -86.333 -13.667 -109 -41s-36.667 -67.666 -42 -120.999
h160v-53h-163v-95h163v-53h-159c6 -53.333 20.5 -93.166 43.5 -119.499s58.5 -39.5 106.5 -39.5c46 0 79 11.5 99 34.5s33.333 57.5 40 103.5l64 -9c-11.333 -60 -32.333 -105.833 -63 -137.5s-78 -47.5 -142 -47.5c-66.667 0 -116.167 18.5 -148.5 55.5
s-52.166 90.167 -59.499 159.5h-91v53h87v95h-87z" />
    <glyph glyph-name="trademark" unicode="&#x2122;" horiz-adv-x="652" 
d="M293 313v313h64l89 -250l91 250h64v-313h-51v222l-80 -222h-47l-80 222v-222h-50zM115 313v267h-86v46h227v-46h-90v-267h-51z" />
    <glyph glyph-name="partialdiff" unicode="&#x2202;" horiz-adv-x="518" 
d="M181 0c-50 11.333 -86.499 29.833 -109.499 55.5s-34.5 63.167 -34.5 112.5c0 74 30 122.333 90 145c-60 23.333 -90 73 -90 149c0 95.333 49 150 147 164l11 -63c-33.333 -4 -58 -13.5 -74 -28.5s-24 -39.5 -24 -73.5c0 -44.667 12.833 -75.834 38.5 -93.501
s62.834 -26.5 111.501 -26.5h24c100.667 0 151 40 151 120c0 34 -7.66699 59 -23 75s-38.666 26 -69.999 30l8 61c49.333 -11.333 85.666 -30.333 108.999 -57s35 -63.667 35 -111c0 -74 -30.333 -122.667 -91 -146c60.667 -24 91 -73.333 91 -148
c0 -95.333 -49 -150 -147 -164l-11 65c33.333 4 58 13.333 74 28s24 38.667 24 72c0 44.667 -12.833 75.834 -38.5 93.501s-62.834 26.5 -111.501 26.5h-24c-100.667 0 -151 -40 -151 -120c0 -34 7.66699 -58.667 23 -74s38.666 -25 69.999 -29z" />
    <glyph glyph-name="product" unicode="&#x220f;" horiz-adv-x="518" 
d="M181 0c-50 11.333 -86.499 29.833 -109.499 55.5s-34.5 63.167 -34.5 112.5c0 74 30 122.333 90 145c-60 23.333 -90 73 -90 149c0 95.333 49 150 147 164l11 -63c-33.333 -4 -58 -13.5 -74 -28.5s-24 -39.5 -24 -73.5c0 -44.667 12.833 -75.834 38.5 -93.501
s62.834 -26.5 111.501 -26.5h24c100.667 0 151 40 151 120c0 34 -7.66699 59 -23 75s-38.666 26 -69.999 30l8 61c49.333 -11.333 85.666 -30.333 108.999 -57s35 -63.667 35 -111c0 -74 -30.333 -122.667 -91 -146c60.667 -24 91 -73.333 91 -148
c0 -95.333 -49 -150 -147 -164l-11 65c33.333 4 58 13.333 74 28s24 38.667 24 72c0 44.667 -12.833 75.834 -38.5 93.501s-62.834 26.5 -111.501 26.5h-24c-100.667 0 -151 -40 -151 -120c0 -34 7.66699 -58.667 23 -74s38.666 -25 69.999 -29z" />
    <glyph glyph-name="summation" unicode="&#x2211;" horiz-adv-x="518" 
d="M181 0c-50 11.333 -86.499 29.833 -109.499 55.5s-34.5 63.167 -34.5 112.5c0 74 30 122.333 90 145c-60 23.333 -90 73 -90 149c0 95.333 49 150 147 164l11 -63c-33.333 -4 -58 -13.5 -74 -28.5s-24 -39.5 -24 -73.5c0 -44.667 12.833 -75.834 38.5 -93.501
s62.834 -26.5 111.501 -26.5h24c100.667 0 151 40 151 120c0 34 -7.66699 59 -23 75s-38.666 26 -69.999 30l8 61c49.333 -11.333 85.666 -30.333 108.999 -57s35 -63.667 35 -111c0 -74 -30.333 -122.667 -91 -146c60.667 -24 91 -73.333 91 -148
c0 -95.333 -49 -150 -147 -164l-11 65c33.333 4 58 13.333 74 28s24 38.667 24 72c0 44.667 -12.833 75.834 -38.5 93.501s-62.834 26.5 -111.501 26.5h-24c-100.667 0 -151 -40 -151 -120c0 -34 7.66699 -58.667 23 -74s38.666 -25 69.999 -29z" />
    <glyph glyph-name="minus" unicode="&#x2212;" horiz-adv-x="503" 
d="M54 284v53h395v-53h-395z" />
    <glyph glyph-name="radical" unicode="&#x221a;" horiz-adv-x="518" 
d="M181 0c-50 11.333 -86.499 29.833 -109.499 55.5s-34.5 63.167 -34.5 112.5c0 74 30 122.333 90 145c-60 23.333 -90 73 -90 149c0 95.333 49 150 147 164l11 -63c-33.333 -4 -58 -13.5 -74 -28.5s-24 -39.5 -24 -73.5c0 -44.667 12.833 -75.834 38.5 -93.501
s62.834 -26.5 111.501 -26.5h24c100.667 0 151 40 151 120c0 34 -7.66699 59 -23 75s-38.666 26 -69.999 30l8 61c49.333 -11.333 85.666 -30.333 108.999 -57s35 -63.667 35 -111c0 -74 -30.333 -122.667 -91 -146c60.667 -24 91 -73.333 91 -148
c0 -95.333 -49 -150 -147 -164l-11 65c33.333 4 58 13.333 74 28s24 38.667 24 72c0 44.667 -12.833 75.834 -38.5 93.501s-62.834 26.5 -111.501 26.5h-24c-100.667 0 -151 -40 -151 -120c0 -34 7.66699 -58.667 23 -74s38.666 -25 69.999 -29z" />
    <glyph glyph-name="infinity" unicode="&#x221e;" horiz-adv-x="704" 
d="M342 0v377.002h-180v-377h-58v377h-90v56h90v73c0 51.333 10 89.166 30 113.499s57 36.5 111 36.5h11v-55h-10c-36 0 -59 -8 -69 -24s-15 -41.333 -15 -76v-68h180v73c0 51.333 10 89.166 30 113.499s57 36.5 111 36.5h31v-55h-30c-36 0 -59 -8 -69 -24
s-15 -41.333 -15 -76v-68h114v-56h-114v-377h-58zM580 0.00195312v433h58v-433h-58zM578 511.002v84h62v-84h-62z" />
    <glyph glyph-name="integral" unicode="&#x222b;" horiz-adv-x="518" 
d="M181 0c-50 11.333 -86.499 29.833 -109.499 55.5s-34.5 63.167 -34.5 112.5c0 74 30 122.333 90 145c-60 23.333 -90 73 -90 149c0 95.333 49 150 147 164l11 -63c-33.333 -4 -58 -13.5 -74 -28.5s-24 -39.5 -24 -73.5c0 -44.667 12.833 -75.834 38.5 -93.501
s62.834 -26.5 111.501 -26.5h24c100.667 0 151 40 151 120c0 34 -7.66699 59 -23 75s-38.666 26 -69.999 30l8 61c49.333 -11.333 85.666 -30.333 108.999 -57s35 -63.667 35 -111c0 -74 -30.333 -122.667 -91 -146c60.667 -24 91 -73.333 91 -148
c0 -95.333 -49 -150 -147 -164l-11 65c33.333 4 58 13.333 74 28s24 38.667 24 72c0 44.667 -12.833 75.834 -38.5 93.501s-62.834 26.5 -111.501 26.5h-24c-100.667 0 -151 -40 -151 -120c0 -34 7.66699 -58.667 23 -74s38.666 -25 69.999 -29z" />
    <glyph glyph-name="approxequal" unicode="&#x2248;" horiz-adv-x="503" 
d="M114 333l-50.998 6c4 62.667 29 94 75 94c20 0 60.333 -8.5 121 -25.5s94.667 -25.5 102 -25.5c18 0 27.333 17 28 51l52 -6c-2 -31.333 -8.83301 -54.833 -20.5 -70.5s-30.167 -23.5 -55.5 -23.5c-20 0 -60.333 8.5 -121 25.5s-94.334 25.5 -101.001 25.5
c-18.667 0 -28.334 -17 -29.001 -51zM114.002 171l-50.998 6c4 62.667 29 94 75 94c20 0 60.333 -8.5 121 -25.5s94.667 -25.5 102 -25.5c18 0 27.333 17 28 51l52 -6c-2 -31.333 -8.83301 -54.833 -20.5 -70.5s-30.167 -23.5 -55.5 -23.5c-20 0 -60.333 8.5 -121 25.5
s-94.334 25.5 -101.001 25.5c-18.667 0 -28.334 -17 -29.001 -51z" />
    <glyph glyph-name="notequal" unicode="&#x2260;" horiz-adv-x="530" 
d="M342 0v377.002h-180v-377h-58v377h-90v56h90v73c0 51.333 10 89.166 30 113.499s57 36.5 111 36.5h11v-55h-10c-36 0 -59 -8 -69 -24s-15 -41.333 -15 -76v-68h180v73c0 51.333 10 89.166 30 113.499s57 36.5 111 36.5h31v-55h-30c-36 0 -59 -8 -69 -24
s-15 -41.333 -15 -76v-68h114v-56h-114v-377h-58z" />
    <glyph glyph-name="lessequal" unicode="&#x2264;" horiz-adv-x="503" 
d="M389 113l-325 170v54l325 170v-55l-272 -142l272 -142v-55zM65 0v53h324v-53h-324z" />
    <glyph glyph-name="greaterequal" unicode="&#x2265;" horiz-adv-x="503" 
d="M114 113v55l272 142l-272 142v55l325 -170v-54zM113 0v53h324v-53h-324z" />
    <glyph glyph-name="lozenge" unicode="&#x25ca;" horiz-adv-x="575" 
d="M473 0c-50.667 0 -85.167 10.168 -103.5 30.501s-27.5 56.5 -27.5 108.5v238h-180v-377h-58v377h-90v56h90v73c0 51.333 10 89.166 30 113.499s57 36.5 111 36.5h31v-55h-30c-36 0 -59 -8 -69 -24s-15 -41.333 -15 -76v-68h180v132h58v-132h114v-56h-114v-231
c0 -37.333 5 -61.833 15 -73.5s33 -17.5 69 -17.5h30v-55h-41z" />
    <glyph glyph-name="apple" unicode="&#xf8ff;" horiz-adv-x="518" 
d="M181 0c-50 11.333 -86.499 29.833 -109.499 55.5s-34.5 63.167 -34.5 112.5c0 74 30 122.333 90 145c-60 23.333 -90 73 -90 149c0 95.333 49 150 147 164l11 -63c-33.333 -4 -58 -13.5 -74 -28.5s-24 -39.5 -24 -73.5c0 -44.667 12.833 -75.834 38.5 -93.501
s62.834 -26.5 111.501 -26.5h24c100.667 0 151 40 151 120c0 34 -7.66699 59 -23 75s-38.666 26 -69.999 30l8 61c49.333 -11.333 85.666 -30.333 108.999 -57s35 -63.667 35 -111c0 -74 -30.333 -122.667 -91 -146c60.667 -24 91 -73.333 91 -148
c0 -95.333 -49 -150 -147 -164l-11 65c33.333 4 58 13.333 74 28s24 38.667 24 72c0 44.667 -12.833 75.834 -38.5 93.501s-62.834 26.5 -111.501 26.5h-24c-100.667 0 -151 -40 -151 -120c0 -34 7.66699 -58.667 23 -74s38.666 -25 69.999 -29z" />
    <glyph glyph-name=".null" horiz-adv-x="0" 
 />
    <glyph glyph-name="nonmarkingreturn" horiz-adv-x="333" 
 />
    </font>
</defs>
</svg>
