<?xml version="1.0" standalone="yes"?><svg version="1.1" xmlns = 'http://www.w3.org/2000/svg'><defs><font id='web' horiz-adv-x="1000">
<font-face font-family="web" descent="-410" cap-height="1282" units-per-em="2048" bbox="-244,-559,2621,1760" x-height="926" ascent="1638" />
<missing-glyph horiz-adv-x="1024" d="M 0 1434 L 1024 1434 L 1024 0 L 0 0 L 0 1434 Z M 102 102 L 922 102 L 922 1331 L 102 1331 L 102 102 Z" /><glyph horiz-adv-x="682" d="M 41 700 L 666 700 L 618 428 L -6 428 L 41 700 Z" unicode="‐" />
<glyph horiz-adv-x="1047" d="M 41 700 L 1030 700 L 983 428 L -6 428 L 41 700 Z" unicode="–" />
<glyph horiz-adv-x="1393" d="M 41 700 L 1376 700 L 1329 428 L -6 428 L 41 700 Z" unicode="—" />
<glyph horiz-adv-x="467" d="M 160 1049 C 167 1093 177 1129 191 1159 C 205 1189 224 1213 249 1231 C 274 1249 306 1262 346 1270 C 385 1278 434 1282 494 1282 L 467 1128 C 443 1126 424 1124 408 1122 C 392 1120 378 1116 367 1111 C 356 1105 347 1098 341 1088 C 335 1078 330 1065 328 1049 L 453 1049 L 403 764 L 111 764 L 160 1049 Z" unicode="‘" />
<glyph horiz-adv-x="467" d="M 137 918 C 160 919 180 921 197 923 C 213 925 227 929 238 935 C 249 941 258 948 264 958 C 270 968 275 981 279 997 L 152 997 L 201 1282 L 494 1282 L 444 997 C 436 953 426 916 413 886 C 399 856 380 832 355 814 C 330 796 298 783 259 775 C 219 767 170 764 111 764 L 137 918 Z" unicode="’" />
<glyph horiz-adv-x="467" d="M -39 -80 C -15 -78 4 -76 21 -74 C 37 -72 51 -68 62 -62 C 73 -56 82 -49 88 -39 C 94 -29 98 -16 102 0 L -25 0 L 27 287 L 319 287 L 268 0 C 260 -42 250 -77 236 -107 C 222 -137 203 -161 178 -179 C 153 -197 121 -211 82 -220 C 42 -228 -6 -233 -66 -233 L -39 -80 Z" unicode="‚" />
<glyph horiz-adv-x="842" d="M 162 1055 C 170 1098 180 1134 193 1163 C 206 1192 225 1215 249 1233 C 273 1251 304 1263 343 1271 C 381 1278 430 1282 489 1282 L 465 1135 C 441 1133 421 1130 405 1128 C 388 1126 374 1122 364 1116 C 353 1110 345 1103 339 1093 C 333 1083 328 1071 326 1055 L 451 1055 L 399 768 L 111 768 L 162 1055 Z M 545 1055 C 552 1097 562 1133 575 1162 C 588 1191 607 1214 631 1232 C 655 1250 686 1262 724 1270 C 762 1278 811 1282 870 1282 L 846 1135 C 822 1133 802 1130 786 1128 C 769 1126 755 1122 745 1116 C 734 1110 726 1103 720 1093 C 714 1083 709 1071 707 1055 L 831 1055 L 780 768 L 494 768 L 545 1055 Z" unicode="“" />
<glyph horiz-adv-x="842" d="M 137 918 C 160 919 180 921 197 923 C 213 925 227 929 238 935 C 249 941 258 948 264 958 C 270 968 275 981 279 997 L 152 997 L 201 1282 L 489 1282 L 440 997 C 432 955 422 920 410 891 C 397 862 378 838 354 820 C 329 802 297 788 258 780 C 219 772 170 768 111 768 L 137 918 Z M 520 918 C 543 919 563 921 579 923 C 595 925 609 929 620 935 C 630 941 639 948 645 958 C 651 968 655 981 659 997 L 535 997 L 584 1282 L 870 1282 L 821 997 C 813 955 803 919 790 890 C 777 861 758 837 734 819 C 710 801 678 788 640 780 C 601 772 552 768 494 768 L 520 918 Z" unicode="”" />
<glyph horiz-adv-x="842" d="M -39 -80 C -15 -78 4 -76 21 -74 C 37 -72 51 -68 62 -62 C 73 -56 82 -49 88 -39 C 94 -29 98 -16 102 0 L -25 0 L 27 287 L 315 287 L 264 0 C 256 -42 245 -77 232 -106 C 219 -135 200 -159 176 -177 C 152 -195 120 -209 81 -217 C 42 -225 -6 -229 -66 -229 L -39 -80 Z M 344 -80 C 367 -78 387 -76 403 -74 C 419 -72 433 -68 444 -62 C 454 -56 463 -49 469 -39 C 475 -29 479 -16 483 0 L 358 0 L 410 287 L 696 287 L 645 0 C 637 -42 626 -78 613 -107 C 600 -136 581 -160 557 -178 C 533 -196 501 -209 463 -217 C 424 -225 375 -229 317 -229 L 344 -80 Z" unicode="„" />
<glyph horiz-adv-x="348" d="" unicode=" " />
<glyph horiz-adv-x="641" d="M 94 307 L 432 307 L 379 0 L 41 0 L 94 307 Z M 229 1069 L 266 1282 L 604 1282 L 567 1069 L 412 401 L 152 401 L 229 1069 Z" unicode="!" />
<glyph horiz-adv-x="1010" d="M 229 1073 L 266 1282 L 573 1282 L 537 1073 L 438 733 L 209 733 L 229 1073 Z M 629 1073 L 666 1282 L 973 1282 L 936 1073 L 838 733 L 608 733 L 629 1073 Z" unicode="&#x22;" />
<glyph horiz-adv-x="1270" d="M 207 346 L 41 346 L 84 598 L 274 598 L 299 690 L 100 690 L 145 942 L 365 942 L 455 1282 L 737 1282 L 647 942 L 782 942 L 872 1282 L 1155 1282 L 1065 942 L 1235 942 L 1190 690 L 999 690 L 975 598 L 1174 598 L 1130 346 L 907 346 L 817 0 L 535 0 L 625 346 L 489 346 L 399 0 L 117 0 L 207 346 Z M 707 588 L 735 700 L 567 700 L 537 588 L 707 588 Z" unicode="#" />
<glyph horiz-adv-x="1200" d="M 346 20 C 283 32 231 51 189 77 C 147 102 113 132 87 166 C 61 200 43 239 32 281 C 21 323 16 368 16 416 L 344 453 C 342 425 343 399 347 377 C 350 354 359 334 375 318 C 391 301 414 288 446 279 C 478 270 522 266 578 266 C 604 266 628 268 650 272 C 671 276 689 282 704 292 C 719 302 731 315 739 331 C 747 347 752 367 752 391 C 752 408 747 423 738 435 C 729 447 715 457 696 467 C 677 477 653 486 624 495 C 595 503 561 513 522 524 C 474 536 428 551 383 568 C 337 584 297 605 262 631 C 226 657 198 688 177 725 C 155 762 145 808 145 862 C 145 922 154 977 172 1027 C 190 1077 216 1120 252 1156 C 288 1192 332 1221 384 1243 C 436 1264 497 1277 566 1281 L 602 1481 L 895 1481 L 855 1253 C 946 1228 1015 1188 1063 1133 C 1110 1078 1135 1010 1139 928 L 799 883 C 799 902 797 920 793 936 C 789 952 781 966 768 978 C 754 990 734 999 708 1006 C 681 1012 644 1016 598 1016 C 554 1016 519 1008 494 993 C 469 978 457 951 457 911 C 457 885 473 864 505 848 C 537 831 590 812 662 791 C 722 773 776 755 825 736 C 874 717 916 694 952 668 C 987 642 1014 610 1034 573 C 1053 535 1063 490 1063 436 C 1063 364 1052 303 1030 252 C 1008 200 977 157 939 123 C 901 88 856 61 805 43 C 753 24 698 12 640 6 L 602 -236 L 301 -236 L 346 20 Z" unicode="$" />
<glyph horiz-adv-x="1919" d="M 393 434 C 333 434 282 442 240 458 C 198 474 165 496 140 524 C 114 552 96 585 85 624 C 73 662 68 704 68 750 C 68 758 68 768 69 778 C 69 788 70 800 72 813 C 73 826 75 841 77 858 C 79 875 82 895 86 918 C 96 978 110 1031 128 1077 C 146 1123 171 1162 201 1194 C 231 1226 268 1250 312 1267 C 356 1283 407 1292 467 1292 C 534 1292 590 1284 636 1270 C 682 1255 718 1234 746 1208 C 774 1182 793 1151 805 1115 C 817 1079 823 1039 823 997 C 823 975 821 950 817 922 C 813 894 807 855 797 807 C 785 747 768 694 747 648 C 725 602 698 563 666 531 C 633 499 594 475 549 459 C 503 442 451 434 393 434 Z M 416 659 C 428 659 440 660 453 664 C 465 668 478 676 490 688 C 502 700 513 717 524 740 C 535 763 545 794 553 834 C 556 851 559 866 561 878 C 563 890 565 901 567 910 C 568 919 569 927 570 934 C 570 940 571 946 571 952 C 571 994 560 1022 540 1038 C 520 1053 493 1061 461 1061 C 447 1061 433 1059 421 1056 C 409 1053 397 1046 386 1034 C 374 1022 364 1005 354 982 C 344 959 336 928 328 889 C 324 872 321 858 319 846 C 317 834 315 824 314 816 C 312 808 311 801 311 795 C 311 789 311 783 311 778 C 311 755 313 736 319 721 C 325 706 332 694 342 685 C 352 675 363 669 376 665 C 388 661 402 659 416 659 Z M 1434 -8 C 1373 -8 1322 0 1281 16 C 1239 32 1206 54 1180 82 C 1154 110 1136 143 1125 181 C 1113 219 1108 261 1108 307 C 1108 316 1108 326 1109 336 C 1109 346 1110 358 1112 371 C 1113 384 1115 399 1117 416 C 1119 432 1122 452 1126 475 C 1136 535 1150 588 1169 635 C 1187 681 1212 720 1242 752 C 1272 784 1309 808 1353 825 C 1396 841 1447 850 1507 850 C 1575 850 1631 842 1677 828 C 1723 813 1759 792 1787 766 C 1815 740 1834 709 1846 673 C 1858 637 1864 597 1864 555 C 1864 533 1862 508 1858 480 C 1854 452 1847 413 1837 365 C 1825 305 1808 252 1787 206 C 1765 160 1738 121 1706 89 C 1673 57 1634 33 1589 17 C 1544 0 1492 -8 1434 -8 Z M 1456 217 C 1468 217 1480 218 1493 222 C 1506 226 1519 234 1531 246 C 1543 258 1554 275 1565 298 C 1575 321 1585 352 1593 391 C 1600 425 1605 451 1608 468 C 1610 484 1612 498 1612 510 C 1612 530 1609 548 1604 562 C 1598 576 1591 587 1581 595 C 1571 603 1560 609 1546 613 C 1532 616 1517 618 1501 618 C 1487 618 1473 616 1461 613 C 1449 610 1437 603 1426 591 C 1415 579 1405 562 1395 539 C 1385 516 1376 485 1368 446 C 1364 430 1361 416 1359 404 C 1357 392 1355 382 1354 374 C 1353 365 1352 358 1352 352 C 1352 346 1352 340 1352 336 C 1352 313 1354 294 1360 279 C 1366 264 1373 252 1383 243 C 1393 233 1404 227 1416 223 C 1428 219 1442 217 1456 217 Z M 1212 1282 L 1499 1282 L 711 0 L 424 0 L 1212 1282 Z" unicode="%" />
<glyph horiz-adv-x="1288" d="M 424 -8 C 338 -8 265 0 206 13 C 146 27 98 48 61 75 C 24 102 -2 135 -18 175 C -34 214 -43 259 -43 309 C -43 367 -35 419 -19 463 C -3 507 18 546 46 580 C 74 614 107 643 146 668 C 184 692 227 715 274 735 C 246 795 233 854 233 911 C 233 964 240 1014 256 1060 C 272 1106 295 1147 327 1181 C 358 1215 397 1242 444 1262 C 491 1282 546 1292 610 1292 C 680 1292 738 1284 784 1269 C 830 1253 866 1233 892 1208 C 918 1183 937 1155 947 1123 C 957 1091 963 1058 963 1026 C 963 976 956 932 942 892 C 928 852 910 817 886 786 C 862 754 835 726 804 702 C 773 678 740 656 706 638 L 805 502 C 821 534 838 570 854 610 C 870 649 887 693 905 741 L 1188 713 C 1156 625 1122 545 1088 471 C 1053 397 1014 331 972 273 L 1171 0 L 791 0 L 743 66 C 697 42 648 23 596 11 C 544 -1 486 -8 424 -8 Z M 473 254 C 517 254 557 260 591 273 L 414 515 C 391 503 372 491 356 480 C 340 469 328 458 318 446 C 308 434 301 420 297 406 C 293 391 291 374 291 354 C 291 340 293 328 299 316 C 305 304 314 293 328 284 C 342 274 360 267 384 262 C 407 256 437 254 473 254 Z M 537 954 C 537 936 539 917 545 898 C 551 878 559 858 571 837 C 609 860 636 885 653 913 C 669 941 678 969 678 997 C 678 1014 673 1028 663 1039 C 653 1049 637 1055 616 1055 C 595 1055 577 1046 561 1030 C 545 1013 537 988 537 954 Z" unicode="&#x26;" />
<glyph horiz-adv-x="621" d="M 229 1073 L 266 1282 L 584 1282 L 547 1073 L 449 733 L 209 733 L 229 1073 Z" unicode="'" />
<glyph horiz-adv-x="745" d="M 285 -381 C 243 -331 205 -279 171 -224 C 136 -168 108 -106 87 -38 C 65 30 53 107 49 193 C 45 278 52 375 72 485 C 90 594 116 690 150 774 C 184 857 223 930 267 994 C 311 1057 359 1112 412 1158 C 465 1204 520 1246 578 1282 L 707 1063 C 677 1033 646 1000 615 963 C 584 926 555 883 527 835 C 499 787 473 732 450 671 C 427 610 409 541 395 463 C 385 406 377 355 373 310 C 369 264 367 223 367 186 C 367 148 370 114 376 83 C 381 51 388 21 398 -7 C 408 -35 419 -64 433 -92 C 447 -120 463 -149 481 -180 L 285 -381 Z" unicode="(" />
<glyph horiz-adv-x="745" d="M -25 -162 C 5 -132 35 -99 66 -62 C 97 -25 127 17 155 65 C 183 113 208 168 231 229 C 254 290 273 360 287 438 C 301 522 310 595 313 656 C 316 716 314 770 306 818 C 298 865 285 909 267 950 C 249 991 227 1035 201 1081 L 397 1282 C 438 1232 476 1180 511 1125 C 545 1069 573 1007 595 939 C 616 870 629 793 633 707 C 637 621 629 524 610 416 C 591 306 565 210 531 127 C 497 44 459 -28 415 -92 C 371 -156 322 -211 269 -257 C 216 -303 161 -345 104 -381 L -25 -162 Z" unicode=")" />
<glyph horiz-adv-x="928" d="M 385 721 L 162 614 L 80 838 L 334 897 L 117 1042 L 270 1225 L 442 1047 L 465 1296 L 700 1255 L 637 1012 L 860 1120 L 942 897 L 686 836 L 905 692 L 752 510 L 580 686 L 557 438 L 322 479 L 385 721 Z" unicode="*" />
<glyph horiz-adv-x="1071" d="M 74 772 L 381 772 L 381 1059 L 698 1059 L 698 772 L 1006 772 L 1006 500 L 698 500 L 698 213 L 381 213 L 381 500 L 74 500 L 74 772 Z" unicode="+" />
<glyph horiz-adv-x="485" d="M -35 -80 C -10 -78 10 -76 27 -74 C 44 -72 58 -68 70 -63 C 81 -57 90 -50 96 -40 C 102 -30 107 -17 111 0 L -20 0 L 33 299 L 338 299 L 285 0 C 277 -47 265 -86 251 -117 C 237 -148 216 -173 190 -191 C 164 -209 130 -222 90 -230 C 49 -238 -1 -242 -63 -242 L -35 -80 Z" unicode="," />
<glyph horiz-adv-x="682" d="M 41 700 L 666 700 L 618 428 L -6 428 L 41 700 Z" unicode="-" />
<glyph horiz-adv-x="485" d="M 33 299 L 338 299 L 285 0 L -20 0 L 33 299 Z" unicode="." />
<glyph horiz-adv-x="813" d="M 637 1282 L 969 1282 L 180 0 L -152 0 L 637 1282 Z" unicode="/" />
<glyph horiz-adv-x="1264" d="M 563 -8 C 471 -8 394 4 331 28 C 268 52 217 85 178 127 C 139 169 111 220 94 278 C 76 336 68 399 68 467 C 68 481 68 495 69 511 C 70 526 72 543 74 563 C 76 583 78 605 82 630 C 86 655 90 685 96 719 C 111 809 133 890 162 961 C 190 1032 228 1092 275 1141 C 321 1190 379 1227 447 1253 C 515 1279 596 1292 690 1292 C 788 1292 871 1280 937 1257 C 1003 1234 1056 1202 1096 1162 C 1136 1122 1164 1074 1181 1019 C 1197 964 1206 904 1206 840 C 1206 823 1205 806 1204 788 C 1203 770 1201 749 1199 727 C 1197 705 1193 679 1189 651 C 1184 623 1178 590 1171 553 C 1155 463 1130 383 1098 313 C 1066 243 1025 185 975 137 C 925 89 866 53 798 29 C 730 4 651 -8 563 -8 Z M 588 266 C 612 266 637 268 662 274 C 686 280 710 293 732 315 C 754 336 774 367 793 409 C 812 451 828 508 842 580 C 848 615 854 645 858 670 C 862 694 865 716 867 734 C 869 752 870 767 871 780 C 871 792 872 804 872 815 C 872 853 867 885 859 911 C 850 936 837 956 820 971 C 803 985 782 995 757 1001 C 732 1007 704 1010 672 1010 C 646 1010 621 1006 598 1000 C 574 994 552 980 532 958 C 511 936 492 905 475 863 C 457 821 442 764 428 692 C 422 660 417 632 413 610 C 409 588 406 568 404 552 C 402 536 400 522 400 511 C 399 499 399 489 399 479 C 399 437 404 402 414 375 C 424 347 438 325 456 309 C 473 293 493 281 516 275 C 538 269 562 266 588 266 Z" unicode="0" />
<glyph horiz-adv-x="881" d="M 424 999 L 156 999 L 205 1282 L 801 1282 L 575 0 L 248 0 L 424 999 Z" unicode="1" />
<glyph horiz-adv-x="1180" d="M -2 180 C 11 254 31 319 57 375 C 83 431 120 480 166 524 C 212 568 270 607 339 642 C 408 676 492 710 590 743 C 636 759 674 773 703 787 C 732 800 754 813 770 827 C 785 840 795 854 801 870 C 806 886 809 904 809 926 C 809 956 795 978 767 992 C 739 1006 695 1014 637 1014 C 615 1014 595 1011 575 1006 C 555 1000 537 992 521 982 C 504 972 490 959 478 945 C 466 930 457 913 453 895 L 129 936 C 145 986 168 1033 197 1077 C 226 1120 262 1158 305 1190 C 348 1222 398 1247 456 1265 C 514 1283 579 1292 653 1292 C 817 1292 940 1267 1021 1218 C 1102 1168 1143 1090 1143 983 C 1143 909 1133 847 1114 797 C 1095 747 1067 704 1030 668 C 992 632 946 600 891 574 C 835 547 772 520 700 494 C 651 475 609 458 575 443 C 540 428 511 414 487 402 C 463 390 444 378 429 368 C 414 357 402 347 392 338 C 382 328 375 319 369 310 C 363 300 356 291 350 281 L 1024 281 L 975 0 L -35 0 L -2 180 Z" unicode="2" />
<glyph horiz-adv-x="1196" d="M 561 -8 C 459 -8 373 2 303 22 C 233 42 176 70 132 105 C 88 140 57 181 38 228 C 19 275 10 325 12 379 L 354 420 C 350 392 351 368 357 348 C 362 328 373 312 389 299 C 405 286 428 277 457 271 C 485 265 521 262 565 262 C 592 262 616 264 636 268 C 656 272 673 280 687 291 C 701 302 712 317 721 337 C 729 357 736 382 741 412 C 745 435 745 455 741 473 C 737 490 727 504 712 516 C 697 528 676 536 649 542 C 622 548 587 551 545 551 L 385 551 L 430 801 L 647 801 C 673 801 695 802 713 805 C 731 808 745 814 757 822 C 769 830 778 841 785 855 C 791 869 797 887 801 909 C 807 944 796 970 770 988 C 744 1005 697 1014 629 1014 C 601 1014 576 1011 556 1007 C 535 1003 517 997 503 989 C 489 981 477 972 468 962 C 459 951 452 939 446 926 L 133 981 C 151 1032 178 1077 214 1116 C 249 1154 290 1187 336 1213 C 382 1239 434 1258 490 1272 C 546 1285 604 1292 666 1292 C 764 1292 846 1283 912 1265 C 977 1247 1028 1223 1065 1191 C 1102 1159 1126 1122 1138 1078 C 1149 1034 1150 986 1141 934 C 1135 898 1125 867 1113 841 C 1100 815 1085 792 1067 772 C 1049 752 1028 735 1006 721 C 983 707 958 694 932 682 C 952 674 973 661 993 645 C 1013 629 1031 608 1045 582 C 1059 556 1068 526 1074 492 C 1080 458 1079 419 1071 377 C 1047 241 993 141 909 79 C 824 17 708 -12 561 -8 Z" unicode="3" />
<glyph horiz-adv-x="1237" d="M 590 233 L -27 233 L 23 508 L 764 1282 L 1087 1282 L 952 508 L 1167 508 L 1118 233 L 903 233 L 862 0 L 549 0 L 590 233 Z M 637 502 L 696 838 L 373 502 L 637 502 Z" unicode="4" />
<glyph horiz-adv-x="1198" d="M 569 -8 C 456 -8 364 1 292 20 C 220 39 164 65 123 97 C 82 129 54 166 39 208 C 23 250 16 294 18 340 L 365 387 C 366 358 370 335 377 319 C 383 302 394 289 410 281 C 426 273 447 267 473 265 C 499 263 533 262 575 262 C 601 262 624 264 644 270 C 664 275 682 284 697 297 C 712 309 725 326 735 347 C 745 368 752 394 758 426 C 760 439 761 449 762 457 C 763 464 764 471 764 477 C 764 499 761 519 755 536 C 749 552 738 566 723 578 C 708 589 688 597 663 603 C 638 609 607 612 569 612 C 527 612 492 605 464 593 C 436 580 412 562 393 539 L 104 600 L 293 1282 L 1153 1282 L 1104 999 L 504 999 L 450 811 C 462 821 476 830 491 838 C 505 846 522 853 542 859 C 562 865 585 869 612 872 C 638 875 670 877 707 877 C 776 877 835 868 885 850 C 935 832 975 808 1007 776 C 1039 744 1062 707 1077 664 C 1092 621 1100 574 1100 524 C 1100 506 1099 488 1097 469 C 1095 449 1091 427 1087 401 C 1079 353 1065 304 1047 256 C 1029 207 1001 163 963 124 C 925 85 874 53 811 29 C 747 4 667 -8 569 -8 Z" unicode="5" />
<glyph horiz-adv-x="1208" d="M 563 -8 C 471 -8 393 1 329 19 C 265 37 212 64 172 100 C 131 135 101 178 83 230 C 64 282 55 341 55 408 C 55 419 55 431 56 443 C 56 455 57 469 59 485 C 60 500 62 518 65 538 C 68 558 72 581 76 608 C 93 726 116 828 145 914 C 174 1000 212 1071 259 1127 C 306 1183 363 1224 431 1251 C 499 1278 580 1292 674 1292 C 736 1292 797 1286 856 1276 C 914 1265 967 1248 1013 1224 C 1059 1200 1098 1170 1129 1133 C 1159 1096 1178 1051 1184 999 L 838 936 C 836 953 832 967 824 978 C 816 989 805 998 789 1004 C 773 1010 752 1014 728 1016 C 704 1018 675 1020 641 1020 C 613 1020 588 1017 568 1011 C 548 1005 530 993 515 977 C 500 961 487 938 475 909 C 463 880 451 843 441 797 C 474 821 511 840 553 852 C 595 864 645 870 705 870 C 841 870 944 841 1014 783 C 1084 725 1120 638 1120 522 C 1120 504 1119 486 1117 467 C 1115 447 1112 424 1108 397 C 1086 265 1029 164 936 95 C 842 26 718 -8 563 -8 Z M 575 252 C 608 252 637 254 662 259 C 686 264 707 273 724 285 C 741 297 754 314 764 334 C 774 354 780 380 784 410 C 786 427 787 440 789 450 C 790 460 791 469 791 477 C 791 497 788 516 782 534 C 776 551 765 566 749 578 C 733 590 712 599 686 606 C 659 612 625 616 584 616 C 549 616 519 613 495 607 C 470 601 449 591 433 579 C 417 567 404 551 395 531 C 385 511 379 488 375 461 C 373 444 371 431 370 422 C 369 412 369 403 369 395 C 369 372 372 352 379 334 C 385 316 397 301 413 289 C 429 277 450 267 476 261 C 502 255 535 252 575 252 Z" unicode="6" />
<glyph horiz-adv-x="1059" d="M 686 999 L 135 999 L 184 1282 L 1104 1282 L 1063 1040 L 432 0 L 82 0 L 686 999 Z" unicode="7" />
<glyph horiz-adv-x="1276" d="M 580 -8 C 478 -8 392 1 323 20 C 254 38 199 63 157 94 C 115 125 86 161 68 202 C 50 243 41 286 41 332 C 41 340 41 347 41 354 C 41 360 42 367 43 374 C 43 380 44 388 46 396 C 47 404 49 414 51 426 C 62 493 88 549 130 595 C 172 641 227 678 296 706 C 256 733 228 765 210 801 C 192 837 184 878 184 922 C 184 980 193 1031 212 1077 C 230 1123 260 1161 300 1193 C 340 1225 391 1249 455 1266 C 519 1283 596 1292 686 1292 C 786 1292 870 1283 937 1266 C 1004 1249 1058 1227 1098 1199 C 1138 1171 1166 1138 1183 1102 C 1199 1065 1208 1027 1208 989 C 1208 979 1207 968 1206 957 C 1205 945 1203 930 1200 911 C 1190 855 1169 808 1137 770 C 1105 732 1060 701 1002 678 C 1050 646 1086 607 1111 562 C 1136 517 1149 468 1149 414 C 1149 403 1148 392 1147 380 C 1145 368 1143 350 1139 328 C 1129 276 1112 229 1088 188 C 1064 146 1030 111 986 82 C 942 53 886 31 820 15 C 753 0 673 -8 580 -8 Z M 596 246 C 629 246 658 247 683 251 C 708 255 729 262 747 273 C 765 283 779 298 790 318 C 801 337 809 362 815 393 C 819 413 821 429 821 440 C 821 460 817 479 810 495 C 802 511 790 524 773 536 C 756 547 734 556 707 562 C 679 568 646 571 606 571 C 570 571 539 568 513 563 C 487 558 466 550 449 539 C 431 527 418 512 408 494 C 398 476 390 453 385 426 C 383 416 381 408 381 402 C 381 395 381 389 381 383 C 381 335 399 300 437 278 C 475 256 528 246 596 246 Z M 700 807 C 722 807 743 808 763 811 C 782 813 799 818 813 826 C 827 834 839 844 848 857 C 857 870 863 887 866 909 C 868 928 867 945 863 961 C 859 977 849 990 835 1001 C 820 1011 800 1019 774 1025 C 748 1031 714 1034 674 1034 C 622 1034 583 1026 559 1011 C 534 996 519 970 514 932 C 508 890 519 858 549 838 C 579 817 629 807 700 807 Z" unicode="8" />
<glyph horiz-adv-x="1208" d="M 543 -8 C 480 -8 419 -2 361 8 C 302 18 249 35 203 59 C 156 83 117 113 87 150 C 57 187 39 232 33 285 L 379 348 C 381 313 397 289 428 277 C 458 264 507 258 575 258 C 603 258 627 261 647 267 C 667 273 685 285 700 302 C 715 318 728 341 740 371 C 752 401 763 439 775 487 C 741 462 704 444 663 432 C 621 420 571 414 512 414 C 376 414 272 442 202 500 C 131 558 96 645 96 762 C 96 779 97 797 99 817 C 101 837 104 860 109 887 C 130 1019 187 1119 280 1188 C 373 1257 497 1292 653 1292 C 745 1292 823 1282 887 1264 C 951 1246 1004 1219 1044 1184 C 1084 1148 1114 1105 1133 1054 C 1151 1002 1161 943 1161 877 C 1161 865 1160 853 1160 841 C 1159 828 1158 814 1157 799 C 1155 783 1153 766 1151 746 C 1148 726 1145 702 1141 676 C 1123 558 1100 456 1071 370 C 1041 284 1003 213 957 157 C 910 101 853 59 785 32 C 717 5 637 -8 543 -8 Z M 633 662 C 667 662 696 664 721 670 C 745 676 766 685 782 698 C 798 710 811 726 821 746 C 831 766 838 789 842 817 C 844 833 845 846 846 856 C 847 865 848 874 848 883 C 848 905 844 925 838 943 C 831 961 820 976 804 988 C 788 1000 766 1010 740 1016 C 713 1022 680 1026 641 1026 C 607 1026 578 1023 554 1018 C 529 1013 508 1005 491 993 C 474 981 461 965 451 945 C 441 925 435 900 432 870 C 430 854 428 841 427 831 C 426 821 426 812 426 805 C 426 783 428 764 434 746 C 440 728 450 713 466 701 C 481 688 502 678 529 672 C 555 665 590 662 633 662 Z" unicode="9" />
<glyph horiz-adv-x="485" d="M 43 297 L 328 297 L 274 0 L -10 0 L 43 297 Z M 154 926 L 438 926 L 385 629 L 100 629 L 154 926 Z" unicode=":" />
<glyph horiz-adv-x="485" d="M -25 -82 C -1 -80 19 -78 35 -76 C 51 -74 64 -70 74 -64 C 84 -58 92 -51 98 -41 C 103 -31 107 -17 111 0 L -10 0 L 43 299 L 328 299 L 274 0 C 266 -47 255 -86 243 -118 C 231 -149 213 -174 189 -193 C 165 -211 134 -224 96 -232 C 57 -240 7 -244 -53 -244 L -25 -82 Z M 154 926 L 438 926 L 385 627 L 100 627 L 154 926 Z" unicode=";" />
<glyph horiz-adv-x="1071" d="M 129 498 L 129 780 L 918 1128 L 918 852 L 414 639 L 918 426 L 918 150 L 129 498 Z" unicode="&#x3C;" />
<glyph horiz-adv-x="1071" d="M 94 952 L 985 952 L 985 700 L 94 700 L 94 952 Z M 94 588 L 985 588 L 985 336 L 94 336 L 94 588 Z" unicode="=" />
<glyph horiz-adv-x="1071" d="M 154 426 L 657 639 L 154 852 L 154 1128 L 942 780 L 942 498 L 154 150 L 154 426 Z" unicode="&#x3E;" />
<glyph horiz-adv-x="1071" d="M 346 444 C 352 492 364 533 381 567 C 397 601 417 631 440 655 C 462 679 487 700 513 717 C 539 734 564 750 590 764 C 612 776 633 787 653 798 C 673 808 690 820 706 833 C 721 846 733 861 742 877 C 751 893 756 912 756 934 C 756 945 753 955 749 965 C 744 975 735 983 723 991 C 710 998 693 1004 671 1008 C 649 1012 620 1014 586 1014 C 534 1014 494 1003 465 983 C 436 962 414 933 399 895 L 76 936 C 94 989 120 1037 153 1081 C 186 1125 225 1162 271 1194 C 316 1225 367 1249 423 1266 C 479 1283 540 1292 606 1292 C 680 1292 747 1286 807 1274 C 867 1262 918 1243 960 1218 C 1002 1192 1035 1160 1058 1120 C 1080 1080 1092 1033 1092 977 C 1092 917 1083 865 1065 823 C 1047 781 1025 745 998 715 C 970 685 940 659 907 639 C 874 618 843 599 813 582 C 795 572 778 562 762 552 C 746 542 732 531 720 521 C 708 511 698 500 690 488 C 682 476 676 463 674 449 L 666 401 L 340 401 L 346 444 Z M 319 307 L 657 307 L 604 0 L 266 0 L 319 307 Z" unicode="?" />
<glyph horiz-adv-x="1724" d="M 891 -311 C 787 -311 696 -301 618 -282 C 540 -263 473 -236 417 -202 C 361 -168 314 -127 277 -79 C 240 -31 211 20 189 77 C 167 134 152 195 144 259 C 135 323 131 390 131 459 C 131 527 135 593 143 659 C 151 724 166 785 188 843 C 209 901 238 954 275 1003 C 311 1051 358 1093 414 1129 C 470 1164 538 1191 616 1211 C 694 1231 786 1241 891 1241 C 996 1241 1086 1231 1162 1211 C 1238 1191 1302 1164 1354 1129 C 1406 1093 1447 1051 1479 1003 C 1510 954 1534 901 1551 843 C 1568 785 1579 724 1585 659 C 1590 593 1593 527 1593 459 C 1593 389 1585 330 1570 284 C 1555 238 1534 201 1507 173 C 1480 145 1448 125 1410 113 C 1372 101 1330 96 1284 96 C 1238 96 1199 98 1167 104 C 1135 109 1107 116 1085 125 C 1063 134 1044 145 1030 157 C 1016 169 1005 183 997 197 C 965 163 926 137 880 119 C 834 101 779 92 713 92 C 662 92 619 98 585 112 C 550 126 522 145 501 169 C 480 193 465 221 456 254 C 446 286 442 322 442 360 C 442 381 443 405 447 432 C 451 458 457 495 465 541 C 473 590 486 636 503 680 C 519 724 541 762 568 794 C 594 826 626 852 663 871 C 699 889 742 899 791 899 C 823 899 850 897 873 893 C 896 889 916 884 933 878 C 950 871 965 863 977 854 C 989 844 999 834 1008 823 L 1020 887 L 1280 887 L 1204 459 C 1200 435 1197 414 1196 396 C 1194 377 1196 361 1202 347 C 1207 333 1216 323 1230 316 C 1244 308 1264 305 1290 305 C 1310 305 1326 309 1338 317 C 1350 325 1359 336 1366 350 C 1372 364 1377 380 1379 399 C 1381 417 1382 437 1382 459 C 1382 518 1380 574 1376 626 C 1372 678 1365 727 1353 771 C 1341 815 1324 854 1302 889 C 1280 924 1250 954 1214 978 C 1178 1002 1133 1020 1080 1033 C 1027 1046 964 1053 891 1053 C 780 1053 689 1038 619 1010 C 548 981 492 941 452 889 C 412 837 384 774 369 701 C 353 628 346 547 346 459 C 346 369 354 289 370 217 C 386 145 414 84 455 34 C 495 -16 551 -55 621 -82 C 691 -109 781 -123 891 -123 C 939 -123 985 -120 1030 -114 C 1074 -108 1116 -99 1155 -87 C 1193 -75 1228 -61 1259 -43 C 1290 -25 1316 -5 1337 18 L 1495 -127 C 1472 -154 1441 -179 1402 -202 C 1363 -224 1318 -244 1266 -260 C 1214 -276 1156 -288 1093 -297 C 1029 -306 962 -311 891 -311 Z M 807 309 C 829 309 847 312 863 319 C 879 326 892 336 903 349 C 913 362 922 378 929 398 C 935 417 941 439 946 465 L 958 532 C 962 559 964 582 962 600 C 960 618 954 633 945 645 C 936 656 923 664 907 669 C 891 673 871 676 848 676 C 828 676 812 672 799 666 C 785 659 774 648 764 634 C 754 620 746 601 740 578 C 734 555 728 528 723 496 C 719 477 716 459 714 443 C 712 427 711 412 711 399 C 711 370 718 348 732 332 C 746 316 771 309 807 309 Z" unicode="@" />
<glyph horiz-adv-x="1198" d="M 549 1292 L 879 1292 L 1081 0 L 760 0 L 727 209 L 329 209 L 223 0 L -104 0 L 549 1292 Z M 459 467 L 686 467 L 633 809 L 459 467 Z" unicode="A" />
<glyph horiz-adv-x="1247" d="M 223 1282 L 748 1282 C 816 1282 878 1277 936 1267 C 993 1257 1042 1241 1084 1219 C 1126 1196 1158 1166 1182 1129 C 1205 1092 1217 1047 1217 993 C 1217 953 1211 914 1201 878 C 1190 842 1175 809 1155 780 C 1135 751 1112 727 1084 709 C 1056 690 1025 678 991 674 C 1043 659 1082 630 1108 587 C 1134 544 1147 492 1147 432 C 1147 354 1135 287 1111 233 C 1087 178 1054 133 1011 99 C 967 65 915 40 854 24 C 792 8 724 0 649 0 L -2 0 L 223 1282 Z M 653 242 C 682 242 707 247 728 258 C 748 268 765 282 779 299 C 792 316 802 336 808 358 C 814 380 817 402 817 426 C 817 442 814 457 809 471 C 803 485 794 496 782 506 C 770 515 753 522 733 527 C 712 532 687 535 657 535 L 424 535 L 369 242 L 653 242 Z M 719 801 C 741 801 762 803 782 809 C 801 814 818 822 832 834 C 846 845 857 859 865 877 C 873 894 877 915 877 940 C 877 973 865 998 841 1015 C 817 1031 777 1040 721 1040 L 510 1040 L 467 801 L 719 801 Z" unicode="B" />
<glyph horiz-adv-x="1200" d="M 555 -8 C 455 -8 371 4 303 28 C 235 52 181 85 140 127 C 99 169 70 219 53 277 C 35 334 27 396 27 463 C 27 478 27 494 28 510 C 29 526 31 545 33 565 C 35 585 38 609 42 635 C 46 661 51 692 57 727 C 73 816 95 896 125 966 C 154 1036 193 1095 241 1143 C 289 1191 349 1228 420 1254 C 491 1279 576 1292 676 1292 C 780 1292 866 1280 935 1257 C 1003 1234 1058 1202 1098 1161 C 1138 1119 1166 1070 1182 1013 C 1198 955 1204 893 1202 825 L 842 772 C 847 805 849 836 848 865 C 846 894 839 919 827 941 C 814 962 795 979 769 991 C 743 1003 708 1010 664 1010 C 623 1010 587 1003 557 991 C 527 979 500 960 478 935 C 456 909 437 877 423 837 C 408 797 396 750 387 696 C 381 664 377 636 373 613 C 369 590 367 570 365 554 C 363 537 361 523 361 511 C 360 499 360 487 360 477 C 360 443 363 413 371 388 C 379 362 392 341 410 324 C 428 306 451 293 480 285 C 508 276 544 272 586 272 C 620 272 649 277 673 287 C 697 297 719 312 737 334 C 755 356 770 384 783 419 C 796 453 808 495 819 545 L 1159 498 C 1142 422 1118 354 1086 292 C 1054 230 1013 176 964 132 C 915 87 857 52 789 28 C 721 4 643 -8 555 -8 Z" unicode="C" />
<glyph horiz-adv-x="1204" d="M 223 1282 L 629 1282 C 733 1282 821 1271 893 1251 C 964 1230 1021 1200 1065 1162 C 1109 1123 1140 1076 1159 1021 C 1178 966 1188 904 1188 836 C 1188 820 1187 804 1186 787 C 1185 770 1183 751 1181 729 C 1178 707 1174 682 1170 654 C 1165 626 1159 593 1153 555 C 1137 467 1112 388 1080 320 C 1048 251 1006 193 955 145 C 904 97 844 61 774 37 C 704 12 625 0 535 0 L -2 0 L 223 1282 Z M 535 266 C 583 266 624 273 657 288 C 689 302 716 323 738 351 C 759 379 776 412 789 452 C 802 491 813 536 823 586 C 829 618 833 645 837 667 C 841 689 844 707 846 723 C 848 739 849 752 850 763 C 851 773 852 783 852 793 C 852 867 832 922 793 957 C 754 992 692 1010 606 1010 L 504 1010 L 373 266 L 535 266 Z" unicode="D" />
<glyph horiz-adv-x="1094" d="M 223 1282 L 1128 1282 L 1079 999 L 502 999 L 473 827 L 987 827 L 938 549 L 422 549 L 375 281 L 952 281 L 903 0 L -2 0 L 223 1282 Z" unicode="E" />
<glyph horiz-adv-x="1032" d="M 223 1282 L 1128 1282 L 1079 999 L 502 999 L 465 788 L 981 788 L 932 508 L 416 508 L 326 0 L -2 0 L 223 1282 Z" unicode="F" />
<glyph horiz-adv-x="1264" d="M 494 -8 C 409 -8 337 3 278 25 C 218 47 170 79 132 119 C 94 159 67 208 50 265 C 33 321 25 384 25 453 C 25 468 25 484 26 500 C 27 516 29 535 31 556 C 33 576 36 600 40 626 C 44 652 49 683 55 719 C 71 820 96 907 130 979 C 163 1051 205 1111 255 1157 C 305 1203 365 1237 434 1259 C 503 1281 582 1292 670 1292 C 755 1292 831 1283 897 1266 C 963 1249 1019 1224 1064 1190 C 1109 1156 1143 1113 1167 1063 C 1190 1012 1202 953 1202 887 L 864 836 C 868 870 865 899 857 922 C 848 944 834 962 815 975 C 796 988 773 997 746 1002 C 718 1007 689 1010 657 1010 C 611 1010 574 1002 544 988 C 514 974 488 953 468 926 C 448 898 431 865 419 825 C 407 785 396 740 387 690 C 381 658 377 630 373 607 C 369 583 365 563 363 546 C 360 529 358 514 357 502 C 356 489 356 477 356 467 C 356 436 359 408 367 384 C 374 360 386 339 404 323 C 422 306 445 293 475 285 C 504 276 541 272 586 272 C 616 272 643 275 669 281 C 695 287 718 299 740 315 C 761 331 780 353 797 381 C 814 408 829 443 842 485 L 842 487 L 584 487 L 629 745 L 1192 745 L 1061 0 L 793 0 L 788 98 C 758 64 720 38 674 20 C 627 1 567 -8 494 -8 Z" unicode="G" />
<glyph horiz-adv-x="1268" d="M 819 561 L 424 561 L 326 0 L -2 0 L 223 1282 L 551 1282 L 474 844 L 869 844 L 946 1282 L 1274 1282 L 1049 0 L 721 0 L 819 561 Z" unicode="H" />
<glyph horiz-adv-x="553" d="M 227 1282 L 555 1282 L 330 0 L 2 0 L 227 1282 Z" unicode="I" />
<glyph horiz-adv-x="1024" d="M 438 -8 C 338 -8 257 2 195 22 C 132 42 83 72 49 110 C 15 148 -7 195 -17 251 C -27 306 -30 368 -25 438 L 315 471 C 311 427 309 392 309 366 C 309 339 312 318 320 304 C 328 289 340 279 356 274 C 372 268 395 266 424 266 C 447 266 466 269 481 275 C 496 281 509 292 519 307 C 529 322 537 342 543 367 C 549 391 556 422 563 459 L 709 1282 L 1036 1282 L 885 428 C 869 344 848 274 822 218 C 795 162 763 117 725 84 C 687 50 644 27 596 13 C 548 -1 495 -8 438 -8 Z" unicode="J" />
<glyph horiz-adv-x="1206" d="M 523 576 L 408 469 L 326 0 L -2 0 L 223 1282 L 551 1282 L 484 901 L 883 1282 L 1276 1282 L 783 821 L 1071 0 L 725 0 L 523 576 Z" unicode="K" />
<glyph horiz-adv-x="991" d="M 223 1282 L 551 1282 L 375 281 L 911 281 L 862 0 L -2 0 L 223 1282 Z" unicode="L" />
<glyph horiz-adv-x="1556" d="M 223 1282 L 686 1282 L 760 524 L 1100 1282 L 1563 1282 L 1337 0 L 1010 0 L 1145 770 L 805 0 L 512 0 L 442 762 L 309 0 L -2 0 L 223 1282 Z" unicode="M" />
<glyph horiz-adv-x="1268" d="M 223 1282 L 602 1282 L 840 608 L 958 1282 L 1274 1282 L 1049 0 L 725 0 L 449 770 L 313 0 L -2 0 L 223 1282 Z" unicode="N" />
<glyph horiz-adv-x="1251" d="M 555 -8 C 455 -8 371 5 304 32 C 237 59 183 95 142 141 C 101 186 72 239 55 299 C 37 359 29 421 29 487 C 29 500 29 514 30 528 C 30 542 32 559 34 577 C 36 595 38 616 42 640 C 45 663 49 691 55 723 C 69 803 91 878 119 948 C 147 1018 186 1078 235 1129 C 284 1179 345 1219 418 1248 C 490 1277 578 1292 682 1292 C 789 1292 878 1279 949 1254 C 1020 1228 1077 1194 1119 1151 C 1161 1108 1190 1058 1207 1001 C 1224 944 1233 884 1233 821 C 1233 806 1232 791 1231 775 C 1230 759 1228 740 1226 720 C 1223 699 1219 676 1215 650 C 1211 624 1206 593 1200 559 C 1186 475 1163 398 1132 328 C 1100 258 1059 199 1007 149 C 955 99 891 61 817 33 C 743 5 655 -8 555 -8 Z M 582 266 C 615 266 646 269 676 277 C 705 285 732 300 756 322 C 780 344 802 376 821 416 C 840 456 856 509 868 575 C 874 608 879 636 883 660 C 887 683 890 703 892 719 C 894 735 895 749 896 760 C 896 771 897 781 897 791 C 897 831 892 865 882 893 C 872 921 858 943 838 961 C 818 978 794 990 765 998 C 736 1006 702 1010 664 1010 C 630 1010 599 1006 571 998 C 542 990 516 974 493 952 C 469 929 449 897 431 856 C 413 815 399 762 387 696 C 381 664 377 638 373 617 C 369 595 367 577 365 563 C 363 548 361 536 361 526 C 360 516 360 506 360 498 C 360 456 365 420 376 391 C 386 361 401 337 421 319 C 440 300 463 286 491 278 C 518 270 548 266 582 266 Z" unicode="O" />
<glyph horiz-adv-x="1186" d="M 223 1282 L 741 1282 C 800 1282 858 1277 915 1267 C 971 1257 1022 1240 1066 1215 C 1110 1190 1146 1156 1173 1112 C 1200 1068 1214 1012 1214 944 C 1214 879 1206 822 1192 772 C 1178 722 1158 678 1133 641 C 1108 603 1079 572 1046 547 C 1013 521 978 501 940 485 C 902 469 864 458 824 452 C 784 445 745 442 707 442 L 403 442 L 326 0 L -2 0 L 223 1282 Z M 682 702 C 710 702 737 704 761 709 C 785 714 805 724 823 739 C 841 753 854 774 864 800 C 874 826 879 859 879 901 C 879 925 874 945 864 961 C 854 977 839 989 821 998 C 803 1006 781 1012 755 1015 C 729 1018 700 1020 668 1020 L 506 1020 L 449 702 L 682 702 Z" unicode="P" />
<glyph horiz-adv-x="1251" d="M 555 0 C 455 0 371 13 304 39 C 237 65 183 101 142 146 C 101 190 72 242 55 301 C 37 359 29 421 29 487 C 29 500 29 514 30 528 C 30 542 32 559 34 577 C 36 595 38 616 42 640 C 45 663 49 691 55 723 C 69 803 91 878 119 948 C 147 1018 186 1078 235 1129 C 284 1179 345 1219 418 1248 C 490 1277 578 1292 682 1292 C 789 1292 878 1279 949 1254 C 1020 1228 1077 1194 1119 1151 C 1161 1108 1190 1058 1207 1001 C 1224 944 1233 884 1233 821 C 1233 806 1232 791 1231 775 C 1230 759 1228 740 1226 720 C 1223 699 1219 676 1215 650 C 1211 624 1206 593 1200 559 C 1182 457 1153 367 1111 289 C 1069 211 1012 148 939 100 L 1044 -123 L 743 -252 L 623 2 C 611 0 600 0 589 0 C 577 0 566 0 555 0 Z M 582 266 C 615 266 646 269 676 277 C 705 285 732 300 756 322 C 780 344 802 376 821 416 C 840 456 856 509 868 575 C 874 608 879 636 883 660 C 887 683 890 703 892 719 C 894 735 895 749 896 760 C 896 771 897 781 897 791 C 897 831 892 865 882 893 C 872 921 858 943 838 961 C 818 978 794 990 765 998 C 736 1006 702 1010 664 1010 C 630 1010 599 1006 571 998 C 542 990 516 974 493 952 C 469 929 449 897 431 856 C 413 815 399 762 387 696 C 381 664 377 638 373 617 C 369 595 367 577 365 563 C 363 548 361 536 361 526 C 360 516 360 506 360 498 C 360 456 365 420 376 391 C 386 361 401 337 421 319 C 440 300 463 286 491 278 C 518 270 548 266 582 266 Z" unicode="Q" />
<glyph horiz-adv-x="1206" d="M 598 457 L 406 457 L 326 0 L -2 0 L 223 1282 L 698 1282 C 771 1282 839 1276 902 1266 C 965 1256 1020 1238 1066 1212 C 1112 1186 1148 1152 1174 1108 C 1200 1064 1214 1008 1214 942 C 1214 874 1206 815 1191 765 C 1175 715 1154 671 1128 635 C 1102 598 1071 568 1036 544 C 1000 520 963 502 923 489 L 1071 0 L 735 0 L 598 457 Z M 684 719 C 712 719 738 721 762 726 C 786 731 806 740 824 753 C 841 766 854 784 864 806 C 874 828 879 857 879 891 C 879 934 861 965 827 983 C 792 1001 736 1010 659 1010 L 504 1010 L 453 719 L 684 719 Z" unicode="R" />
<glyph horiz-adv-x="1180" d="M 571 -8 C 487 -8 415 -3 354 7 C 293 17 241 31 199 49 C 157 67 122 89 96 115 C 69 141 48 169 33 200 C 18 231 8 265 2 301 C -4 337 -7 374 -8 414 L 346 451 C 344 424 345 399 347 377 C 349 355 358 336 374 320 C 390 304 414 291 448 283 C 481 274 528 270 588 270 C 645 270 689 277 721 293 C 752 309 768 337 768 377 C 768 397 761 415 748 429 C 734 443 716 456 694 467 C 671 477 645 487 615 496 C 585 504 553 513 520 522 C 490 530 459 538 428 548 C 396 558 366 569 337 582 C 307 594 280 609 254 626 C 228 642 206 662 187 685 C 167 707 152 733 141 763 C 130 793 125 827 125 866 C 125 930 135 989 156 1041 C 176 1093 208 1138 251 1175 C 294 1212 349 1241 416 1261 C 482 1281 561 1292 653 1292 C 751 1292 833 1282 898 1264 C 963 1246 1016 1220 1056 1188 C 1096 1156 1125 1117 1143 1073 C 1161 1028 1173 980 1178 928 L 811 883 C 811 902 810 919 807 935 C 804 951 796 964 784 975 C 771 986 752 995 727 1001 C 701 1007 667 1010 623 1010 C 566 1010 525 1002 500 988 C 475 973 463 949 463 915 C 463 899 468 885 479 873 C 489 861 504 851 523 842 C 542 833 564 825 590 817 C 615 809 642 802 672 795 C 703 786 735 777 769 767 C 803 757 836 745 868 732 C 900 718 930 703 958 685 C 986 667 1011 645 1033 620 C 1055 595 1072 566 1085 533 C 1097 500 1104 462 1104 420 C 1104 345 1089 281 1061 227 C 1033 173 994 128 946 94 C 898 59 841 33 777 17 C 712 0 643 -8 571 -8 Z" unicode="S" />
<glyph horiz-adv-x="1069" d="M 436 999 L 84 999 L 133 1282 L 1165 1282 L 1116 999 L 764 999 L 588 0 L 260 0 L 436 999 Z" unicode="T" />
<glyph horiz-adv-x="1251" d="M 596 -8 C 487 -8 396 1 323 20 C 249 38 192 67 150 106 C 108 145 81 195 69 255 C 57 315 58 387 74 471 L 217 1282 L 545 1282 L 401 461 C 395 431 393 404 393 380 C 393 356 399 335 412 318 C 424 301 445 288 475 279 C 504 270 546 266 600 266 C 636 266 665 270 689 280 C 712 289 731 302 746 319 C 760 336 771 356 779 380 C 787 404 793 430 799 459 L 944 1282 L 1264 1282 L 1114 438 C 1099 354 1077 283 1049 226 C 1020 169 984 123 942 89 C 899 54 849 29 791 14 C 733 0 668 -8 596 -8 Z" unicode="U" />
<glyph horiz-adv-x="1178" d="M 641 -10 L 311 -10 L 121 1282 L 442 1282 L 552 442 L 958 1282 L 1286 1282 L 641 -10 Z" unicode="V" />
<glyph horiz-adv-x="1767" d="M 172 1282 L 496 1282 L 526 537 L 858 1282 L 1137 1282 L 1204 537 L 1499 1282 L 1825 1282 L 1282 -10 L 979 -10 L 897 713 L 563 -10 L 260 -10 L 172 1282 Z" unicode="W" />
<glyph horiz-adv-x="1200" d="M 424 691 L 170 1282 L 506 1282 L 652 941 L 891 1282 L 1233 1282 L 771 664 L 1057 0 L 721 0 L 549 400 L 264 0 L -98 0 L 424 691 Z" unicode="X" />
<glyph horiz-adv-x="1174" d="M 411 562 L 98 1282 L 451 1282 L 623 842 L 956 1282 L 1305 1282 L 739 564 L 639 0 L 311 0 L 411 562 Z" unicode="Y" />
<glyph horiz-adv-x="1102" d="M -2 238 L 666 999 L 143 999 L 193 1282 L 1139 1282 L 1098 1040 L 430 279 L 973 279 L 924 0 L -43 0 L -2 238 Z" unicode="Z" />
<glyph horiz-adv-x="745" d="M 223 1282 L 807 1282 L 758 999 L 502 999 L 309 -90 L 565 -90 L 518 -365 L -66 -365 L 223 1282 Z" unicode="[" />
<glyph horiz-adv-x="813" d="M 84 1282 L 395 1282 L 733 0 L 422 0 L 84 1282 Z" unicode="\" />
<glyph horiz-adv-x="745" d="M -74 -88 L 182 -88 L 375 1001 L 119 1001 L 168 1282 L 752 1282 L 463 -365 L -121 -365 L -74 -88 Z" unicode="]" />
<glyph horiz-adv-x="1147" d="M 459 926 L 813 926 L 977 672 L 676 672 L 606 760 L 510 672 L 205 672 L 459 926 Z" unicode="^" />
<glyph horiz-adv-x="764" d="M -199 -39 L 729 -39 L 684 -291 L -244 -291 L -199 -39 Z" unicode="_" />
<glyph horiz-adv-x="1147" d="M 276 1262 L 621 1262 L 846 1008 L 528 1008 L 276 1262 Z" unicode="`" />
<glyph horiz-adv-x="1038" d="M 313 -8 C 255 -8 206 0 168 14 C 130 29 99 50 76 77 C 53 104 37 136 27 173 C 17 210 13 251 14 295 C 14 308 14 322 15 336 C 16 350 18 366 21 384 C 23 402 26 421 30 443 C 33 465 37 490 43 518 C 53 576 67 631 87 683 C 107 734 132 779 163 817 C 194 855 231 885 275 907 C 318 929 368 940 426 940 C 463 940 495 937 523 933 C 550 929 574 923 594 915 C 614 907 631 897 645 887 C 659 876 671 864 682 852 L 696 926 L 1001 926 L 838 0 L 532 0 L 547 86 C 533 72 519 59 504 48 C 488 36 471 26 453 18 C 434 10 413 3 390 -1 C 367 -5 341 -8 313 -8 Z M 444 248 C 470 248 492 251 511 259 C 529 267 545 278 558 294 C 570 309 580 328 588 351 C 596 373 602 400 608 430 L 623 510 C 628 542 629 568 627 590 C 625 611 618 628 608 641 C 597 654 582 663 563 669 C 544 675 521 678 494 678 C 470 678 451 674 435 666 C 419 658 406 645 395 628 C 384 611 375 589 367 563 C 359 536 352 504 346 467 C 342 444 338 423 336 405 C 333 386 332 368 332 352 C 332 318 340 292 357 274 C 373 256 402 248 444 248 Z" unicode="a" />
<glyph horiz-adv-x="1040" d="M 217 1343 L 522 1343 L 434 842 C 448 856 464 869 481 881 C 498 893 518 903 540 912 C 562 920 586 927 614 932 C 642 937 673 940 709 940 C 759 940 801 932 835 918 C 869 903 896 882 917 856 C 937 830 952 799 961 763 C 970 727 975 687 975 645 C 975 631 974 616 973 600 C 972 584 971 567 969 549 C 967 531 964 510 960 487 C 956 464 952 438 946 410 C 936 351 921 296 901 246 C 881 195 854 151 822 113 C 790 75 750 46 704 24 C 657 2 602 -8 539 -8 C 505 -8 476 -5 451 -1 C 426 2 404 8 386 16 C 367 24 351 33 337 44 C 323 54 310 66 299 80 L 285 0 L -20 0 L 217 1343 Z M 481 248 C 504 248 524 251 541 259 C 558 266 573 277 585 291 C 597 305 607 324 615 346 C 623 368 629 394 635 424 C 639 450 643 473 646 491 C 649 509 651 523 653 535 C 655 546 656 555 656 562 C 656 569 657 576 657 582 C 657 614 649 638 635 654 C 621 670 595 678 557 678 C 503 678 461 663 432 635 C 402 606 383 562 373 502 L 358 416 C 352 384 350 357 352 336 C 354 314 359 297 369 284 C 379 271 393 262 411 256 C 429 250 453 248 481 248 Z" unicode="b" />
<glyph horiz-adv-x="944" d="M 401 -8 C 327 -8 265 1 214 20 C 162 39 120 65 88 98 C 55 131 31 170 16 215 C 1 260 -6 308 -6 360 C -6 368 -5 377 -5 387 C -4 397 -3 408 -2 421 C 0 433 1 448 3 464 C 5 480 8 500 12 522 C 26 599 48 664 79 717 C 110 770 147 813 190 846 C 232 879 280 903 332 918 C 384 932 438 940 494 940 C 570 940 635 931 687 914 C 739 896 782 872 814 841 C 846 810 870 773 885 731 C 899 688 907 641 909 590 L 590 539 C 594 567 595 591 591 609 C 587 627 579 641 569 651 C 559 661 545 668 528 672 C 511 676 492 678 471 678 C 449 678 430 674 414 668 C 398 662 384 651 372 635 C 360 619 349 599 341 573 C 333 547 325 514 319 475 C 315 454 313 435 311 419 C 309 402 309 387 309 373 C 309 329 318 297 336 276 C 354 254 386 244 432 244 C 450 244 467 245 482 249 C 496 253 509 259 520 268 C 531 277 541 289 549 304 C 557 319 563 338 569 362 L 868 309 C 854 260 833 216 806 177 C 778 138 745 105 705 77 C 665 49 620 28 569 14 C 517 0 461 -8 401 -8 Z" unicode="c" />
<glyph horiz-adv-x="1047" d="M 313 -8 C 255 -8 206 0 168 14 C 130 29 99 50 76 77 C 53 104 37 136 27 173 C 17 210 13 251 14 295 C 14 308 14 322 15 336 C 16 350 18 366 21 384 C 23 402 26 421 30 443 C 33 465 37 490 43 518 C 53 576 67 631 87 683 C 107 734 132 779 163 817 C 194 855 231 885 275 907 C 318 929 368 940 426 940 C 464 940 497 937 525 933 C 553 929 577 923 598 915 C 618 907 636 897 651 886 C 665 875 678 863 690 850 L 778 1343 L 1083 1343 L 846 0 L 541 0 L 555 88 C 541 74 526 61 510 49 C 494 37 476 27 457 19 C 437 11 416 4 392 0 C 368 -5 342 -8 313 -8 Z M 444 248 C 496 248 536 263 562 294 C 588 324 606 370 616 430 L 631 510 C 636 542 637 568 635 590 C 632 611 625 628 614 641 C 602 654 587 663 567 669 C 547 675 522 678 494 678 C 470 678 451 674 435 666 C 419 658 406 645 395 628 C 384 611 375 589 367 563 C 359 536 352 504 346 467 C 342 444 338 423 336 405 C 333 386 332 368 332 352 C 332 318 340 292 357 274 C 373 256 402 248 444 248 Z" unicode="d" />
<glyph horiz-adv-x="944" d="M 412 -8 C 338 -8 274 0 222 18 C 169 36 126 60 92 92 C 58 124 34 162 18 206 C 2 250 -6 300 -6 354 C -6 363 -5 373 -5 383 C -5 393 -4 405 -3 418 C -1 431 0 446 2 463 C 4 480 8 500 12 524 C 24 597 45 660 75 712 C 105 764 140 807 182 841 C 224 875 270 900 322 916 C 373 932 427 940 483 940 C 558 940 622 931 674 915 C 726 899 768 876 801 848 C 833 819 857 785 871 745 C 885 705 893 662 893 616 C 893 600 892 583 890 566 C 888 548 886 531 883 514 L 858 383 L 291 383 C 289 374 289 366 289 360 C 289 353 289 347 289 342 C 289 302 299 272 320 252 C 341 232 380 223 436 223 C 458 223 476 224 490 227 C 504 229 515 234 523 240 C 531 246 538 255 543 265 C 548 275 553 287 559 301 L 840 248 C 830 216 815 184 796 154 C 776 123 750 96 716 72 C 682 48 641 28 591 14 C 541 0 482 -8 412 -8 Z M 473 696 C 449 696 429 693 413 689 C 397 684 383 676 371 666 C 359 656 350 642 342 625 C 334 607 327 586 321 561 L 597 561 C 597 566 598 571 598 576 C 598 580 598 585 598 590 C 598 624 589 650 571 668 C 553 686 521 696 473 696 Z" unicode="e" />
<glyph horiz-adv-x="702" d="M 82 926 L 235 926 L 252 1020 C 260 1068 271 1112 285 1152 C 299 1192 320 1226 349 1254 C 377 1282 416 1304 464 1320 C 512 1335 575 1343 653 1343 L 809 1343 L 760 1071 L 657 1071 C 637 1071 620 1069 608 1065 C 596 1061 586 1056 578 1048 C 570 1040 563 1030 559 1018 C 555 1006 551 991 549 975 L 540 926 L 735 926 L 686 653 L 492 653 L 377 0 L 72 0 L 187 653 L 33 653 L 82 926 Z" unicode="f" />
<glyph horiz-adv-x="1044" d="M 416 -375 C 319 -375 240 -369 180 -357 C 120 -345 72 -329 37 -310 C 1 -290 -24 -268 -42 -243 C -59 -218 -73 -193 -84 -168 L 229 -74 C 233 -85 238 -94 246 -102 C 253 -110 263 -116 277 -120 C 291 -124 308 -128 329 -130 C 350 -132 376 -133 408 -133 C 432 -133 451 -130 467 -124 C 482 -118 494 -110 504 -100 C 513 -90 520 -77 525 -61 C 530 -45 535 -28 539 -8 L 555 90 C 541 76 526 64 510 53 C 494 42 476 33 457 25 C 437 17 416 10 392 6 C 368 2 342 0 313 0 C 255 0 207 7 169 21 C 131 35 100 56 77 82 C 54 108 38 138 28 174 C 18 210 14 249 14 293 C 14 306 14 320 15 334 C 16 348 18 364 21 382 C 23 400 26 420 30 442 C 33 464 37 489 43 518 C 53 576 67 631 87 683 C 107 734 132 779 163 817 C 194 855 231 885 275 907 C 318 929 368 940 426 940 C 464 940 497 937 525 933 C 553 929 577 923 598 915 C 618 907 636 897 651 886 C 665 875 678 863 690 850 L 705 926 L 1010 926 L 846 4 C 835 -56 819 -110 799 -157 C 778 -204 751 -244 717 -276 C 683 -308 641 -333 592 -350 C 542 -366 484 -375 416 -375 Z M 444 248 C 496 248 536 263 562 294 C 588 324 606 370 616 430 L 631 510 C 636 542 637 568 635 590 C 632 611 625 628 614 641 C 602 654 587 663 567 669 C 547 675 522 678 494 678 C 470 678 451 674 435 666 C 419 658 406 645 395 628 C 384 611 375 589 367 563 C 359 536 352 504 346 467 C 342 444 338 423 336 405 C 333 386 332 368 332 352 C 332 318 340 292 357 274 C 373 256 402 248 444 248 Z" unicode="g" />
<glyph horiz-adv-x="1016" d="M 217 1343 L 522 1343 L 434 844 C 467 872 505 895 547 913 C 589 931 636 940 690 940 C 750 940 798 932 834 916 C 870 900 896 877 914 848 C 931 819 940 784 942 744 C 944 703 940 658 932 610 L 825 0 L 520 0 L 621 571 C 623 586 624 600 623 613 C 621 626 617 637 610 647 C 602 657 592 664 578 670 C 564 675 546 678 524 678 C 506 678 490 676 475 672 C 459 668 445 661 433 650 C 421 639 410 623 400 602 C 390 581 383 554 377 520 L 285 0 L -20 0 L 217 1343 Z" unicode="h" />
<glyph horiz-adv-x="494" d="M 147 926 L 453 926 L 289 0 L -16 0 L 147 926 Z M 209 1282 L 514 1282 L 467 1008 L 162 1008 L 209 1282 Z" unicode="i" />
<glyph horiz-adv-x="494" d="M -131 -113 L -102 -113 C -87 -113 -75 -111 -66 -108 C -56 -105 -49 -100 -44 -94 C -38 -88 -34 -80 -31 -70 C -28 -60 -25 -49 -23 -37 L 147 926 L 453 926 L 272 -90 C 264 -136 252 -177 238 -211 C 224 -245 204 -274 179 -297 C 153 -319 122 -336 84 -348 C 46 -359 -1 -365 -57 -365 L -174 -365 L -131 -113 Z M 209 1282 L 514 1282 L 467 1008 L 162 1008 L 209 1282 Z" unicode="j" />
<glyph horiz-adv-x="913" d="M 398 381 L 343 331 L 285 0 L -20 0 L 217 1343 L 522 1343 L 408 699 L 647 926 L 989 926 L 642 606 L 825 0 L 512 0 L 398 381 Z" unicode="k" />
<glyph horiz-adv-x="494" d="M 221 1343 L 526 1343 L 289 0 L -16 0 L 221 1343 Z" unicode="l" />
<glyph horiz-adv-x="1530" d="M 143 926 L 449 926 L 434 846 C 466 872 502 895 544 913 C 585 931 632 940 684 940 C 748 940 798 930 834 912 C 870 894 895 868 911 834 C 949 864 993 889 1043 909 C 1093 929 1149 940 1210 940 C 1270 940 1317 932 1353 916 C 1388 900 1414 877 1431 848 C 1447 819 1456 784 1457 744 C 1458 703 1454 658 1446 610 L 1339 0 L 1034 0 L 1135 571 C 1137 586 1138 600 1138 613 C 1137 626 1133 637 1127 647 C 1121 657 1111 664 1098 670 C 1084 675 1066 678 1044 678 C 1026 678 1010 676 996 672 C 982 668 969 660 957 648 C 945 636 934 620 925 599 C 916 577 909 550 903 516 L 813 0 L 508 0 L 608 571 C 610 586 611 600 611 613 C 610 626 606 637 600 647 C 594 657 584 664 571 670 C 558 675 540 678 518 678 C 500 678 484 676 470 672 C 455 668 442 661 430 650 C 418 639 408 623 399 602 C 390 581 383 554 377 520 L 285 0 L -20 0 L 143 926 Z" unicode="m" />
<glyph horiz-adv-x="1016" d="M 143 926 L 449 926 L 434 844 C 467 872 505 895 547 913 C 589 931 636 940 690 940 C 750 940 798 932 834 916 C 870 900 896 877 914 848 C 931 819 940 784 942 744 C 944 703 940 658 932 610 L 825 0 L 520 0 L 621 571 C 623 586 624 600 623 613 C 621 626 617 637 610 647 C 602 657 592 664 578 670 C 564 675 546 678 524 678 C 506 678 490 676 475 672 C 459 668 445 661 433 650 C 421 639 410 623 400 602 C 390 581 383 554 377 520 L 285 0 L -20 0 L 143 926 Z" unicode="n" />
<glyph horiz-adv-x="965" d="M 408 -8 C 334 -8 271 2 219 22 C 167 42 124 70 91 105 C 58 140 34 181 19 227 C 3 273 -4 321 -4 373 C -4 381 -3 389 -3 398 C -3 407 -2 417 -1 429 C 0 441 1 454 3 470 C 5 486 8 504 12 526 C 23 588 41 645 65 696 C 89 747 121 791 160 827 C 199 863 246 890 301 910 C 356 930 420 940 492 940 C 572 940 639 930 693 911 C 747 891 790 865 823 832 C 856 799 880 760 894 716 C 908 672 915 625 915 575 C 915 565 914 555 914 545 C 913 535 912 523 911 510 C 909 497 907 482 905 465 C 902 447 899 427 895 403 C 884 341 865 284 839 234 C 812 184 778 141 737 105 C 695 69 647 41 592 21 C 536 1 475 -8 408 -8 Z M 428 248 C 450 248 470 251 487 257 C 504 263 519 273 532 289 C 545 305 556 326 566 352 C 576 378 584 411 592 451 C 596 472 598 492 600 510 C 601 528 602 544 602 559 C 602 602 592 633 573 651 C 553 669 521 678 475 678 C 452 678 432 675 416 669 C 399 663 384 653 372 638 C 359 622 348 601 339 575 C 330 548 322 514 315 473 C 311 455 309 439 308 425 C 307 410 307 396 307 383 C 307 335 317 301 337 280 C 357 258 388 248 428 248 Z" unicode="o" />
<glyph horiz-adv-x="1040" d="M 143 926 L 449 926 L 434 844 C 448 858 462 870 478 882 C 494 894 511 904 531 912 C 550 920 571 927 595 932 C 619 937 646 940 676 940 C 734 940 782 932 820 917 C 858 902 889 881 912 854 C 935 827 951 795 961 758 C 970 721 975 681 975 637 C 975 623 974 609 973 595 C 972 581 970 565 968 547 C 966 529 963 510 959 488 C 955 466 951 442 946 414 C 936 355 921 300 901 249 C 881 197 856 153 825 115 C 794 77 757 47 714 25 C 670 3 620 -8 563 -8 C 525 -8 492 -5 464 -1 C 436 2 411 8 391 16 C 370 23 352 32 338 43 C 323 53 310 65 299 78 L 221 -365 L -84 -365 L 143 926 Z M 496 248 C 518 248 537 252 553 260 C 569 268 582 280 593 297 C 604 314 613 336 621 363 C 629 389 636 421 643 459 C 647 481 650 502 653 521 C 655 539 657 557 657 573 C 657 607 648 633 632 651 C 615 669 586 678 545 678 C 492 678 453 662 427 631 C 401 600 383 555 373 496 L 358 416 C 352 384 351 357 354 336 C 356 314 363 297 375 284 C 386 271 402 262 422 256 C 442 250 466 248 496 248 Z" unicode="p" />
<glyph horiz-adv-x="1040" d="M 557 90 C 543 76 527 63 511 51 C 495 39 477 28 458 20 C 438 11 417 4 393 0 C 369 -5 343 -8 313 -8 C 255 -8 206 0 168 14 C 130 29 99 50 76 77 C 53 104 37 136 28 173 C 18 210 14 251 14 295 C 14 311 14 326 15 341 C 16 356 18 372 21 389 C 23 405 26 424 30 445 C 33 465 37 490 43 518 C 53 576 67 631 87 683 C 107 734 132 779 163 817 C 194 855 231 885 275 907 C 318 929 368 940 426 940 C 464 940 497 937 525 933 C 553 929 577 923 598 915 C 618 907 636 897 651 886 C 665 875 678 863 690 850 L 705 926 L 1010 926 L 782 -365 L 477 -365 L 557 90 Z M 444 248 C 496 248 536 263 562 294 C 588 324 606 370 616 430 L 631 510 C 636 542 637 568 635 590 C 632 611 625 628 614 641 C 602 654 587 663 567 669 C 547 675 522 678 494 678 C 470 678 451 674 435 666 C 419 658 406 645 395 628 C 384 611 375 589 367 563 C 359 536 352 504 346 467 C 342 444 338 423 336 405 C 333 386 332 368 332 352 C 332 318 340 292 357 274 C 373 256 402 248 444 248 Z" unicode="q" />
<glyph horiz-adv-x="672" d="M 143 926 L 453 926 L 436 834 C 470 862 510 885 558 904 C 605 922 654 932 705 932 L 659 670 C 616 670 578 667 546 663 C 514 658 486 649 463 635 C 439 621 420 602 406 578 C 392 554 381 522 375 483 L 289 0 L -20 0 L 143 926 Z" unicode="r" />
<glyph horiz-adv-x="911" d="M 418 -8 C 342 -8 275 -4 218 4 C 161 12 113 24 75 42 C 36 59 6 82 -15 110 C -37 138 -51 173 -57 215 L 264 295 C 264 280 266 267 268 256 C 270 245 276 236 286 229 C 295 221 309 216 328 212 C 346 208 372 207 406 207 C 445 207 472 211 487 221 C 502 231 510 246 510 268 C 510 276 508 283 504 289 C 500 295 494 300 484 306 C 474 312 461 317 444 323 C 426 329 404 336 377 344 C 331 356 288 370 248 385 C 208 399 174 417 145 437 C 116 457 93 480 77 508 C 61 536 53 569 53 608 C 53 650 60 690 75 730 C 89 770 113 805 145 836 C 177 867 220 892 272 911 C 324 930 389 940 465 940 C 541 940 606 933 658 920 C 710 906 753 889 785 867 C 817 845 841 821 857 794 C 873 766 883 739 887 711 L 573 621 C 574 637 574 650 572 661 C 570 671 566 680 558 687 C 550 694 539 699 524 702 C 509 705 489 707 465 707 C 445 707 430 705 418 702 C 406 698 396 694 389 689 C 382 683 377 677 375 669 C 372 661 371 653 371 645 C 371 637 373 630 377 624 C 381 618 389 612 401 606 C 412 600 428 594 448 588 C 468 582 494 574 526 565 C 568 553 608 540 645 526 C 682 512 714 496 742 478 C 769 459 790 437 806 411 C 821 385 829 353 829 317 C 829 271 822 230 809 196 C 796 162 779 133 758 109 C 736 85 711 65 683 50 C 655 34 625 22 595 14 C 565 6 534 0 504 -3 C 473 -6 444 -8 418 -8 Z" unicode="s" />
<glyph horiz-adv-x="717" d="M 61 926 L 215 926 L 260 1180 L 565 1180 L 520 926 L 715 926 L 666 653 L 472 653 L 422 369 C 418 348 417 331 417 318 C 417 304 420 294 426 286 C 432 278 441 272 453 269 C 465 265 480 264 500 264 L 598 264 L 551 0 L 432 0 C 354 0 291 6 244 20 C 197 33 162 53 139 81 C 116 109 103 144 100 186 C 97 228 101 279 111 338 L 166 653 L 12 653 L 61 926 Z" unicode="t" />
<glyph horiz-adv-x="1012" d="M 520 82 C 487 56 450 35 409 18 C 367 0 320 -8 268 -8 C 208 -8 160 0 124 15 C 88 30 62 52 45 80 C 27 108 18 142 16 182 C 14 222 18 266 27 315 L 133 926 L 438 926 L 338 354 C 335 338 334 324 336 311 C 337 298 341 287 348 278 C 355 268 365 261 379 256 C 393 250 411 248 434 248 C 451 248 467 249 482 253 C 497 257 511 264 523 275 C 535 286 545 302 555 323 C 564 343 572 371 578 406 L 670 926 L 975 926 L 811 0 L 506 0 L 520 82 Z" unicode="u" />
<glyph horiz-adv-x="903" d="M 49 926 L 367 926 L 387 745 L 416 438 L 553 743 L 639 926 L 961 926 L 498 -8 L 176 -8 L 49 926 Z" unicode="v" />
<glyph horiz-adv-x="1403" d="M 63 926 L 379 926 L 387 791 L 406 463 L 545 791 L 604 926 L 901 926 L 911 791 L 936 463 L 1069 791 L 1126 926 L 1446 926 L 1010 -8 L 713 -8 L 670 459 L 461 -8 L 164 -8 L 63 926 Z" unicode="w" />
<glyph horiz-adv-x="944" d="M 280 490 L 82 926 L 403 926 L 492 729 L 639 926 L 973 926 L 609 473 L 825 0 L 504 0 L 397 234 L 223 0 L -111 0 L 280 490 Z" unicode="x" />
<glyph horiz-adv-x="903" d="M -61 -113 L 27 -113 C 50 -113 69 -111 84 -107 C 99 -103 112 -97 122 -88 C 132 -79 142 -67 151 -52 C 160 -37 170 -18 182 4 L 49 926 L 371 926 L 424 457 L 643 926 L 961 926 L 403 -182 C 387 -214 368 -241 347 -265 C 326 -288 302 -307 276 -322 C 249 -336 219 -347 185 -354 C 151 -361 114 -365 72 -365 L -104 -365 L -61 -113 Z" unicode="y" />
<glyph horiz-adv-x="874" d="M -23 223 L 399 653 L 74 653 L 123 926 L 858 926 L 817 694 L 395 264 L 762 264 L 715 0 L -61 0 L -23 223 Z" unicode="z" />
<glyph horiz-adv-x="807" d="M 387 -365 C 321 -365 264 -358 218 -346 C 172 -333 136 -311 111 -280 C 86 -249 72 -208 70 -156 C 68 -104 78 -39 100 39 L 152 217 C 162 253 160 278 146 294 C 132 309 106 317 66 317 L -27 317 L 25 600 L 117 600 C 157 600 186 607 204 623 C 222 638 232 664 236 700 L 250 870 C 256 946 266 1011 280 1064 C 294 1116 314 1159 342 1191 C 370 1223 406 1247 450 1261 C 494 1275 549 1282 616 1282 L 868 1282 L 819 999 L 700 999 C 664 999 636 990 616 974 C 596 958 584 927 580 881 L 559 629 C 555 589 542 555 518 527 C 494 499 458 477 408 461 C 432 451 452 441 467 429 C 481 417 492 404 499 390 C 505 376 508 360 508 343 C 508 326 505 308 500 289 L 430 31 C 418 -15 419 -46 433 -63 C 447 -79 472 -88 508 -88 L 627 -88 L 580 -365 L 387 -365 Z" unicode="{" />
<glyph horiz-adv-x="635" d="M 154 1282 L 481 1282 L 481 -365 L 154 -365 L 154 1282 Z" unicode="|" />
<glyph horiz-adv-x="807" d="M -74 -88 L 45 -88 C 81 -88 109 -79 130 -63 C 151 -46 164 -15 168 31 L 188 289 C 190 308 193 326 199 343 C 204 360 212 376 224 390 C 236 404 251 417 270 429 C 289 441 313 451 342 461 C 296 477 266 499 252 527 C 238 555 236 589 248 629 L 317 881 C 323 903 325 922 325 938 C 324 953 320 965 313 974 C 306 983 296 989 284 993 C 271 997 256 999 238 999 L 119 999 L 168 1282 L 358 1282 C 424 1282 480 1275 526 1261 C 572 1247 607 1223 631 1191 C 655 1159 668 1116 670 1064 C 672 1011 663 946 643 870 L 596 700 C 586 664 588 638 602 623 C 615 607 642 600 682 600 L 774 600 L 723 317 L 631 317 C 591 317 561 309 543 294 C 524 278 514 253 512 217 L 498 39 C 492 -39 482 -104 468 -156 C 454 -208 433 -249 405 -280 C 377 -311 342 -333 298 -346 C 254 -358 199 -365 133 -365 L -121 -365 L -74 -88 Z" unicode="}" />
<glyph horiz-adv-x="1147" d="M 211 672 C 219 706 229 739 243 770 C 256 801 272 828 291 851 C 310 874 332 892 358 906 C 383 919 412 926 444 926 C 477 926 507 922 535 916 C 563 909 588 902 611 894 C 633 886 653 878 671 872 C 688 865 703 862 717 862 C 732 862 746 867 759 877 C 771 887 780 903 784 926 L 1012 893 C 1004 862 994 831 982 801 C 970 771 956 744 938 720 C 920 696 898 676 872 661 C 846 646 816 639 780 639 C 746 639 714 642 686 649 C 657 655 631 662 609 670 C 586 678 566 685 548 692 C 530 698 516 702 504 702 C 484 702 469 698 459 691 C 448 683 440 666 434 639 L 211 672 Z" unicode="~" />
<glyph horiz-adv-x="1051" d="M 443 -4 C 362 -4 296 8 244 34 C 192 60 153 94 126 137 C 98 179 82 228 77 283 C 71 338 75 395 87 455 L 97 506 C 109 570 126 626 147 676 C 168 725 196 766 230 800 C 264 834 305 859 354 877 C 402 894 461 903 529 903 C 621 903 695 890 749 866 C 803 842 843 809 869 767 C 895 725 909 675 912 619 C 915 563 912 503 902 440 L 894 387 C 874 261 827 165 753 97 C 679 29 575 -4 443 -4 Z M 468 231 C 484 231 500 234 516 240 C 532 246 546 256 559 270 C 572 284 584 302 594 325 C 604 347 611 375 617 408 L 629 479 C 640 544 637 591 620 619 C 602 647 567 662 515 662 C 496 662 479 659 465 654 C 450 648 437 639 425 626 C 413 612 403 594 395 572 C 386 550 379 522 373 489 L 361 422 C 348 356 351 307 370 277 C 389 246 422 231 468 231 Z" unicode="₀" />
<glyph horiz-adv-x="811" d="M 324 637 L 136 637 L 181 897 L 660 897 L 502 0 L 212 0 L 324 637 Z" unicode="₁" />
<glyph horiz-adv-x="993" d="M 25 125 C 34 177 49 222 69 261 C 89 299 116 334 150 364 C 183 394 224 422 272 447 C 320 471 376 496 441 520 C 475 532 501 542 521 552 C 541 561 556 570 567 578 C 577 586 584 594 587 602 C 590 610 592 620 592 631 C 592 637 590 643 587 649 C 584 654 579 659 572 663 C 564 667 554 670 542 672 C 529 674 513 676 494 676 C 460 676 435 667 419 650 C 402 632 390 610 382 584 L 113 623 C 129 669 150 709 177 744 C 203 779 234 808 269 832 C 304 855 343 873 385 885 C 427 897 471 903 519 903 C 575 903 624 898 668 890 C 712 882 749 869 779 851 C 809 833 833 810 849 782 C 865 754 873 720 873 682 C 873 632 866 590 852 556 C 838 521 818 491 792 465 C 766 439 733 417 695 398 C 657 378 613 360 564 342 C 522 327 489 314 464 304 C 438 293 418 283 403 275 C 387 267 376 259 368 252 C 360 244 354 237 349 229 L 793 229 L 752 0 L 3 0 L 25 125 Z" unicode="₂" />
<glyph horiz-adv-x="1001" d="M 396 -4 C 279 -4 191 18 131 64 C 71 110 39 176 35 264 L 316 299 C 313 279 313 263 317 251 C 321 238 328 228 339 221 C 349 214 364 209 382 207 C 400 204 422 203 449 203 C 463 203 475 203 486 205 C 497 207 507 211 515 217 C 523 223 529 231 535 243 C 541 254 545 269 549 289 C 554 317 548 338 532 353 C 515 367 482 375 433 375 L 295 375 L 330 569 L 498 569 C 513 569 526 569 536 570 C 546 570 555 572 562 576 C 569 580 574 585 578 593 C 582 601 585 611 588 625 C 592 648 586 664 570 674 C 554 683 527 688 490 688 C 456 688 431 684 415 678 C 399 672 386 659 377 641 L 121 686 C 137 719 156 749 180 776 C 204 802 232 825 265 844 C 297 863 335 878 377 888 C 419 898 467 903 521 903 C 595 903 655 897 703 885 C 750 873 787 857 813 836 C 839 815 856 790 864 761 C 872 732 873 700 867 666 C 862 640 856 618 848 599 C 840 579 831 562 820 548 C 808 533 794 520 778 510 C 762 500 743 491 721 483 C 758 469 786 446 805 412 C 823 378 828 332 818 274 C 810 226 796 185 777 150 C 757 114 731 85 697 62 C 663 38 622 21 573 10 C 523 0 464 -5 396 -4 Z" unicode="₃" />
<glyph horiz-adv-x="989" d="M 437 141 L 5 141 L 46 375 L 562 897 L 840 897 L 748 375 L 889 375 L 848 141 L 707 141 L 683 0 L 412 0 L 437 141 Z M 478 371 L 508 545 L 328 371 L 478 371 Z" unicode="₄" />
<glyph horiz-adv-x="1004" d="M 447 -4 C 369 -4 304 2 253 14 C 202 26 161 42 131 64 C 101 86 79 111 66 141 C 52 170 44 202 42 238 L 326 277 C 324 259 325 246 329 236 C 332 226 339 218 349 213 C 359 208 372 205 390 204 C 407 203 429 203 455 203 C 470 203 483 203 495 205 C 506 207 516 211 524 218 C 532 224 539 234 545 248 C 551 262 556 281 560 305 C 561 311 562 316 562 322 C 562 327 562 332 562 336 C 562 364 552 383 532 393 C 512 403 482 408 441 408 C 418 408 399 405 384 401 C 368 396 356 388 347 377 L 101 420 L 232 897 L 875 897 L 838 678 L 408 678 L 375 569 C 395 581 421 592 451 600 C 481 608 516 612 558 612 C 609 612 652 606 688 595 C 724 583 753 567 775 547 C 797 526 813 501 823 473 C 833 444 838 413 838 379 C 838 365 837 351 836 336 C 835 321 833 304 830 285 C 822 245 812 208 798 174 C 784 139 764 108 736 82 C 708 55 670 34 624 19 C 578 3 519 -4 447 -4 Z" unicode="₅" />
<glyph horiz-adv-x="1010" d="M 445 -4 C 381 -4 326 2 280 16 C 234 29 196 48 166 74 C 136 99 113 130 99 166 C 85 202 78 243 78 289 C 78 297 78 305 78 313 C 78 321 79 331 80 341 C 81 351 83 363 85 377 C 87 391 89 407 93 426 C 107 512 124 585 144 645 C 164 705 191 755 224 793 C 257 831 298 859 347 877 C 396 894 456 903 527 903 C 640 903 727 884 787 846 C 847 808 884 756 900 692 L 635 637 C 634 645 632 651 629 657 C 625 663 619 668 609 672 C 599 676 586 679 569 681 C 552 683 530 684 502 684 C 484 684 470 682 458 679 C 446 675 436 669 428 660 C 419 650 411 637 405 621 C 398 605 391 584 385 559 C 407 570 432 579 460 585 C 488 591 522 594 560 594 C 652 594 723 573 775 532 C 826 491 851 430 851 350 C 851 338 850 327 849 316 C 847 304 846 292 844 279 C 828 179 785 107 717 63 C 649 18 558 -4 445 -4 Z M 465 209 C 485 209 502 210 516 212 C 530 214 543 219 553 225 C 563 231 570 239 576 249 C 582 259 586 271 590 287 C 592 296 594 303 594 308 C 594 312 595 316 595 320 C 595 331 593 341 589 351 C 585 360 578 368 569 375 C 559 382 546 387 530 391 C 513 395 492 397 468 397 C 446 397 428 395 414 393 C 399 391 387 387 377 381 C 367 375 358 368 352 358 C 345 348 340 335 336 320 C 334 315 333 310 333 304 C 332 298 332 294 332 291 C 332 266 341 246 361 231 C 381 216 415 209 465 209 Z" unicode="₆" />
<glyph horiz-adv-x="926" d="M 494 637 L 111 637 L 156 897 L 863 897 L 822 666 L 392 0 L 80 0 L 494 637 Z" unicode="₇" />
<glyph horiz-adv-x="1044" d="M 445 -4 C 363 -4 295 3 242 19 C 189 35 148 56 119 82 C 89 108 70 137 62 171 C 54 205 53 240 60 277 C 78 383 136 457 236 498 C 200 520 176 547 165 579 C 154 611 152 646 160 684 C 166 718 177 748 195 775 C 213 802 237 825 267 844 C 297 863 334 878 378 888 C 422 898 473 903 531 903 C 609 903 673 895 723 880 C 773 865 813 845 841 821 C 869 797 887 769 896 737 C 904 705 906 673 900 639 C 891 593 876 556 855 528 C 833 500 802 479 760 465 C 803 436 832 402 847 362 C 861 322 865 279 857 233 C 849 193 836 158 816 128 C 796 98 770 73 737 54 C 703 34 662 20 614 10 C 566 0 509 -4 445 -4 Z M 463 178 C 481 178 498 179 514 182 C 529 185 542 190 554 198 C 565 206 574 216 582 230 C 589 244 595 261 599 283 C 601 300 601 315 599 329 C 596 343 589 354 579 364 C 568 373 553 380 533 385 C 513 390 489 393 459 393 C 419 393 388 385 367 370 C 346 355 332 329 326 291 C 318 249 327 220 351 203 C 375 186 413 178 463 178 Z M 527 567 C 557 567 581 572 599 582 C 616 592 627 611 633 639 C 635 651 635 661 633 671 C 631 681 627 689 619 696 C 611 703 599 709 583 713 C 567 717 547 719 523 719 C 487 719 461 713 447 703 C 432 692 422 674 418 649 C 412 622 418 602 434 588 C 450 574 481 567 527 567 Z" unicode="₈" />
<glyph horiz-adv-x="987" d="M 422 -4 C 308 -4 222 15 162 53 C 102 91 64 142 50 207 L 314 262 C 314 254 316 247 320 241 C 323 235 329 229 339 225 C 349 220 362 216 379 214 C 396 212 419 211 447 211 C 463 211 478 212 490 216 C 502 220 512 226 521 236 C 529 246 537 259 544 275 C 550 291 557 313 564 339 C 542 327 517 319 489 313 C 461 307 428 305 390 305 C 296 305 224 325 174 366 C 124 406 99 467 99 549 C 99 569 101 593 105 621 C 121 719 164 791 232 836 C 300 880 390 903 504 903 C 630 903 722 877 782 827 C 841 777 871 706 871 616 C 871 600 870 581 868 561 C 866 540 863 511 857 473 C 843 387 825 313 805 253 C 784 193 757 143 724 105 C 691 67 650 39 601 22 C 552 4 492 -4 422 -4 Z M 482 496 C 502 496 520 497 535 499 C 550 501 563 505 573 511 C 583 517 591 525 597 535 C 603 545 609 557 613 573 C 614 577 615 582 616 588 C 616 594 617 598 617 602 C 617 628 607 649 587 663 C 567 677 533 684 484 684 C 444 684 414 678 396 668 C 377 657 365 636 359 606 C 357 596 355 589 355 585 C 355 580 355 576 355 573 C 355 561 357 551 361 542 C 365 532 371 524 381 517 C 390 510 403 505 419 501 C 435 497 456 496 482 496 Z" unicode="₉" />
<glyph horiz-adv-x="348" d="" unicode=" " />
<glyph horiz-adv-x="641" d="M 78 213 L 236 881 L 496 881 L 416 213 L 379 0 L 41 0 L 78 213 Z M 266 1282 L 604 1282 L 551 975 L 213 975 L 266 1282 Z" unicode="¡" />
<glyph horiz-adv-x="1069" d="M 282 15 C 240 27 205 44 176 66 C 146 88 122 113 103 142 C 83 171 69 203 60 238 C 50 272 45 309 45 348 C 45 358 45 368 45 378 C 45 388 46 400 48 414 C 49 428 51 443 53 461 C 55 478 59 498 63 522 C 75 586 93 643 117 691 C 141 739 169 779 202 812 C 235 845 272 871 313 891 C 353 910 396 924 442 932 L 473 1106 L 766 1106 L 733 916 C 773 903 808 886 836 865 C 864 844 887 820 905 792 C 923 764 936 733 945 699 C 954 665 959 628 961 590 L 647 543 C 652 573 653 597 649 616 C 645 635 637 650 626 661 C 614 671 600 678 582 682 C 564 686 544 688 522 688 C 498 688 478 684 462 678 C 445 671 430 659 418 643 C 406 627 395 605 387 578 C 379 550 371 516 365 475 C 356 433 352 398 352 369 C 352 323 361 289 381 267 C 400 244 433 233 481 233 C 501 233 518 234 534 238 C 549 242 562 248 574 258 C 586 268 596 281 605 297 C 613 313 621 333 627 358 L 920 309 C 896 228 855 161 796 108 C 736 55 662 20 572 3 L 530 -236 L 238 -236 L 282 15 Z" unicode="¢" />
<glyph horiz-adv-x="1118" d="M 68 760 L 177 760 C 175 775 173 790 172 806 C 170 821 170 837 170 854 C 170 919 178 975 194 1023 C 210 1070 232 1110 259 1142 C 285 1174 316 1200 350 1220 C 384 1240 419 1255 455 1266 C 490 1276 525 1283 559 1287 C 593 1290 623 1292 649 1292 C 734 1292 806 1283 865 1265 C 924 1247 973 1224 1011 1196 C 1049 1167 1077 1135 1097 1100 C 1117 1064 1131 1029 1139 995 L 805 897 C 801 915 797 931 793 945 C 788 959 779 972 767 982 C 755 992 738 1000 716 1006 C 694 1011 664 1014 627 1014 C 601 1014 579 1010 562 1003 C 545 996 531 986 521 972 C 510 958 502 942 498 922 C 494 902 492 879 492 854 C 492 838 492 823 494 807 C 495 791 497 775 500 760 L 922 760 L 879 508 L 527 508 C 523 462 514 420 499 382 C 484 344 462 311 433 281 L 1008 281 L 958 0 L -25 0 L 14 219 C 50 239 81 260 105 284 C 129 308 149 332 164 357 C 178 382 189 407 195 433 C 201 459 204 484 206 508 L 25 508 L 68 760 Z" unicode="£" />
<glyph horiz-adv-x="1153" d="M 100 690 L 391 690 L 98 1282 L 428 1282 L 616 897 L 944 1282 L 1284 1282 L 781 690 L 1073 690 L 1032 459 L 710 459 L 697 387 L 1020 387 L 979 156 L 656 156 L 629 0 L 301 0 L 328 156 L 6 156 L 47 387 L 369 387 L 382 459 L 59 459 L 100 690 Z" unicode="¥" />
<glyph horiz-adv-x="635" d="M 154 1282 L 481 1282 L 481 592 L 154 592 L 154 1282 Z M 154 326 L 481 326 L 481 -365 L 154 -365 L 154 326 Z" unicode="¦" />
<glyph horiz-adv-x="1006" d="M 453 -8 C 370 -8 300 -1 244 10 C 187 22 140 39 104 61 C 67 83 39 108 21 138 C 3 168 -8 200 -14 236 L 309 315 C 309 300 311 287 313 276 C 315 264 320 255 330 248 C 339 240 353 235 373 231 C 392 227 419 225 455 225 C 490 225 514 229 527 238 C 540 246 547 261 547 283 C 547 289 545 295 542 300 C 538 305 532 310 523 314 C 513 318 500 323 483 328 C 465 332 442 338 414 346 C 359 360 311 374 270 390 C 229 405 195 422 168 442 C 140 461 120 483 106 509 C 92 534 86 564 86 598 C 86 644 95 683 114 715 C 133 747 165 775 209 801 C 192 814 179 835 171 863 C 162 891 158 922 158 954 C 158 990 164 1028 178 1067 C 191 1105 214 1141 246 1173 C 278 1205 320 1231 373 1251 C 426 1271 493 1282 573 1282 C 649 1282 713 1275 765 1263 C 817 1250 859 1232 892 1210 C 924 1188 948 1161 964 1131 C 980 1101 990 1068 995 1034 L 682 944 C 682 958 681 970 679 981 C 677 992 671 1001 663 1008 C 654 1015 641 1020 624 1024 C 607 1028 585 1030 557 1030 C 524 1030 502 1025 491 1015 C 480 1005 475 993 475 979 C 475 971 476 964 480 959 C 483 953 490 948 501 943 C 511 937 527 932 547 926 C 567 920 595 912 629 903 C 675 890 718 877 756 864 C 794 850 827 835 855 817 C 882 799 903 777 918 753 C 932 729 940 700 940 666 C 940 636 936 610 930 589 C 924 568 915 550 905 536 C 894 522 881 510 867 501 C 853 491 838 483 823 475 C 837 463 848 445 855 422 C 862 398 866 372 866 344 C 866 293 859 249 846 212 C 832 175 815 144 793 118 C 771 92 745 70 717 54 C 689 38 659 25 629 16 C 598 6 567 0 537 -3 C 507 -6 479 -8 453 -8 Z M 494 567 C 511 563 528 561 545 559 C 561 557 576 558 590 560 C 603 562 614 568 622 576 C 630 584 635 596 635 614 C 635 627 627 640 613 654 C 598 667 570 678 528 688 C 514 690 500 693 484 696 C 468 699 454 700 440 698 C 426 696 415 690 406 682 C 397 673 393 659 393 639 C 393 624 400 610 416 598 C 432 586 458 575 494 567 Z" unicode="§" />
<glyph horiz-adv-x="1147" d="M 352 1257 L 637 1257 L 594 1008 L 309 1008 L 352 1257 Z M 733 1257 L 1018 1257 L 975 1008 L 690 1008 L 733 1257 Z" unicode="¨" />
<glyph horiz-adv-x="1497" d="M 741 227 C 674 227 618 236 574 256 C 529 275 493 302 466 336 C 439 370 420 410 408 457 C 396 503 391 554 391 610 L 391 655 C 391 711 396 763 407 810 C 418 857 438 898 466 932 C 494 966 531 992 579 1011 C 627 1030 687 1040 760 1040 C 814 1040 861 1034 902 1023 C 942 1012 977 995 1005 972 C 1033 948 1056 918 1072 881 C 1088 844 1098 800 1104 748 L 885 715 C 883 763 872 799 852 825 C 832 851 800 864 756 864 C 697 864 656 846 633 811 C 609 776 598 724 598 655 L 598 608 C 598 572 600 541 605 515 C 610 489 619 467 631 451 C 643 434 660 422 681 414 C 701 406 727 403 758 403 C 782 403 803 405 820 411 C 837 417 851 426 861 440 C 871 453 879 470 885 492 C 890 514 893 541 895 573 L 1112 543 C 1104 493 1092 449 1076 410 C 1060 371 1038 338 1010 311 C 981 283 945 262 901 248 C 857 234 804 227 741 227 Z M 748 -8 C 662 -8 585 0 519 15 C 453 30 395 52 347 80 C 298 108 257 142 224 182 C 190 221 164 264 144 312 C 124 360 109 411 101 466 C 92 520 88 577 88 637 C 88 696 92 753 101 808 C 109 863 124 914 144 962 C 164 1010 190 1053 224 1093 C 257 1132 298 1166 347 1194 C 395 1222 453 1243 519 1259 C 585 1274 662 1282 748 1282 C 834 1282 911 1274 977 1259 C 1043 1243 1101 1222 1150 1194 C 1199 1166 1240 1132 1273 1093 C 1306 1053 1333 1010 1353 962 C 1373 914 1387 863 1396 808 C 1404 753 1409 696 1409 637 C 1409 578 1404 521 1396 466 C 1387 411 1373 360 1353 312 C 1333 264 1306 221 1273 182 C 1240 142 1199 108 1150 80 C 1101 52 1043 30 977 15 C 911 0 834 -8 748 -8 Z M 748 152 C 845 152 925 162 988 184 C 1051 205 1101 236 1137 278 C 1173 319 1199 370 1213 430 C 1227 490 1235 559 1235 637 C 1235 715 1227 784 1213 844 C 1199 904 1173 955 1137 996 C 1101 1037 1051 1068 988 1090 C 925 1111 845 1122 748 1122 C 650 1122 570 1111 508 1090 C 445 1068 395 1037 359 996 C 323 955 297 904 283 844 C 269 784 262 715 262 637 C 262 559 269 490 283 430 C 297 370 323 319 359 278 C 395 236 445 205 508 184 C 570 162 650 152 748 152 Z" unicode="©" />
<glyph horiz-adv-x="895" d="M 315 475 C 269 475 230 481 199 494 C 167 507 143 525 125 548 C 107 571 95 598 90 630 C 84 661 85 695 92 733 C 99 773 114 809 136 841 C 158 873 190 902 232 926 C 273 950 325 971 387 988 C 449 1005 524 1019 612 1029 C 615 1046 610 1059 597 1067 C 583 1075 558 1079 520 1079 C 496 1079 473 1074 451 1066 C 429 1058 412 1043 401 1022 L 162 1102 C 176 1124 194 1146 217 1169 C 239 1191 266 1212 297 1230 C 328 1248 364 1262 405 1274 C 445 1286 491 1292 541 1292 C 611 1292 668 1285 714 1273 C 760 1260 795 1241 821 1217 C 846 1193 862 1163 869 1128 C 876 1092 876 1052 868 1008 L 776 483 L 518 483 L 530 555 C 514 542 498 531 482 521 C 466 511 450 502 433 496 C 416 489 398 484 379 480 C 360 476 339 475 315 475 Z M 449 674 C 487 674 514 682 532 700 C 550 718 561 741 567 770 L 581 849 C 539 841 505 833 478 826 C 450 818 428 810 412 802 C 396 794 384 785 376 776 C 368 766 364 756 362 745 C 358 723 363 706 376 693 C 388 680 413 674 449 674 Z" unicode="ª" />
<glyph horiz-adv-x="1016" d="M -10 465 L 299 926 L 602 926 L 293 465 L 438 0 L 135 0 L -10 465 Z M 434 465 L 743 926 L 1047 926 L 737 465 L 883 0 L 580 0 L 434 465 Z" unicode="«" />
<glyph horiz-adv-x="1346" d="M 94 864 L 272 864 C 294 942 321 1009 355 1064 C 389 1118 428 1162 473 1196 C 517 1230 567 1254 623 1269 C 679 1284 740 1292 807 1292 C 905 1292 987 1283 1053 1266 C 1119 1249 1172 1225 1213 1193 C 1253 1161 1282 1122 1300 1076 C 1317 1030 1326 978 1327 920 L 985 872 C 985 898 983 921 978 940 C 972 958 963 973 949 985 C 935 996 916 1004 892 1010 C 868 1015 839 1018 803 1018 C 777 1018 753 1015 733 1009 C 713 1003 695 994 679 982 C 663 970 648 954 636 935 C 624 915 613 892 603 864 L 872 864 L 840 674 L 555 674 L 542 602 L 827 602 L 793 412 L 531 412 C 538 362 556 325 586 299 C 616 273 660 260 719 260 C 751 260 778 264 800 272 C 822 280 841 293 857 310 C 873 327 886 349 897 376 C 908 402 918 434 928 471 L 1247 424 C 1229 356 1204 296 1173 243 C 1142 189 1104 144 1058 107 C 1012 70 960 42 900 22 C 840 2 772 -8 696 -8 C 612 -8 540 2 480 22 C 420 42 371 70 333 107 C 294 143 265 187 246 239 C 226 291 215 348 212 412 L 14 412 L 49 602 L 222 602 L 233 674 L 61 674 L 94 864 Z" unicode="€" />
<glyph horiz-adv-x="682" d="M 41 700 L 666 700 L 618 428 L -6 428 L 41 700 Z" unicode="­" />
<glyph horiz-adv-x="1497" d="M 748 -8 C 662 -8 585 0 519 15 C 453 30 395 52 347 80 C 298 108 257 142 224 182 C 190 221 164 264 144 312 C 124 360 109 411 101 466 C 92 520 88 577 88 637 C 88 696 92 753 101 808 C 109 863 124 914 144 962 C 164 1010 190 1053 224 1093 C 257 1132 298 1166 347 1194 C 395 1222 453 1243 519 1259 C 585 1274 662 1282 748 1282 C 834 1282 911 1274 977 1259 C 1043 1243 1101 1222 1150 1194 C 1199 1166 1240 1132 1273 1093 C 1306 1053 1333 1010 1353 962 C 1373 914 1387 863 1396 808 C 1404 753 1409 696 1409 637 C 1409 578 1404 521 1396 466 C 1387 411 1373 360 1353 312 C 1333 264 1306 221 1273 182 C 1240 142 1199 108 1150 80 C 1101 52 1043 30 977 15 C 911 0 834 -8 748 -8 Z M 748 152 C 845 152 925 162 988 184 C 1051 205 1101 236 1137 278 C 1173 319 1199 370 1213 430 C 1227 490 1235 559 1235 637 C 1235 715 1227 784 1213 844 C 1199 904 1173 955 1137 996 C 1101 1037 1051 1068 988 1090 C 925 1111 845 1122 748 1122 C 650 1122 570 1111 508 1090 C 445 1068 395 1037 359 996 C 323 955 297 904 283 844 C 269 784 262 715 262 637 C 262 559 269 490 283 430 C 297 370 323 319 359 278 C 395 236 445 205 508 184 C 570 162 650 152 748 152 Z M 751 535 L 639 535 L 639 276 L 453 276 L 453 1004 L 788 1004 C 820 1004 853 1001 885 996 C 917 991 947 980 973 964 C 999 948 1020 924 1036 894 C 1052 863 1061 822 1061 772 C 1061 743 1057 717 1051 695 C 1045 673 1036 653 1025 636 C 1013 619 1000 605 985 593 C 969 581 953 572 936 564 L 1073 276 L 874 276 L 751 535 Z M 760 684 C 799 684 828 689 846 699 C 864 709 874 732 874 766 C 874 798 864 820 846 832 C 828 844 799 850 760 850 L 639 850 L 639 684 L 760 684 Z" unicode="®" />
<glyph horiz-adv-x="1147" d="M 338 1239 L 1028 1239 L 987 1008 L 297 1008 L 338 1239 Z" unicode="¯" />
<glyph horiz-adv-x="926" d="M 461 475 C 399 475 347 483 303 501 C 259 518 222 542 193 572 C 164 602 143 637 129 677 C 115 717 109 759 109 805 C 109 812 109 819 109 827 C 109 835 110 844 111 854 C 112 864 114 875 116 888 C 118 901 121 917 125 936 C 135 991 150 1041 172 1085 C 193 1129 220 1166 254 1197 C 287 1227 327 1251 374 1267 C 421 1283 475 1292 537 1292 C 606 1292 664 1283 712 1266 C 760 1249 798 1226 827 1197 C 856 1167 877 1133 890 1095 C 902 1056 909 1015 909 973 C 909 965 908 956 908 947 C 907 938 906 928 905 917 C 903 906 901 893 899 879 C 897 864 894 847 891 827 C 881 773 864 725 842 682 C 819 638 790 601 754 571 C 718 540 675 516 626 500 C 577 483 522 475 461 475 Z M 485 696 C 503 696 519 698 534 703 C 549 707 563 716 575 729 C 587 742 597 760 607 782 C 616 804 624 834 631 870 C 634 886 636 901 637 915 C 638 929 639 942 639 954 C 639 994 630 1022 613 1040 C 596 1058 567 1067 526 1067 C 507 1067 490 1064 476 1059 C 461 1054 448 1045 437 1032 C 426 1018 416 1000 408 977 C 399 954 391 925 385 889 C 381 873 379 859 378 847 C 377 834 377 822 377 811 C 377 771 385 741 403 723 C 421 705 448 696 485 696 Z" unicode="°" />
<glyph horiz-adv-x="1071" d="M 70 272 L 377 272 L 377 500 L 70 500 L 70 772 L 377 772 L 377 1059 L 694 1059 L 694 772 L 1001 772 L 1001 500 L 694 500 L 694 272 L 1001 272 L 1001 0 L 70 0 L 70 272 Z" unicode="±" />
<glyph horiz-adv-x="993" d="M 92 510 C 101 562 116 607 136 646 C 156 684 183 719 217 749 C 250 779 291 807 339 832 C 387 856 443 881 508 905 C 542 917 568 927 588 937 C 608 946 623 955 634 963 C 644 971 651 979 654 987 C 657 995 659 1005 659 1016 C 659 1022 657 1028 654 1034 C 651 1039 646 1044 639 1048 C 631 1052 621 1055 609 1057 C 596 1059 580 1061 561 1061 C 527 1061 502 1052 486 1035 C 469 1017 457 995 449 969 L 180 1008 C 196 1054 217 1094 244 1129 C 270 1164 301 1193 336 1217 C 371 1240 410 1258 452 1270 C 494 1282 538 1288 586 1288 C 642 1288 691 1283 735 1275 C 779 1267 816 1254 846 1236 C 876 1218 900 1195 916 1167 C 932 1139 940 1105 940 1067 C 940 1017 933 975 919 941 C 905 906 885 876 859 850 C 833 824 800 802 762 783 C 724 763 680 745 631 727 C 589 712 556 699 531 689 C 505 678 485 668 470 660 C 454 652 443 644 435 637 C 427 629 421 622 416 614 L 860 614 L 819 385 L 70 385 L 92 510 Z" unicode="²" />
<glyph horiz-adv-x="1001" d="M 463 381 C 346 381 258 403 198 449 C 138 495 106 561 102 649 L 383 684 C 380 664 380 648 384 636 C 388 623 395 613 406 606 C 416 599 431 594 449 592 C 467 589 489 588 516 588 C 530 588 542 588 553 590 C 564 592 574 596 582 602 C 590 608 596 616 602 628 C 608 639 612 654 616 674 C 621 702 615 723 599 738 C 582 752 549 760 500 760 L 362 760 L 397 954 L 565 954 C 580 954 593 954 603 955 C 613 955 622 957 629 961 C 636 965 641 970 645 978 C 649 986 652 996 655 1010 C 659 1033 653 1049 637 1059 C 621 1068 594 1073 557 1073 C 523 1073 498 1069 482 1063 C 466 1057 453 1044 444 1026 L 188 1071 C 204 1104 223 1134 247 1161 C 271 1187 299 1210 332 1229 C 364 1248 402 1263 444 1273 C 486 1283 534 1288 588 1288 C 662 1288 722 1282 770 1270 C 817 1258 854 1242 880 1221 C 906 1200 923 1175 931 1146 C 939 1117 940 1085 934 1051 C 929 1025 923 1003 915 984 C 907 964 898 947 887 933 C 875 918 861 905 845 895 C 829 885 810 876 788 868 C 825 854 853 831 872 797 C 890 763 895 717 885 659 C 877 611 863 570 844 535 C 824 499 798 470 764 447 C 730 423 689 406 640 395 C 590 384 531 379 463 381 Z" unicode="³" />
<glyph horiz-adv-x="1147" d="M 743 1262 L 1104 1262 L 762 1008 L 428 1008 L 743 1262 Z" unicode="´" />
<glyph horiz-adv-x="1022" d="M 143 926 L 449 926 L 348 354 C 345 338 344 324 346 311 C 347 298 351 287 358 278 C 365 268 375 261 389 256 C 403 250 421 248 444 248 C 461 248 477 249 492 253 C 507 257 521 264 533 275 C 545 286 555 302 565 323 C 574 343 582 371 588 406 L 680 926 L 985 926 L 821 0 L 516 0 L 530 82 C 497 56 461 38 423 27 C 384 15 340 10 291 10 L 287 10 L 221 -365 L -84 -365 L 143 926 Z" unicode="µ" />
<glyph horiz-adv-x="1167" d="M 338 690 C 268 705 215 732 178 770 C 141 808 123 860 123 926 C 123 1000 133 1060 155 1106 C 177 1152 206 1189 244 1215 C 281 1241 325 1258 376 1268 C 426 1277 481 1282 539 1282 L 1174 1282 L 948 0 L 621 0 L 739 676 L 664 676 L 545 0 L 217 0 L 338 690 Z" unicode="¶" />
<glyph horiz-adv-x="518" d="M 131 854 L 469 854 L 410 522 L 72 522 L 131 854 Z" unicode="·" />
<glyph horiz-adv-x="1147" d="M 451 -399 C 365 -399 298 -389 250 -369 C 201 -349 173 -319 166 -279 L 352 -217 C 353 -227 355 -236 358 -244 C 361 -251 365 -257 371 -261 C 377 -265 384 -269 394 -271 C 404 -273 416 -274 432 -274 C 460 -274 481 -269 493 -260 C 505 -251 512 -234 512 -209 C 512 -190 507 -176 497 -168 C 487 -160 469 -156 444 -156 C 432 -156 419 -157 405 -160 C 391 -162 380 -166 371 -170 L 258 -117 L 373 41 L 549 41 L 485 -51 C 493 -49 502 -48 511 -48 C 519 -47 528 -47 537 -47 C 557 -47 578 -49 598 -53 C 618 -57 635 -65 651 -75 C 666 -85 678 -98 688 -114 C 697 -130 702 -151 702 -176 C 702 -216 696 -250 685 -278 C 673 -306 657 -329 636 -347 C 614 -365 588 -378 557 -386 C 526 -394 491 -399 451 -399 Z" unicode="¸" />
<glyph horiz-adv-x="811" d="M 391 1022 L 203 1022 L 248 1282 L 727 1282 L 569 385 L 279 385 L 391 1022 Z" unicode="¹" />
<glyph horiz-adv-x="926" d="M 457 475 C 395 475 343 484 299 502 C 255 520 219 544 191 575 C 163 605 142 641 129 681 C 115 721 109 764 109 809 C 109 816 109 823 110 831 C 110 839 111 848 112 858 C 113 868 115 879 117 892 C 119 905 121 921 125 940 C 134 994 149 1042 170 1086 C 191 1129 218 1166 252 1196 C 286 1226 326 1250 373 1267 C 419 1283 473 1292 535 1292 C 605 1292 663 1283 711 1267 C 759 1251 797 1229 827 1201 C 856 1173 877 1140 890 1102 C 902 1064 909 1023 909 981 C 909 973 908 964 908 955 C 907 946 906 936 905 925 C 903 913 901 900 899 886 C 897 871 894 854 891 834 C 881 780 866 732 844 688 C 822 644 793 606 757 574 C 721 542 678 518 628 501 C 578 483 521 475 457 475 Z M 485 696 C 503 696 519 698 534 704 C 549 709 563 718 575 732 C 587 746 598 764 608 788 C 617 811 625 841 631 877 C 634 894 636 910 637 924 C 638 938 639 952 639 965 C 639 1003 630 1029 613 1044 C 596 1059 568 1067 528 1067 C 508 1067 491 1064 477 1059 C 462 1053 449 1044 438 1030 C 426 1016 416 998 408 975 C 399 952 391 923 385 887 C 381 871 379 857 378 844 C 377 830 377 818 377 807 C 377 767 385 739 403 722 C 421 704 448 696 485 696 Z" unicode="º" />
<glyph horiz-adv-x="1016" d="M 221 461 L 76 926 L 379 926 L 524 461 L 215 0 L -88 0 L 221 461 Z M 666 461 L 520 926 L 823 926 L 969 461 L 659 0 L 356 0 L 666 461 Z" unicode="»" />
<glyph horiz-adv-x="1890" d="M 1378 141 L 946 141 L 987 375 L 1503 897 L 1782 897 L 1690 375 L 1831 375 L 1790 141 L 1649 141 L 1624 0 L 1354 0 L 1378 141 Z M 330 1022 L 141 1022 L 186 1282 L 666 1282 L 508 385 L 217 385 L 330 1022 Z M 1151 1282 L 1438 1282 L 649 0 L 362 0 L 1151 1282 Z M 1419 371 L 1450 545 L 1270 371 L 1419 371 Z" unicode="¼" />
<glyph horiz-adv-x="1948" d="M 1040 125 C 1049 177 1064 222 1084 261 C 1104 299 1131 334 1165 364 C 1198 394 1239 422 1287 447 C 1335 471 1391 496 1456 520 C 1490 532 1517 542 1537 552 C 1557 561 1572 570 1582 578 C 1592 586 1599 594 1603 602 C 1606 610 1608 620 1608 631 C 1608 637 1606 643 1603 649 C 1600 654 1595 659 1587 663 C 1579 667 1569 670 1557 672 C 1544 674 1528 676 1509 676 C 1475 676 1450 667 1434 650 C 1417 632 1405 610 1397 584 L 1128 623 C 1144 669 1165 709 1192 744 C 1218 779 1249 808 1284 832 C 1319 855 1358 873 1400 885 C 1442 897 1486 903 1534 903 C 1590 903 1639 898 1683 890 C 1727 882 1764 869 1794 851 C 1824 833 1848 810 1864 782 C 1880 754 1888 720 1888 682 C 1888 632 1881 590 1867 556 C 1853 521 1834 491 1808 465 C 1782 439 1749 417 1711 398 C 1673 378 1629 360 1579 342 C 1537 327 1504 314 1479 304 C 1453 293 1433 283 1418 275 C 1402 267 1391 259 1383 252 C 1375 244 1369 237 1364 229 L 1808 229 L 1767 0 L 1018 0 L 1040 125 Z M 330 1022 L 141 1022 L 186 1282 L 666 1282 L 508 385 L 217 385 L 330 1022 Z M 1151 1282 L 1438 1282 L 649 0 L 362 0 L 1151 1282 Z" unicode="½" />
<glyph horiz-adv-x="2060" d="M 401 381 C 285 381 197 403 137 449 C 77 495 45 561 41 649 L 322 684 C 319 664 319 648 323 636 C 326 623 333 613 344 606 C 354 599 369 594 387 592 C 405 589 428 588 455 588 C 469 588 481 588 492 590 C 503 592 513 596 521 602 C 529 608 535 616 541 628 C 547 639 551 654 555 674 C 557 688 557 700 555 711 C 552 721 546 730 537 738 C 528 745 515 750 499 754 C 483 758 462 760 438 760 L 301 760 L 336 954 L 504 954 C 519 954 532 954 542 955 C 552 955 561 957 568 961 C 574 965 580 970 584 978 C 588 986 591 996 594 1010 C 598 1033 591 1049 575 1059 C 559 1068 532 1073 496 1073 C 462 1073 436 1069 420 1063 C 404 1057 391 1044 383 1026 L 127 1071 C 143 1104 162 1134 186 1161 C 209 1187 237 1210 270 1229 C 302 1248 340 1263 382 1273 C 424 1283 472 1288 526 1288 C 600 1288 660 1282 708 1270 C 755 1258 792 1242 819 1221 C 845 1200 862 1175 870 1146 C 877 1117 878 1085 872 1051 C 867 1025 861 1003 854 984 C 846 964 837 947 825 933 C 813 918 800 905 784 895 C 768 885 749 876 727 868 C 745 861 762 852 776 840 C 790 828 802 814 811 797 C 819 779 825 759 827 736 C 829 713 828 687 823 659 C 815 611 801 570 782 535 C 762 499 736 470 703 447 C 669 423 628 406 578 395 C 528 384 469 379 401 381 Z M 1548 141 L 1116 141 L 1157 375 L 1673 897 L 1952 897 L 1860 375 L 2001 375 L 1960 141 L 1819 141 L 1794 0 L 1524 0 L 1548 141 Z M 1321 1282 L 1608 1282 L 819 0 L 532 0 L 1321 1282 Z M 1589 371 L 1620 545 L 1440 371 L 1589 371 Z" unicode="¾" />
<glyph horiz-adv-x="1071" d="M 469 -10 C 395 -10 328 -4 268 8 C 208 20 157 38 115 64 C 73 89 40 121 18 161 C -4 201 -16 249 -16 305 C -16 365 -7 416 10 458 C 28 500 50 537 77 567 C 104 597 134 622 167 643 C 200 663 232 682 262 700 C 280 710 296 720 312 730 C 328 740 342 750 354 760 C 366 770 377 782 385 794 C 393 806 398 819 401 834 L 410 881 L 735 881 L 729 838 C 722 790 710 748 693 714 C 676 680 656 650 634 626 C 612 601 588 580 562 564 C 536 547 510 532 485 518 C 463 506 442 494 422 484 C 402 473 384 461 369 448 C 353 435 341 421 332 405 C 323 389 319 370 319 348 C 319 336 321 326 326 316 C 330 306 339 298 352 291 C 364 283 382 278 404 274 C 426 270 454 268 489 268 C 540 268 580 278 609 299 C 638 319 660 349 676 387 L 999 346 C 981 292 955 244 922 200 C 888 156 849 119 804 88 C 758 56 707 32 651 15 C 594 -1 533 -10 469 -10 Z M 471 1282 L 809 1282 L 756 975 L 418 975 L 471 1282 Z" unicode="¿" />
<glyph horiz-adv-x="1198" d="M 549 1292 L 879 1292 L 1081 0 L 760 0 L 727 209 L 329 209 L 223 0 L -104 0 L 549 1292 Z M 459 467 L 686 467 L 633 809 L 459 467 Z M 304 1597 L 649 1597 L 874 1343 L 556 1343 L 304 1597 Z" unicode="À" />
<glyph horiz-adv-x="1198" d="M 549 1292 L 879 1292 L 1081 0 L 760 0 L 727 209 L 329 209 L 223 0 L -104 0 L 549 1292 Z M 459 467 L 686 467 L 633 809 L 459 467 Z M 869 1597 L 1230 1597 L 888 1343 L 554 1343 L 869 1597 Z" unicode="Á" />
<glyph horiz-adv-x="1198" d="M 549 1292 L 879 1292 L 1081 0 L 760 0 L 727 209 L 329 209 L 223 0 L -104 0 L 549 1292 Z M 459 467 L 686 467 L 633 809 L 459 467 Z M 593 1597 L 947 1597 L 1111 1343 L 810 1343 L 740 1431 L 644 1343 L 339 1343 L 593 1597 Z" unicode="Â" />
<glyph horiz-adv-x="1198" d="M 549 1292 L 879 1292 L 1081 0 L 760 0 L 727 209 L 329 209 L 223 0 L -104 0 L 549 1292 Z M 459 467 L 686 467 L 633 809 L 459 467 Z M 351 1375 C 359 1409 369 1442 383 1473 C 396 1504 412 1531 432 1554 C 451 1577 473 1595 499 1609 C 524 1622 553 1629 585 1629 C 618 1629 648 1625 676 1619 C 703 1612 728 1605 751 1597 C 773 1589 793 1582 811 1576 C 828 1569 843 1566 857 1566 C 872 1566 886 1570 899 1580 C 912 1590 921 1606 925 1629 L 1152 1597 C 1144 1566 1134 1535 1122 1505 C 1110 1475 1096 1448 1078 1424 C 1060 1400 1038 1380 1013 1365 C 987 1350 957 1343 921 1343 C 886 1343 854 1346 826 1353 C 798 1359 772 1366 749 1374 C 726 1382 706 1389 688 1396 C 670 1402 656 1406 644 1406 C 624 1406 609 1402 599 1395 C 589 1387 581 1370 575 1343 L 351 1375 Z" unicode="Ã" />
<glyph horiz-adv-x="1198" d="M 549 1292 L 879 1292 L 1081 0 L 760 0 L 727 209 L 329 209 L 223 0 L -104 0 L 549 1292 Z M 459 467 L 686 467 L 633 809 L 459 467 Z M 435 1592 L 720 1592 L 677 1343 L 392 1343 L 435 1592 Z M 816 1592 L 1101 1592 L 1058 1343 L 773 1343 L 816 1592 Z" unicode="Ä" />
<glyph horiz-adv-x="1198" d="M 1081 0 L 760 0 L 727 209 L 329 209 L 223 0 L -104 0 L 523 1241 C 511 1254 503 1268 499 1284 C 492 1304 489 1325 489 1347 C 489 1377 493 1406 501 1436 C 509 1465 523 1491 543 1515 C 563 1539 588 1558 620 1572 C 652 1586 691 1594 739 1594 C 781 1594 816 1589 844 1579 C 872 1569 894 1557 911 1541 C 927 1525 939 1506 946 1486 C 952 1465 956 1444 956 1422 C 956 1392 951 1362 943 1333 C 934 1303 920 1277 900 1254 C 896 1249 891 1244 887 1240 L 1081 0 Z M 459 467 L 686 467 L 633 809 L 459 467 Z M 717 1302 C 740 1302 760 1309 778 1325 C 796 1341 805 1366 805 1402 C 805 1423 798 1439 785 1451 C 772 1463 754 1469 731 1469 C 706 1469 685 1461 667 1447 C 649 1432 641 1407 641 1371 C 641 1349 647 1332 660 1320 C 673 1308 692 1302 717 1302 Z" unicode="Å" />
<glyph horiz-adv-x="1786" d="M 743 1282 L 1821 1282 L 1772 999 L 1194 999 L 1165 827 L 1681 827 L 1630 549 L 1114 549 L 1067 281 L 1645 281 L 1595 0 L 690 0 L 723 188 L 334 188 L 205 0 L -135 0 L 743 1282 Z M 765 426 L 857 952 L 497 426 L 765 426 Z" unicode="Æ" />
<glyph horiz-adv-x="1153" d="M 311 27 L -37 27 L 12 299 L 360 299 L 416 621 L 68 621 L 117 893 L 465 893 L 532 1282 L 850 1282 L 782 893 L 1130 893 L 1081 621 L 733 621 L 678 299 L 1026 299 L 977 27 L 629 27 L 561 -362 L 244 -362 L 311 27 Z" unicode="‡" />
<glyph horiz-adv-x="1094" d="M 223 1282 L 1128 1282 L 1079 999 L 502 999 L 473 827 L 987 827 L 938 549 L 422 549 L 375 281 L 952 281 L 903 0 L -2 0 L 223 1282 Z M 308 1597 L 653 1597 L 878 1343 L 560 1343 L 308 1597 Z" unicode="È" />
<glyph horiz-adv-x="1094" d="M 223 1282 L 1128 1282 L 1079 999 L 502 999 L 473 827 L 987 827 L 938 549 L 422 549 L 375 281 L 952 281 L 903 0 L -2 0 L 223 1282 Z M 775 1597 L 1136 1597 L 794 1343 L 460 1343 L 775 1597 Z" unicode="É" />
<glyph horiz-adv-x="1094" d="M 223 1282 L 1128 1282 L 1079 999 L 502 999 L 473 827 L 987 827 L 938 549 L 422 549 L 375 281 L 952 281 L 903 0 L -2 0 L 223 1282 Z M 542 1597 L 896 1597 L 1060 1343 L 759 1343 L 689 1431 L 593 1343 L 288 1343 L 542 1597 Z" unicode="Ê" />
<glyph horiz-adv-x="1094" d="M 223 1282 L 1128 1282 L 1079 999 L 502 999 L 473 827 L 987 827 L 938 549 L 422 549 L 375 281 L 952 281 L 903 0 L -2 0 L 223 1282 Z M 384 1592 L 669 1592 L 626 1343 L 341 1343 L 384 1592 Z M 765 1592 L 1050 1592 L 1007 1343 L 722 1343 L 765 1592 Z" unicode="Ë" />
<glyph horiz-adv-x="553" d="M 227 1282 L 555 1282 L 330 0 L 2 0 L 227 1282 Z M -18 1597 L 327 1597 L 552 1343 L 234 1343 L -18 1597 Z" unicode="Ì" />
<glyph horiz-adv-x="553" d="M 227 1282 L 555 1282 L 330 0 L 2 0 L 227 1282 Z M 547 1597 L 908 1597 L 566 1343 L 232 1343 L 547 1597 Z" unicode="Í" />
<glyph horiz-adv-x="553" d="M 227 1282 L 555 1282 L 330 0 L 2 0 L 227 1282 Z M 273 1597 L 627 1597 L 791 1343 L 490 1343 L 420 1431 L 324 1343 L 19 1343 L 273 1597 Z" unicode="Î" />
<glyph horiz-adv-x="553" d="M 227 1282 L 555 1282 L 330 0 L 2 0 L 227 1282 Z M 115 1592 L 400 1592 L 357 1343 L 72 1343 L 115 1592 Z M 496 1592 L 781 1592 L 738 1343 L 453 1343 L 496 1592 Z" unicode="Ï" />
<glyph horiz-adv-x="1204" d="M 29 793 L 137 793 L 223 1282 L 629 1282 C 733 1282 821 1271 893 1251 C 964 1230 1021 1200 1065 1162 C 1109 1123 1140 1076 1159 1021 C 1178 966 1188 904 1188 836 C 1188 820 1187 804 1186 787 C 1185 770 1183 751 1181 729 C 1178 707 1174 682 1170 654 C 1165 626 1159 593 1153 555 C 1137 467 1112 388 1080 320 C 1048 251 1006 193 955 145 C 904 97 844 61 774 37 C 704 12 625 0 535 0 L -2 0 L 89 520 L -18 520 L 29 793 Z M 535 266 C 583 266 624 273 657 288 C 689 302 716 323 738 351 C 759 379 776 412 789 452 C 802 491 813 536 823 586 C 829 618 833 645 837 667 C 841 689 844 707 846 723 C 848 739 849 752 850 763 C 851 773 852 783 852 793 C 852 867 832 922 793 957 C 754 992 692 1010 606 1010 L 504 1010 L 465 793 L 633 793 L 586 520 L 417 520 L 373 266 L 535 266 Z" unicode="Ð" />
<glyph horiz-adv-x="1268" d="M 223 1282 L 602 1282 L 840 608 L 958 1282 L 1274 1282 L 1049 0 L 725 0 L 449 770 L 313 0 L -2 0 L 223 1282 Z M 386 1375 C 394 1409 404 1442 418 1473 C 431 1504 447 1531 467 1554 C 486 1577 508 1595 534 1609 C 559 1622 588 1629 620 1629 C 653 1629 683 1625 711 1619 C 738 1612 763 1605 786 1597 C 808 1589 828 1582 846 1576 C 863 1569 878 1566 892 1566 C 907 1566 921 1570 934 1580 C 947 1590 956 1606 960 1629 L 1187 1597 C 1179 1566 1169 1535 1157 1505 C 1145 1475 1131 1448 1113 1424 C 1095 1400 1073 1380 1048 1365 C 1022 1350 992 1343 956 1343 C 921 1343 889 1346 861 1353 C 833 1359 807 1366 784 1374 C 761 1382 741 1389 723 1396 C 705 1402 691 1406 679 1406 C 659 1406 644 1402 634 1395 C 624 1387 616 1370 610 1343 L 386 1375 Z" unicode="Ñ" />
<glyph horiz-adv-x="1251" d="M 555 -8 C 455 -8 371 5 304 32 C 237 59 183 95 142 141 C 101 186 72 239 55 299 C 37 359 29 421 29 487 C 29 500 29 514 30 528 C 30 542 32 559 34 577 C 36 595 38 616 42 640 C 45 663 49 691 55 723 C 69 803 91 878 119 948 C 147 1018 186 1078 235 1129 C 284 1179 345 1219 418 1248 C 490 1277 578 1292 682 1292 C 789 1292 878 1279 949 1254 C 1020 1228 1077 1194 1119 1151 C 1161 1108 1190 1058 1207 1001 C 1224 944 1233 884 1233 821 C 1233 806 1232 791 1231 775 C 1230 759 1228 740 1226 720 C 1223 699 1219 676 1215 650 C 1211 624 1206 593 1200 559 C 1186 475 1163 398 1132 328 C 1100 258 1059 199 1007 149 C 955 99 891 61 817 33 C 743 5 655 -8 555 -8 Z M 582 266 C 615 266 646 269 676 277 C 705 285 732 300 756 322 C 780 344 802 376 821 416 C 840 456 856 509 868 575 C 874 608 879 636 883 660 C 887 683 890 703 892 719 C 894 735 895 749 896 760 C 896 771 897 781 897 791 C 897 831 892 865 882 893 C 872 921 858 943 838 961 C 818 978 794 990 765 998 C 736 1006 702 1010 664 1010 C 630 1010 599 1006 571 998 C 542 990 516 974 493 952 C 469 929 449 897 431 856 C 413 815 399 762 387 696 C 381 664 377 638 373 617 C 369 595 367 577 365 563 C 363 548 361 536 361 526 C 360 516 360 506 360 498 C 360 456 365 420 376 391 C 386 361 401 337 421 319 C 440 300 463 286 491 278 C 518 270 548 266 582 266 Z M 386 1597 L 731 1597 L 956 1343 L 638 1343 L 386 1597 Z" unicode="Ò" />
<glyph horiz-adv-x="1251" d="M 555 -8 C 455 -8 371 5 304 32 C 237 59 183 95 142 141 C 101 186 72 239 55 299 C 37 359 29 421 29 487 C 29 500 29 514 30 528 C 30 542 32 559 34 577 C 36 595 38 616 42 640 C 45 663 49 691 55 723 C 69 803 91 878 119 948 C 147 1018 186 1078 235 1129 C 284 1179 345 1219 418 1248 C 490 1277 578 1292 682 1292 C 789 1292 878 1279 949 1254 C 1020 1228 1077 1194 1119 1151 C 1161 1108 1190 1058 1207 1001 C 1224 944 1233 884 1233 821 C 1233 806 1232 791 1231 775 C 1230 759 1228 740 1226 720 C 1223 699 1219 676 1215 650 C 1211 624 1206 593 1200 559 C 1186 475 1163 398 1132 328 C 1100 258 1059 199 1007 149 C 955 99 891 61 817 33 C 743 5 655 -8 555 -8 Z M 582 266 C 615 266 646 269 676 277 C 705 285 732 300 756 322 C 780 344 802 376 821 416 C 840 456 856 509 868 575 C 874 608 879 636 883 660 C 887 683 890 703 892 719 C 894 735 895 749 896 760 C 896 771 897 781 897 791 C 897 831 892 865 882 893 C 872 921 858 943 838 961 C 818 978 794 990 765 998 C 736 1006 702 1010 664 1010 C 630 1010 599 1006 571 998 C 542 990 516 974 493 952 C 469 929 449 897 431 856 C 413 815 399 762 387 696 C 381 664 377 638 373 617 C 369 595 367 577 365 563 C 363 548 361 536 361 526 C 360 516 360 506 360 498 C 360 456 365 420 376 391 C 386 361 401 337 421 319 C 440 300 463 286 491 278 C 518 270 548 266 582 266 Z M 853 1597 L 1214 1597 L 872 1343 L 538 1343 L 853 1597 Z" unicode="Ó" />
<glyph horiz-adv-x="1251" d="M 555 -8 C 455 -8 371 5 304 32 C 237 59 183 95 142 141 C 101 186 72 239 55 299 C 37 359 29 421 29 487 C 29 500 29 514 30 528 C 30 542 32 559 34 577 C 36 595 38 616 42 640 C 45 663 49 691 55 723 C 69 803 91 878 119 948 C 147 1018 186 1078 235 1129 C 284 1179 345 1219 418 1248 C 490 1277 578 1292 682 1292 C 789 1292 878 1279 949 1254 C 1020 1228 1077 1194 1119 1151 C 1161 1108 1190 1058 1207 1001 C 1224 944 1233 884 1233 821 C 1233 806 1232 791 1231 775 C 1230 759 1228 740 1226 720 C 1223 699 1219 676 1215 650 C 1211 624 1206 593 1200 559 C 1186 475 1163 398 1132 328 C 1100 258 1059 199 1007 149 C 955 99 891 61 817 33 C 743 5 655 -8 555 -8 Z M 582 266 C 615 266 646 269 676 277 C 705 285 732 300 756 322 C 780 344 802 376 821 416 C 840 456 856 509 868 575 C 874 608 879 636 883 660 C 887 683 890 703 892 719 C 894 735 895 749 896 760 C 896 771 897 781 897 791 C 897 831 892 865 882 893 C 872 921 858 943 838 961 C 818 978 794 990 765 998 C 736 1006 702 1010 664 1010 C 630 1010 599 1006 571 998 C 542 990 516 974 493 952 C 469 929 449 897 431 856 C 413 815 399 762 387 696 C 381 664 377 638 373 617 C 369 595 367 577 365 563 C 363 548 361 536 361 526 C 360 516 360 506 360 498 C 360 456 365 420 376 391 C 386 361 401 337 421 319 C 440 300 463 286 491 278 C 518 270 548 266 582 266 Z M 620 1597 L 974 1597 L 1138 1343 L 837 1343 L 767 1431 L 671 1343 L 366 1343 L 620 1597 Z" unicode="Ô" />
<glyph horiz-adv-x="1251" d="M 555 -8 C 455 -8 371 5 304 32 C 237 59 183 95 142 141 C 101 186 72 239 55 299 C 37 359 29 421 29 487 C 29 500 29 514 30 528 C 30 542 32 559 34 577 C 36 595 38 616 42 640 C 45 663 49 691 55 723 C 69 803 91 878 119 948 C 147 1018 186 1078 235 1129 C 284 1179 345 1219 418 1248 C 490 1277 578 1292 682 1292 C 789 1292 878 1279 949 1254 C 1020 1228 1077 1194 1119 1151 C 1161 1108 1190 1058 1207 1001 C 1224 944 1233 884 1233 821 C 1233 806 1232 791 1231 775 C 1230 759 1228 740 1226 720 C 1223 699 1219 676 1215 650 C 1211 624 1206 593 1200 559 C 1186 475 1163 398 1132 328 C 1100 258 1059 199 1007 149 C 955 99 891 61 817 33 C 743 5 655 -8 555 -8 Z M 582 266 C 615 266 646 269 676 277 C 705 285 732 300 756 322 C 780 344 802 376 821 416 C 840 456 856 509 868 575 C 874 608 879 636 883 660 C 887 683 890 703 892 719 C 894 735 895 749 896 760 C 896 771 897 781 897 791 C 897 831 892 865 882 893 C 872 921 858 943 838 961 C 818 978 794 990 765 998 C 736 1006 702 1010 664 1010 C 630 1010 599 1006 571 998 C 542 990 516 974 493 952 C 469 929 449 897 431 856 C 413 815 399 762 387 696 C 381 664 377 638 373 617 C 369 595 367 577 365 563 C 363 548 361 536 361 526 C 360 516 360 506 360 498 C 360 456 365 420 376 391 C 386 361 401 337 421 319 C 440 300 463 286 491 278 C 518 270 548 266 582 266 Z M 378 1375 C 386 1409 396 1442 410 1473 C 423 1504 439 1531 459 1554 C 478 1577 500 1595 526 1609 C 551 1622 580 1629 612 1629 C 645 1629 675 1625 703 1619 C 730 1612 755 1605 778 1597 C 800 1589 820 1582 838 1576 C 855 1569 870 1566 884 1566 C 899 1566 913 1570 926 1580 C 939 1590 948 1606 952 1629 L 1179 1597 C 1171 1566 1161 1535 1149 1505 C 1137 1475 1123 1448 1105 1424 C 1087 1400 1065 1380 1040 1365 C 1014 1350 984 1343 948 1343 C 913 1343 881 1346 853 1353 C 825 1359 799 1366 776 1374 C 753 1382 733 1389 715 1396 C 697 1402 683 1406 671 1406 C 651 1406 636 1402 626 1395 C 616 1387 608 1370 602 1343 L 378 1375 Z" unicode="Õ" />
<glyph horiz-adv-x="1251" d="M 555 -8 C 455 -8 371 5 304 32 C 237 59 183 95 142 141 C 101 186 72 239 55 299 C 37 359 29 421 29 487 C 29 500 29 514 30 528 C 30 542 32 559 34 577 C 36 595 38 616 42 640 C 45 663 49 691 55 723 C 69 803 91 878 119 948 C 147 1018 186 1078 235 1129 C 284 1179 345 1219 418 1248 C 490 1277 578 1292 682 1292 C 789 1292 878 1279 949 1254 C 1020 1228 1077 1194 1119 1151 C 1161 1108 1190 1058 1207 1001 C 1224 944 1233 884 1233 821 C 1233 806 1232 791 1231 775 C 1230 759 1228 740 1226 720 C 1223 699 1219 676 1215 650 C 1211 624 1206 593 1200 559 C 1186 475 1163 398 1132 328 C 1100 258 1059 199 1007 149 C 955 99 891 61 817 33 C 743 5 655 -8 555 -8 Z M 582 266 C 615 266 646 269 676 277 C 705 285 732 300 756 322 C 780 344 802 376 821 416 C 840 456 856 509 868 575 C 874 608 879 636 883 660 C 887 683 890 703 892 719 C 894 735 895 749 896 760 C 896 771 897 781 897 791 C 897 831 892 865 882 893 C 872 921 858 943 838 961 C 818 978 794 990 765 998 C 736 1006 702 1010 664 1010 C 630 1010 599 1006 571 998 C 542 990 516 974 493 952 C 469 929 449 897 431 856 C 413 815 399 762 387 696 C 381 664 377 638 373 617 C 369 595 367 577 365 563 C 363 548 361 536 361 526 C 360 516 360 506 360 498 C 360 456 365 420 376 391 C 386 361 401 337 421 319 C 440 300 463 286 491 278 C 518 270 548 266 582 266 Z M 462 1592 L 747 1592 L 704 1343 L 419 1343 L 462 1592 Z M 843 1592 L 1128 1592 L 1085 1343 L 800 1343 L 843 1592 Z" unicode="Ö" />
<glyph horiz-adv-x="1071" d="M 84 399 L 330 645 L 84 893 L 293 1102 L 539 854 L 786 1102 L 995 893 L 748 645 L 995 399 L 786 190 L 539 436 L 293 190 L 84 399 Z" unicode="×" />
<glyph horiz-adv-x="1251" d="M 555 -8 C 503 -8 457 -4 415 3 C 373 10 334 20 300 34 L 227 -61 L -43 -61 L 128 158 C 92 202 66 253 51 309 C 36 365 29 425 29 487 C 29 500 29 514 30 528 C 30 542 32 559 34 577 C 36 595 38 616 42 640 C 45 663 49 691 55 723 C 69 803 91 878 119 948 C 147 1018 186 1078 235 1129 C 284 1179 345 1219 418 1248 C 490 1277 578 1292 682 1292 C 738 1292 789 1288 834 1281 C 879 1274 920 1264 958 1251 L 1030 1343 L 1300 1343 L 1135 1133 C 1171 1091 1196 1043 1211 990 C 1225 936 1233 880 1233 821 C 1233 806 1232 791 1231 775 C 1230 759 1228 740 1226 720 C 1223 699 1219 676 1215 650 C 1211 624 1206 593 1200 559 C 1186 475 1163 398 1132 328 C 1100 258 1059 199 1007 149 C 955 99 891 61 817 33 C 743 5 655 -8 555 -8 Z M 582 256 C 615 256 647 260 678 269 C 709 277 738 293 764 317 C 790 340 813 372 834 414 C 854 456 871 509 883 575 C 889 608 893 636 897 660 C 900 683 902 703 904 719 C 905 735 906 749 906 760 C 906 771 907 781 907 791 C 907 801 907 811 907 821 C 907 830 906 839 905 849 L 465 269 C 495 260 534 256 582 256 Z M 350 498 C 350 486 350 475 350 465 C 350 454 351 444 352 435 L 786 1008 C 754 1016 713 1020 664 1020 C 630 1020 598 1015 568 1006 C 538 997 510 981 485 957 C 460 933 438 900 419 858 C 400 816 385 762 373 696 C 367 664 362 638 359 617 C 356 595 354 577 353 563 C 351 548 350 536 350 526 C 350 516 350 506 350 498 Z" unicode="Ø" />
<glyph horiz-adv-x="1251" d="M 596 -8 C 487 -8 396 1 323 20 C 249 38 192 67 150 106 C 108 145 81 195 69 255 C 57 315 58 387 74 471 L 217 1282 L 545 1282 L 401 461 C 395 431 393 404 393 380 C 393 356 399 335 412 318 C 424 301 445 288 475 279 C 504 270 546 266 600 266 C 636 266 665 270 689 280 C 712 289 731 302 746 319 C 760 336 771 356 779 380 C 787 404 793 430 799 459 L 944 1282 L 1264 1282 L 1114 438 C 1099 354 1077 283 1049 226 C 1020 169 984 123 942 89 C 899 54 849 29 791 14 C 733 0 668 -8 596 -8 Z M 386 1597 L 731 1597 L 956 1343 L 638 1343 L 386 1597 Z" unicode="Ù" />
<glyph horiz-adv-x="1251" d="M 596 -8 C 487 -8 396 1 323 20 C 249 38 192 67 150 106 C 108 145 81 195 69 255 C 57 315 58 387 74 471 L 217 1282 L 545 1282 L 401 461 C 395 431 393 404 393 380 C 393 356 399 335 412 318 C 424 301 445 288 475 279 C 504 270 546 266 600 266 C 636 266 665 270 689 280 C 712 289 731 302 746 319 C 760 336 771 356 779 380 C 787 404 793 430 799 459 L 944 1282 L 1264 1282 L 1114 438 C 1099 354 1077 283 1049 226 C 1020 169 984 123 942 89 C 899 54 849 29 791 14 C 733 0 668 -8 596 -8 Z M 853 1597 L 1214 1597 L 872 1343 L 538 1343 L 853 1597 Z" unicode="Ú" />
<glyph horiz-adv-x="1251" d="M 596 -8 C 487 -8 396 1 323 20 C 249 38 192 67 150 106 C 108 145 81 195 69 255 C 57 315 58 387 74 471 L 217 1282 L 545 1282 L 401 461 C 395 431 393 404 393 380 C 393 356 399 335 412 318 C 424 301 445 288 475 279 C 504 270 546 266 600 266 C 636 266 665 270 689 280 C 712 289 731 302 746 319 C 760 336 771 356 779 380 C 787 404 793 430 799 459 L 944 1282 L 1264 1282 L 1114 438 C 1099 354 1077 283 1049 226 C 1020 169 984 123 942 89 C 899 54 849 29 791 14 C 733 0 668 -8 596 -8 Z M 620 1597 L 974 1597 L 1138 1343 L 837 1343 L 767 1431 L 671 1343 L 366 1343 L 620 1597 Z" unicode="Û" />
<glyph horiz-adv-x="1251" d="M 596 -8 C 487 -8 396 1 323 20 C 249 38 192 67 150 106 C 108 145 81 195 69 255 C 57 315 58 387 74 471 L 217 1282 L 545 1282 L 401 461 C 395 431 393 404 393 380 C 393 356 399 335 412 318 C 424 301 445 288 475 279 C 504 270 546 266 600 266 C 636 266 665 270 689 280 C 712 289 731 302 746 319 C 760 336 771 356 779 380 C 787 404 793 430 799 459 L 944 1282 L 1264 1282 L 1114 438 C 1099 354 1077 283 1049 226 C 1020 169 984 123 942 89 C 899 54 849 29 791 14 C 733 0 668 -8 596 -8 Z M 462 1592 L 747 1592 L 704 1343 L 419 1343 L 462 1592 Z M 843 1592 L 1128 1592 L 1085 1343 L 800 1343 L 843 1592 Z" unicode="Ü" />
<glyph horiz-adv-x="1174" d="M 411 562 L 98 1282 L 451 1282 L 623 842 L 956 1282 L 1305 1282 L 739 564 L 639 0 L 311 0 L 411 562 Z M 814 1597 L 1175 1597 L 833 1343 L 499 1343 L 814 1597 Z" unicode="Ý" />
<glyph horiz-adv-x="1186" d="M 223 1282 L 551 1282 L 518 1087 L 709 1087 C 753 1087 796 1084 840 1079 C 883 1074 923 1065 961 1052 C 999 1039 1033 1022 1064 1001 C 1095 979 1120 952 1140 919 C 1159 886 1172 847 1178 802 C 1184 756 1181 703 1171 643 C 1161 591 1147 545 1128 505 C 1108 465 1086 430 1060 401 C 1034 372 1005 348 973 328 C 941 308 909 293 875 281 C 841 269 806 260 772 255 C 738 250 705 248 674 248 L 371 248 L 326 0 L -2 0 L 223 1282 Z M 649 508 C 665 508 683 508 703 510 C 723 512 742 517 761 527 C 779 536 796 551 811 571 C 825 591 836 619 842 655 C 848 691 848 721 841 743 C 834 765 821 783 803 795 C 785 807 761 815 733 819 C 704 823 671 825 635 825 L 473 825 L 416 508 L 649 508 Z" unicode="Þ" />
<glyph horiz-adv-x="1200" d="M 709 -8 C 647 -8 594 -1 551 12 C 507 25 472 45 445 71 C 417 97 397 130 385 169 C 373 207 367 252 367 303 L 651 346 C 649 314 653 289 663 273 C 673 256 694 248 727 248 C 752 248 772 258 787 280 C 801 301 813 337 821 389 C 823 401 824 414 826 427 C 828 439 829 454 829 471 C 829 491 826 508 821 522 C 815 536 807 547 795 556 C 783 564 767 570 747 574 C 727 578 703 580 674 580 L 526 580 L 571 842 L 721 842 C 739 842 756 844 771 848 C 785 852 798 860 808 870 C 818 880 825 894 830 912 C 835 930 838 952 838 979 C 838 993 835 1007 829 1019 C 823 1031 814 1041 800 1050 C 786 1058 768 1065 744 1070 C 720 1074 691 1077 655 1077 C 596 1077 551 1066 520 1046 C 488 1025 469 991 461 944 C 461 943 458 929 454 902 C 449 874 443 838 435 794 C 427 750 418 699 408 643 C 398 586 388 528 378 470 C 353 331 325 174 295 0 L -23 0 L 143 938 C 156 1012 178 1074 208 1126 C 238 1177 276 1219 320 1251 C 364 1283 413 1306 469 1321 C 525 1335 585 1343 651 1343 C 741 1343 818 1336 884 1322 C 949 1308 1003 1287 1045 1261 C 1087 1234 1119 1202 1139 1164 C 1159 1126 1169 1084 1169 1036 C 1169 967 1154 907 1124 857 C 1094 806 1045 766 977 737 C 1000 729 1021 718 1040 702 C 1058 686 1074 666 1087 642 C 1100 618 1110 592 1117 562 C 1124 532 1128 499 1128 465 C 1128 449 1127 433 1126 417 C 1125 401 1123 384 1120 367 C 1110 309 1097 256 1082 210 C 1067 164 1045 124 1016 92 C 986 60 947 35 899 18 C 850 0 787 -8 709 -8 Z" unicode="ß" />
<glyph horiz-adv-x="1038" d="M 313 -8 C 255 -8 206 0 168 14 C 130 29 99 50 76 77 C 53 104 37 136 27 173 C 17 210 13 251 14 295 C 14 308 14 322 15 336 C 16 350 18 366 21 384 C 23 402 26 421 30 443 C 33 465 37 490 43 518 C 53 576 67 631 87 683 C 107 734 132 779 163 817 C 194 855 231 885 275 907 C 318 929 368 940 426 940 C 463 940 495 937 523 933 C 550 929 574 923 594 915 C 614 907 631 897 645 887 C 659 876 671 864 682 852 L 696 926 L 1001 926 L 838 0 L 532 0 L 547 86 C 533 72 519 59 504 48 C 488 36 471 26 453 18 C 434 10 413 3 390 -1 C 367 -5 341 -8 313 -8 Z M 444 248 C 470 248 492 251 511 259 C 529 267 545 278 558 294 C 570 309 580 328 588 351 C 596 373 602 400 608 430 L 623 510 C 628 542 629 568 627 590 C 625 611 618 628 608 641 C 597 654 582 663 563 669 C 544 675 521 678 494 678 C 470 678 451 674 435 666 C 419 658 406 645 395 628 C 384 611 375 589 367 563 C 359 536 352 504 346 467 C 342 444 338 423 336 405 C 333 386 332 368 332 352 C 332 318 340 292 357 274 C 373 256 402 248 444 248 Z M 221 1262 L 566 1262 L 791 1008 L 473 1008 L 221 1262 Z" unicode="à" />
<glyph horiz-adv-x="1038" d="M 313 -8 C 255 -8 206 0 168 14 C 130 29 99 50 76 77 C 53 104 37 136 27 173 C 17 210 13 251 14 295 C 14 308 14 322 15 336 C 16 350 18 366 21 384 C 23 402 26 421 30 443 C 33 465 37 490 43 518 C 53 576 67 631 87 683 C 107 734 132 779 163 817 C 194 855 231 885 275 907 C 318 929 368 940 426 940 C 463 940 495 937 523 933 C 550 929 574 923 594 915 C 614 907 631 897 645 887 C 659 876 671 864 682 852 L 696 926 L 1001 926 L 838 0 L 532 0 L 547 86 C 533 72 519 59 504 48 C 488 36 471 26 453 18 C 434 10 413 3 390 -1 C 367 -5 341 -8 313 -8 Z M 444 248 C 470 248 492 251 511 259 C 529 267 545 278 558 294 C 570 309 580 328 588 351 C 596 373 602 400 608 430 L 623 510 C 628 542 629 568 627 590 C 625 611 618 628 608 641 C 597 654 582 663 563 669 C 544 675 521 678 494 678 C 470 678 451 674 435 666 C 419 658 406 645 395 628 C 384 611 375 589 367 563 C 359 536 352 504 346 467 C 342 444 338 423 336 405 C 333 386 332 368 332 352 C 332 318 340 292 357 274 C 373 256 402 248 444 248 Z M 688 1262 L 1049 1262 L 707 1008 L 373 1008 L 688 1262 Z" unicode="á" />
<glyph horiz-adv-x="1038" d="M 313 -8 C 255 -8 206 0 168 14 C 130 29 99 50 76 77 C 53 104 37 136 27 173 C 17 210 13 251 14 295 C 14 308 14 322 15 336 C 16 350 18 366 21 384 C 23 402 26 421 30 443 C 33 465 37 490 43 518 C 53 576 67 631 87 683 C 107 734 132 779 163 817 C 194 855 231 885 275 907 C 318 929 368 940 426 940 C 463 940 495 937 523 933 C 550 929 574 923 594 915 C 614 907 631 897 645 887 C 659 876 671 864 682 852 L 696 926 L 1001 926 L 838 0 L 532 0 L 547 86 C 533 72 519 59 504 48 C 488 36 471 26 453 18 C 434 10 413 3 390 -1 C 367 -5 341 -8 313 -8 Z M 444 248 C 470 248 492 251 511 259 C 529 267 545 278 558 294 C 570 309 580 328 588 351 C 596 373 602 400 608 430 L 623 510 C 628 542 629 568 627 590 C 625 611 618 628 608 641 C 597 654 582 663 563 669 C 544 675 521 678 494 678 C 470 678 451 674 435 666 C 419 658 406 645 395 628 C 384 611 375 589 367 563 C 359 536 352 504 346 467 C 342 444 338 423 336 405 C 333 386 332 368 332 352 C 332 318 340 292 357 274 C 373 256 402 248 444 248 Z M 455 1262 L 809 1262 L 973 1008 L 672 1008 L 602 1096 L 506 1008 L 201 1008 L 455 1262 Z" unicode="â" />
<glyph horiz-adv-x="1038" d="M 313 -8 C 255 -8 206 0 168 14 C 130 29 99 50 76 77 C 53 104 37 136 27 173 C 17 210 13 251 14 295 C 14 308 14 322 15 336 C 16 350 18 366 21 384 C 23 402 26 421 30 443 C 33 465 37 490 43 518 C 53 576 67 631 87 683 C 107 734 132 779 163 817 C 194 855 231 885 275 907 C 318 929 368 940 426 940 C 463 940 495 937 523 933 C 550 929 574 923 594 915 C 614 907 631 897 645 887 C 659 876 671 864 682 852 L 696 926 L 1001 926 L 838 0 L 532 0 L 547 86 C 533 72 519 59 504 48 C 488 36 471 26 453 18 C 434 10 413 3 390 -1 C 367 -5 341 -8 313 -8 Z M 444 248 C 470 248 492 251 511 259 C 529 267 545 278 558 294 C 570 309 580 328 588 351 C 596 373 602 400 608 430 L 623 510 C 628 542 629 568 627 590 C 625 611 618 628 608 641 C 597 654 582 663 563 669 C 544 675 521 678 494 678 C 470 678 451 674 435 666 C 419 658 406 645 395 628 C 384 611 375 589 367 563 C 359 536 352 504 346 467 C 342 444 338 423 336 405 C 333 386 332 368 332 352 C 332 318 340 292 357 274 C 373 256 402 248 444 248 Z M 213 1040 C 221 1074 231 1107 245 1138 C 258 1169 274 1196 294 1219 C 313 1242 335 1260 361 1274 C 386 1287 415 1294 447 1294 C 480 1294 510 1290 538 1284 C 565 1277 590 1270 613 1262 C 635 1254 655 1247 673 1241 C 690 1234 705 1231 719 1231 C 734 1231 748 1235 761 1245 C 774 1255 783 1271 787 1294 L 1014 1262 C 1006 1231 996 1200 984 1170 C 972 1140 958 1113 940 1089 C 922 1065 900 1045 875 1030 C 849 1015 819 1008 783 1008 C 748 1008 716 1011 688 1018 C 660 1024 634 1031 611 1039 C 588 1047 568 1054 550 1061 C 532 1067 518 1071 506 1071 C 486 1071 471 1067 461 1060 C 451 1052 443 1035 437 1008 L 213 1040 Z" unicode="ã" />
<glyph horiz-adv-x="1038" d="M 313 -8 C 255 -8 206 0 168 14 C 130 29 99 50 76 77 C 53 104 37 136 27 173 C 17 210 13 251 14 295 C 14 308 14 322 15 336 C 16 350 18 366 21 384 C 23 402 26 421 30 443 C 33 465 37 490 43 518 C 53 576 67 631 87 683 C 107 734 132 779 163 817 C 194 855 231 885 275 907 C 318 929 368 940 426 940 C 463 940 495 937 523 933 C 550 929 574 923 594 915 C 614 907 631 897 645 887 C 659 876 671 864 682 852 L 696 926 L 1001 926 L 838 0 L 532 0 L 547 86 C 533 72 519 59 504 48 C 488 36 471 26 453 18 C 434 10 413 3 390 -1 C 367 -5 341 -8 313 -8 Z M 444 248 C 470 248 492 251 511 259 C 529 267 545 278 558 294 C 570 309 580 328 588 351 C 596 373 602 400 608 430 L 623 510 C 628 542 629 568 627 590 C 625 611 618 628 608 641 C 597 654 582 663 563 669 C 544 675 521 678 494 678 C 470 678 451 674 435 666 C 419 658 406 645 395 628 C 384 611 375 589 367 563 C 359 536 352 504 346 467 C 342 444 338 423 336 405 C 333 386 332 368 332 352 C 332 318 340 292 357 274 C 373 256 402 248 444 248 Z M 297 1257 L 582 1257 L 539 1008 L 254 1008 L 297 1257 Z M 678 1257 L 963 1257 L 920 1008 L 635 1008 L 678 1257 Z" unicode="ä" />
<glyph horiz-adv-x="1038" d="M 313 -8 C 255 -8 206 0 168 14 C 130 29 99 50 76 77 C 53 104 37 136 27 173 C 17 210 13 251 14 295 C 14 308 14 322 15 336 C 16 350 18 366 21 384 C 23 402 26 421 30 443 C 33 465 37 490 43 518 C 53 576 67 631 87 683 C 107 734 132 779 163 817 C 194 855 231 885 275 907 C 318 929 368 940 426 940 C 463 940 495 937 523 933 C 550 929 574 923 594 915 C 614 907 631 897 645 887 C 659 876 671 864 682 852 L 696 926 L 1001 926 L 838 0 L 532 0 L 547 86 C 533 72 519 59 504 48 C 488 36 471 26 453 18 C 434 10 413 3 390 -1 C 367 -5 341 -8 313 -8 Z M 444 248 C 470 248 492 251 511 259 C 529 267 545 278 558 294 C 570 309 580 328 588 351 C 596 373 602 400 608 430 L 623 510 C 628 542 629 568 627 590 C 625 611 618 628 608 641 C 597 654 582 663 563 669 C 544 675 521 678 494 678 C 470 678 451 674 435 666 C 419 658 406 645 395 628 C 384 611 375 589 367 563 C 359 536 352 504 346 467 C 342 444 338 423 336 405 C 333 386 332 368 332 352 C 332 318 340 292 357 274 C 373 256 402 248 444 248 Z M 609 1008 C 565 1008 528 1012 500 1022 C 472 1032 449 1045 433 1061 C 417 1077 405 1095 399 1115 C 392 1135 389 1156 389 1178 C 389 1208 393 1237 401 1267 C 409 1296 423 1322 443 1346 C 463 1370 488 1389 520 1403 C 552 1417 591 1425 639 1425 C 681 1425 716 1420 744 1410 C 772 1400 794 1388 811 1372 C 827 1356 839 1337 846 1317 C 852 1296 856 1275 856 1253 C 856 1223 851 1193 843 1164 C 834 1134 820 1108 800 1085 C 780 1062 755 1043 724 1029 C 692 1015 654 1008 609 1008 Z M 617 1133 C 640 1133 660 1140 678 1156 C 696 1172 705 1197 705 1233 C 705 1254 698 1270 685 1282 C 672 1294 654 1300 631 1300 C 606 1300 585 1292 567 1278 C 549 1263 541 1238 541 1202 C 541 1180 547 1163 560 1151 C 573 1139 592 1133 617 1133 Z" unicode="å" />
<glyph horiz-adv-x="1561" d="M 313 -8 C 255 -8 207 0 169 14 C 131 28 100 49 77 76 C 54 102 38 134 28 170 C 18 206 14 245 14 289 C 14 303 14 317 15 332 C 16 346 18 363 21 381 C 23 399 26 419 30 441 C 33 463 37 489 43 518 C 53 576 67 631 87 683 C 107 734 132 779 163 817 C 194 855 231 885 275 907 C 318 929 368 940 426 940 C 463 940 495 937 523 933 C 550 929 574 923 594 915 C 614 907 631 897 645 887 C 659 876 671 864 682 852 L 696 926 L 911 926 L 902 873 C 930 895 961 911 995 923 C 1029 934 1068 940 1110 940 C 1178 940 1237 931 1285 915 C 1333 899 1372 876 1402 848 C 1432 819 1454 785 1468 745 C 1482 705 1489 662 1489 616 C 1489 600 1488 583 1486 566 C 1484 548 1482 531 1479 514 L 1454 383 L 887 383 C 885 374 885 366 885 360 C 885 353 885 347 885 342 C 885 321 887 303 892 288 C 896 273 904 261 916 251 C 928 241 943 234 962 230 C 980 225 1004 223 1032 223 C 1054 223 1072 224 1086 227 C 1100 229 1111 234 1119 240 C 1127 246 1134 255 1139 265 C 1144 275 1149 287 1155 301 L 1436 248 C 1426 216 1411 184 1392 154 C 1372 123 1346 96 1312 72 C 1278 48 1237 28 1187 14 C 1137 0 1078 -8 1008 -8 C 947 -8 897 0 857 13 C 817 27 786 48 763 76 L 750 0 L 532 0 L 547 86 C 533 72 519 59 504 48 C 488 36 471 26 453 18 C 434 10 413 3 390 -1 C 367 -5 341 -8 313 -8 Z M 444 248 C 470 248 492 251 511 259 C 529 267 545 278 558 294 C 570 309 580 328 588 351 C 596 373 602 400 608 430 L 623 510 C 628 542 629 568 627 590 C 625 611 618 628 608 641 C 597 654 582 663 563 669 C 544 675 521 678 494 678 C 470 678 451 674 435 666 C 419 658 406 645 395 628 C 384 611 375 589 367 563 C 359 536 352 504 346 467 C 342 444 338 423 336 405 C 333 386 332 368 332 352 C 332 318 340 292 357 274 C 373 256 402 248 444 248 Z M 1069 692 C 1045 692 1025 689 1009 685 C 993 681 979 674 967 664 C 955 654 946 640 938 623 C 930 606 924 585 918 561 L 1193 561 C 1193 565 1194 570 1194 574 C 1194 578 1194 583 1194 588 C 1194 622 1185 647 1167 665 C 1149 683 1117 692 1069 692 Z" unicode="æ" />
<glyph horiz-adv-x="944" d="M 401 -8 C 327 -8 265 1 214 20 C 162 39 120 65 88 98 C 55 131 31 170 16 215 C 1 260 -6 308 -6 360 C -6 368 -5 377 -5 387 C -4 397 -3 408 -2 421 C 0 433 1 448 3 464 C 5 480 8 500 12 522 C 26 599 48 664 79 717 C 110 770 147 813 190 846 C 232 879 280 903 332 918 C 384 932 438 940 494 940 C 570 940 635 931 687 914 C 739 896 782 872 814 841 C 846 810 870 773 885 731 C 899 688 907 641 909 590 L 590 539 C 594 567 595 591 591 609 C 587 627 579 641 569 651 C 559 661 545 668 528 672 C 511 676 492 678 471 678 C 449 678 430 674 414 668 C 398 662 384 651 372 635 C 360 619 349 599 341 573 C 333 547 325 514 319 475 C 315 454 313 435 311 419 C 309 402 309 387 309 373 C 309 329 318 297 336 276 C 354 254 386 244 432 244 C 450 244 467 245 482 249 C 496 253 509 259 520 268 C 531 277 541 289 549 304 C 557 319 563 338 569 362 L 868 309 C 854 260 833 216 806 177 C 778 138 745 105 705 77 C 665 49 620 28 569 14 C 517 0 461 -8 401 -8 Z M 349 -399 C 263 -399 196 -389 148 -369 C 99 -349 71 -319 64 -279 L 250 -217 C 251 -227 253 -236 256 -244 C 259 -251 263 -257 269 -261 C 275 -265 282 -269 292 -271 C 302 -273 314 -274 330 -274 C 358 -274 379 -269 391 -260 C 403 -251 410 -234 410 -209 C 410 -190 405 -176 395 -168 C 385 -160 367 -156 342 -156 C 330 -156 317 -157 303 -160 C 289 -162 278 -166 269 -170 L 156 -117 L 271 41 L 447 41 L 383 -51 C 391 -49 400 -48 409 -48 C 417 -47 426 -47 435 -47 C 455 -47 476 -49 496 -53 C 516 -57 533 -65 549 -75 C 564 -85 576 -98 586 -114 C 595 -130 600 -151 600 -176 C 600 -216 594 -250 583 -278 C 571 -306 555 -329 534 -347 C 512 -365 486 -378 455 -386 C 424 -394 389 -399 349 -399 Z" unicode="ç" />
<glyph horiz-adv-x="944" d="M 412 -8 C 338 -8 274 0 222 18 C 169 36 126 60 92 92 C 58 124 34 162 18 206 C 2 250 -6 300 -6 354 C -6 363 -5 373 -5 383 C -5 393 -4 405 -3 418 C -1 431 0 446 2 463 C 4 480 8 500 12 524 C 24 597 45 660 75 712 C 105 764 140 807 182 841 C 224 875 270 900 322 916 C 373 932 427 940 483 940 C 558 940 622 931 674 915 C 726 899 768 876 801 848 C 833 819 857 785 871 745 C 885 705 893 662 893 616 C 893 600 892 583 890 566 C 888 548 886 531 883 514 L 858 383 L 291 383 C 289 374 289 366 289 360 C 289 353 289 347 289 342 C 289 302 299 272 320 252 C 341 232 380 223 436 223 C 458 223 476 224 490 227 C 504 229 515 234 523 240 C 531 246 538 255 543 265 C 548 275 553 287 559 301 L 840 248 C 830 216 815 184 796 154 C 776 123 750 96 716 72 C 682 48 641 28 591 14 C 541 0 482 -8 412 -8 Z M 473 696 C 449 696 429 693 413 689 C 397 684 383 676 371 666 C 359 656 350 642 342 625 C 334 607 327 586 321 561 L 597 561 C 597 566 598 571 598 576 C 598 580 598 585 598 590 C 598 624 589 650 571 668 C 553 686 521 696 473 696 Z M 174 1262 L 519 1262 L 744 1008 L 426 1008 L 174 1262 Z" unicode="è" />
<glyph horiz-adv-x="944" d="M 412 -8 C 338 -8 274 0 222 18 C 169 36 126 60 92 92 C 58 124 34 162 18 206 C 2 250 -6 300 -6 354 C -6 363 -5 373 -5 383 C -5 393 -4 405 -3 418 C -1 431 0 446 2 463 C 4 480 8 500 12 524 C 24 597 45 660 75 712 C 105 764 140 807 182 841 C 224 875 270 900 322 916 C 373 932 427 940 483 940 C 558 940 622 931 674 915 C 726 899 768 876 801 848 C 833 819 857 785 871 745 C 885 705 893 662 893 616 C 893 600 892 583 890 566 C 888 548 886 531 883 514 L 858 383 L 291 383 C 289 374 289 366 289 360 C 289 353 289 347 289 342 C 289 302 299 272 320 252 C 341 232 380 223 436 223 C 458 223 476 224 490 227 C 504 229 515 234 523 240 C 531 246 538 255 543 265 C 548 275 553 287 559 301 L 840 248 C 830 216 815 184 796 154 C 776 123 750 96 716 72 C 682 48 641 28 591 14 C 541 0 482 -8 412 -8 Z M 473 696 C 449 696 429 693 413 689 C 397 684 383 676 371 666 C 359 656 350 642 342 625 C 334 607 327 586 321 561 L 597 561 C 597 566 598 571 598 576 C 598 580 598 585 598 590 C 598 624 589 650 571 668 C 553 686 521 696 473 696 Z M 641 1262 L 1002 1262 L 660 1008 L 326 1008 L 641 1262 Z" unicode="é" />
<glyph horiz-adv-x="944" d="M 412 -8 C 338 -8 274 0 222 18 C 169 36 126 60 92 92 C 58 124 34 162 18 206 C 2 250 -6 300 -6 354 C -6 363 -5 373 -5 383 C -5 393 -4 405 -3 418 C -1 431 0 446 2 463 C 4 480 8 500 12 524 C 24 597 45 660 75 712 C 105 764 140 807 182 841 C 224 875 270 900 322 916 C 373 932 427 940 483 940 C 558 940 622 931 674 915 C 726 899 768 876 801 848 C 833 819 857 785 871 745 C 885 705 893 662 893 616 C 893 600 892 583 890 566 C 888 548 886 531 883 514 L 858 383 L 291 383 C 289 374 289 366 289 360 C 289 353 289 347 289 342 C 289 302 299 272 320 252 C 341 232 380 223 436 223 C 458 223 476 224 490 227 C 504 229 515 234 523 240 C 531 246 538 255 543 265 C 548 275 553 287 559 301 L 840 248 C 830 216 815 184 796 154 C 776 123 750 96 716 72 C 682 48 641 28 591 14 C 541 0 482 -8 412 -8 Z M 473 696 C 449 696 429 693 413 689 C 397 684 383 676 371 666 C 359 656 350 642 342 625 C 334 607 327 586 321 561 L 597 561 C 597 566 598 571 598 576 C 598 580 598 585 598 590 C 598 624 589 650 571 668 C 553 686 521 696 473 696 Z M 408 1262 L 762 1262 L 926 1008 L 625 1008 L 555 1096 L 459 1008 L 154 1008 L 408 1262 Z" unicode="ê" />
<glyph horiz-adv-x="944" d="M 412 -8 C 338 -8 274 0 222 18 C 169 36 126 60 92 92 C 58 124 34 162 18 206 C 2 250 -6 300 -6 354 C -6 363 -5 373 -5 383 C -5 393 -4 405 -3 418 C -1 431 0 446 2 463 C 4 480 8 500 12 524 C 24 597 45 660 75 712 C 105 764 140 807 182 841 C 224 875 270 900 322 916 C 373 932 427 940 483 940 C 558 940 622 931 674 915 C 726 899 768 876 801 848 C 833 819 857 785 871 745 C 885 705 893 662 893 616 C 893 600 892 583 890 566 C 888 548 886 531 883 514 L 858 383 L 291 383 C 289 374 289 366 289 360 C 289 353 289 347 289 342 C 289 302 299 272 320 252 C 341 232 380 223 436 223 C 458 223 476 224 490 227 C 504 229 515 234 523 240 C 531 246 538 255 543 265 C 548 275 553 287 559 301 L 840 248 C 830 216 815 184 796 154 C 776 123 750 96 716 72 C 682 48 641 28 591 14 C 541 0 482 -8 412 -8 Z M 473 696 C 449 696 429 693 413 689 C 397 684 383 676 371 666 C 359 656 350 642 342 625 C 334 607 327 586 321 561 L 597 561 C 597 566 598 571 598 576 C 598 580 598 585 598 590 C 598 624 589 650 571 668 C 553 686 521 696 473 696 Z M 250 1257 L 535 1257 L 492 1008 L 207 1008 L 250 1257 Z M 631 1257 L 916 1257 L 873 1008 L 588 1008 L 631 1257 Z" unicode="ë" />
<glyph horiz-adv-x="494" d="M -51 1262 L 293 1262 L 451 1008 L 147 1008 L -51 1262 Z M 147 926 L 453 926 L 289 0 L -16 0 L 147 926 Z" unicode="ì" />
<glyph horiz-adv-x="494" d="M 416 1262 L 776 1262 L 471 1008 L 158 1008 L 416 1262 Z M 147 926 L 453 926 L 289 0 L -16 0 L 147 926 Z" unicode="í" />
<glyph horiz-adv-x="494" d="M 147 926 L 453 926 L 289 0 L -16 0 L 147 926 Z M 183 1262 L 537 1262 L 701 1008 L 400 1008 L 330 1096 L 234 1008 L -71 1008 L 183 1262 Z" unicode="î" />
<glyph horiz-adv-x="494" d="M 147 926 L 453 926 L 289 0 L -16 0 L 147 926 Z M 25 1257 L 310 1257 L 267 1008 L -18 1008 L 25 1257 Z M 406 1257 L 691 1257 L 648 1008 L 363 1008 L 406 1257 Z" unicode="ï" />
<glyph horiz-adv-x="975" d="M 436 1137 L 517 1150 C 505 1167 494 1182 482 1195 C 470 1208 459 1219 449 1227 L 766 1362 C 802 1314 833 1262 859 1207 L 1036 1237 L 997 1022 L 920 1009 C 934 931 940 846 938 753 C 936 660 923 557 901 444 L 891 393 C 878 327 859 270 834 220 C 809 170 777 129 738 95 C 699 61 652 35 598 18 C 544 0 481 -8 410 -8 C 328 -8 259 4 203 28 C 146 52 101 85 67 127 C 33 169 11 218 1 274 C -9 330 -10 389 0 453 L 8 504 C 28 634 74 733 146 799 C 218 865 314 899 434 899 C 474 899 506 896 532 891 C 557 885 580 877 602 866 C 602 894 599 924 594 955 L 397 922 L 436 1137 Z M 432 248 C 448 248 464 249 480 253 C 496 257 510 265 524 278 C 537 291 549 310 560 335 C 571 359 580 392 588 434 C 591 451 593 467 595 483 C 597 498 598 512 598 524 C 598 568 587 597 565 613 C 543 629 510 637 467 637 C 448 637 431 635 415 631 C 399 627 385 618 372 604 C 359 590 347 571 337 546 C 327 521 318 488 311 446 C 307 430 305 416 304 404 C 303 392 303 380 303 369 C 303 345 305 325 311 310 C 317 294 325 282 336 273 C 346 263 360 257 376 253 C 392 249 410 248 432 248 Z" unicode="ð" />
<glyph horiz-adv-x="1016" d="M 143 926 L 449 926 L 434 844 C 467 872 505 895 547 913 C 589 931 636 940 690 940 C 750 940 798 932 834 916 C 870 900 896 877 914 848 C 931 819 940 784 942 744 C 944 703 940 658 932 610 L 825 0 L 520 0 L 621 571 C 623 586 624 600 623 613 C 621 626 617 637 610 647 C 602 657 592 664 578 670 C 564 675 546 678 524 678 C 506 678 490 676 475 672 C 459 668 445 661 433 650 C 421 639 410 623 400 602 C 390 581 383 554 377 520 L 285 0 L -20 0 L 143 926 Z M 203 1040 C 211 1074 221 1107 235 1138 C 248 1169 264 1196 284 1219 C 303 1242 325 1260 351 1274 C 376 1287 405 1294 437 1294 C 470 1294 500 1290 528 1284 C 555 1277 580 1270 603 1262 C 625 1254 645 1247 663 1241 C 680 1234 695 1231 709 1231 C 724 1231 738 1235 751 1245 C 764 1255 773 1271 777 1294 L 1004 1262 C 996 1231 986 1200 974 1170 C 962 1140 948 1113 930 1089 C 912 1065 890 1045 865 1030 C 839 1015 809 1008 773 1008 C 738 1008 706 1011 678 1018 C 650 1024 624 1031 601 1039 C 578 1047 558 1054 540 1061 C 522 1067 508 1071 496 1071 C 476 1071 461 1067 451 1060 C 441 1052 433 1035 427 1008 L 203 1040 Z" unicode="ñ" />
<glyph horiz-adv-x="965" d="M 408 -8 C 334 -8 271 2 219 22 C 167 42 124 70 91 105 C 58 140 34 181 19 227 C 3 273 -4 321 -4 373 C -4 381 -3 389 -3 398 C -3 407 -2 417 -1 429 C 0 441 1 454 3 470 C 5 486 8 504 12 526 C 23 588 41 645 65 696 C 89 747 121 791 160 827 C 199 863 246 890 301 910 C 356 930 420 940 492 940 C 572 940 639 930 693 911 C 747 891 790 865 823 832 C 856 799 880 760 894 716 C 908 672 915 625 915 575 C 915 565 914 555 914 545 C 913 535 912 523 911 510 C 909 497 907 482 905 465 C 902 447 899 427 895 403 C 884 341 865 284 839 234 C 812 184 778 141 737 105 C 695 69 647 41 592 21 C 536 1 475 -8 408 -8 Z M 428 248 C 450 248 470 251 487 257 C 504 263 519 273 532 289 C 545 305 556 326 566 352 C 576 378 584 411 592 451 C 596 472 598 492 600 510 C 601 528 602 544 602 559 C 602 602 592 633 573 651 C 553 669 521 678 475 678 C 452 678 432 675 416 669 C 399 663 384 653 372 638 C 359 622 348 601 339 575 C 330 548 322 514 315 473 C 311 455 309 439 308 425 C 307 410 307 396 307 383 C 307 335 317 301 337 280 C 357 258 388 248 428 248 Z M 184 1262 L 529 1262 L 754 1008 L 436 1008 L 184 1262 Z" unicode="ò" />
<glyph horiz-adv-x="965" d="M 408 -8 C 334 -8 271 2 219 22 C 167 42 124 70 91 105 C 58 140 34 181 19 227 C 3 273 -4 321 -4 373 C -4 381 -3 389 -3 398 C -3 407 -2 417 -1 429 C 0 441 1 454 3 470 C 5 486 8 504 12 526 C 23 588 41 645 65 696 C 89 747 121 791 160 827 C 199 863 246 890 301 910 C 356 930 420 940 492 940 C 572 940 639 930 693 911 C 747 891 790 865 823 832 C 856 799 880 760 894 716 C 908 672 915 625 915 575 C 915 565 914 555 914 545 C 913 535 912 523 911 510 C 909 497 907 482 905 465 C 902 447 899 427 895 403 C 884 341 865 284 839 234 C 812 184 778 141 737 105 C 695 69 647 41 592 21 C 536 1 475 -8 408 -8 Z M 428 248 C 450 248 470 251 487 257 C 504 263 519 273 532 289 C 545 305 556 326 566 352 C 576 378 584 411 592 451 C 596 472 598 492 600 510 C 601 528 602 544 602 559 C 602 602 592 633 573 651 C 553 669 521 678 475 678 C 452 678 432 675 416 669 C 399 663 384 653 372 638 C 359 622 348 601 339 575 C 330 548 322 514 315 473 C 311 455 309 439 308 425 C 307 410 307 396 307 383 C 307 335 317 301 337 280 C 357 258 388 248 428 248 Z M 651 1262 L 1012 1262 L 670 1008 L 336 1008 L 651 1262 Z" unicode="ó" />
<glyph horiz-adv-x="965" d="M 408 -8 C 334 -8 271 2 219 22 C 167 42 124 70 91 105 C 58 140 34 181 19 227 C 3 273 -4 321 -4 373 C -4 381 -3 389 -3 398 C -3 407 -2 417 -1 429 C 0 441 1 454 3 470 C 5 486 8 504 12 526 C 23 588 41 645 65 696 C 89 747 121 791 160 827 C 199 863 246 890 301 910 C 356 930 420 940 492 940 C 572 940 639 930 693 911 C 747 891 790 865 823 832 C 856 799 880 760 894 716 C 908 672 915 625 915 575 C 915 565 914 555 914 545 C 913 535 912 523 911 510 C 909 497 907 482 905 465 C 902 447 899 427 895 403 C 884 341 865 284 839 234 C 812 184 778 141 737 105 C 695 69 647 41 592 21 C 536 1 475 -8 408 -8 Z M 428 248 C 450 248 470 251 487 257 C 504 263 519 273 532 289 C 545 305 556 326 566 352 C 576 378 584 411 592 451 C 596 472 598 492 600 510 C 601 528 602 544 602 559 C 602 602 592 633 573 651 C 553 669 521 678 475 678 C 452 678 432 675 416 669 C 399 663 384 653 372 638 C 359 622 348 601 339 575 C 330 548 322 514 315 473 C 311 455 309 439 308 425 C 307 410 307 396 307 383 C 307 335 317 301 337 280 C 357 258 388 248 428 248 Z M 418 1262 L 772 1262 L 936 1008 L 635 1008 L 565 1096 L 469 1008 L 164 1008 L 418 1262 Z" unicode="ô" />
<glyph horiz-adv-x="965" d="M 408 -8 C 334 -8 271 2 219 22 C 167 42 124 70 91 105 C 58 140 34 181 19 227 C 3 273 -4 321 -4 373 C -4 381 -3 389 -3 398 C -3 407 -2 417 -1 429 C 0 441 1 454 3 470 C 5 486 8 504 12 526 C 23 588 41 645 65 696 C 89 747 121 791 160 827 C 199 863 246 890 301 910 C 356 930 420 940 492 940 C 572 940 639 930 693 911 C 747 891 790 865 823 832 C 856 799 880 760 894 716 C 908 672 915 625 915 575 C 915 565 914 555 914 545 C 913 535 912 523 911 510 C 909 497 907 482 905 465 C 902 447 899 427 895 403 C 884 341 865 284 839 234 C 812 184 778 141 737 105 C 695 69 647 41 592 21 C 536 1 475 -8 408 -8 Z M 428 248 C 450 248 470 251 487 257 C 504 263 519 273 532 289 C 545 305 556 326 566 352 C 576 378 584 411 592 451 C 596 472 598 492 600 510 C 601 528 602 544 602 559 C 602 602 592 633 573 651 C 553 669 521 678 475 678 C 452 678 432 675 416 669 C 399 663 384 653 372 638 C 359 622 348 601 339 575 C 330 548 322 514 315 473 C 311 455 309 439 308 425 C 307 410 307 396 307 383 C 307 335 317 301 337 280 C 357 258 388 248 428 248 Z M 176 1040 C 184 1074 194 1107 208 1138 C 221 1169 237 1196 257 1219 C 276 1242 298 1260 324 1274 C 349 1287 378 1294 410 1294 C 443 1294 473 1290 501 1284 C 528 1277 553 1270 576 1262 C 598 1254 618 1247 636 1241 C 653 1234 668 1231 682 1231 C 697 1231 711 1235 724 1245 C 737 1255 746 1271 750 1294 L 977 1262 C 969 1231 959 1200 947 1170 C 935 1140 921 1113 903 1089 C 885 1065 863 1045 838 1030 C 812 1015 782 1008 746 1008 C 711 1008 679 1011 651 1018 C 623 1024 597 1031 574 1039 C 551 1047 531 1054 513 1061 C 495 1067 481 1071 469 1071 C 449 1071 434 1067 424 1060 C 414 1052 406 1035 400 1008 L 176 1040 Z" unicode="õ" />
<glyph horiz-adv-x="965" d="M 408 -8 C 334 -8 271 2 219 22 C 167 42 124 70 91 105 C 58 140 34 181 19 227 C 3 273 -4 321 -4 373 C -4 381 -3 389 -3 398 C -3 407 -2 417 -1 429 C 0 441 1 454 3 470 C 5 486 8 504 12 526 C 23 588 41 645 65 696 C 89 747 121 791 160 827 C 199 863 246 890 301 910 C 356 930 420 940 492 940 C 572 940 639 930 693 911 C 747 891 790 865 823 832 C 856 799 880 760 894 716 C 908 672 915 625 915 575 C 915 565 914 555 914 545 C 913 535 912 523 911 510 C 909 497 907 482 905 465 C 902 447 899 427 895 403 C 884 341 865 284 839 234 C 812 184 778 141 737 105 C 695 69 647 41 592 21 C 536 1 475 -8 408 -8 Z M 428 248 C 450 248 470 251 487 257 C 504 263 519 273 532 289 C 545 305 556 326 566 352 C 576 378 584 411 592 451 C 596 472 598 492 600 510 C 601 528 602 544 602 559 C 602 602 592 633 573 651 C 553 669 521 678 475 678 C 452 678 432 675 416 669 C 399 663 384 653 372 638 C 359 622 348 601 339 575 C 330 548 322 514 315 473 C 311 455 309 439 308 425 C 307 410 307 396 307 383 C 307 335 317 301 337 280 C 357 258 388 248 428 248 Z M 260 1257 L 545 1257 L 502 1008 L 217 1008 L 260 1257 Z M 641 1257 L 926 1257 L 883 1008 L 598 1008 L 641 1257 Z" unicode="ö" />
<glyph horiz-adv-x="1071" d="M 74 772 L 1006 772 L 1006 500 L 74 500 L 74 772 Z M 371 442 L 709 442 L 709 193 L 371 193 L 371 442 Z M 371 1079 L 709 1079 L 709 829 L 371 829 L 371 1079 Z" unicode="÷" />
<glyph horiz-adv-x="965" d="M 408 -8 C 350 -8 298 -1 252 12 L 197 -61 L -45 -61 L 85 113 C 53 147 31 187 17 231 C 3 275 -4 323 -4 373 C -4 381 -3 389 -3 398 C -3 407 -2 417 -1 429 C 0 441 1 454 3 470 C 5 486 8 504 12 526 C 23 588 41 645 65 696 C 89 747 121 791 160 827 C 199 863 246 890 301 910 C 356 930 420 940 492 940 C 556 940 614 933 664 920 L 727 1004 L 969 1004 L 833 822 C 862 789 883 752 896 710 C 908 668 915 623 915 575 C 915 565 914 555 914 545 C 913 535 912 523 911 510 C 909 497 907 482 905 465 C 902 447 899 427 895 403 C 884 341 865 284 839 234 C 812 184 778 141 737 105 C 695 69 647 41 592 21 C 536 1 475 -8 408 -8 Z M 303 473 C 299 455 297 440 295 427 C 293 413 293 400 293 387 L 506 687 C 501 687 496 688 492 688 C 487 688 482 688 477 688 C 453 688 431 685 413 679 C 395 673 379 662 365 646 C 351 630 340 608 330 580 C 320 552 311 516 303 473 Z M 426 238 C 450 238 471 241 489 247 C 507 253 524 265 538 281 C 552 297 565 319 576 347 C 586 374 596 409 604 451 C 606 466 608 481 610 495 C 612 509 613 522 615 534 L 404 239 C 407 238 410 238 414 238 C 418 238 422 238 426 238 Z" unicode="ø" />
<glyph horiz-adv-x="1012" d="M 520 82 C 487 56 450 35 409 18 C 367 0 320 -8 268 -8 C 208 -8 160 0 124 15 C 88 30 62 52 45 80 C 27 108 18 142 16 182 C 14 222 18 266 27 315 L 133 926 L 438 926 L 338 354 C 335 338 334 324 336 311 C 337 298 341 287 348 278 C 355 268 365 261 379 256 C 393 250 411 248 434 248 C 451 248 467 249 482 253 C 497 257 511 264 523 275 C 535 286 545 302 555 323 C 564 343 572 371 578 406 L 670 926 L 975 926 L 811 0 L 506 0 L 520 82 Z M 209 1262 L 554 1262 L 779 1008 L 461 1008 L 209 1262 Z" unicode="ù" />
<glyph horiz-adv-x="1012" d="M 520 82 C 487 56 450 35 409 18 C 367 0 320 -8 268 -8 C 208 -8 160 0 124 15 C 88 30 62 52 45 80 C 27 108 18 142 16 182 C 14 222 18 266 27 315 L 133 926 L 438 926 L 338 354 C 335 338 334 324 336 311 C 337 298 341 287 348 278 C 355 268 365 261 379 256 C 393 250 411 248 434 248 C 451 248 467 249 482 253 C 497 257 511 264 523 275 C 535 286 545 302 555 323 C 564 343 572 371 578 406 L 670 926 L 975 926 L 811 0 L 506 0 L 520 82 Z M 676 1262 L 1037 1262 L 695 1008 L 361 1008 L 676 1262 Z" unicode="ú" />
<glyph horiz-adv-x="1012" d="M 520 82 C 487 56 450 35 409 18 C 367 0 320 -8 268 -8 C 208 -8 160 0 124 15 C 88 30 62 52 45 80 C 27 108 18 142 16 182 C 14 222 18 266 27 315 L 133 926 L 438 926 L 338 354 C 335 338 334 324 336 311 C 337 298 341 287 348 278 C 355 268 365 261 379 256 C 393 250 411 248 434 248 C 451 248 467 249 482 253 C 497 257 511 264 523 275 C 535 286 545 302 555 323 C 564 343 572 371 578 406 L 670 926 L 975 926 L 811 0 L 506 0 L 520 82 Z M 443 1262 L 797 1262 L 961 1008 L 660 1008 L 590 1096 L 494 1008 L 189 1008 L 443 1262 Z" unicode="û" />
<glyph horiz-adv-x="1012" d="M 520 82 C 487 56 450 35 409 18 C 367 0 320 -8 268 -8 C 208 -8 160 0 124 15 C 88 30 62 52 45 80 C 27 108 18 142 16 182 C 14 222 18 266 27 315 L 133 926 L 438 926 L 338 354 C 335 338 334 324 336 311 C 337 298 341 287 348 278 C 355 268 365 261 379 256 C 393 250 411 248 434 248 C 451 248 467 249 482 253 C 497 257 511 264 523 275 C 535 286 545 302 555 323 C 564 343 572 371 578 406 L 670 926 L 975 926 L 811 0 L 506 0 L 520 82 Z M 285 1257 L 570 1257 L 527 1008 L 242 1008 L 285 1257 Z M 666 1257 L 951 1257 L 908 1008 L 623 1008 L 666 1257 Z" unicode="ü" />
<glyph horiz-adv-x="903" d="M -61 -113 L 27 -113 C 50 -113 69 -111 84 -107 C 99 -103 112 -97 122 -88 C 132 -79 142 -67 151 -52 C 160 -37 170 -18 182 4 L 49 926 L 371 926 L 424 457 L 643 926 L 961 926 L 403 -182 C 387 -214 368 -241 347 -265 C 326 -288 302 -307 276 -322 C 249 -336 219 -347 185 -354 C 151 -361 114 -365 72 -365 L -104 -365 L -61 -113 Z M 621 1262 L 982 1262 L 640 1008 L 306 1008 L 621 1262 Z" unicode="ý" />
<glyph horiz-adv-x="1040" d="M 217 1343 L 522 1343 L 434 844 C 448 858 462 870 478 882 C 494 894 511 904 531 912 C 550 920 571 927 595 932 C 619 937 646 940 676 940 C 751 940 810 927 853 902 C 895 876 926 842 945 799 C 964 756 973 706 973 649 C 973 591 967 531 956 467 L 946 414 C 936 355 921 300 901 249 C 881 197 856 153 825 115 C 794 77 757 47 714 25 C 670 3 620 -8 563 -8 C 525 -8 492 -5 464 -1 C 436 2 411 8 391 16 C 370 23 352 32 338 43 C 323 53 310 65 299 78 L 221 -365 L -84 -365 L 217 1343 Z M 496 248 C 518 248 537 252 553 260 C 569 268 582 280 593 297 C 604 314 613 336 621 363 C 629 389 636 421 643 459 C 647 481 650 502 653 521 C 655 539 657 557 657 573 C 657 607 648 633 632 651 C 615 669 586 678 545 678 C 492 678 453 662 427 631 C 401 600 383 555 373 496 L 358 416 C 352 384 351 357 354 336 C 356 314 363 297 375 284 C 386 271 402 262 422 256 C 442 250 466 248 496 248 Z" unicode="þ" />
<glyph horiz-adv-x="903" d="M -61 -113 L 27 -113 C 50 -113 69 -111 84 -107 C 99 -103 112 -97 122 -88 C 132 -79 142 -67 151 -52 C 160 -37 170 -18 182 4 L 49 926 L 371 926 L 424 457 L 643 926 L 961 926 L 403 -182 C 387 -214 368 -241 347 -265 C 326 -288 302 -307 276 -322 C 249 -336 219 -347 185 -354 C 151 -361 114 -365 72 -365 L -104 -365 L -61 -113 Z M 230 1257 L 515 1257 L 472 1008 L 187 1008 L 230 1257 Z M 611 1257 L 896 1257 L 853 1008 L 568 1008 L 611 1257 Z" unicode="ÿ" />
<glyph horiz-adv-x="1198" d="M 549 1292 L 879 1292 L 1081 0 L 760 0 L 727 209 L 329 209 L 223 0 L -104 0 L 549 1292 Z M 459 467 L 686 467 L 633 809 L 459 467 Z M 421 1574 L 1111 1574 L 1070 1343 L 380 1343 L 421 1574 Z" unicode="Ā" />
<glyph horiz-adv-x="1038" d="M 313 -8 C 255 -8 206 0 168 14 C 130 29 99 50 76 77 C 53 104 37 136 27 173 C 17 210 13 251 14 295 C 14 308 14 322 15 336 C 16 350 18 366 21 384 C 23 402 26 421 30 443 C 33 465 37 490 43 518 C 53 576 67 631 87 683 C 107 734 132 779 163 817 C 194 855 231 885 275 907 C 318 929 368 940 426 940 C 463 940 495 937 523 933 C 550 929 574 923 594 915 C 614 907 631 897 645 887 C 659 876 671 864 682 852 L 696 926 L 1001 926 L 838 0 L 532 0 L 547 86 C 533 72 519 59 504 48 C 488 36 471 26 453 18 C 434 10 413 3 390 -1 C 367 -5 341 -8 313 -8 Z M 444 248 C 470 248 492 251 511 259 C 529 267 545 278 558 294 C 570 309 580 328 588 351 C 596 373 602 400 608 430 L 623 510 C 628 542 629 568 627 590 C 625 611 618 628 608 641 C 597 654 582 663 563 669 C 544 675 521 678 494 678 C 470 678 451 674 435 666 C 419 658 406 645 395 628 C 384 611 375 589 367 563 C 359 536 352 504 346 467 C 342 444 338 423 336 405 C 333 386 332 368 332 352 C 332 318 340 292 357 274 C 373 256 402 248 444 248 Z M 283 1239 L 973 1239 L 932 1008 L 242 1008 L 283 1239 Z" unicode="ā" />
<glyph horiz-adv-x="1198" d="M 549 1292 L 879 1292 L 1081 0 L 760 0 L 727 209 L 329 209 L 223 0 L -104 0 L 549 1292 Z M 459 467 L 686 467 L 633 809 L 459 467 Z M 759 1343 C 695 1343 642 1347 598 1356 C 554 1364 518 1376 490 1392 C 462 1407 440 1425 425 1446 C 409 1467 399 1490 393 1514 C 387 1538 385 1563 387 1589 C 388 1615 391 1642 396 1668 L 704 1668 C 700 1646 698 1628 698 1612 C 697 1596 698 1583 702 1573 C 705 1563 711 1555 720 1550 C 729 1545 742 1543 759 1543 C 775 1543 788 1545 799 1550 C 810 1554 819 1562 827 1572 C 834 1582 840 1595 845 1611 C 850 1627 855 1646 861 1668 L 1168 1668 C 1160 1628 1150 1589 1136 1551 C 1122 1512 1100 1477 1070 1446 C 1040 1415 1001 1390 951 1371 C 901 1352 837 1343 759 1343 Z" unicode="Ă" />
<glyph horiz-adv-x="1038" d="M 313 -8 C 255 -8 206 0 168 14 C 130 29 99 50 76 77 C 53 104 37 136 27 173 C 17 210 13 251 14 295 C 14 308 14 322 15 336 C 16 350 18 366 21 384 C 23 402 26 421 30 443 C 33 465 37 490 43 518 C 53 576 67 631 87 683 C 107 734 132 779 163 817 C 194 855 231 885 275 907 C 318 929 368 940 426 940 C 463 940 495 937 523 933 C 550 929 574 923 594 915 C 614 907 631 897 645 887 C 659 876 671 864 682 852 L 696 926 L 1001 926 L 838 0 L 532 0 L 547 86 C 533 72 519 59 504 48 C 488 36 471 26 453 18 C 434 10 413 3 390 -1 C 367 -5 341 -8 313 -8 Z M 444 248 C 470 248 492 251 511 259 C 529 267 545 278 558 294 C 570 309 580 328 588 351 C 596 373 602 400 608 430 L 623 510 C 628 542 629 568 627 590 C 625 611 618 628 608 641 C 597 654 582 663 563 669 C 544 675 521 678 494 678 C 470 678 451 674 435 666 C 419 658 406 645 395 628 C 384 611 375 589 367 563 C 359 536 352 504 346 467 C 342 444 338 423 336 405 C 333 386 332 368 332 352 C 332 318 340 292 357 274 C 373 256 402 248 444 248 Z M 621 1008 C 557 1008 504 1012 460 1021 C 416 1029 380 1041 352 1057 C 324 1072 302 1090 287 1111 C 271 1132 261 1155 255 1179 C 249 1203 247 1228 249 1254 C 250 1280 253 1307 258 1333 L 566 1333 C 562 1311 560 1293 560 1277 C 559 1261 560 1248 564 1238 C 567 1228 573 1220 582 1215 C 591 1210 604 1208 621 1208 C 637 1208 650 1210 661 1215 C 672 1219 681 1227 689 1237 C 696 1247 702 1260 707 1276 C 712 1292 717 1311 723 1333 L 1030 1333 C 1022 1293 1012 1254 998 1216 C 984 1177 962 1142 932 1111 C 902 1080 863 1055 813 1036 C 763 1017 699 1008 621 1008 Z" unicode="ă" />
<glyph horiz-adv-x="1198" d="M 866 -336 C 828 -336 795 -333 765 -328 C 735 -323 709 -315 688 -303 C 667 -291 651 -275 640 -255 C 628 -235 623 -211 623 -182 C 623 -153 625 -128 631 -108 C 637 -88 646 -70 658 -54 C 670 -38 686 -22 705 -8 C 723 6 746 23 772 41 L 997 41 C 963 17 935 -2 915 -18 C 895 -33 879 -47 869 -59 C 858 -71 851 -82 848 -94 C 845 -105 844 -119 844 -135 C 844 -145 846 -154 852 -160 C 858 -166 869 -170 887 -170 C 907 -170 923 -167 934 -161 C 944 -155 954 -141 963 -121 L 1145 -186 C 1134 -206 1122 -226 1108 -244 C 1094 -262 1076 -277 1055 -291 C 1033 -305 1007 -316 977 -324 C 946 -332 909 -336 866 -336 Z M 549 1292 L 879 1292 L 1081 0 L 760 0 L 727 209 L 329 209 L 223 0 L -104 0 L 549 1292 Z M 459 467 L 686 467 L 633 809 L 459 467 Z" unicode="Ą" />
<glyph horiz-adv-x="1038" d="M 662 -336 C 624 -336 590 -333 560 -328 C 530 -323 504 -315 483 -303 C 462 -291 446 -275 435 -255 C 423 -235 418 -211 418 -182 C 418 -153 420 -128 426 -108 C 432 -88 441 -70 453 -54 C 465 -38 481 -22 500 -8 C 518 6 541 23 567 41 L 793 41 C 758 17 730 -2 710 -18 C 690 -33 674 -47 664 -59 C 653 -71 646 -82 643 -94 C 640 -105 639 -119 639 -135 C 639 -145 641 -154 647 -160 C 653 -166 664 -170 682 -170 C 702 -170 718 -167 729 -161 C 739 -155 749 -141 758 -121 L 940 -186 C 929 -206 917 -226 903 -244 C 889 -262 871 -277 850 -291 C 828 -305 802 -316 772 -324 C 742 -332 705 -336 662 -336 Z M 313 -8 C 255 -8 206 0 168 14 C 130 29 99 50 76 77 C 53 104 37 136 27 173 C 17 210 13 251 14 295 C 14 308 14 322 15 336 C 16 350 18 366 21 384 C 23 402 26 421 30 443 C 33 465 37 490 43 518 C 53 576 67 631 87 683 C 107 734 132 779 163 817 C 194 855 231 885 275 907 C 318 929 368 940 426 940 C 463 940 495 937 523 933 C 550 929 574 923 594 915 C 614 907 631 897 645 887 C 659 876 671 864 682 852 L 696 926 L 1001 926 L 838 0 L 532 0 L 547 86 C 533 72 519 59 504 48 C 488 36 471 26 453 18 C 434 10 413 3 390 -1 C 367 -5 341 -8 313 -8 Z M 444 248 C 470 248 492 251 511 259 C 529 267 545 278 558 294 C 570 309 580 328 588 351 C 596 373 602 400 608 430 L 623 510 C 628 542 629 568 627 590 C 625 611 618 628 608 641 C 597 654 582 663 563 669 C 544 675 521 678 494 678 C 470 678 451 674 435 666 C 419 658 406 645 395 628 C 384 611 375 589 367 563 C 359 536 352 504 346 467 C 342 444 338 423 336 405 C 333 386 332 368 332 352 C 332 318 340 292 357 274 C 373 256 402 248 444 248 Z" unicode="ą" />
<glyph horiz-adv-x="1200" d="M 555 -8 C 455 -8 371 4 303 28 C 235 52 181 85 140 127 C 99 169 70 219 53 277 C 35 334 27 396 27 463 C 27 478 27 494 28 510 C 29 526 31 545 33 565 C 35 585 38 609 42 635 C 46 661 51 692 57 727 C 73 816 95 896 125 966 C 154 1036 193 1095 241 1143 C 289 1191 349 1228 420 1254 C 491 1279 576 1292 676 1292 C 780 1292 866 1280 935 1257 C 1003 1234 1058 1202 1098 1161 C 1138 1119 1166 1070 1182 1013 C 1198 955 1204 893 1202 825 L 842 772 C 847 805 849 836 848 865 C 846 894 839 919 827 941 C 814 962 795 979 769 991 C 743 1003 708 1010 664 1010 C 623 1010 587 1003 557 991 C 527 979 500 960 478 935 C 456 909 437 877 423 837 C 408 797 396 750 387 696 C 381 664 377 636 373 613 C 369 590 367 570 365 554 C 363 537 361 523 361 511 C 360 499 360 487 360 477 C 360 443 363 413 371 388 C 379 362 392 341 410 324 C 428 306 451 293 480 285 C 508 276 544 272 586 272 C 620 272 649 277 673 287 C 697 297 719 312 737 334 C 755 356 770 384 783 419 C 796 453 808 495 819 545 L 1159 498 C 1142 422 1118 354 1086 292 C 1054 230 1013 176 964 132 C 915 87 857 52 789 28 C 721 4 643 -8 555 -8 Z M 829 1597 L 1190 1597 L 848 1343 L 514 1343 L 829 1597 Z" unicode="Ć" />
<glyph horiz-adv-x="944" d="M 401 -8 C 327 -8 265 1 214 20 C 162 39 120 65 88 98 C 55 131 31 170 16 215 C 1 260 -6 308 -6 360 C -6 368 -5 377 -5 387 C -4 397 -3 408 -2 421 C 0 433 1 448 3 464 C 5 480 8 500 12 522 C 26 599 48 664 79 717 C 110 770 147 813 190 846 C 232 879 280 903 332 918 C 384 932 438 940 494 940 C 570 940 635 931 687 914 C 739 896 782 872 814 841 C 846 810 870 773 885 731 C 899 688 907 641 909 590 L 590 539 C 594 567 595 591 591 609 C 587 627 579 641 569 651 C 559 661 545 668 528 672 C 511 676 492 678 471 678 C 449 678 430 674 414 668 C 398 662 384 651 372 635 C 360 619 349 599 341 573 C 333 547 325 514 319 475 C 315 454 313 435 311 419 C 309 402 309 387 309 373 C 309 329 318 297 336 276 C 354 254 386 244 432 244 C 450 244 467 245 482 249 C 496 253 509 259 520 268 C 531 277 541 289 549 304 C 557 319 563 338 569 362 L 868 309 C 854 260 833 216 806 177 C 778 138 745 105 705 77 C 665 49 620 28 569 14 C 517 0 461 -8 401 -8 Z M 641 1262 L 1002 1262 L 660 1008 L 326 1008 L 641 1262 Z" unicode="ć" />
<glyph horiz-adv-x="1200" d="M 555 -8 C 455 -8 371 4 303 28 C 235 52 181 85 140 127 C 99 169 70 219 53 277 C 35 334 27 396 27 463 C 27 478 27 494 28 510 C 29 526 31 545 33 565 C 35 585 38 609 42 635 C 46 661 51 692 57 727 C 73 816 95 896 125 966 C 154 1036 193 1095 241 1143 C 289 1191 349 1228 420 1254 C 491 1279 576 1292 676 1292 C 780 1292 866 1280 935 1257 C 1003 1234 1058 1202 1098 1161 C 1138 1119 1166 1070 1182 1013 C 1198 955 1204 893 1202 825 L 842 772 C 847 805 849 836 848 865 C 846 894 839 919 827 941 C 814 962 795 979 769 991 C 743 1003 708 1010 664 1010 C 623 1010 587 1003 557 991 C 527 979 500 960 478 935 C 456 909 437 877 423 837 C 408 797 396 750 387 696 C 381 664 377 636 373 613 C 369 590 367 570 365 554 C 363 537 361 523 361 511 C 360 499 360 487 360 477 C 360 443 363 413 371 388 C 379 362 392 341 410 324 C 428 306 451 293 480 285 C 508 276 544 272 586 272 C 620 272 649 277 673 287 C 697 297 719 312 737 334 C 755 356 770 384 783 419 C 796 453 808 495 819 545 L 1159 498 C 1142 422 1118 354 1086 292 C 1054 230 1013 176 964 132 C 915 87 857 52 789 28 C 721 4 643 -8 555 -8 Z M 387 1597 L 688 1597 L 754 1506 L 854 1597 L 1159 1597 L 905 1343 L 551 1343 L 387 1597 Z" unicode="Č" />
<glyph horiz-adv-x="944" d="M 401 -8 C 327 -8 265 1 214 20 C 162 39 120 65 88 98 C 55 131 31 170 16 215 C 1 260 -6 308 -6 360 C -6 368 -5 377 -5 387 C -4 397 -3 408 -2 421 C 0 433 1 448 3 464 C 5 480 8 500 12 522 C 26 599 48 664 79 717 C 110 770 147 813 190 846 C 232 879 280 903 332 918 C 384 932 438 940 494 940 C 570 940 635 931 687 914 C 739 896 782 872 814 841 C 846 810 870 773 885 731 C 899 688 907 641 909 590 L 590 539 C 594 567 595 591 591 609 C 587 627 579 641 569 651 C 559 661 545 668 528 672 C 511 676 492 678 471 678 C 449 678 430 674 414 668 C 398 662 384 651 372 635 C 360 619 349 599 341 573 C 333 547 325 514 319 475 C 315 454 313 435 311 419 C 309 402 309 387 309 373 C 309 329 318 297 336 276 C 354 254 386 244 432 244 C 450 244 467 245 482 249 C 496 253 509 259 520 268 C 531 277 541 289 549 304 C 557 319 563 338 569 362 L 868 309 C 854 260 833 216 806 177 C 778 138 745 105 705 77 C 665 49 620 28 569 14 C 517 0 461 -8 401 -8 Z M 199 1262 L 500 1262 L 566 1171 L 666 1262 L 971 1262 L 717 1008 L 363 1008 L 199 1262 Z" unicode="č" />
<glyph horiz-adv-x="1204" d="M 223 1282 L 629 1282 C 733 1282 821 1271 893 1251 C 964 1230 1021 1200 1065 1162 C 1109 1123 1140 1076 1159 1021 C 1178 966 1188 904 1188 836 C 1188 820 1187 804 1186 787 C 1185 770 1183 751 1181 729 C 1178 707 1174 682 1170 654 C 1165 626 1159 593 1153 555 C 1137 467 1112 388 1080 320 C 1048 251 1006 193 955 145 C 904 97 844 61 774 37 C 704 12 625 0 535 0 L -2 0 L 223 1282 Z M 535 266 C 583 266 624 273 657 288 C 689 302 716 323 738 351 C 759 379 776 412 789 452 C 802 491 813 536 823 586 C 829 618 833 645 837 667 C 841 689 844 707 846 723 C 848 739 849 752 850 763 C 851 773 852 783 852 793 C 852 867 832 922 793 957 C 754 992 692 1010 606 1010 L 504 1010 L 373 266 L 535 266 Z M 389 1597 L 690 1597 L 756 1506 L 856 1597 L 1161 1597 L 907 1343 L 553 1343 L 389 1597 Z" unicode="Ď" />
<glyph horiz-adv-x="1313" d="M 313 -8 C 255 -8 206 0 168 14 C 130 29 99 50 76 77 C 53 104 37 136 27 173 C 17 210 13 251 14 295 C 14 308 14 322 15 336 C 16 350 18 366 21 384 C 23 402 26 421 30 443 C 33 465 37 490 43 518 C 53 576 67 631 87 683 C 107 734 132 779 163 817 C 194 855 231 885 275 907 C 318 929 368 940 426 940 C 464 940 497 937 525 933 C 553 929 577 923 598 915 C 618 907 636 897 651 886 C 665 875 678 863 690 850 L 778 1343 L 1083 1343 L 846 0 L 541 0 L 555 88 C 541 74 526 61 510 49 C 494 37 476 27 457 19 C 437 11 416 4 392 0 C 368 -5 342 -8 313 -8 Z M 444 248 C 496 248 536 263 562 294 C 588 324 606 370 616 430 L 631 510 C 636 542 637 568 635 590 C 632 611 625 628 614 641 C 602 654 587 663 567 669 C 547 675 522 678 494 678 C 470 678 451 674 435 666 C 419 658 406 645 395 628 C 384 611 375 589 367 563 C 359 536 352 504 346 467 C 342 444 338 423 336 405 C 333 386 332 368 332 352 C 332 318 340 292 357 274 C 373 256 402 248 444 248 Z M 1103 1005 C 1127 1007 1148 1009 1166 1011 C 1183 1013 1197 1016 1209 1022 C 1220 1028 1229 1035 1235 1045 C 1241 1055 1245 1068 1249 1085 L 1118 1085 L 1163 1343 L 1456 1343 L 1413 1085 C 1405 1043 1394 1008 1382 978 C 1369 948 1350 924 1326 906 C 1301 887 1269 873 1229 865 C 1189 856 1138 852 1077 852 L 1103 1005 Z" unicode="ď" />
<glyph horiz-adv-x="1204" d="M 29 793 L 137 793 L 223 1282 L 629 1282 C 733 1282 821 1271 893 1251 C 964 1230 1021 1200 1065 1162 C 1109 1123 1140 1076 1159 1021 C 1178 966 1188 904 1188 836 C 1188 820 1187 804 1186 787 C 1185 770 1183 751 1181 729 C 1178 707 1174 682 1170 654 C 1165 626 1159 593 1153 555 C 1137 467 1112 388 1080 320 C 1048 251 1006 193 955 145 C 904 97 844 61 774 37 C 704 12 625 0 535 0 L -2 0 L 89 520 L -18 520 L 29 793 Z M 535 266 C 583 266 624 273 657 288 C 689 302 716 323 738 351 C 759 379 776 412 789 452 C 802 491 813 536 823 586 C 829 618 833 645 837 667 C 841 689 844 707 846 723 C 848 739 849 752 850 763 C 851 773 852 783 852 793 C 852 867 832 922 793 957 C 754 992 692 1010 606 1010 L 504 1010 L 465 793 L 633 793 L 586 520 L 417 520 L 373 266 L 535 266 Z" unicode="Đ" />
<glyph horiz-adv-x="1047" d="M 580 1225 L 757 1225 L 778 1343 L 1083 1343 L 1062 1225 L 1151 1225 L 1112 993 L 1021 993 L 846 0 L 541 0 L 555 88 C 541 74 526 61 510 49 C 494 37 476 27 457 19 C 437 11 416 4 392 0 C 368 -5 342 -8 313 -8 C 255 -8 206 0 168 14 C 130 29 99 50 76 77 C 53 104 37 136 27 173 C 17 210 13 251 14 295 C 14 308 14 322 15 336 C 16 350 18 366 21 384 C 23 402 26 421 30 443 C 33 465 37 490 43 518 C 53 576 67 631 87 683 C 107 734 132 779 163 817 C 194 855 231 885 275 907 C 318 929 368 940 426 940 C 464 940 497 937 525 933 C 553 929 577 923 598 915 C 618 907 636 897 651 886 C 665 875 678 863 690 850 L 715 993 L 541 993 L 580 1225 Z M 444 248 C 496 248 536 263 562 294 C 588 324 606 370 616 430 L 631 510 C 636 542 637 568 635 590 C 632 611 625 628 614 641 C 602 654 587 663 567 669 C 547 675 522 678 494 678 C 470 678 451 674 435 666 C 419 658 406 645 395 628 C 384 611 375 589 367 563 C 359 536 352 504 346 467 C 342 444 338 423 336 405 C 333 386 332 368 332 352 C 332 318 340 292 357 274 C 373 256 402 248 444 248 Z" unicode="đ" />
<glyph horiz-adv-x="1094" d="M 223 1282 L 1128 1282 L 1079 999 L 502 999 L 473 827 L 987 827 L 938 549 L 422 549 L 375 281 L 952 281 L 903 0 L -2 0 L 223 1282 Z M 370 1574 L 1060 1574 L 1019 1343 L 329 1343 L 370 1574 Z" unicode="Ē" />
<glyph horiz-adv-x="944" d="M 412 -8 C 338 -8 274 0 222 18 C 169 36 126 60 92 92 C 58 124 34 162 18 206 C 2 250 -6 300 -6 354 C -6 363 -5 373 -5 383 C -5 393 -4 405 -3 418 C -1 431 0 446 2 463 C 4 480 8 500 12 524 C 24 597 45 660 75 712 C 105 764 140 807 182 841 C 224 875 270 900 322 916 C 373 932 427 940 483 940 C 558 940 622 931 674 915 C 726 899 768 876 801 848 C 833 819 857 785 871 745 C 885 705 893 662 893 616 C 893 600 892 583 890 566 C 888 548 886 531 883 514 L 858 383 L 291 383 C 289 374 289 366 289 360 C 289 353 289 347 289 342 C 289 302 299 272 320 252 C 341 232 380 223 436 223 C 458 223 476 224 490 227 C 504 229 515 234 523 240 C 531 246 538 255 543 265 C 548 275 553 287 559 301 L 840 248 C 830 216 815 184 796 154 C 776 123 750 96 716 72 C 682 48 641 28 591 14 C 541 0 482 -8 412 -8 Z M 473 696 C 449 696 429 693 413 689 C 397 684 383 676 371 666 C 359 656 350 642 342 625 C 334 607 327 586 321 561 L 597 561 C 597 566 598 571 598 576 C 598 580 598 585 598 590 C 598 624 589 650 571 668 C 553 686 521 696 473 696 Z M 236 1239 L 926 1239 L 885 1008 L 195 1008 L 236 1239 Z" unicode="ē" />
<glyph horiz-adv-x="1094" d="M 223 1282 L 1128 1282 L 1079 999 L 502 999 L 473 827 L 987 827 L 938 549 L 422 549 L 375 281 L 952 281 L 903 0 L -2 0 L 223 1282 Z M 558 1617 L 884 1617 L 837 1343 L 511 1343 L 558 1617 Z" unicode="Ė" />
<glyph horiz-adv-x="1497" d="M 748 -8 C 662 -8 585 0 519 15 C 453 30 395 52 347 80 C 298 108 257 142 224 182 C 190 221 164 264 144 312 C 124 360 109 411 101 466 C 92 520 88 577 88 637 C 88 696 92 753 101 808 C 109 863 124 914 144 962 C 164 1010 190 1053 224 1093 C 257 1132 298 1166 347 1194 C 395 1222 453 1243 519 1259 C 585 1274 662 1282 748 1282 C 834 1282 911 1274 977 1259 C 1043 1243 1101 1222 1150 1194 C 1199 1166 1240 1132 1273 1093 C 1306 1053 1333 1010 1353 962 C 1373 914 1387 863 1396 808 C 1404 753 1409 696 1409 637 C 1409 578 1404 521 1396 466 C 1387 411 1373 360 1353 312 C 1333 264 1306 221 1273 182 C 1240 142 1199 108 1150 80 C 1101 52 1043 30 977 15 C 911 0 834 -8 748 -8 Z M 748 152 C 845 152 925 162 988 184 C 1051 205 1101 236 1137 278 C 1173 319 1199 370 1213 430 C 1227 490 1235 559 1235 637 C 1235 715 1227 784 1213 844 C 1199 904 1173 955 1137 996 C 1101 1037 1051 1068 988 1090 C 925 1111 845 1122 748 1122 C 650 1122 570 1111 508 1090 C 445 1068 395 1037 359 996 C 323 955 297 904 283 844 C 269 784 262 715 262 637 C 262 559 269 490 283 430 C 297 370 323 319 359 278 C 395 236 445 205 508 184 C 570 162 650 152 748 152 Z M 487 1004 L 823 1004 C 855 1004 887 1000 920 993 C 952 985 982 972 1008 953 C 1034 934 1055 908 1071 876 C 1087 844 1096 802 1096 752 C 1096 704 1088 663 1072 630 C 1056 597 1035 570 1009 550 C 983 530 953 515 921 507 C 888 498 855 494 823 494 L 674 494 L 674 276 L 487 276 L 487 1004 Z M 795 643 C 871 643 909 677 909 745 C 909 778 899 804 881 822 C 862 840 833 850 795 850 L 674 850 L 674 643 L 795 643 Z" unicode="℗" />
<glyph horiz-adv-x="1094" d="M 223 1282 L 1128 1282 L 1079 999 L 502 999 L 473 827 L 987 827 L 938 549 L 422 549 L 375 281 L 952 281 L 903 0 L -2 0 L 223 1282 Z M 696 -336 C 658 -336 625 -333 595 -328 C 565 -323 539 -315 518 -303 C 497 -291 481 -275 470 -255 C 458 -235 453 -211 453 -182 C 453 -153 455 -128 461 -108 C 467 -88 476 -70 488 -54 C 500 -38 516 -22 535 -8 C 553 6 576 23 602 41 L 827 41 C 793 17 765 -2 745 -18 C 725 -33 709 -46 699 -58 C 688 -70 681 -81 678 -92 C 675 -102 674 -115 674 -129 C 674 -142 677 -152 683 -159 C 689 -166 703 -170 725 -170 C 741 -170 755 -167 765 -161 C 775 -155 784 -141 793 -121 L 975 -186 C 964 -206 952 -226 938 -244 C 924 -262 906 -277 885 -291 C 863 -305 837 -316 807 -324 C 776 -332 739 -336 696 -336 Z" unicode="Ę" />
<glyph horiz-adv-x="944" d="M 412 -8 C 338 -8 274 0 222 18 C 169 36 126 60 92 92 C 58 124 34 162 18 206 C 2 250 -6 300 -6 354 C -6 363 -5 373 -5 383 C -5 393 -4 405 -3 418 C -1 431 0 446 2 463 C 4 480 8 500 12 524 C 24 597 45 660 75 712 C 105 764 140 807 182 841 C 224 875 270 900 322 916 C 373 932 427 940 483 940 C 558 940 622 931 674 915 C 726 899 768 876 801 848 C 833 819 857 785 871 745 C 885 705 893 662 893 616 C 893 600 892 583 890 566 C 888 548 886 531 883 514 L 858 383 L 291 383 C 289 374 289 366 289 360 C 289 353 289 347 289 342 C 289 302 299 272 320 252 C 341 232 380 223 436 223 C 458 223 476 224 490 227 C 504 229 515 234 523 240 C 531 246 538 255 543 265 C 548 275 553 287 559 301 L 840 248 C 830 216 815 184 796 154 C 776 123 750 96 716 72 C 682 48 641 28 591 14 C 541 0 482 -8 412 -8 Z M 473 696 C 449 696 429 693 413 689 C 397 684 383 676 371 666 C 359 656 350 642 342 625 C 334 607 327 586 321 561 L 597 561 C 597 566 598 571 598 576 C 598 580 598 585 598 590 C 598 624 589 650 571 668 C 553 686 521 696 473 696 Z M 458 -336 C 420 -336 387 -333 357 -328 C 327 -323 301 -315 280 -303 C 259 -291 243 -275 232 -255 C 220 -235 215 -211 215 -182 C 215 -153 217 -128 223 -108 C 229 -88 238 -70 250 -54 C 262 -38 278 -22 297 -8 C 315 6 338 23 364 41 L 589 41 C 555 17 527 -2 507 -18 C 487 -33 471 -46 461 -58 C 450 -70 443 -81 440 -92 C 437 -102 436 -115 436 -129 C 436 -142 439 -152 445 -159 C 451 -166 465 -170 487 -170 C 503 -170 517 -167 527 -161 C 537 -155 546 -141 555 -121 L 737 -186 C 726 -206 714 -226 700 -244 C 686 -262 668 -277 647 -291 C 625 -305 599 -316 569 -324 C 538 -332 501 -336 458 -336 Z" unicode="ę" />
<glyph horiz-adv-x="1094" d="M 223 1282 L 1128 1282 L 1079 999 L 502 999 L 473 827 L 987 827 L 938 549 L 422 549 L 375 281 L 952 281 L 903 0 L -2 0 L 223 1282 Z M 333 1597 L 634 1597 L 700 1506 L 800 1597 L 1105 1597 L 851 1343 L 497 1343 L 333 1597 Z" unicode="Ě" />
<glyph horiz-adv-x="944" d="M 412 -8 C 338 -8 274 0 222 18 C 169 36 126 60 92 92 C 58 124 34 162 18 206 C 2 250 -6 300 -6 354 C -6 363 -5 373 -5 383 C -5 393 -4 405 -3 418 C -1 431 0 446 2 463 C 4 480 8 500 12 524 C 24 597 45 660 75 712 C 105 764 140 807 182 841 C 224 875 270 900 322 916 C 373 932 427 940 483 940 C 558 940 622 931 674 915 C 726 899 768 876 801 848 C 833 819 857 785 871 745 C 885 705 893 662 893 616 C 893 600 892 583 890 566 C 888 548 886 531 883 514 L 858 383 L 291 383 C 289 374 289 366 289 360 C 289 353 289 347 289 342 C 289 302 299 272 320 252 C 341 232 380 223 436 223 C 458 223 476 224 490 227 C 504 229 515 234 523 240 C 531 246 538 255 543 265 C 548 275 553 287 559 301 L 840 248 C 830 216 815 184 796 154 C 776 123 750 96 716 72 C 682 48 641 28 591 14 C 541 0 482 -8 412 -8 Z M 473 696 C 449 696 429 693 413 689 C 397 684 383 676 371 666 C 359 656 350 642 342 625 C 334 607 327 586 321 561 L 597 561 C 597 566 598 571 598 576 C 598 580 598 585 598 590 C 598 624 589 650 571 668 C 553 686 521 696 473 696 Z M 199 1262 L 500 1262 L 566 1171 L 666 1262 L 971 1262 L 717 1008 L 363 1008 L 199 1262 Z" unicode="ě" />
<glyph horiz-adv-x="1264" d="M 494 -8 C 409 -8 337 3 278 25 C 218 47 170 79 132 119 C 94 159 67 208 50 265 C 33 321 25 384 25 453 C 25 468 25 484 26 500 C 27 516 29 535 31 556 C 33 576 36 600 40 626 C 44 652 49 683 55 719 C 71 820 96 907 130 979 C 163 1051 205 1111 255 1157 C 305 1203 365 1237 434 1259 C 503 1281 582 1292 670 1292 C 755 1292 831 1283 897 1266 C 963 1249 1019 1224 1064 1190 C 1109 1156 1143 1113 1167 1063 C 1190 1012 1202 953 1202 887 L 864 836 C 868 870 865 899 857 922 C 848 944 834 962 815 975 C 796 988 773 997 746 1002 C 718 1007 689 1010 657 1010 C 611 1010 574 1002 544 988 C 514 974 488 953 468 926 C 448 898 431 865 419 825 C 407 785 396 740 387 690 C 381 658 377 630 373 607 C 369 583 365 563 363 546 C 360 529 358 514 357 502 C 356 489 356 477 356 467 C 356 436 359 408 367 384 C 374 360 386 339 404 323 C 422 306 445 293 475 285 C 504 276 541 272 586 272 C 616 272 643 275 669 281 C 695 287 718 299 740 315 C 761 331 780 353 797 381 C 814 408 829 443 842 485 L 842 487 L 584 487 L 629 745 L 1192 745 L 1061 0 L 793 0 L 788 98 C 758 64 720 38 674 20 C 627 1 567 -8 494 -8 Z M 792 1343 C 728 1343 675 1347 631 1356 C 587 1364 551 1376 523 1392 C 495 1407 473 1425 458 1446 C 442 1467 432 1490 426 1514 C 420 1538 418 1563 420 1589 C 421 1615 424 1642 429 1668 L 737 1668 C 733 1646 731 1628 731 1612 C 730 1596 731 1583 735 1573 C 738 1563 744 1555 753 1550 C 762 1545 775 1543 792 1543 C 808 1543 821 1545 832 1550 C 843 1554 852 1562 860 1572 C 867 1582 873 1595 878 1611 C 883 1627 888 1646 894 1668 L 1201 1668 C 1193 1628 1183 1589 1169 1551 C 1155 1512 1133 1477 1103 1446 C 1073 1415 1034 1390 984 1371 C 934 1352 870 1343 792 1343 Z" unicode="Ğ" />
<glyph horiz-adv-x="1044" d="M 416 -375 C 319 -375 240 -369 180 -357 C 120 -345 72 -329 37 -310 C 1 -290 -24 -268 -42 -243 C -59 -218 -73 -193 -84 -168 L 229 -74 C 233 -85 238 -94 246 -102 C 253 -110 263 -116 277 -120 C 291 -124 308 -128 329 -130 C 350 -132 376 -133 408 -133 C 432 -133 451 -130 467 -124 C 482 -118 494 -110 504 -100 C 513 -90 520 -77 525 -61 C 530 -45 535 -28 539 -8 L 555 90 C 541 76 526 64 510 53 C 494 42 476 33 457 25 C 437 17 416 10 392 6 C 368 2 342 0 313 0 C 255 0 207 7 169 21 C 131 35 100 56 77 82 C 54 108 38 138 28 174 C 18 210 14 249 14 293 C 14 306 14 320 15 334 C 16 348 18 364 21 382 C 23 400 26 420 30 442 C 33 464 37 489 43 518 C 53 576 67 631 87 683 C 107 734 132 779 163 817 C 194 855 231 885 275 907 C 318 929 368 940 426 940 C 464 940 497 937 525 933 C 553 929 577 923 598 915 C 618 907 636 897 651 886 C 665 875 678 863 690 850 L 705 926 L 1010 926 L 846 4 C 835 -56 819 -110 799 -157 C 778 -204 751 -244 717 -276 C 683 -308 641 -333 592 -350 C 542 -366 484 -375 416 -375 Z M 444 248 C 496 248 536 263 562 294 C 588 324 606 370 616 430 L 631 510 C 636 542 637 568 635 590 C 632 611 625 628 614 641 C 602 654 587 663 567 669 C 547 675 522 678 494 678 C 470 678 451 674 435 666 C 419 658 406 645 395 628 C 384 611 375 589 367 563 C 359 536 352 504 346 467 C 342 444 338 423 336 405 C 333 386 332 368 332 352 C 332 318 340 292 357 274 C 373 256 402 248 444 248 Z M 625 1008 C 561 1008 508 1012 464 1021 C 420 1029 384 1041 356 1057 C 328 1072 306 1090 291 1111 C 275 1132 265 1155 259 1179 C 253 1203 251 1228 253 1254 C 254 1280 257 1307 262 1333 L 570 1333 C 566 1311 564 1293 564 1277 C 563 1261 564 1248 568 1238 C 571 1228 577 1220 586 1215 C 595 1210 608 1208 625 1208 C 641 1208 654 1210 665 1215 C 676 1219 685 1227 693 1237 C 700 1247 706 1260 711 1276 C 716 1292 721 1311 727 1333 L 1034 1333 C 1026 1293 1016 1254 1002 1216 C 988 1177 966 1142 936 1111 C 906 1080 867 1055 817 1036 C 767 1017 703 1008 625 1008 Z" unicode="ğ" />
<glyph horiz-adv-x="2679" d="M 393 434 C 333 434 282 442 240 458 C 198 474 165 496 140 524 C 114 552 96 585 85 624 C 73 662 68 704 68 750 C 68 758 68 768 69 778 C 69 788 70 800 72 813 C 73 826 75 841 77 858 C 79 875 82 895 86 918 C 96 978 110 1031 128 1077 C 146 1123 171 1162 201 1194 C 231 1226 268 1250 312 1267 C 356 1283 407 1292 467 1292 C 534 1292 590 1284 636 1270 C 682 1255 718 1234 746 1208 C 774 1182 793 1151 805 1115 C 817 1079 823 1039 823 997 C 823 975 821 950 817 922 C 813 894 807 855 797 807 C 785 747 768 694 747 648 C 725 602 698 563 666 531 C 633 499 594 475 549 459 C 503 442 451 434 393 434 Z M 416 659 C 428 659 440 660 453 664 C 465 668 478 676 490 688 C 502 700 513 717 524 740 C 535 763 545 794 553 834 C 556 851 559 866 561 878 C 563 890 565 901 567 910 C 568 919 569 927 570 934 C 570 940 571 946 571 952 C 571 994 560 1022 540 1038 C 520 1053 493 1061 461 1061 C 447 1061 433 1059 421 1056 C 409 1053 397 1046 386 1034 C 374 1022 364 1005 354 982 C 344 959 336 928 328 889 C 324 872 321 858 319 846 C 317 834 315 824 314 816 C 312 808 311 801 311 795 C 311 789 311 783 311 778 C 311 755 313 736 319 721 C 325 706 332 694 342 685 C 352 675 363 669 376 665 C 388 661 402 659 416 659 Z M 1434 -8 C 1373 -8 1322 0 1281 16 C 1239 32 1206 54 1180 82 C 1154 110 1136 143 1125 181 C 1113 219 1108 261 1108 307 C 1108 316 1108 326 1109 336 C 1109 346 1110 358 1112 371 C 1113 384 1115 399 1117 416 C 1119 432 1122 452 1126 475 C 1136 535 1150 588 1169 635 C 1187 681 1212 720 1242 752 C 1272 784 1309 808 1353 825 C 1396 841 1447 850 1507 850 C 1575 850 1631 842 1677 828 C 1723 813 1759 792 1787 766 C 1815 740 1834 709 1846 673 C 1858 637 1864 597 1864 555 C 1864 533 1862 508 1858 480 C 1854 452 1847 413 1837 365 C 1825 305 1808 252 1787 206 C 1765 160 1738 121 1706 89 C 1673 57 1634 33 1589 17 C 1544 0 1492 -8 1434 -8 Z M 1456 217 C 1468 217 1480 218 1493 222 C 1506 226 1519 234 1531 246 C 1543 258 1554 275 1565 298 C 1575 321 1585 352 1593 391 C 1600 425 1605 451 1608 468 C 1610 484 1612 498 1612 510 C 1612 530 1609 548 1604 562 C 1598 576 1591 587 1581 595 C 1571 603 1560 609 1546 613 C 1532 616 1517 618 1501 618 C 1487 618 1473 616 1461 613 C 1449 610 1437 603 1426 591 C 1415 579 1405 562 1395 539 C 1385 516 1376 485 1368 446 C 1364 430 1361 416 1359 404 C 1357 392 1355 382 1354 374 C 1353 365 1352 358 1352 352 C 1352 346 1352 340 1352 336 C 1352 313 1354 294 1360 279 C 1366 264 1373 252 1383 243 C 1393 233 1404 227 1416 223 C 1428 219 1442 217 1456 217 Z M 2191 -8 C 2131 -8 2080 0 2038 16 C 1996 32 1963 54 1938 82 C 1912 110 1894 143 1883 181 C 1871 219 1866 261 1866 307 C 1866 316 1866 326 1867 336 C 1867 346 1868 358 1870 371 C 1871 384 1873 399 1875 416 C 1877 432 1880 452 1884 475 C 1894 535 1908 588 1927 635 C 1945 681 1970 720 2000 752 C 2030 784 2067 808 2111 825 C 2154 841 2205 850 2265 850 C 2332 850 2388 842 2434 828 C 2480 813 2516 792 2544 766 C 2572 740 2591 709 2603 673 C 2615 637 2621 597 2621 555 C 2621 533 2619 508 2615 480 C 2611 452 2605 413 2595 365 C 2583 305 2566 252 2545 206 C 2523 160 2496 121 2464 89 C 2431 57 2392 33 2347 17 C 2301 0 2249 -8 2191 -8 Z M 2214 217 C 2226 217 2238 218 2251 222 C 2263 226 2276 234 2288 246 C 2300 258 2311 275 2322 298 C 2333 321 2343 352 2351 391 C 2357 425 2362 451 2365 468 C 2368 484 2370 498 2370 510 C 2370 530 2367 548 2362 562 C 2356 576 2349 587 2339 595 C 2329 603 2317 609 2303 613 C 2289 616 2275 618 2259 618 C 2245 618 2231 616 2219 613 C 2207 610 2195 603 2184 591 C 2173 579 2163 562 2153 539 C 2143 516 2134 485 2126 446 C 2118 413 2114 389 2112 374 C 2110 358 2109 346 2109 336 C 2109 313 2111 294 2117 279 C 2123 264 2130 252 2140 243 C 2150 233 2161 227 2174 223 C 2186 219 2200 217 2214 217 Z M 1212 1282 L 1499 1282 L 711 0 L 424 0 L 1212 1282 Z" unicode="‰" />
<glyph horiz-adv-x="1520" d="M 885 1282 L 1157 1282 L 1184 934 L 1333 1282 L 1606 1282 L 1493 641 L 1303 641 L 1366 995 L 1217 641 L 1038 641 L 1016 993 L 952 641 L 772 641 L 885 1282 Z M 410 1110 L 227 1110 L 256 1282 L 823 1282 L 795 1110 L 614 1110 L 530 641 L 326 641 L 410 1110 Z" unicode="™" />
<glyph horiz-adv-x="1044" d="M 416 -375 C 319 -375 240 -369 180 -357 C 120 -345 72 -329 37 -310 C 1 -290 -24 -268 -42 -243 C -59 -218 -73 -193 -84 -168 L 229 -74 C 233 -85 238 -94 246 -102 C 253 -110 263 -116 277 -120 C 291 -124 308 -128 329 -130 C 350 -132 376 -133 408 -133 C 432 -133 451 -130 467 -124 C 482 -118 494 -110 504 -100 C 513 -90 520 -77 525 -61 C 530 -45 535 -28 539 -8 L 555 90 C 541 76 526 64 510 53 C 494 42 476 33 457 25 C 437 17 416 10 392 6 C 368 2 342 0 313 0 C 255 0 207 7 169 21 C 131 35 100 56 77 82 C 54 108 38 138 28 174 C 18 210 14 249 14 293 C 14 306 14 320 15 334 C 16 348 18 364 21 382 C 23 400 26 420 30 442 C 33 464 37 489 43 518 C 53 576 67 631 87 683 C 107 734 132 779 163 817 C 194 855 231 885 275 907 C 318 929 368 940 426 940 C 464 940 497 937 525 933 C 553 929 577 923 598 915 C 618 907 636 897 651 886 C 665 875 678 863 690 850 L 705 926 L 1010 926 L 846 4 C 835 -56 819 -110 799 -157 C 778 -204 751 -244 717 -276 C 683 -308 641 -333 592 -350 C 542 -366 484 -375 416 -375 Z M 444 248 C 496 248 536 263 562 294 C 588 324 606 370 616 430 L 631 510 C 636 542 637 568 635 590 C 632 611 625 628 614 641 C 602 654 587 663 567 669 C 547 675 522 678 494 678 C 470 678 451 674 435 666 C 419 658 406 645 395 628 C 384 611 375 589 367 563 C 359 536 352 504 346 467 C 342 444 338 423 336 405 C 333 386 332 368 332 352 C 332 318 340 292 357 274 C 373 256 402 248 444 248 Z M 485 1264 C 493 1305 503 1340 516 1370 C 528 1400 547 1424 572 1443 C 596 1461 629 1475 669 1484 C 709 1492 759 1497 821 1497 L 795 1343 C 770 1341 749 1339 732 1337 C 714 1335 700 1331 689 1326 C 677 1320 668 1313 662 1303 C 656 1293 651 1280 649 1264 L 780 1264 L 735 1006 L 442 1006 L 485 1264 Z" unicode="ģ" />
<glyph horiz-adv-x="553" d="M 227 1282 L 555 1282 L 330 0 L 2 0 L 227 1282 Z M 101 1574 L 791 1574 L 750 1343 L 60 1343 L 101 1574 Z" unicode="Ī" />
<glyph horiz-adv-x="494" d="M 147 926 L 453 926 L 289 0 L -16 0 L 147 926 Z M 11 1239 L 701 1239 L 660 1008 L -30 1008 L 11 1239 Z" unicode="ī" />
<glyph horiz-adv-x="553" d="M 133 -336 C 95 -336 62 -333 32 -328 C 2 -323 -23 -315 -45 -303 C -66 -291 -82 -275 -94 -255 C -105 -235 -111 -211 -111 -182 C -111 -153 -108 -127 -102 -105 C -96 -83 -87 -62 -75 -44 C -63 -25 -47 -7 -28 9 C -9 25 13 43 39 61 L 264 41 C 230 17 202 -2 182 -18 C 162 -33 146 -47 136 -59 C 125 -71 118 -82 115 -94 C 112 -105 111 -119 111 -135 C 111 -145 113 -154 119 -160 C 125 -166 136 -170 154 -170 C 174 -170 190 -167 201 -161 C 211 -155 221 -141 229 -121 L 412 -186 C 401 -206 389 -226 375 -244 C 361 -262 343 -277 322 -291 C 300 -305 274 -316 244 -324 C 213 -332 176 -336 133 -336 Z M 227 1282 L 555 1282 L 330 0 L 2 0 L 227 1282 Z" unicode="Į" />
<glyph horiz-adv-x="494" d="M 102 -336 C 64 -336 31 -333 1 -328 C -29 -323 -54 -315 -75 -303 C -96 -291 -112 -275 -124 -255 C -135 -235 -141 -211 -141 -182 C -141 -153 -138 -127 -132 -105 C -126 -83 -117 -62 -105 -44 C -93 -25 -77 -7 -59 9 C -40 25 -18 43 8 61 L 233 41 C 199 17 171 -2 151 -18 C 131 -33 115 -47 105 -59 C 94 -71 87 -82 84 -94 C 81 -105 80 -119 80 -135 C 80 -145 82 -154 88 -160 C 94 -166 105 -170 123 -170 C 143 -170 159 -167 170 -161 C 180 -155 190 -141 199 -121 L 381 -186 C 370 -206 358 -226 344 -244 C 330 -262 312 -277 291 -291 C 269 -305 243 -316 213 -324 C 182 -332 145 -336 102 -336 Z M 147 926 L 453 926 L 289 0 L -16 0 L 147 926 Z M 209 1282 L 514 1282 L 467 1008 L 162 1008 L 209 1282 Z" unicode="į" />
<glyph horiz-adv-x="553" d="M 227 1282 L 555 1282 L 330 0 L 2 0 L 227 1282 Z M 289 1617 L 615 1617 L 568 1343 L 242 1343 L 289 1617 Z" unicode="İ" />
<glyph horiz-adv-x="494" d="M 147 926 L 453 926 L 289 0 L -16 0 L 147 926 Z" unicode="ı" />
<glyph horiz-adv-x="1206" d="M 523 576 L 408 469 L 326 0 L -2 0 L 223 1282 L 551 1282 L 484 901 L 883 1282 L 1276 1282 L 783 821 L 1071 0 L 725 0 L 523 576 Z M 271 -406 C 295 -404 316 -402 334 -400 C 351 -398 365 -394 377 -388 C 388 -382 397 -375 403 -365 C 409 -355 413 -342 417 -326 L 286 -326 L 331 -68 L 624 -68 L 581 -326 C 573 -367 562 -402 550 -432 C 537 -462 518 -486 494 -505 C 469 -523 437 -537 397 -546 C 357 -554 306 -559 245 -559 L 271 -406 Z" unicode="Ķ" />
<glyph horiz-adv-x="913" d="M 398 381 L 343 331 L 285 0 L -20 0 L 217 1343 L 522 1343 L 408 699 L 647 926 L 989 926 L 642 606 L 825 0 L 512 0 L 398 381 Z M 126 -406 C 150 -404 171 -402 189 -400 C 206 -398 220 -394 232 -388 C 243 -382 252 -375 258 -365 C 264 -355 268 -342 272 -326 L 141 -326 L 186 -68 L 479 -68 L 436 -326 C 428 -367 417 -402 405 -432 C 392 -462 373 -486 349 -505 C 324 -523 292 -537 252 -546 C 212 -554 161 -559 100 -559 L 126 -406 Z" unicode="ķ" />
<glyph horiz-adv-x="991" d="M 223 1282 L 551 1282 L 375 281 L 911 281 L 862 0 L -2 0 L 223 1282 Z M 543 1597 L 904 1597 L 562 1343 L 228 1343 L 543 1597 Z" unicode="Ĺ" />
<glyph horiz-adv-x="494" d="M 530 1638 L 891 1638 L 537 1384 L 225 1384 L 530 1638 Z M 221 1343 L 526 1343 L 289 0 L -16 0 L 221 1343 Z" unicode="ĺ" />
<glyph horiz-adv-x="991" d="M 223 1282 L 551 1282 L 375 281 L 911 281 L 862 0 L -2 0 L 223 1282 Z M 165 -406 C 189 -404 210 -402 228 -400 C 245 -398 259 -394 271 -388 C 282 -382 291 -375 297 -365 C 303 -355 307 -342 311 -326 L 180 -326 L 225 -68 L 518 -68 L 475 -326 C 467 -367 456 -402 444 -432 C 431 -462 412 -486 388 -505 C 363 -523 331 -537 291 -546 C 251 -554 200 -559 139 -559 L 165 -406 Z" unicode="Ļ" />
<glyph horiz-adv-x="494" d="M 221 1343 L 526 1343 L 289 0 L -16 0 L 221 1343 Z M -84 -406 C -59 -404 -38 -402 -21 -400 C -3 -398 10 -394 22 -388 C 33 -382 42 -375 48 -365 C 54 -355 58 -342 62 -326 L -69 -326 L -24 -68 L 269 -68 L 226 -326 C 218 -367 207 -402 195 -432 C 182 -462 163 -486 139 -505 C 114 -523 82 -537 42 -546 C 2 -554 -48 -559 -110 -559 L -84 -406 Z" unicode="ļ" />
<glyph horiz-adv-x="991" d="M 223 1282 L 551 1282 L 375 281 L 911 281 L 862 0 L -2 0 L 223 1282 Z M 605 943 C 629 945 650 947 668 949 C 685 951 699 954 711 960 C 722 966 731 973 737 983 C 743 993 747 1006 751 1023 L 620 1023 L 665 1281 L 958 1281 L 915 1023 C 907 981 896 946 884 916 C 871 886 852 862 828 844 C 803 825 771 811 731 803 C 691 794 640 790 579 790 L 605 943 Z" unicode="Ľ" />
<glyph horiz-adv-x="758" d="M 221 1343 L 526 1343 L 289 0 L -16 0 L 221 1343 Z M 548 1005 C 572 1007 593 1009 611 1011 C 628 1013 642 1016 654 1022 C 665 1028 674 1035 680 1045 C 686 1055 690 1068 694 1085 L 563 1085 L 608 1343 L 901 1343 L 858 1085 C 850 1043 839 1008 827 978 C 814 948 795 924 771 906 C 746 887 714 873 674 865 C 634 856 583 852 522 852 L 548 1005 Z" unicode="ľ" />
<glyph horiz-adv-x="991" d="M 29 793 L 141 817 L 223 1282 L 551 1282 L 482 892 L 680 936 L 631 664 L 434 620 L 375 281 L 911 281 L 862 0 L -2 0 L 93 545 L -18 520 L 29 793 Z" unicode="Ł" />
<glyph horiz-adv-x="575" d="M 55 936 L 196 969 L 262 1343 L 567 1343 L 514 1045 L 655 1079 L 606 807 L 466 774 L 330 0 L 25 0 L 148 698 L 6 664 L 55 936 Z" unicode="ł" />
<glyph horiz-adv-x="1268" d="M 223 1282 L 602 1282 L 840 608 L 958 1282 L 1274 1282 L 1049 0 L 725 0 L 449 770 L 313 0 L -2 0 L 223 1282 Z M 861 1597 L 1222 1597 L 880 1343 L 546 1343 L 861 1597 Z" unicode="Ń" />
<glyph horiz-adv-x="1016" d="M 143 926 L 449 926 L 434 844 C 467 872 505 895 547 913 C 589 931 636 940 690 940 C 750 940 798 932 834 916 C 870 900 896 877 914 848 C 931 819 940 784 942 744 C 944 703 940 658 932 610 L 825 0 L 520 0 L 621 571 C 623 586 624 600 623 613 C 621 626 617 637 610 647 C 602 657 592 664 578 670 C 564 675 546 678 524 678 C 506 678 490 676 475 672 C 459 668 445 661 433 650 C 421 639 410 623 400 602 C 390 581 383 554 377 520 L 285 0 L -20 0 L 143 926 Z M 678 1262 L 1039 1262 L 697 1008 L 363 1008 L 678 1262 Z" unicode="ń" />
<glyph horiz-adv-x="1268" d="M 223 1282 L 602 1282 L 840 608 L 958 1282 L 1274 1282 L 1049 0 L 725 0 L 449 770 L 313 0 L -2 0 L 223 1282 Z M 302 -406 C 326 -404 347 -402 365 -400 C 382 -398 396 -394 408 -388 C 419 -382 428 -375 434 -365 C 440 -355 444 -342 448 -326 L 317 -326 L 362 -68 L 655 -68 L 612 -326 C 604 -367 593 -402 581 -432 C 568 -462 549 -486 525 -505 C 500 -523 468 -537 428 -546 C 388 -554 337 -559 276 -559 L 302 -406 Z" unicode="Ņ" />
<glyph horiz-adv-x="1016" d="M 143 926 L 449 926 L 434 844 C 467 872 505 895 547 913 C 589 931 636 940 690 940 C 750 940 798 932 834 916 C 870 900 896 877 914 848 C 931 819 940 784 942 744 C 944 703 940 658 932 610 L 825 0 L 520 0 L 621 571 C 623 586 624 600 623 613 C 621 626 617 637 610 647 C 602 657 592 664 578 670 C 564 675 546 678 524 678 C 506 678 490 676 475 672 C 459 668 445 661 433 650 C 421 639 410 623 400 602 C 390 581 383 554 377 520 L 285 0 L -20 0 L 143 926 Z M 177 -406 C 201 -404 222 -402 240 -400 C 257 -398 271 -394 283 -388 C 294 -382 303 -375 309 -365 C 315 -355 319 -342 323 -326 L 192 -326 L 237 -68 L 530 -68 L 487 -326 C 479 -367 468 -402 456 -432 C 443 -462 424 -486 400 -505 C 375 -523 343 -537 303 -546 C 263 -554 212 -559 151 -559 L 177 -406 Z" unicode="ņ" />
<glyph horiz-adv-x="1268" d="M 223 1282 L 602 1282 L 840 608 L 958 1282 L 1274 1282 L 1049 0 L 725 0 L 449 770 L 313 0 L -2 0 L 223 1282 Z M 419 1597 L 720 1597 L 786 1506 L 886 1597 L 1191 1597 L 937 1343 L 583 1343 L 419 1597 Z" unicode="Ň" />
<glyph horiz-adv-x="1016" d="M 143 926 L 449 926 L 434 844 C 467 872 505 895 547 913 C 589 931 636 940 690 940 C 750 940 798 932 834 916 C 870 900 896 877 914 848 C 931 819 940 784 942 744 C 944 703 940 658 932 610 L 825 0 L 520 0 L 621 571 C 623 586 624 600 623 613 C 621 626 617 637 610 647 C 602 657 592 664 578 670 C 564 675 546 678 524 678 C 506 678 490 676 475 672 C 459 668 445 661 433 650 C 421 639 410 623 400 602 C 390 581 383 554 377 520 L 285 0 L -20 0 L 143 926 Z M 236 1262 L 537 1262 L 603 1171 L 703 1262 L 1008 1262 L 754 1008 L 400 1008 L 236 1262 Z" unicode="ň" />
<glyph horiz-adv-x="1251" d="M 555 -8 C 455 -8 371 5 304 32 C 237 59 183 95 142 141 C 101 186 72 239 55 299 C 37 359 29 421 29 487 C 29 500 29 514 30 528 C 30 542 32 559 34 577 C 36 595 38 616 42 640 C 45 663 49 691 55 723 C 69 803 91 878 119 948 C 147 1018 186 1078 235 1129 C 284 1179 345 1219 418 1248 C 490 1277 578 1292 682 1292 C 789 1292 878 1279 949 1254 C 1020 1228 1077 1194 1119 1151 C 1161 1108 1190 1058 1207 1001 C 1224 944 1233 884 1233 821 C 1233 806 1232 791 1231 775 C 1230 759 1228 740 1226 720 C 1223 699 1219 676 1215 650 C 1211 624 1206 593 1200 559 C 1186 475 1163 398 1132 328 C 1100 258 1059 199 1007 149 C 955 99 891 61 817 33 C 743 5 655 -8 555 -8 Z M 582 266 C 615 266 646 269 676 277 C 705 285 732 300 756 322 C 780 344 802 376 821 416 C 840 456 856 509 868 575 C 874 608 879 636 883 660 C 887 683 890 703 892 719 C 894 735 895 749 896 760 C 896 771 897 781 897 791 C 897 831 892 865 882 893 C 872 921 858 943 838 961 C 818 978 794 990 765 998 C 736 1006 702 1010 664 1010 C 630 1010 599 1006 571 998 C 542 990 516 974 493 952 C 469 929 449 897 431 856 C 413 815 399 762 387 696 C 381 664 377 638 373 617 C 369 595 367 577 365 563 C 363 548 361 536 361 526 C 360 516 360 506 360 498 C 360 456 365 420 376 391 C 386 361 401 337 421 319 C 440 300 463 286 491 278 C 518 270 548 266 582 266 Z M 448 1574 L 1138 1574 L 1097 1343 L 407 1343 L 448 1574 Z" unicode="Ō" />
<glyph horiz-adv-x="965" d="M 408 -8 C 334 -8 271 2 219 22 C 167 42 124 70 91 105 C 58 140 34 181 19 227 C 3 273 -4 321 -4 373 C -4 381 -3 389 -3 398 C -3 407 -2 417 -1 429 C 0 441 1 454 3 470 C 5 486 8 504 12 526 C 23 588 41 645 65 696 C 89 747 121 791 160 827 C 199 863 246 890 301 910 C 356 930 420 940 492 940 C 572 940 639 930 693 911 C 747 891 790 865 823 832 C 856 799 880 760 894 716 C 908 672 915 625 915 575 C 915 565 914 555 914 545 C 913 535 912 523 911 510 C 909 497 907 482 905 465 C 902 447 899 427 895 403 C 884 341 865 284 839 234 C 812 184 778 141 737 105 C 695 69 647 41 592 21 C 536 1 475 -8 408 -8 Z M 428 248 C 450 248 470 251 487 257 C 504 263 519 273 532 289 C 545 305 556 326 566 352 C 576 378 584 411 592 451 C 596 472 598 492 600 510 C 601 528 602 544 602 559 C 602 602 592 633 573 651 C 553 669 521 678 475 678 C 452 678 432 675 416 669 C 399 663 384 653 372 638 C 359 622 348 601 339 575 C 330 548 322 514 315 473 C 311 455 309 439 308 425 C 307 410 307 396 307 383 C 307 335 317 301 337 280 C 357 258 388 248 428 248 Z M 246 1239 L 936 1239 L 895 1008 L 205 1008 L 246 1239 Z" unicode="ō" />
<glyph horiz-adv-x="1251" d="M 555 -8 C 455 -8 371 5 304 32 C 237 59 183 95 142 141 C 101 186 72 239 55 299 C 37 359 29 421 29 487 C 29 500 29 514 30 528 C 30 542 32 559 34 577 C 36 595 38 616 42 640 C 45 663 49 691 55 723 C 69 803 91 878 119 948 C 147 1018 186 1078 235 1129 C 284 1179 345 1219 418 1248 C 490 1277 578 1292 682 1292 C 789 1292 878 1279 949 1254 C 1020 1228 1077 1194 1119 1151 C 1161 1108 1190 1058 1207 1001 C 1224 944 1233 884 1233 821 C 1233 806 1232 791 1231 775 C 1230 759 1228 740 1226 720 C 1223 699 1219 676 1215 650 C 1211 624 1206 593 1200 559 C 1186 475 1163 398 1132 328 C 1100 258 1059 199 1007 149 C 955 99 891 61 817 33 C 743 5 655 -8 555 -8 Z M 582 266 C 615 266 646 269 676 277 C 705 285 732 300 756 322 C 780 344 802 376 821 416 C 840 456 856 509 868 575 C 874 608 879 636 883 660 C 887 683 890 703 892 719 C 894 735 895 749 896 760 C 896 771 897 781 897 791 C 897 831 892 865 882 893 C 872 921 858 943 838 961 C 818 978 794 990 765 998 C 736 1006 702 1010 664 1010 C 630 1010 599 1006 571 998 C 542 990 516 974 493 952 C 469 929 449 897 431 856 C 413 815 399 762 387 696 C 381 664 377 638 373 617 C 369 595 367 577 365 563 C 363 548 361 536 361 526 C 360 516 360 506 360 498 C 360 456 365 420 376 391 C 386 361 401 337 421 319 C 440 300 463 286 491 278 C 518 270 548 266 582 266 Z M 577 1617 L 880 1617 L 659 1343 L 382 1343 L 577 1617 Z M 925 1617 L 1228 1617 L 1007 1343 L 731 1343 L 925 1617 Z" unicode="Ő" />
<glyph horiz-adv-x="965" d="M 408 -8 C 334 -8 271 2 219 22 C 167 42 124 70 91 105 C 58 140 34 181 19 227 C 3 273 -4 321 -4 373 C -4 381 -3 389 -3 398 C -3 407 -2 417 -1 429 C 0 441 1 454 3 470 C 5 486 8 504 12 526 C 23 588 41 645 65 696 C 89 747 121 791 160 827 C 199 863 246 890 301 910 C 356 930 420 940 492 940 C 572 940 639 930 693 911 C 747 891 790 865 823 832 C 856 799 880 760 894 716 C 908 672 915 625 915 575 C 915 565 914 555 914 545 C 913 535 912 523 911 510 C 909 497 907 482 905 465 C 902 447 899 427 895 403 C 884 341 865 284 839 234 C 812 184 778 141 737 105 C 695 69 647 41 592 21 C 536 1 475 -8 408 -8 Z M 428 248 C 450 248 470 251 487 257 C 504 263 519 273 532 289 C 545 305 556 326 566 352 C 576 378 584 411 592 451 C 596 472 598 492 600 510 C 601 528 602 544 602 559 C 602 602 592 633 573 651 C 553 669 521 678 475 678 C 452 678 432 675 416 669 C 399 663 384 653 372 638 C 359 622 348 601 339 575 C 330 548 322 514 315 473 C 311 455 309 439 308 425 C 307 410 307 396 307 383 C 307 335 317 301 337 280 C 357 258 388 248 428 248 Z M 375 1282 L 678 1282 L 457 1008 L 180 1008 L 375 1282 Z M 723 1282 L 1026 1282 L 805 1008 L 529 1008 L 723 1282 Z" unicode="ő" />
<glyph horiz-adv-x="1839" d="M 555 -8 C 455 -8 371 5 304 32 C 237 59 183 95 142 141 C 101 186 72 239 55 299 C 37 359 29 421 29 487 C 29 500 29 514 30 528 C 30 542 32 559 34 577 C 36 595 38 616 42 640 C 45 663 49 691 55 723 C 69 803 91 878 119 948 C 147 1018 186 1078 235 1129 C 284 1179 345 1219 418 1248 C 490 1277 578 1292 682 1292 C 750 1292 811 1285 864 1272 C 916 1258 960 1237 995 1208 L 1010 1282 L 1874 1282 L 1825 999 L 1247 999 L 1219 827 L 1735 827 L 1683 549 L 1167 549 L 1120 281 L 1698 281 L 1649 0 L 784 0 L 799 68 C 785 56 768 45 750 36 C 731 26 711 18 690 12 C 668 5 646 0 623 -3 C 600 -6 577 -8 555 -8 Z M 582 266 C 615 266 646 269 675 277 C 704 285 731 300 755 322 C 779 344 801 376 820 416 C 839 456 855 509 868 575 C 874 608 879 636 883 660 C 887 683 890 703 892 719 C 894 735 895 749 896 760 C 896 771 897 781 897 791 C 897 831 892 865 882 893 C 872 921 858 943 838 961 C 818 978 794 990 765 998 C 736 1006 702 1010 664 1010 C 630 1010 599 1006 571 998 C 542 990 516 974 493 952 C 469 929 449 897 431 856 C 413 815 399 762 387 696 C 381 664 377 638 373 617 C 369 595 367 577 365 563 C 363 548 361 536 361 526 C 360 516 360 506 360 498 C 360 456 365 420 376 391 C 386 361 401 337 421 319 C 440 300 463 286 491 278 C 518 270 548 266 582 266 Z" unicode="Œ" />
<glyph horiz-adv-x="1516" d="M 983 -8 C 910 -8 850 0 803 17 C 755 33 718 57 690 89 C 656 57 616 33 570 17 C 524 0 470 -8 408 -8 C 334 -8 271 2 219 22 C 167 42 124 70 91 105 C 58 140 34 181 19 227 C 3 273 -4 321 -4 373 C -4 381 -3 389 -3 398 C -3 407 -2 417 -1 429 C 0 441 1 454 3 470 C 5 486 8 504 12 526 C 23 588 41 645 65 696 C 89 747 121 791 160 827 C 199 863 246 890 301 910 C 356 930 420 940 492 940 C 566 940 627 931 675 915 C 722 898 760 875 788 846 C 822 878 861 901 905 917 C 949 932 999 940 1055 940 C 1130 940 1194 931 1246 915 C 1298 899 1340 876 1372 848 C 1404 819 1428 785 1442 745 C 1456 705 1464 662 1464 616 C 1464 600 1463 583 1461 566 C 1459 548 1457 531 1454 514 L 1430 383 L 862 383 C 860 374 860 366 860 360 C 860 353 860 347 860 342 C 860 322 862 304 867 289 C 871 274 879 262 891 252 C 903 242 918 235 937 230 C 956 225 980 223 1008 223 C 1030 223 1048 224 1062 227 C 1076 229 1087 234 1095 240 C 1103 246 1110 255 1115 265 C 1119 275 1124 287 1130 301 L 1411 248 C 1401 216 1386 184 1367 154 C 1347 123 1321 96 1287 72 C 1253 48 1212 28 1162 14 C 1112 0 1053 -8 983 -8 Z M 428 248 C 450 248 470 251 487 257 C 504 263 519 273 532 289 C 545 305 556 326 566 352 C 576 378 584 411 592 451 C 596 472 598 492 600 510 C 601 528 602 544 602 559 C 602 602 592 633 573 651 C 553 669 521 678 475 678 C 452 678 432 675 416 669 C 399 663 384 653 372 638 C 359 622 348 601 339 575 C 330 548 322 514 315 473 C 311 455 309 439 308 425 C 307 410 307 396 307 383 C 307 335 317 301 337 280 C 357 258 388 248 428 248 Z M 1044 692 C 1020 692 1000 689 984 685 C 968 681 954 674 943 664 C 931 654 922 640 914 623 C 906 606 900 585 894 561 L 1168 561 C 1168 566 1169 571 1169 576 C 1169 580 1169 585 1169 590 C 1169 606 1167 621 1163 634 C 1159 646 1152 657 1143 666 C 1133 674 1120 681 1104 685 C 1088 689 1068 692 1044 692 Z" unicode="œ" />
<glyph horiz-adv-x="1206" d="M 598 457 L 406 457 L 326 0 L -2 0 L 223 1282 L 698 1282 C 771 1282 839 1276 902 1266 C 965 1256 1020 1238 1066 1212 C 1112 1186 1148 1152 1174 1108 C 1200 1064 1214 1008 1214 942 C 1214 874 1206 815 1191 765 C 1175 715 1154 671 1128 635 C 1102 598 1071 568 1036 544 C 1000 520 963 502 923 489 L 1071 0 L 735 0 L 598 457 Z M 684 719 C 712 719 738 721 762 726 C 786 731 806 740 824 753 C 841 766 854 784 864 806 C 874 828 879 857 879 891 C 879 934 861 965 827 983 C 792 1001 736 1010 659 1010 L 504 1010 L 453 719 L 684 719 Z M 831 1597 L 1192 1597 L 850 1343 L 516 1343 L 831 1597 Z" unicode="Ŕ" />
<glyph horiz-adv-x="672" d="M 143 926 L 453 926 L 436 834 C 470 862 510 885 558 904 C 605 922 654 932 705 932 L 659 670 C 616 670 578 667 546 663 C 514 658 486 649 463 635 C 439 621 420 602 406 578 C 392 554 381 522 375 483 L 289 0 L -20 0 L 143 926 Z M 500 1262 L 861 1262 L 519 1008 L 185 1008 L 500 1262 Z" unicode="ŕ" />
<glyph horiz-adv-x="1206" d="M 598 457 L 406 457 L 326 0 L -2 0 L 223 1282 L 698 1282 C 771 1282 839 1276 902 1266 C 965 1256 1020 1238 1066 1212 C 1112 1186 1148 1152 1174 1108 C 1200 1064 1214 1008 1214 942 C 1214 874 1206 815 1191 765 C 1175 715 1154 671 1128 635 C 1102 598 1071 568 1036 544 C 1000 520 963 502 923 489 L 1071 0 L 735 0 L 598 457 Z M 684 719 C 712 719 738 721 762 726 C 786 731 806 740 824 753 C 841 766 854 784 864 806 C 874 828 879 857 879 891 C 879 934 861 965 827 983 C 792 1001 736 1010 659 1010 L 504 1010 L 453 719 L 684 719 Z M 271 -406 C 295 -404 316 -402 334 -400 C 351 -398 365 -394 377 -388 C 388 -382 397 -375 403 -365 C 409 -355 413 -342 417 -326 L 286 -326 L 331 -68 L 624 -68 L 581 -326 C 573 -367 562 -402 550 -432 C 537 -462 518 -486 494 -505 C 469 -523 437 -537 397 -546 C 357 -554 306 -559 245 -559 L 271 -406 Z" unicode="Ŗ" />
<glyph horiz-adv-x="672" d="M 143 926 L 453 926 L 436 834 C 470 862 510 885 558 904 C 605 922 654 932 705 932 L 659 670 C 616 670 578 667 546 663 C 514 658 486 649 463 635 C 439 621 420 602 406 578 C 392 554 381 522 375 483 L 289 0 L -20 0 L 143 926 Z M -82 -406 C -57 -404 -36 -402 -19 -400 C -1 -398 12 -394 24 -388 C 35 -382 44 -375 50 -365 C 56 -355 60 -342 64 -326 L -67 -326 L -22 -68 L 271 -68 L 228 -326 C 220 -367 209 -402 197 -432 C 184 -462 165 -486 141 -505 C 116 -523 84 -537 44 -546 C 4 -554 -46 -559 -108 -559 L -82 -406 Z" unicode="ŗ" />
<glyph horiz-adv-x="1206" d="M 598 457 L 406 457 L 326 0 L -2 0 L 223 1282 L 698 1282 C 771 1282 839 1276 902 1266 C 965 1256 1020 1238 1066 1212 C 1112 1186 1148 1152 1174 1108 C 1200 1064 1214 1008 1214 942 C 1214 874 1206 815 1191 765 C 1175 715 1154 671 1128 635 C 1102 598 1071 568 1036 544 C 1000 520 963 502 923 489 L 1071 0 L 735 0 L 598 457 Z M 684 719 C 712 719 738 721 762 726 C 786 731 806 740 824 753 C 841 766 854 784 864 806 C 874 828 879 857 879 891 C 879 934 861 965 827 983 C 792 1001 736 1010 659 1010 L 504 1010 L 453 719 L 684 719 Z M 389 1597 L 690 1597 L 756 1506 L 856 1597 L 1161 1597 L 907 1343 L 553 1343 L 389 1597 Z" unicode="Ř" />
<glyph horiz-adv-x="672" d="M 143 926 L 453 926 L 436 834 C 470 862 510 885 558 904 C 605 922 654 932 705 932 L 659 670 C 616 670 578 667 546 663 C 514 658 486 649 463 635 C 439 621 420 602 406 578 C 392 554 381 522 375 483 L 289 0 L -20 0 L 143 926 Z M 58 1262 L 359 1262 L 425 1171 L 525 1262 L 830 1262 L 576 1008 L 222 1008 L 58 1262 Z" unicode="ř" />
<glyph horiz-adv-x="1180" d="M 571 -8 C 487 -8 415 -3 354 7 C 293 17 241 31 199 49 C 157 67 122 89 96 115 C 69 141 48 169 33 200 C 18 231 8 265 2 301 C -4 337 -7 374 -8 414 L 346 451 C 344 424 345 399 347 377 C 349 355 358 336 374 320 C 390 304 414 291 448 283 C 481 274 528 270 588 270 C 645 270 689 277 721 293 C 752 309 768 337 768 377 C 768 397 761 415 748 429 C 734 443 716 456 694 467 C 671 477 645 487 615 496 C 585 504 553 513 520 522 C 490 530 459 538 428 548 C 396 558 366 569 337 582 C 307 594 280 609 254 626 C 228 642 206 662 187 685 C 167 707 152 733 141 763 C 130 793 125 827 125 866 C 125 930 135 989 156 1041 C 176 1093 208 1138 251 1175 C 294 1212 349 1241 416 1261 C 482 1281 561 1292 653 1292 C 751 1292 833 1282 898 1264 C 963 1246 1016 1220 1056 1188 C 1096 1156 1125 1117 1143 1073 C 1161 1028 1173 980 1178 928 L 811 883 C 811 902 810 919 807 935 C 804 951 796 964 784 975 C 771 986 752 995 727 1001 C 701 1007 667 1010 623 1010 C 566 1010 525 1002 500 988 C 475 973 463 949 463 915 C 463 899 468 885 479 873 C 489 861 504 851 523 842 C 542 833 564 825 590 817 C 615 809 642 802 672 795 C 703 786 735 777 769 767 C 803 757 836 745 868 732 C 900 718 930 703 958 685 C 986 667 1011 645 1033 620 C 1055 595 1072 566 1085 533 C 1097 500 1104 462 1104 420 C 1104 345 1089 281 1061 227 C 1033 173 994 128 946 94 C 898 59 841 33 777 17 C 712 0 643 -8 571 -8 Z M 818 1597 L 1179 1597 L 837 1343 L 503 1343 L 818 1597 Z" unicode="Ś" />
<glyph horiz-adv-x="911" d="M 418 -8 C 342 -8 275 -4 218 4 C 161 12 113 24 75 42 C 36 59 6 82 -15 110 C -37 138 -51 173 -57 215 L 264 295 C 264 280 266 267 268 256 C 270 245 276 236 286 229 C 295 221 309 216 328 212 C 346 208 372 207 406 207 C 445 207 472 211 487 221 C 502 231 510 246 510 268 C 510 276 508 283 504 289 C 500 295 494 300 484 306 C 474 312 461 317 444 323 C 426 329 404 336 377 344 C 331 356 288 370 248 385 C 208 399 174 417 145 437 C 116 457 93 480 77 508 C 61 536 53 569 53 608 C 53 650 60 690 75 730 C 89 770 113 805 145 836 C 177 867 220 892 272 911 C 324 930 389 940 465 940 C 541 940 606 933 658 920 C 710 906 753 889 785 867 C 817 845 841 821 857 794 C 873 766 883 739 887 711 L 573 621 C 574 637 574 650 572 661 C 570 671 566 680 558 687 C 550 694 539 699 524 702 C 509 705 489 707 465 707 C 445 707 430 705 418 702 C 406 698 396 694 389 689 C 382 683 377 677 375 669 C 372 661 371 653 371 645 C 371 637 373 630 377 624 C 381 618 389 612 401 606 C 412 600 428 594 448 588 C 468 582 494 574 526 565 C 568 553 608 540 645 526 C 682 512 714 496 742 478 C 769 459 790 437 806 411 C 821 385 829 353 829 317 C 829 271 822 230 809 196 C 796 162 779 133 758 109 C 736 85 711 65 683 50 C 655 34 625 22 595 14 C 565 6 534 0 504 -3 C 473 -6 444 -8 418 -8 Z M 625 1262 L 986 1262 L 644 1008 L 310 1008 L 625 1262 Z" unicode="ś" />
<glyph horiz-adv-x="592" d="M 221 465 L 76 926 L 399 926 L 545 465 L 236 0 L -88 0 L 221 465 Z" unicode="›" />
<glyph horiz-adv-x="1180" d="M 571 -8 C 487 -8 415 -3 354 7 C 293 17 241 31 199 49 C 157 67 122 89 96 115 C 69 141 48 169 33 200 C 18 231 8 265 2 301 C -4 337 -7 374 -8 414 L 346 451 C 344 424 345 399 347 377 C 349 355 358 336 374 320 C 390 304 414 291 448 283 C 481 274 528 270 588 270 C 645 270 689 277 721 293 C 752 309 768 337 768 377 C 768 397 761 415 748 429 C 734 443 716 456 694 467 C 671 477 645 487 615 496 C 585 504 553 513 520 522 C 490 530 459 538 428 548 C 396 558 366 569 337 582 C 307 594 280 609 254 626 C 228 642 206 662 187 685 C 167 707 152 733 141 763 C 130 793 125 827 125 866 C 125 930 135 989 156 1041 C 176 1093 208 1138 251 1175 C 294 1212 349 1241 416 1261 C 482 1281 561 1292 653 1292 C 751 1292 833 1282 898 1264 C 963 1246 1016 1220 1056 1188 C 1096 1156 1125 1117 1143 1073 C 1161 1028 1173 980 1178 928 L 811 883 C 811 902 810 919 807 935 C 804 951 796 964 784 975 C 771 986 752 995 727 1001 C 701 1007 667 1010 623 1010 C 566 1010 525 1002 500 988 C 475 973 463 949 463 915 C 463 899 468 885 479 873 C 489 861 504 851 523 842 C 542 833 564 825 590 817 C 615 809 642 802 672 795 C 703 786 735 777 769 767 C 803 757 836 745 868 732 C 900 718 930 703 958 685 C 986 667 1011 645 1033 620 C 1055 595 1072 566 1085 533 C 1097 500 1104 462 1104 420 C 1104 345 1089 281 1061 227 C 1033 173 994 128 946 94 C 898 59 841 33 777 17 C 712 0 643 -8 571 -8 Z M 467 -399 C 381 -399 314 -389 266 -369 C 217 -349 189 -319 182 -279 L 368 -217 C 369 -227 371 -236 374 -244 C 377 -251 381 -257 387 -261 C 393 -265 400 -269 410 -271 C 420 -273 432 -274 448 -274 C 476 -274 497 -269 509 -260 C 521 -251 528 -234 528 -209 C 528 -190 523 -176 513 -168 C 503 -160 485 -156 460 -156 C 448 -156 435 -157 421 -160 C 407 -162 396 -166 387 -170 L 274 -117 L 389 41 L 565 41 L 501 -51 C 509 -49 518 -48 527 -48 C 535 -47 544 -47 553 -47 C 573 -47 594 -49 614 -53 C 634 -57 651 -65 667 -75 C 682 -85 694 -98 704 -114 C 713 -130 718 -151 718 -176 C 718 -216 712 -250 701 -278 C 689 -306 673 -329 652 -347 C 630 -365 604 -378 573 -386 C 542 -394 507 -399 467 -399 Z" unicode="Ş" />
<glyph horiz-adv-x="911" d="M 418 -8 C 342 -8 275 -4 218 4 C 161 12 113 24 75 42 C 36 59 6 82 -15 110 C -37 138 -51 173 -57 215 L 264 295 C 264 280 266 267 268 256 C 270 245 276 236 286 229 C 295 221 309 216 328 212 C 346 208 372 207 406 207 C 445 207 472 211 487 221 C 502 231 510 246 510 268 C 510 276 508 283 504 289 C 500 295 494 300 484 306 C 474 312 461 317 444 323 C 426 329 404 336 377 344 C 331 356 288 370 248 385 C 208 399 174 417 145 437 C 116 457 93 480 77 508 C 61 536 53 569 53 608 C 53 650 60 690 75 730 C 89 770 113 805 145 836 C 177 867 220 892 272 911 C 324 930 389 940 465 940 C 541 940 606 933 658 920 C 710 906 753 889 785 867 C 817 845 841 821 857 794 C 873 766 883 739 887 711 L 573 621 C 574 637 574 650 572 661 C 570 671 566 680 558 687 C 550 694 539 699 524 702 C 509 705 489 707 465 707 C 445 707 430 705 418 702 C 406 698 396 694 389 689 C 382 683 377 677 375 669 C 372 661 371 653 371 645 C 371 637 373 630 377 624 C 381 618 389 612 401 606 C 412 600 428 594 448 588 C 468 582 494 574 526 565 C 568 553 608 540 645 526 C 682 512 714 496 742 478 C 769 459 790 437 806 411 C 821 385 829 353 829 317 C 829 271 822 230 809 196 C 796 162 779 133 758 109 C 736 85 711 65 683 50 C 655 34 625 22 595 14 C 565 6 534 0 504 -3 C 473 -6 444 -8 418 -8 Z M 333 -399 C 247 -399 180 -389 132 -369 C 83 -349 55 -319 48 -279 L 234 -217 C 235 -227 237 -236 240 -244 C 243 -251 247 -257 253 -261 C 259 -265 266 -269 276 -271 C 286 -273 298 -274 314 -274 C 342 -274 363 -269 375 -260 C 387 -251 394 -234 394 -209 C 394 -190 389 -176 379 -168 C 369 -160 351 -156 326 -156 C 314 -156 301 -157 287 -160 C 273 -162 262 -166 253 -170 L 140 -117 L 255 41 L 431 41 L 367 -51 C 375 -49 384 -48 393 -48 C 401 -47 410 -47 419 -47 C 439 -47 460 -49 480 -53 C 500 -57 517 -65 533 -75 C 548 -85 560 -98 570 -114 C 579 -130 584 -151 584 -176 C 584 -216 578 -250 567 -278 C 555 -306 539 -329 518 -347 C 496 -365 470 -378 439 -386 C 408 -394 373 -399 333 -399 Z" unicode="ş" />
<glyph horiz-adv-x="1180" d="M 571 -8 C 487 -8 415 -3 354 7 C 293 17 241 31 199 49 C 157 67 122 89 96 115 C 69 141 48 169 33 200 C 18 231 8 265 2 301 C -4 337 -7 374 -8 414 L 346 451 C 344 424 345 399 347 377 C 349 355 358 336 374 320 C 390 304 414 291 448 283 C 481 274 528 270 588 270 C 645 270 689 277 721 293 C 752 309 768 337 768 377 C 768 397 761 415 748 429 C 734 443 716 456 694 467 C 671 477 645 487 615 496 C 585 504 553 513 520 522 C 490 530 459 538 428 548 C 396 558 366 569 337 582 C 307 594 280 609 254 626 C 228 642 206 662 187 685 C 167 707 152 733 141 763 C 130 793 125 827 125 866 C 125 930 135 989 156 1041 C 176 1093 208 1138 251 1175 C 294 1212 349 1241 416 1261 C 482 1281 561 1292 653 1292 C 751 1292 833 1282 898 1264 C 963 1246 1016 1220 1056 1188 C 1096 1156 1125 1117 1143 1073 C 1161 1028 1173 980 1178 928 L 811 883 C 811 902 810 919 807 935 C 804 951 796 964 784 975 C 771 986 752 995 727 1001 C 701 1007 667 1010 623 1010 C 566 1010 525 1002 500 988 C 475 973 463 949 463 915 C 463 899 468 885 479 873 C 489 861 504 851 523 842 C 542 833 564 825 590 817 C 615 809 642 802 672 795 C 703 786 735 777 769 767 C 803 757 836 745 868 732 C 900 718 930 703 958 685 C 986 667 1011 645 1033 620 C 1055 595 1072 566 1085 533 C 1097 500 1104 462 1104 420 C 1104 345 1089 281 1061 227 C 1033 173 994 128 946 94 C 898 59 841 33 777 17 C 712 0 643 -8 571 -8 Z M 376 1597 L 677 1597 L 743 1506 L 843 1597 L 1148 1597 L 894 1343 L 540 1343 L 376 1597 Z" unicode="Š" />
<glyph horiz-adv-x="911" d="M 418 -8 C 342 -8 275 -4 218 4 C 161 12 113 24 75 42 C 36 59 6 82 -15 110 C -37 138 -51 173 -57 215 L 264 295 C 264 280 266 267 268 256 C 270 245 276 236 286 229 C 295 221 309 216 328 212 C 346 208 372 207 406 207 C 445 207 472 211 487 221 C 502 231 510 246 510 268 C 510 276 508 283 504 289 C 500 295 494 300 484 306 C 474 312 461 317 444 323 C 426 329 404 336 377 344 C 331 356 288 370 248 385 C 208 399 174 417 145 437 C 116 457 93 480 77 508 C 61 536 53 569 53 608 C 53 650 60 690 75 730 C 89 770 113 805 145 836 C 177 867 220 892 272 911 C 324 930 389 940 465 940 C 541 940 606 933 658 920 C 710 906 753 889 785 867 C 817 845 841 821 857 794 C 873 766 883 739 887 711 L 573 621 C 574 637 574 650 572 661 C 570 671 566 680 558 687 C 550 694 539 699 524 702 C 509 705 489 707 465 707 C 445 707 430 705 418 702 C 406 698 396 694 389 689 C 382 683 377 677 375 669 C 372 661 371 653 371 645 C 371 637 373 630 377 624 C 381 618 389 612 401 606 C 412 600 428 594 448 588 C 468 582 494 574 526 565 C 568 553 608 540 645 526 C 682 512 714 496 742 478 C 769 459 790 437 806 411 C 821 385 829 353 829 317 C 829 271 822 230 809 196 C 796 162 779 133 758 109 C 736 85 711 65 683 50 C 655 34 625 22 595 14 C 565 6 534 0 504 -3 C 473 -6 444 -8 418 -8 Z M 183 1262 L 484 1262 L 550 1171 L 650 1262 L 955 1262 L 701 1008 L 347 1008 L 183 1262 Z" unicode="š" />
<glyph horiz-adv-x="1069" d="M 436 999 L 84 999 L 133 1282 L 1165 1282 L 1116 999 L 764 999 L 588 0 L 260 0 L 436 999 Z M 204 -406 C 228 -404 249 -402 267 -400 C 284 -398 298 -394 310 -388 C 321 -382 330 -375 336 -365 C 342 -355 346 -342 350 -326 L 219 -326 L 264 -68 L 557 -68 L 514 -326 C 506 -367 495 -402 483 -432 C 470 -462 451 -486 427 -505 C 402 -523 370 -537 330 -546 C 290 -554 239 -559 178 -559 L 204 -406 Z" unicode="Ţ" />
<glyph horiz-adv-x="717" d="M 61 926 L 215 926 L 260 1180 L 565 1180 L 520 926 L 715 926 L 666 653 L 472 653 L 422 369 C 418 348 417 331 417 318 C 417 304 420 294 426 286 C 432 278 441 272 453 269 C 465 265 480 264 500 264 L 598 264 L 551 0 L 432 0 C 354 0 291 6 244 20 C 197 33 162 53 139 81 C 116 109 103 144 100 186 C 97 228 101 279 111 338 L 166 653 L 12 653 L 61 926 Z M -3 -406 C 21 -404 42 -402 60 -400 C 77 -398 91 -394 103 -388 C 114 -382 123 -375 129 -365 C 135 -355 139 -342 143 -326 L 12 -326 L 57 -68 L 350 -68 L 307 -326 C 299 -367 288 -402 276 -432 C 263 -462 244 -486 220 -505 C 195 -523 163 -537 123 -546 C 83 -554 32 -559 -29 -559 L -3 -406 Z" unicode="ţ" />
<glyph horiz-adv-x="1069" d="M 436 999 L 84 999 L 133 1282 L 1165 1282 L 1116 999 L 764 999 L 588 0 L 260 0 L 436 999 Z M 321 1597 L 622 1597 L 688 1506 L 788 1597 L 1093 1597 L 839 1343 L 485 1343 L 321 1597 Z" unicode="Ť" />
<glyph horiz-adv-x="717" d="M 61 926 L 215 926 L 260 1180 L 565 1180 L 520 926 L 715 926 L 666 653 L 472 653 L 422 369 C 418 348 417 331 417 318 C 417 304 420 294 426 286 C 432 278 441 272 453 269 C 465 265 480 264 500 264 L 598 264 L 551 0 L 432 0 C 354 0 291 6 244 20 C 197 33 162 53 139 81 C 116 109 103 144 100 186 C 97 228 101 279 111 338 L 166 653 L 12 653 L 61 926 Z M 613 1179 C 637 1181 658 1183 676 1185 C 693 1187 707 1190 719 1196 C 730 1202 739 1209 745 1219 C 751 1229 755 1242 759 1259 L 628 1259 L 673 1517 L 966 1517 L 923 1259 C 915 1217 904 1182 892 1152 C 879 1122 860 1098 836 1080 C 811 1061 779 1047 739 1039 C 699 1030 648 1026 587 1026 L 613 1179 Z" unicode="ť" />
<glyph horiz-adv-x="1251" d="M 596 -8 C 487 -8 396 1 323 20 C 249 38 192 67 150 106 C 108 145 81 195 69 255 C 57 315 58 387 74 471 L 217 1282 L 545 1282 L 401 461 C 395 431 393 404 393 380 C 393 356 399 335 412 318 C 424 301 445 288 475 279 C 504 270 546 266 600 266 C 636 266 665 270 689 280 C 712 289 731 302 746 319 C 760 336 771 356 779 380 C 787 404 793 430 799 459 L 944 1282 L 1264 1282 L 1114 438 C 1099 354 1077 283 1049 226 C 1020 169 984 123 942 89 C 899 54 849 29 791 14 C 733 0 668 -8 596 -8 Z M 448 1574 L 1138 1574 L 1097 1343 L 407 1343 L 448 1574 Z" unicode="Ū" />
</font>
</defs>
</svg>
